<svg width="456" height="683" viewBox="0 0 456 683" fill="none" xmlns="http://www.w3.org/2000/svg">
<path d="M31.8573 390.548C31.8736 390.56 31.8956 390.561 31.913 390.551C33.5577 389.573 35.1632 388.55 36.6998 387.392C37.771 386.592 37.909 384.94 37.0839 383.923C36.6806 383.421 36.0885 383.095 35.4487 383.008V383.008C35.2618 382.98 35.1472 382.77 35.2589 382.617C35.7489 381.949 36.2488 381.281 36.7504 380.625C37.6277 379.486 38.499 378.355 39.3722 377.222C40.1166 376.256 41.5262 376.171 42.4098 377.011V377.011C44.4871 379.032 46.5644 381.053 48.6555 383.056C50.9991 385.318 53.3682 387.643 56.0614 389.475C56.7578 389.95 57.5528 390.197 58.409 390.072C59.2652 389.947 59.9935 389.511 60.4878 388.828C60.982 388.146 61.2057 387.306 61.0854 386.482C61.0028 385.917 60.7796 385.406 60.4181 384.964C60.075 384.536 59.6492 384.219 59.1383 383.997L58.87 383.855C57.6047 383.1 56.4337 382.2 55.2649 381.315C54.7095 380.902 54.1979 380.449 53.6724 380.015C53.221 379.636 52.7558 379.275 52.3044 378.896C49.9084 376.839 47.54 374.745 45.1715 372.651V372.651C44.4122 371.966 44.3075 370.798 44.9317 369.988C47.4358 366.739 49.952 363.499 52.4683 360.259C53.4411 359.012 53.1167 357.13 51.8762 356.207C51.2468 355.738 50.4797 355.57 49.7528 355.676C49.0258 355.783 48.3066 356.168 47.8214 356.8C45.3253 360.008 42.8442 363.227 40.3526 366.45C39.9209 367.008 39.1122 367.068 38.5933 366.589V366.589C37.7134 365.762 36.8334 364.934 35.9511 364.09C35.3005 363.476 34.6474 362.846 33.9806 362.235C33.0983 361.391 32.1171 360.661 31.1634 359.893C30.7144 359.53 30.1022 359.405 29.5368 359.488C29.149 359.545 28.7593 359.701 28.4645 359.941C27.7252 360.528 27.3525 361.703 27.8101 362.576C28.2188 363.341 28.6275 364.105 29.1261 364.807V364.807C29.8951 365.91 31.5176 366.173 32.4631 367.129C33.721 368.4 34.9843 369.67 36.2481 370.94C36.4445 371.138 36.4666 371.449 36.3002 371.672V371.672C34.8997 373.493 33.4855 375.332 32.085 377.152C31.2388 378.248 30.4481 379.386 29.6412 380.526C28.8481 381.648 28.0921 382.797 27.3545 383.96C26.5918 385.176 25.9586 386.488 25.2699 387.759C25.0912 388.231 25.0281 388.702 25.1012 389.202C25.2073 389.928 25.5995 390.58 26.192 391.021C26.5252 391.269 26.8655 391.565 27.2492 391.707C27.5451 391.812 27.8548 391.899 28.1597 391.953C28.4922 391.971 28.8362 391.953 29.1754 391.904C30.1695 391.791 30.9974 391.091 31.7992 390.547C31.8169 390.535 31.8401 390.535 31.8573 390.548V390.548Z" fill="#41E0EB"/>
<path d="M118.801 362.205C118.799 362.196 118.791 362.19 118.782 362.191C118.752 362.195 118.689 362.205 118.653 362.21C112.671 363.727 106.782 365.544 100.874 367.347C95.5506 368.966 90.2339 370.633 84.901 372.302C82.2345 373.137 79.5681 373.972 76.9016 374.807C76.3019 374.993 75.7844 375.63 75.5691 376.189C75.3148 376.819 75.3216 377.544 75.5937 378.163C75.8634 378.767 76.3636 379.254 76.9762 379.495C77.6605 379.774 78.2744 379.684 78.9525 379.47C91.2307 375.647 103.499 371.761 115.866 368.206C117.04 367.886 118.215 367.566 119.391 367.262C120.074 367.08 120.618 366.852 121.062 366.276C121.462 365.74 121.626 365.056 121.529 364.394C121.433 363.733 121.08 363.125 120.543 362.725C120.084 362.384 119.413 362.138 118.819 362.219C118.81 362.22 118.802 362.214 118.801 362.205V362.205ZM115.956 368.143C115.956 368.143 115.956 368.143 115.956 368.143C116.124 368.087 116.294 368.046 116.462 367.99C116.472 367.987 116.483 367.984 116.493 367.982V367.982C116.307 368.026 116.138 368.082 115.955 368.141C115.954 368.141 115.954 368.144 115.956 368.143V368.143Z" fill="#41E0EB"/>
<path d="M147.769 362.851C147.759 362.843 147.744 362.844 147.734 362.854C146.86 363.719 145.971 364.586 145.097 365.451C144.259 366.266 143.421 367.081 142.602 367.909C141.982 368.528 141.384 369.175 140.841 369.865C140.623 370.177 140.439 370.501 140.258 370.84C140.049 371.217 139.859 371.608 139.65 371.984C139.324 372.576 139.419 373.452 139.686 374.04C139.981 374.706 140.486 375.11 141.126 375.429C141.589 375.658 142.037 375.675 142.533 375.685V375.685C142.995 375.683 143.469 375.68 143.89 375.492C144.09 375.403 144.278 375.287 144.45 375.141C144.969 374.735 145.306 374.109 145.392 373.453V373.453C145.439 373.133 145.529 372.808 145.74 372.562V372.562C146.879 371.439 148.093 370.371 149.251 369.262C150.321 368.232 151.373 367.188 152.443 366.158C153.585 365.051 154.725 363.929 155.883 362.82C156.304 362.407 156.726 361.997 157.148 361.588C158.015 360.746 159.332 360.587 160.38 361.19V361.19C165.82 364.319 171.288 367.41 176.714 370.558C176.947 370.688 177.181 370.819 177.415 370.95C177.939 371.154 178.478 371.223 179.043 371.141C179.867 371.02 180.611 370.582 181.108 369.916C182.101 368.583 181.878 366.489 180.466 365.525C175.297 361.994 169.887 358.844 164.532 355.621V355.621C164.148 355.378 164.086 354.85 164.412 354.534C166.118 352.881 167.815 351.239 169.524 349.583C170.072 349.041 170.472 348.504 170.571 347.715C170.659 346.96 170.446 346.183 169.962 345.578C169.498 345.003 168.816 344.625 168.093 344.532C167.841 344.503 167.562 344.511 167.287 344.551C166.786 344.624 166.302 344.811 165.954 345.142V345.142C161.682 349.267 155.189 350.028 150.095 346.975C148.608 346.083 147.121 345.192 145.636 344.303V344.303C145.125 344.01 144.594 343.724 144.01 343.649C143.697 343.608 143.377 343.61 143.051 343.658C142.13 343.793 141.296 344.294 140.744 345.034C140.192 345.774 139.95 346.716 140.084 347.636C140.207 348.476 140.702 349.491 141.461 349.941C144.809 351.943 148.158 353.957 151.516 355.962C152.554 356.582 152.721 358.015 151.855 358.858V358.858C150.503 360.172 149.155 361.518 147.804 362.849C147.795 362.858 147.78 362.859 147.769 362.851V362.851Z" fill="#41E0EB"/>
<path d="M255.612 344.842C255.617 344.846 255.623 344.848 255.63 344.849C255.711 344.854 255.808 344.871 255.888 344.875C257.724 345.019 259.412 343.816 259.651 341.951C259.858 340.206 258.56 338.319 256.726 338.191C255.809 338.127 254.925 338.174 254.037 338.304C253.81 338.337 253.584 338.37 253.358 338.403C252.267 338.612 251.205 338.915 250.14 339.186C249.344 339.385 248.534 339.602 247.74 339.817C246.326 340.189 244.928 340.558 243.514 340.93C240.335 341.757 237.156 342.584 233.958 343.398C226.735 345.228 219.491 347.029 212.242 348.797C206.38 350.23 200.515 351.648 194.634 353.068C193.806 353.271 193.139 353.567 192.615 354.27C192.132 354.917 191.923 355.739 192.04 356.546C192.158 357.354 192.595 358.081 193.243 358.563C193.854 359.018 194.771 359.313 195.521 359.137C211.175 355.382 226.836 351.561 242.487 347.79C243.971 347.441 245.452 347.076 246.935 346.727C248.163 346.433 249.39 346.138 250.634 345.841C252.272 345.453 253.917 344.999 255.589 344.836C255.597 344.835 255.605 344.837 255.612 344.842V344.842Z" fill="#41E0EB"/>
<path d="M270.933 343.896C270.917 343.899 270.903 343.907 270.894 343.92C270.472 344.487 270.102 345.079 269.734 345.687C269.362 346.302 269.027 346.945 268.726 347.599C268.442 348.25 268.299 348.963 268.135 349.647C268.094 350.048 268.151 350.436 268.305 350.809C268.53 351.337 268.97 351.75 269.497 351.97C270.584 352.405 271.977 351.888 272.386 350.74C272.586 350.183 272.789 349.659 273.058 349.125C274.053 347.463 275.225 345.89 276.421 344.364V344.364C276.947 343.689 277.953 343.669 278.519 344.31C278.587 344.386 278.655 344.463 278.724 344.538C279.375 345.268 280.088 345.971 280.783 346.661C281.635 347.526 282.559 348.314 283.469 349.121C283.79 349.403 284.174 349.661 284.526 349.922C284.878 350.184 285.227 350.43 285.593 350.673C286.833 351.481 288.11 352.201 289.428 352.866C290.034 353.173 290.848 353.104 291.436 352.836C292.057 352.564 292.542 352.048 292.799 351.434C293.067 350.785 293.042 350.046 292.77 349.427C292.474 348.761 291.991 348.386 291.366 348.065C291.098 347.923 290.813 347.784 290.545 347.641C289.93 347.27 289.315 346.898 288.713 346.508C288.003 346.051 287.35 345.536 286.668 345.043C286.353 344.808 286.047 344.523 285.746 344.271C285.427 344.004 285.11 343.754 284.806 343.485C284.14 342.873 283.473 342.262 282.808 341.666C282.074 340.933 281.324 340.202 280.59 339.468V339.468C280.522 339.393 280.519 339.279 280.583 339.201C281.178 338.478 281.787 337.754 282.413 337.042C283.557 335.755 284.677 334.45 285.84 333.177C286.362 332.605 287.225 332.53 287.991 332.419V332.419C288.524 332.341 289.172 332.032 289.447 331.546C289.948 330.682 290.414 329.806 290.88 328.93C291.242 328.25 291.02 327.294 290.557 326.718C290.051 326.083 289.252 325.805 288.492 325.915C288.298 325.944 288.107 325.988 287.939 326.079C287.505 326.274 287.051 326.439 286.617 326.635C285.983 326.925 285.408 327.388 284.88 327.845C283.911 328.662 283.078 329.625 282.222 330.541C281.47 331.377 280.699 332.198 279.946 333.034C279.208 333.85 278.471 334.683 277.717 335.503V335.503C277.493 335.771 277.085 335.783 276.845 335.529C276.468 335.129 276.091 334.733 275.713 334.328C275.34 333.921 274.954 333.532 274.581 333.125C274.015 332.532 273.448 331.922 272.869 331.348C272.542 331.033 272.218 330.734 271.862 330.44C271.563 330.203 271.177 330.045 270.837 329.864C270.534 329.71 270.181 329.663 269.842 329.713C269.292 329.793 268.76 330.101 268.443 330.527C267.877 331.286 267.952 332.247 268.49 332.993C268.886 333.562 269.28 334.114 269.709 334.678V334.678C270.248 335.427 271.231 335.776 271.821 336.486C272.027 336.733 272.233 336.982 272.442 337.23C273.056 337.931 273.656 338.651 274.27 339.353V339.353C274.34 339.453 274.351 339.584 274.274 339.679C273.687 340.394 273.09 341.123 272.504 341.837C271.964 342.503 271.477 343.195 270.971 343.873C270.962 343.886 270.948 343.894 270.933 343.896V343.896Z" fill="#41E0EB"/>
<path d="M383.16 317.219C383.153 317.213 383.145 317.209 383.136 317.205C382.65 317.017 382.133 316.947 381.604 317.024C380.965 317.052 380.314 317.114 379.684 317.206C378.375 317.397 377.067 317.704 375.777 318.024C374.345 318.382 372.926 318.721 371.493 319.079C368.296 319.892 365.098 320.706 361.903 321.535C355.688 323.152 349.517 324.846 343.325 326.509C342.944 326.614 342.58 326.717 342.215 326.819C338.222 327.947 334.183 328.982 330.255 330.331C328.26 331.018 326.314 331.814 324.421 332.75C323.437 333.24 322.478 333.792 321.54 334.374C320.63 334.92 319.756 335.492 318.967 336.185C317.868 337.137 317.61 338.757 318.542 339.94C319.411 341.033 321.201 341.315 322.3 340.363C322.972 339.771 323.693 339.286 324.449 338.813C326.367 337.708 328.359 336.774 330.418 335.962C332.556 335.122 334.768 334.453 336.984 333.816C341.358 332.583 345.725 331.417 350.127 330.263C353.066 329.487 355.984 328.682 358.933 327.97C361.976 327.229 364.998 326.458 368.048 325.764C371.115 325.069 374.19 324.323 377.284 323.706C379.015 323.354 380.727 322.988 382.493 322.879C383.245 322.835 384.008 322.295 384.435 321.721C384.904 321.092 385.103 320.305 384.99 319.53C384.876 318.755 384.461 318.057 383.832 317.589C383.617 317.457 383.404 317.342 383.176 317.228C383.171 317.226 383.165 317.222 383.16 317.219V317.219Z" fill="#41E0EB"/>
<path d="M429.918 308.241C429.928 308.234 429.937 308.226 429.945 308.216C430.585 307.434 431.188 306.625 431.791 305.816C432.354 305.041 432.347 303.971 431.742 303.218C431.257 302.613 430.474 302.332 429.747 302.438C429.391 302.49 429.05 302.639 428.755 302.88C428.004 303.5 427.233 304.091 426.501 304.726C425.623 305.497 424.843 306.369 424.079 307.239V307.239C422.962 308.454 421.077 308.586 419.878 307.451C418.375 306.029 416.872 304.604 415.369 303.187C414.29 302.125 413.227 301.06 412.148 299.998V299.998C411.66 299.522 411.155 299.04 410.524 298.78C410.205 298.649 409.871 298.559 409.523 298.519C409.169 298.471 408.807 298.475 408.452 298.527C407.757 298.628 407.072 298.91 406.512 299.371C405.699 300.017 405.162 300.969 405.034 302.01C404.912 302.984 405.152 304.285 405.883 305.002C409.11 308.224 412.41 311.385 415.693 314.548C416.077 314.917 416.464 315.299 416.864 315.681C416.896 315.712 416.897 315.763 416.865 315.795V315.795C415.897 316.959 414.947 318.136 413.995 319.297C413.505 319.897 413.068 320.521 412.615 321.148C412.367 321.481 412.119 321.814 411.873 322.163C411.195 323.169 410.637 324.207 410.155 325.316C409.612 326.565 410.293 328.065 411.537 328.559C412.834 329.079 414.24 328.428 414.783 327.178C414.983 326.737 415.166 326.298 415.384 325.87C415.821 325.131 416.313 324.432 416.786 323.72C417.14 323.207 417.476 322.68 417.848 322.18C418.195 321.715 418.538 321.244 418.883 320.774C419.656 319.721 421.155 319.582 422.132 320.449V320.449C426.7 324.497 431.271 328.561 435.981 332.456C437.766 333.942 440.604 333.379 441.942 331.584C443.349 329.697 442.898 327.059 441.072 325.628C436.695 322.212 432.457 318.611 428.248 314.989C428.049 314.815 427.85 314.641 427.649 314.468C426.355 313.353 426.157 311.422 427.277 310.131V310.131C427.856 309.465 428.771 309.173 429.481 308.65C429.631 308.54 429.769 308.411 429.892 308.265C429.899 308.256 429.908 308.248 429.918 308.241V308.241Z" fill="#41E0EB"/>
</svg>
