<svg width="456" height="683" viewBox="0 0 456 683" fill="none" xmlns="http://www.w3.org/2000/svg">
<g clip-path="url(#clip0_89_2826)">
<path d="M124.33 411.54C124.7 415.19 125.1 418.99 125.47 422.79C125.51 423.22 125.5 423.67 125.41 424.1C125.16 425.29 124.03 425.83 122.95 425.27C122.57 425.07 122.22 424.77 121.94 424.45C118.5 420.43 115.07 416.39 111.53 412.23C111.55 412.23 111.35 412.23 111.19 412.3C104.63 415.55 97.63 415.31 90.74 414.34C80.27 412.88 70.57 403.21 69.42 392.68C67.76 377.49 70.86 363.39 81.44 351.74C83.64 349.32 86.67 347.62 89.39 345.69C96.63 340.56 104.79 337.69 113.58 338.03C122.82 338.38 131.32 341.33 137.84 348.48C141.12 352.07 142.47 356.47 143.54 361.07C145.56 369.73 145.07 378.3 143.45 386.96C142.42 392.47 141.17 397.79 137.98 402.5C135.72 405.84 132.79 408.45 129.2 410.21C127.68 410.96 125.89 411.14 124.32 411.55L124.33 411.54ZM121.44 418.91L122.06 418.62C121.41 415.89 120.78 413.15 120.12 410.43C119.61 408.3 120.43 407.37 122.58 407.62C124.52 407.85 126.44 407.95 128.24 406.85C131.37 404.94 133.96 402.54 135.86 399.37C138.16 395.53 139.09 391.32 139.91 386.99C141.45 378.89 142.04 370.87 140.35 362.68C139.13 356.75 136.94 351.63 132.07 347.75C129.63 345.81 126.82 344.86 124.05 343.7C116.57 340.56 109.07 341.05 101.53 343.42C95.38 345.36 90.38 349.29 85.11 352.76C84.16 353.39 83.05 353.91 82.34 354.75C81.11 356.18 80.03 357.77 79.07 359.4C73.84 368.28 71.81 377.97 72.02 388.2C72.28 400.86 80.79 408.6 91.23 410.97C97.81 412.46 104.7 412.15 110.98 408.67C112.52 407.82 113.26 408.24 114.27 409.61C116.59 412.76 119.04 415.82 121.44 418.92V418.91Z" fill="#F06B67"/>
<path d="M96.46 380.13C96.73 383.76 96.99 387.29 97.27 390.81C97.39 392.26 97.57 393.71 97.68 395.16C97.77 396.31 97.38 397.28 96.12 397.39C94.86 397.5 94.3 396.58 94.2 395.45C93.86 391.58 93.57 387.7 93.26 383.83C93.18 382.87 93.09 381.91 92.99 380.69C90.86 381.04 88.85 381.38 87.04 381.68C87.04 385.13 87.04 388.38 87.04 391.62C87.04 392.2 87.33 392.85 87.14 393.34C86.88 394.02 86.42 394.88 85.83 395.12C84.89 395.5 84.08 394.82 83.91 393.86C83.64 392.34 83.46 390.78 83.41 389.24C83.33 387.01 83.39 384.78 83.39 382.34C81.51 382.66 79.82 382.94 78.12 383.23C77.17 383.39 76.14 383.53 75.85 382.32C75.56 381.11 76.49 380.56 77.47 380.27C79.01 379.82 80.56 379.39 82.14 379.12C83.14 378.94 83.38 378.49 83.35 377.56C83.23 373.38 83.16 369.2 83.08 365.02C83.07 364.29 83.06 363.56 83.15 362.83C83.25 361.95 83.4 360.97 84.6 361.01C85.74 361.05 85.96 361.94 86.02 362.87C86.13 364.71 86.23 366.56 86.31 368.4C86.45 371.6 86.58 374.8 86.72 378.16C88.59 377.85 90.4 377.61 92.18 377.21C92.44 377.15 92.69 376.38 92.68 375.94C92.61 372.2 92.47 368.46 92.37 364.72C92.35 363.8 92.25 362.83 92.49 361.97C92.66 361.35 93.27 360.54 93.82 360.42C94.77 360.21 95.07 361.09 95.13 361.95C95.4 365.83 95.68 369.7 95.96 373.58C96.03 374.5 96.13 375.41 96.23 376.4C97.56 376.56 99.32 376.17 99.36 378.14C99.39 379.74 97.93 379.86 96.47 380.13H96.46Z" fill="#F06B67"/>
<path d="M108.68 384.25C107.86 386.26 107.12 388.15 106.3 390.01C105.89 390.94 105.36 391.83 104.79 392.66C104.28 393.4 103.52 393.83 102.65 393.3C101.75 392.75 102.01 391.93 102.33 391.1C103.87 387.07 105.56 383.08 106.83 378.95C107.69 376.14 107.96 373.15 108.42 370.23C108.59 369.1 108.91 368.16 110.2 368.17C111.55 368.19 111.82 369.23 111.82 370.33C111.82 372.66 111.69 375 111.75 377.33C111.89 383.01 112.85 388.54 115.09 393.8C115.22 394.11 115.49 394.48 115.42 394.74C115.22 395.47 115.07 396.42 114.55 396.8C113.75 397.38 112.81 396.95 112.36 396.06C111.77 394.89 111.2 393.69 110.84 392.44C110.07 389.8 109.44 387.11 108.7 384.24L108.68 384.25Z" fill="#F06B67"/>
<path d="M126.92 368.9C126.92 372.74 126.94 376.57 126.92 380.41C126.92 381.95 126.1 382.82 124.92 382.69C123.79 382.57 123.47 381.74 123.48 380.15C123.54 373.79 123.5 367.43 123.51 361.06C123.51 358.34 123.54 355.63 123.59 352.91C123.61 351.92 123.88 350.98 125.12 351.04C126.33 351.1 126.55 352.07 126.59 353.04C126.81 358.33 127.01 363.62 127.22 368.91H126.93L126.92 368.9Z" fill="#F06B67"/>
<path d="M129.08 397C128.74 397.94 128.53 398.95 128.03 399.79C127.41 400.81 126.12 400.96 125.24 400.25C124.3 399.49 124.19 398.59 124.93 397.59C125.14 397.3 125.32 396.92 125.34 396.57C125.39 395.34 125.97 394.64 127.2 394.64C128.23 394.64 128.91 395.62 129.09 397H129.08Z" fill="#F06B67"/>
<path d="M112.07 361.19C112.07 362.76 111.33 363.72 110.11 363.74C108.82 363.76 107.8 362.6 107.8 361.11C107.8 359.56 108.67 358.55 109.97 358.58C111.26 358.62 112.07 359.63 112.07 361.19Z" fill="#F06B67"/>
</g>
<defs>
<clipPath id="clip0_89_2826">
<rect width="75.87" height="87.5" fill="white" transform="translate(69 338)"/>
</clipPath>
</defs>
</svg>
