<svg width="456" height="683" viewBox="0 0 456 683" fill="none" xmlns="http://www.w3.org/2000/svg">
<path d="M365.113 419.881C367.385 420.966 368.911 421.651 370.366 422.422C382.115 428.474 389.96 437.237 392.586 449.598C394.432 458.219 391.522 464.185 383.251 468.695C381.121 469.837 378.885 470.779 377.288 471.521C381.654 476.602 386.304 481.426 390.244 486.736C394.042 491.874 395.391 497.783 394.858 504.092C394.042 513.683 387.014 520.449 376.649 521.191C374.626 521.334 372.602 521.191 370.615 521.191C371.431 526.101 372.496 530.64 372.886 535.235C374.271 550.65 363.586 556.502 348.146 553.648C343.07 552.706 338.243 550.565 333.131 548.938C332.599 552.763 332.315 556.788 331.427 560.698C328.978 571.46 322.021 576.313 310.237 574.686C302.499 573.601 294.832 571.632 287.413 569.319C283.508 568.092 279.923 565.608 276.729 563.096C273.676 560.727 271.262 557.587 268.423 554.647C264.483 561.583 257.774 565.894 250.817 569.976C244.108 573.915 237.222 573.887 230.372 570.575C222.066 566.579 214.895 561.326 210.565 553.191C199.384 565.523 185.15 569.947 168.716 566.151C153.027 562.525 140.532 554.704 137.196 538.918C131.481 541.801 126.334 545.055 120.69 547.082C105.747 552.449 91.5128 550.536 78.7699 541.601C65.246 532.095 61.519 518.051 68.6181 501.951C71.8837 494.529 76.6756 487.706 80.8286 480.513C78.0599 479.029 74.5814 477.316 71.2803 475.375C44.8361 459.731 49.628 428.873 69.186 415.657C75.1848 411.603 81.716 408.292 88.2472 404.495C86.7919 402.64 85.0171 400.556 83.4198 398.358C77.1726 389.737 74.2974 380.459 76.1432 369.983C77.8825 360.192 83.3843 353.626 93.9265 351.057C108.018 347.632 121.791 348.745 135.314 353.598C136.379 353.969 137.409 354.425 138.722 354.939C139.041 353.655 139.361 352.656 139.574 351.628C142.733 337.041 157.925 323.396 173.721 320.713C181.672 319.343 188.593 321.426 194.627 325.965C199.81 329.876 204.673 334.158 209.642 338.297C213.192 332.245 219.616 327.392 226.893 323.51C241.837 315.546 254.863 318.172 264.838 331.046C266.364 333.016 267.784 335.071 269.417 337.326C270.091 336.841 270.801 336.442 271.298 335.899C286.774 319.685 309.207 318.515 326.529 333.016C334.09 339.353 339.059 347.175 342.254 356.452C351.482 353.198 360.64 351.771 369.763 356.338C377.749 360.363 383.925 365.958 387.51 373.694C391.734 382.8 391.557 392.049 387.475 401.212C383.358 410.433 374.839 415.371 365.077 419.824L365.113 419.881ZM110.006 357.48L109.828 358.393C107.628 358.393 105.427 358.251 103.226 358.393C90.9093 359.307 85.4785 364.731 85.2301 376.12C85.0881 383.086 88.1052 389.023 92.4357 394.39C95.4173 398.044 99.1088 401.241 102.019 404.923C103.12 406.351 103.759 408.834 103.191 410.404C102.694 411.746 100.28 413.059 98.5054 413.287C86.1529 414.914 76.5336 420.852 69.186 429.587C59.9927 440.491 62.0514 456.163 73.694 464.727C78.5214 468.267 84.4137 470.693 90.0575 473.148C96.9081 476.088 97.618 479.343 92.7906 484.538C88.5666 489.134 84.6621 494.101 81.3255 499.268C77.3145 505.491 75.0783 512.484 75.8592 519.792C77.0306 530.782 89.7025 540.003 103.723 540.26C117.815 540.516 128.286 534.122 136.521 524.188C138.438 521.876 140.39 519.935 143.762 520.963C147.418 522.076 147.667 524.93 147.454 527.928C147.276 530.069 147.063 532.238 147.205 534.351C148.164 547.767 160.268 555.103 174.288 557.416C188.061 559.671 199.597 553.391 204.495 541.401C206.022 537.633 207.051 533.665 208.222 529.783C209.074 526.986 210.849 525.13 214.115 525.416C217.416 525.73 218.906 527.814 218.871 530.754C218.871 532.381 218.658 533.979 218.516 535.607C217.309 548.823 221.924 555.532 235.767 562.297C238.997 563.867 242.121 563.382 245.386 561.755C255.928 556.474 261.927 548.766 261.856 537.434C261.856 534.208 263.027 531.268 267.216 531.296C271.404 531.325 272.043 534.293 272.505 537.519C272.895 540.402 273.499 543.4 274.847 545.997C282.266 560.213 296.322 564.181 311.834 565.351C318.259 565.837 320.566 564.01 321.56 558.044C322.873 550.194 324.222 542.372 318.436 535.121C315.809 531.81 317.123 528.042 320.175 526.7C323.157 525.416 326.032 526.7 328.233 530.44C333.557 539.517 342.644 543.143 352.973 544.513C360.498 545.512 363.444 542.772 362.841 535.835C362.096 527.5 358.582 520.277 351.908 514.397C349.708 512.484 347.436 510.229 346.442 507.717C345.732 505.89 346.336 502.864 347.649 501.294C349.495 499.068 352.476 499.838 354.713 501.551C356.274 502.75 357.872 504.092 358.937 505.633C362.344 510.629 367.704 511.657 373.383 511.856C380.376 512.113 384.032 508.859 384.387 502.436C385.026 490.418 369.621 475.175 356.523 474.946C353.754 474.889 350.915 475.089 348.181 474.747C345.235 474.376 342.999 472.463 343.744 469.78C344.241 467.981 346.371 465.755 348.252 465.298C351.411 464.527 354.997 465.355 358.298 464.87C364.19 463.985 370.189 463.128 375.726 461.273C382.364 459.046 383.677 455.706 381.902 449.426C379.808 442.176 375.158 436.581 368.378 432.556C361.208 428.302 353.506 425.591 344.667 427.218C341.473 427.789 338.598 427.075 337.71 423.849C336.787 420.395 339.165 418.625 342.36 417.569C343.035 417.341 343.815 417.255 344.454 416.998C351.589 414.201 358.83 411.603 365.787 408.491C376.933 403.496 380.979 394.875 379.843 383.799C378.353 369.441 361.421 359.221 348.075 365.159C344.561 366.729 341.899 370.211 339.236 373.123C336.965 375.578 334.693 377.776 331.144 375.863C327.629 373.979 328.162 370.954 329.653 368.013C329.901 367.528 330.185 367.043 330.505 366.615C332.741 363.703 332.741 360.62 331.534 357.366C328.055 347.917 321.808 340.524 312.473 335.414C307.645 332.759 302.463 331.76 296.855 332.93C284.893 335.385 276.835 341.494 274.244 352.884C273.57 355.796 271.972 358.022 268.387 357.822C265.051 357.623 263.702 355.453 263.453 352.57C262.885 345.69 259.407 339.981 254.828 334.757C249.326 328.477 242.866 327.078 234.915 330.647C224.479 335.328 216.67 341.894 216.102 353.541C215.96 356.281 214.47 358.622 211.168 358.936C207.832 359.25 206.057 357.252 205.312 354.511C202.933 345.947 196.722 339.896 189.8 334.358C182.985 328.905 176.205 328.249 168.325 332.388C155.866 338.954 148.057 348.088 149.264 362.219C149.442 364.274 148.341 367.328 146.673 368.384C143.833 370.211 141.029 368.27 138.438 366.443C135.456 364.331 132.333 362.047 128.854 361.077C122.749 359.392 116.324 358.622 110.041 357.48H110.006Z" fill="#89DE07"/>
</svg>
