<svg width="456" height="683" viewBox="0 0 456 683" fill="none" xmlns="http://www.w3.org/2000/svg">
<g clip-path="url(#clip0_89_2826)">
<path d="M93.4574 369.208C93.7649 369.276 94.0689 369.081 94.1364 368.774C94.204 368.466 94.0095 368.162 93.702 368.095C93.3945 368.027 93.0905 368.222 93.023 368.529C92.9554 368.837 93.15 369.141 93.4574 369.208Z" fill="#D05FE5"/>
<path d="M102.051 376.276C102.15 376.994 102.279 377.709 102.431 378.418C102.847 380.393 103.633 382.265 104.563 384.046C105.428 385.7 106.648 387.186 107.943 388.515C108.57 389.155 109.266 389.717 109.989 390.245C110.916 390.919 111.88 391.52 112.902 392.041C114.598 392.895 116.468 393.377 118.345 393.595C120.4 393.842 122.464 393.814 124.503 393.483C126.393 393.172 128.245 392.667 130.051 392.04C130.162 392.003 130.284 391.958 130.395 391.921C130.566 392.215 130.747 392.51 130.939 392.798C131.481 393.593 132.148 394.333 132.814 395.033C133.589 395.838 134.52 396.493 135.443 397.095C136.32 397.666 137.314 398.038 138.29 398.396C139.172 398.712 140.062 398.949 140.987 399.121C142.041 399.312 143.129 399.346 144.194 399.344C145.329 399.348 146.458 399.197 147.579 399.033C151.177 398.503 154.595 397.206 157.802 395.515C158.018 396.258 158.334 396.962 158.674 397.651C159.056 398.431 159.491 399.152 160.028 399.832C160.69 400.684 161.444 401.403 162.316 402.045C163.084 402.603 163.877 403.094 164.743 403.489C165.606 403.894 166.548 404.172 167.481 404.357C168.452 404.55 169.467 404.588 170.457 404.601C171.497 404.625 172.542 404.526 173.563 404.352C177.453 403.701 181.08 402.061 184.275 399.773C184.76 399.429 185.228 399.071 185.698 398.703C185.972 399.224 186.271 399.73 186.571 400.226C187.055 401.008 187.619 401.746 188.212 402.45C188.959 403.341 189.749 404.17 190.623 404.945C191.387 405.615 192.222 406.197 193.06 406.76C193.914 407.347 194.836 407.765 195.807 408.101C197.804 408.795 199.899 409 202 409.082C203.922 409.146 205.822 408.836 207.7 408.491C209.696 408.121 211.628 407.48 213.493 406.682C215.154 405.972 216.724 405.119 218.231 404.129C218.312 404.505 218.393 404.881 218.477 405.248C218.726 406.306 219.133 407.296 219.605 408.27C219.976 409.048 220.406 409.797 220.892 410.519C221.402 411.275 222.016 411.974 222.649 412.635C223.24 413.256 223.92 413.794 224.619 414.296C225.511 414.942 226.426 415.481 227.434 415.928C229.187 416.712 231.051 417.173 232.949 417.344C233.963 417.434 234.969 417.47 235.996 417.409C237.156 417.347 238.316 417.1 239.456 416.849C241.361 416.427 243.147 415.663 244.891 414.807C246.245 414.142 247.537 413.34 248.774 412.465C248.9 412.729 249.034 413.004 249.161 413.267C249.571 414.104 250.133 414.853 250.734 415.568C251.989 417.031 253.549 418.224 255.265 419.082C256.149 419.532 257.136 419.841 258.088 420.122C258.983 420.38 259.905 420.521 260.827 420.611C261.851 420.703 262.861 420.72 263.886 420.668C264.995 420.605 266.099 420.427 267.193 420.248C269.105 419.931 270.97 419.46 272.8 418.818C274.808 418.112 276.726 417.12 278.558 416.048C279.37 415.571 280.166 415.07 280.939 414.534C281.088 414.741 281.237 414.947 281.398 415.147C282 415.903 282.652 416.569 283.4 417.173C284.148 417.778 284.983 418.309 285.812 418.778C286.658 419.261 287.591 419.579 288.513 419.904C289.569 420.269 290.683 420.421 291.784 420.489C292.661 420.549 293.515 420.531 294.388 420.426C295.333 420.317 296.281 420.105 297.196 419.855C298.055 419.624 298.876 419.293 299.692 418.929C300.727 418.46 301.724 417.932 302.684 417.334C302.863 417.22 303.042 417.105 303.22 416.991L303.328 417.199C303.782 418.118 304.382 418.976 305.012 419.791C305.611 420.557 306.265 421.264 307.006 421.897C307.394 422.228 307.826 422.497 308.243 422.794C308.589 423.034 308.966 423.229 309.331 423.432C310.184 423.885 311.139 424.198 312.068 424.443C313.2 424.743 314.417 424.795 315.585 424.836C316.53 424.87 317.478 424.75 318.399 424.564C319.022 424.434 319.606 424.245 320.179 424.013C320.386 424.283 320.604 424.546 320.825 424.8C321.332 425.382 321.869 425.92 322.442 426.435C323.075 427.004 323.797 427.49 324.5 427.972C326.001 429.018 327.693 429.656 329.402 430.267C330.844 430.788 332.377 431.125 333.894 431.397C334.76 431.556 335.633 431.636 336.505 431.725C337.916 431.871 339.315 431.932 340.725 431.761C341.095 431.709 341.457 431.645 341.811 431.57C342.281 431.437 342.701 431.202 343.137 430.99C343.326 430.827 343.525 430.666 343.715 430.503C344.019 430.283 344.256 429.997 344.423 429.655C344.589 429.272 344.728 428.872 344.855 428.481C344.967 427.973 344.943 427.476 344.785 426.981C344.561 426.276 344.049 425.672 343.398 425.324C342.718 424.97 341.906 424.894 341.177 425.134C340.793 425.254 340.406 425.476 340.096 425.766C339.951 425.776 339.806 425.785 339.66 425.794C338.956 425.833 338.242 425.82 337.532 425.787C337.072 425.737 336.62 425.699 336.16 425.649C335.187 425.558 334.22 425.346 333.275 425.128C332.366 424.929 331.48 424.673 330.603 424.378C330.009 424.145 329.42 423.892 328.837 423.611C328.283 423.336 327.75 423.014 327.232 422.665C326.513 422.117 325.836 421.518 325.222 420.861C325.502 420.616 325.783 420.36 326.055 420.102C327.269 418.956 328.368 417.682 329.464 416.418C330.437 415.301 331.349 414.129 332.192 412.901C332.84 411.958 333.472 410.991 333.789 409.873C333.987 409.159 334.054 408.437 334.073 407.694C334.091 407.196 333.971 406.668 333.872 406.185C333.793 405.799 333.71 405.433 333.597 405.06C333.373 404.263 333.046 403.516 332.687 402.772C332.372 402.109 332.021 401.468 331.577 400.879C331.06 400.203 330.438 399.728 329.716 399.283C329.596 399.226 329.465 399.166 329.343 399.119C328.984 398.979 328.634 398.851 328.257 398.748C327.77 398.589 327.21 398.62 326.705 398.591C326.324 398.599 325.944 398.649 325.576 398.742C325.079 398.858 324.631 399.036 324.177 399.285C323.501 399.658 322.933 400.148 322.35 400.655C321.77 401.152 321.308 401.767 320.864 402.386C320.267 403.197 319.733 404.042 319.251 404.929C318.837 405.698 318.533 406.522 318.241 407.339C317.916 408.26 317.653 409.175 317.462 410.137C317.288 410.979 317.218 411.855 317.151 412.72C317.087 413.617 317.064 414.513 317.122 415.417C317.174 416.298 317.364 417.159 317.524 418.014C317.582 418.354 317.674 418.681 317.766 419.009C317.524 419.088 317.293 419.161 317.044 419.219C316.181 419.326 315.328 419.343 314.458 419.296C313.739 419.209 313.054 419.069 312.363 418.856C311.774 418.604 311.212 418.316 310.664 417.971C310.13 417.557 309.658 417.095 309.195 416.594C308.54 415.753 307.966 414.87 307.478 413.923C307.431 413.81 307.384 413.698 307.337 413.585C308.735 412.254 309.995 410.759 311.189 409.24C312.593 407.46 313.881 405.562 315.109 403.651C315.56 402.951 315.981 402.245 316.37 401.501C316.813 400.647 317.055 399.686 317.112 398.726C317.16 397.856 316.983 397.029 316.703 396.21C316.556 395.758 316.274 395.317 316.013 394.922C315.641 394.379 315.135 394.022 314.589 393.667C314.24 393.437 313.791 393.338 313.397 393.221C313.248 393.198 313.099 393.176 312.951 393.154C312.593 393.106 312.238 393.089 311.889 393.094C311.42 393.084 310.925 393.241 310.472 393.346C310.028 393.454 309.591 393.675 309.189 393.873C308.821 394.059 308.491 394.252 308.153 394.485C307.766 394.759 307.418 395.082 307.063 395.393C306.266 396.088 305.658 396.988 305.069 397.852C304.555 398.609 304.155 399.453 303.759 400.277C303.336 401.178 302.957 402.108 302.628 403.049C302.321 403.934 302.062 404.83 301.861 405.748C301.621 406.842 301.539 407.96 301.479 409.073C301.431 409.943 301.481 410.835 301.596 411.71C300.491 412.542 299.328 413.269 298.094 413.899C296.959 414.408 295.798 414.798 294.583 415.063C293.672 415.201 292.771 415.249 291.846 415.22C291.049 415.116 290.278 414.947 289.501 414.705C288.61 414.335 287.775 413.896 286.959 413.368C286.408 412.94 285.893 412.489 285.412 411.974C285.251 411.775 285.102 411.568 284.963 411.363C285.888 410.553 286.781 409.705 287.633 408.807C288.952 407.417 290.067 405.84 291.117 404.227C292.244 402.499 293.188 400.669 293.966 398.761C294.338 397.86 294.634 396.932 294.822 395.98C295.002 395.068 295.048 394.115 295.055 393.195C295.061 392.797 294.994 392.404 294.926 392.01C294.858 391.575 294.774 391.168 294.64 390.749L294.503 390.443C294.377 390.129 294.218 389.827 294.023 389.549C293.805 389.286 293.586 389.023 293.365 388.77C293.102 388.569 292.83 388.366 292.553 388.182C292.113 387.993 291.669 387.824 291.202 387.711C291.061 387.701 290.922 387.68 290.791 387.672C290.454 387.619 290.119 387.606 289.773 387.643C289.328 387.668 288.844 387.818 288.422 387.971C287.977 388.129 287.555 388.374 287.147 388.602C286.354 389.042 285.649 389.686 284.992 390.299C284.17 391.06 283.528 392.025 282.895 392.951C281.821 394.527 281.13 396.372 280.472 398.152C279.739 400.141 279.183 402.159 278.837 404.243C278.547 406.033 278.554 407.816 278.872 409.585C277.077 410.86 275.19 411.991 273.205 412.968C271.161 413.881 269.038 414.551 266.85 415.002C265.061 415.316 263.26 415.545 261.431 415.481C260.333 415.352 259.267 415.128 258.214 414.795C257.445 414.472 256.718 414.098 256.009 413.645C255.386 413.17 254.814 412.655 254.285 412.079C253.814 411.473 253.422 410.834 253.07 410.153C252.942 409.849 252.814 409.544 252.699 409.232C253.25 408.729 253.793 408.213 254.326 407.695C255.761 406.291 257.1 404.762 258.328 403.179C259.529 401.63 260.531 399.956 261.294 398.158C261.681 397.24 261.983 396.282 262.205 395.318C262.448 394.214 262.47 393.041 262.389 391.918C262.354 391.47 262.247 391.027 262.161 390.578C262.098 390.257 261.998 389.969 261.868 389.674C261.697 389.288 261.538 388.987 261.281 388.664C261.017 388.33 260.633 387.887 260.22 387.715C259.827 387.546 259.449 387.402 259.039 387.312C258.648 387.226 258.175 387.235 257.778 387.27C256.723 387.366 255.754 387.911 254.913 388.525C253.356 389.647 252.267 391.2 251.213 392.78C250.034 394.559 249.234 396.574 248.537 398.581C247.885 400.476 247.528 402.475 247.406 404.476C247.349 405.436 247.354 406.389 247.44 407.35C245.754 408.638 243.962 409.76 242.065 410.705C240.544 411.385 238.979 411.891 237.358 412.231C236.107 412.427 234.862 412.502 233.596 412.439C232.357 412.3 231.144 412.043 229.963 411.641C229.052 411.266 228.207 410.825 227.393 410.288C226.631 409.701 225.941 409.068 225.309 408.356C224.712 407.58 224.193 406.769 223.741 405.892C223.245 404.749 222.91 403.57 222.656 402.347C222.577 401.869 222.517 401.395 222.467 400.923C222.844 400.607 223.201 400.286 223.568 399.967C224.995 398.693 226.333 397.308 227.599 395.877C228.964 394.323 230.178 392.573 231.024 390.68C231.407 389.822 231.671 388.898 231.893 387.984C232.129 387.002 232.197 385.993 232.263 384.994C232.288 384.508 232.289 384.037 232.241 383.555C232.198 383.096 232.083 382.64 231.976 382.197C231.893 382.015 231.801 381.831 231.718 381.649C231.588 381.354 231.398 381.097 231.161 380.871C230.743 380.493 230.307 380.192 229.78 379.984C229.328 379.803 228.973 379.694 228.501 379.652C228.01 379.606 227.612 379.6 227.136 379.67C226.681 379.734 226.26 379.836 225.837 379.989C225.404 380.139 224.958 380.4 224.558 380.639C224.436 380.725 224.325 380.813 224.206 380.89C223.943 381.108 223.68 381.327 223.417 381.546C223.107 381.836 222.805 382.138 222.519 382.464C222.204 382.825 221.919 383.234 221.659 383.627C221.338 384.109 221.046 384.598 220.762 385.099C219.824 386.807 219.14 388.664 218.616 390.535C218.056 392.572 217.865 394.701 217.753 396.796C217.725 397.25 217.716 397.709 217.708 398.168C216.052 399.412 214.319 400.546 212.455 401.478C210.4 402.399 208.275 403.078 206.067 403.525C205.239 403.661 204.419 403.757 203.584 403.83C202.584 403.907 201.584 403.892 200.583 403.836C199.451 403.721 198.349 403.519 197.267 403.179C196.451 402.836 195.706 402.407 194.974 401.918C193.858 401.079 192.834 400.148 191.896 399.102C191.023 397.999 190.264 396.839 189.628 395.584C189.602 395.517 189.566 395.447 189.54 395.38C190.782 394.199 191.94 392.938 193.047 391.625C194.283 390.146 195.415 388.582 196.465 386.97C197.002 386.156 197.436 385.299 197.808 384.398C198.006 383.919 198.166 383.422 198.297 382.919C198.466 382.29 198.486 381.639 198.533 381.005C198.607 380.11 198.354 379.163 198.166 378.293C198.071 377.842 197.889 377.413 197.697 376.982C197.49 376.527 197.272 376.12 196.993 375.711C196.436 374.892 195.664 374.119 194.674 373.871C194.219 373.75 193.762 373.732 193.288 373.699C193.012 373.7 192.738 373.732 192.459 373.794C192.132 373.835 191.809 373.907 191.49 374.011C191.042 374.138 190.62 374.383 190.206 374.589C189.828 374.772 189.491 375.046 189.159 375.301C188.786 375.598 188.441 375.911 188.101 376.246C187.759 376.591 187.483 377.011 187.212 377.402C186.053 379.093 185.306 381.048 184.677 382.978C184.065 384.881 183.816 386.854 183.667 388.838C183.554 390.421 183.687 392.006 183.97 393.563C183.05 394.303 182.115 395.019 181.144 395.707C180.127 396.425 179.038 397.046 177.921 397.609C176.354 398.31 174.744 398.836 173.068 399.195C171.819 399.382 170.568 399.435 169.314 399.364C168.637 399.277 167.981 399.143 167.329 398.938C166.693 398.665 166.097 398.35 165.514 397.976C165.04 397.616 164.614 397.226 164.206 396.798C163.81 396.271 163.471 395.715 163.158 395.135C162.89 394.492 162.672 393.851 162.515 393.171C162.485 392.98 162.455 392.789 162.435 392.601C162.889 392.26 163.342 391.919 163.788 391.567C164.595 390.925 165.378 390.247 166.127 389.541C166.914 388.803 167.633 387.999 168.351 387.204C170.212 385.115 171.836 382.85 173.479 380.59C174.125 379.698 174.772 378.806 175.383 377.886C175.9 377.119 176.424 376.271 176.672 375.374C176.967 374.312 176.887 373.138 176.419 372.144C176.323 371.929 176.215 371.721 176.119 371.505C175.929 371.207 175.714 370.925 175.464 370.665C175.149 370.33 174.784 370.034 174.384 369.803C173.975 369.57 173.545 369.383 173.092 369.253C172.61 369.117 172.13 369.063 171.623 369.043C170.658 369.005 169.71 369.176 168.802 369.488C168.326 369.65 167.882 369.901 167.432 370.129C166.925 370.387 166.462 370.725 166.01 371.056C164.501 372.148 163.098 373.406 162.001 374.906C161.429 375.691 160.933 376.504 160.488 377.368C160.007 378.297 159.638 379.28 159.27 380.254C158.566 382.106 158.021 383.983 157.655 385.93C157.478 386.874 157.339 387.836 157.26 388.802C156.096 389.529 154.905 390.199 153.666 390.808C151.644 391.715 149.547 392.452 147.379 392.908C145.872 393.15 144.369 393.281 142.836 393.22C141.889 393.104 140.973 392.893 140.066 392.592C139.401 392.312 138.765 391.988 138.153 391.608C137.515 391.11 136.938 390.563 136.395 389.963C136.213 389.718 136.041 389.476 135.871 389.223C137.52 388.244 139.009 387.056 140.458 385.818C142.059 384.45 143.466 382.895 144.673 381.174C145.213 380.392 145.699 379.577 146.121 378.728C146.596 377.778 146.945 376.748 147.258 375.742C147.572 374.736 147.643 373.666 147.678 372.62C147.694 372.173 147.63 371.718 147.564 371.274C147.466 370.556 147.288 369.872 147.038 369.193C146.852 368.691 146.588 368.213 146.334 367.738C146.101 367.308 145.726 366.826 145.388 366.496C144.767 365.878 144.022 365.397 143.198 365.093C142.678 364.897 142.23 364.748 141.693 364.63C141.156 364.512 140.593 364.511 140.046 364.483C139.913 364.484 139.767 364.493 139.632 364.504C139.24 364.562 138.856 364.631 138.461 364.708C137.796 364.89 137.154 365.158 136.549 365.486C136.155 365.696 135.788 365.923 135.414 366.179C134.967 366.49 134.566 366.873 134.159 367.234C133.409 367.898 132.812 368.75 132.251 369.579C131.727 370.334 131.257 371.122 130.832 371.94C130.264 373.033 129.859 374.224 129.451 375.384C128.796 377.246 128.349 379.186 128.173 381.154C128.075 382.207 128.039 383.254 128.072 384.316C128.098 385.13 128.216 385.945 128.378 386.748C126.904 387.305 125.391 387.761 123.845 388.087C122.306 388.332 120.775 388.406 119.219 388.31C118.161 388.19 117.14 387.986 116.124 387.671C115.015 387.222 113.972 386.655 112.973 385.985C112.042 385.279 111.212 384.493 110.44 383.627C109.646 382.624 108.968 381.563 108.399 380.425C107.805 379.076 107.362 377.689 107.054 376.249C106.969 375.749 106.906 375.244 106.862 374.743C110.367 373.516 113.771 372.001 117.035 370.24C117.883 369.782 118.728 369.291 119.563 368.799C120.388 368.305 121.173 367.76 121.974 367.24C122.691 366.773 123.425 366.32 124.048 365.72C124.775 365.019 125.376 364.24 125.858 363.353C126.266 362.613 126.428 361.737 126.498 360.903C126.568 360.028 126.541 359.172 126.329 358.317C125.894 356.522 124.951 354.942 123.598 353.693C123.256 353.382 122.833 353.074 122.435 352.833C122.047 352.595 121.68 352.401 121.258 352.227C120.366 351.857 119.459 351.699 118.503 351.622C117.596 351.556 116.734 351.612 115.842 351.805C114.788 352.034 113.795 352.41 112.828 352.894C109.381 354.604 106.728 357.687 104.774 360.943C103.772 362.617 103.12 364.512 102.598 366.373C102.026 368.418 101.821 370.564 101.766 372.681C101.752 373.119 101.759 373.55 101.774 373.994C99.195 374.83 96.5773 375.514 93.9178 376.015C92.993 376.171 92.0648 376.294 91.1279 376.365C90.295 376.428 89.4676 376.512 88.6324 376.493C88.3351 376.448 88.0692 376.4 87.7924 376.308C87.7653 376.292 87.7283 376.274 87.7033 376.248L87.6838 376.243C87.8093 376.138 87.9285 376.062 88.0552 375.997C88.5081 375.8 88.9491 375.61 89.3944 375.401C89.7942 375.212 90.072 374.833 89.9158 374.379C89.7955 373.994 89.2936 373.669 88.8938 373.857C88.3814 374.093 87.8384 374.281 87.3412 374.54C87.0801 374.657 86.8537 374.802 86.6307 374.978C86.3622 375.175 86.1263 375.41 85.8731 375.631C85.6198 375.851 85.5647 376.382 85.7834 376.645C85.9694 376.87 86.1392 377.122 86.3372 377.34C86.4122 377.418 86.4851 377.506 86.5601 377.584C86.7014 377.686 86.8524 377.791 86.9937 377.894C87.3324 378.03 87.6288 378.125 87.9761 378.222C88.3158 378.307 88.7139 378.313 89.0567 378.337C89.4895 378.37 89.9374 378.336 90.3712 378.318C90.8148 378.303 91.2606 378.278 91.7063 378.253C92.8331 378.204 93.9466 378.028 95.0602 377.853C97.3977 377.466 99.7089 376.919 101.981 376.271L102.051 376.276ZM323.738 408.833C324.191 407.704 324.76 406.651 325.434 405.632C325.79 405.178 326.159 404.757 326.572 404.367C326.708 404.264 326.851 404.172 326.994 404.081C327.035 404.079 327.076 404.078 327.117 404.077C327.156 404.086 327.195 404.094 327.225 404.101C327.308 404.139 327.39 404.188 327.471 404.237L327.496 404.263C327.848 404.76 328.168 405.26 328.45 405.793C328.695 406.359 328.896 406.935 329.061 407.535C329.086 407.745 329.102 407.953 329.108 408.159C329.078 408.296 329.046 408.442 329.016 408.579C328.844 408.941 328.647 409.276 328.422 409.606C327.589 410.692 326.687 411.723 325.743 412.713C324.826 413.669 323.927 414.639 322.978 415.556C322.876 414.623 322.847 413.685 322.892 412.732C323.041 411.403 323.312 410.121 323.726 408.841L323.738 408.833ZM312.645 398.134L312.619 398.067C312.619 398.067 312.642 398.103 312.645 398.134ZM312.508 397.827C312.542 397.906 312.578 397.976 312.602 398.053L312.501 397.857L312.437 397.73C312.437 397.73 312.473 397.799 312.496 397.835L312.508 397.827ZM307.45 403.842C308.003 402.397 308.643 400.972 309.489 399.683C309.845 399.229 310.226 398.801 310.653 398.393C310.912 398.194 311.176 398.016 311.468 397.855C311.669 397.776 311.869 397.707 312.078 397.641C312.162 397.629 312.255 397.628 312.337 397.626L312.396 397.639L312.411 397.663C312.461 397.807 312.511 397.951 312.55 398.103C312.562 398.187 312.564 398.27 312.569 398.342C312.538 398.53 312.497 398.716 312.446 398.899C312.14 399.549 311.75 400.159 311.333 400.753C310.467 401.945 309.591 403.135 308.691 404.299C308.045 405.14 307.363 405.963 306.675 406.764C306.725 406.488 306.778 406.203 306.838 405.93C306.994 405.217 307.207 404.526 307.45 403.842V403.842ZM285.031 399.492C285.624 397.912 286.278 396.377 287.206 394.952C287.696 394.303 288.218 393.7 288.818 393.157C289.163 392.894 289.522 392.656 289.899 392.431C290 392.392 290.11 392.355 290.221 392.318C290.237 392.383 290.264 392.45 290.278 392.525C290.33 392.987 290.341 393.45 290.322 393.907C290.22 394.652 290.073 395.367 289.844 396.085C288.946 398.355 287.694 400.466 286.313 402.466C285.655 403.365 284.954 404.225 284.199 405.052C283.996 405.274 283.784 405.494 283.572 405.713C283.814 403.586 284.33 401.518 285.031 399.492V399.492ZM257.924 391.828L257.845 391.862C257.845 391.862 257.893 391.831 257.924 391.828ZM253.267 398.862C253.574 398.07 253.906 397.303 254.277 396.545C254.706 395.667 255.225 394.839 255.772 394.027C256.223 393.42 256.694 392.858 257.247 392.345C257.468 392.178 257.699 392.014 257.935 391.871L257.946 391.915C258.008 392.471 258.031 393.019 258.001 393.575C257.899 394.228 257.74 394.859 257.539 395.491C257.017 396.799 256.34 398.012 255.552 399.18C254.549 400.526 253.416 401.772 252.259 402.982C252.33 402.476 252.417 401.983 252.517 401.483C252.702 400.592 252.966 399.718 253.267 398.862V398.862ZM223.537 389.947C224.063 388.578 224.7 387.264 225.501 386.037C225.831 385.608 226.182 385.224 226.571 384.849C226.778 384.7 226.985 384.551 227.209 384.416C227.298 384.384 227.399 384.345 227.497 384.315C227.497 384.459 227.484 384.609 227.483 384.753C227.376 385.845 227.154 386.902 226.823 387.945C226.43 388.893 225.929 389.776 225.352 390.632C224.521 391.76 223.589 392.784 222.602 393.786L222.578 393.801C222.623 393.504 222.667 393.206 222.722 392.911C222.904 391.897 223.193 390.906 223.522 389.923L223.537 389.947ZM189.526 383.183C189.962 382.04 190.463 380.922 191.13 379.891C191.371 379.585 191.627 379.304 191.911 379.038C192.191 378.834 192.465 378.658 192.769 378.489C192.869 378.45 192.968 378.421 193.079 378.384C193.11 378.38 193.141 378.377 193.173 378.374C193.251 378.483 193.318 378.6 193.384 378.717C193.502 379.019 193.591 379.315 193.673 379.64C193.747 380.097 193.779 380.554 193.79 381.017C193.738 381.395 193.647 381.764 193.543 382.141C193.118 383.143 192.558 384.064 191.95 384.965C190.861 386.476 189.684 387.917 188.446 389.314L188.406 389.357C188.413 388.949 188.431 388.543 188.458 388.139C188.647 386.44 188.998 384.797 189.538 383.176L189.526 383.183ZM171.355 374.411C171.355 374.411 171.367 374.495 171.378 374.539L171.355 374.411ZM171.314 373.665L171.33 373.453C171.325 373.524 171.319 373.594 171.314 373.665ZM171.134 373.973L171.076 373.909C171.076 373.909 171.119 373.949 171.134 373.973ZM163.83 382.658C164.415 381.118 165.08 379.626 165.977 378.246C166.534 377.529 167.154 376.897 167.83 376.288C168.599 375.679 169.39 375.105 170.25 374.639C170.44 374.568 170.639 374.499 170.835 374.45C170.742 374.593 170.651 374.727 170.558 374.87C169.694 376.053 168.786 377.205 167.887 378.359C166.498 380.163 165.07 381.958 163.516 383.623C163.618 383.298 163.721 382.972 163.83 382.658ZM135.437 376.514C135.67 375.92 135.923 375.331 136.204 374.748C136.543 374.044 136.954 373.387 137.384 372.734C137.784 372.218 138.199 371.725 138.676 371.277C138.971 371.055 139.278 370.867 139.596 370.681C139.754 370.613 139.92 370.557 140.074 370.509C140.188 370.503 140.311 370.5 140.425 370.494C140.64 370.541 140.855 370.588 141.06 370.634C141.107 370.654 141.153 370.675 141.188 370.703C141.305 370.872 141.402 371.036 141.504 371.223C141.599 371.489 141.682 371.763 141.755 372.035C141.804 372.466 141.831 372.902 141.817 373.339C141.721 373.963 141.569 374.564 141.375 375.167C140.931 376.257 140.388 377.284 139.739 378.278C138.611 379.781 137.305 381.112 135.889 382.337C135.317 382.795 134.74 383.231 134.148 383.644C134.127 383.086 134.138 382.525 134.16 381.957C134.374 380.1 134.831 378.296 135.426 376.522L135.437 376.514ZM107.973 365.445C108.224 364.814 108.495 364.187 108.802 363.579C109.163 362.87 109.585 362.205 110.037 361.547C110.939 360.332 111.937 359.189 113.07 358.179C113.813 357.595 114.589 357.089 115.433 356.65C116.042 356.395 116.64 356.188 117.277 356.042C117.719 355.985 118.153 355.968 118.602 355.974C119.031 356.028 119.451 356.12 119.864 356.241C120.162 356.378 120.445 356.533 120.724 356.707C121.082 356.99 121.416 357.289 121.721 357.622C121.964 357.962 122.187 358.298 122.382 358.668C122.549 359.073 122.685 359.482 122.786 359.904C122.832 360.303 122.848 360.695 122.831 361.101C122.785 361.357 122.729 361.611 122.663 361.863C122.49 362.234 122.303 362.572 122.075 362.911C121.777 363.286 121.457 363.625 121.1 363.946C117.882 366.525 114.373 368.703 110.661 370.499C109.373 371.097 108.069 371.67 106.753 372.21C106.752 371.749 106.77 371.293 106.798 370.838C106.986 369.006 107.369 367.216 107.966 365.474L107.973 365.445Z" fill="#D05FE5"/>
</g>
<defs>
<clipPath id="clip0_89_2826">
<rect x="92.7266" y="344.148" width="264.36" height="43.34" rx="21.67" transform="rotate(12.388 92.7266 344.148)" fill="white"/>
</clipPath>
</defs>
</svg>
