<svg width="456" height="683" viewBox="0 0 456 683" fill="none" xmlns="http://www.w3.org/2000/svg">
<path d="M344.777 352.894C348.923 334.874 360.561 324.383 377.696 320.004C391.978 316.359 406.276 318.814 418.69 327.379C428.681 334.264 433.02 344.59 433.914 355.545C435.556 375.557 426.596 391.346 410.039 402.88C398.507 410.908 385.757 410.037 372.672 404.168C354.525 396.037 343.786 379.976 344.052 360.145C344.101 357.359 344.582 354.596 344.777 352.894ZM351.354 352.119C347.244 371.605 357.307 390.267 376.223 398.4C385.589 402.422 394.599 403.402 403.7 398.497C416.9 391.386 430.965 370.219 426.019 352.062C423.879 344.204 421.035 336.286 412.783 331.864C398.479 324.197 384.023 322.927 369.698 330.841C367.332 332.161 365.135 333.757 362.682 334.89C358.236 336.924 355.901 340.545 354.029 344.508C352.88 346.932 352.22 349.584 351.354 352.119V352.119Z" fill="#FFE30D"/>
<path d="M383.083 389.009C377.089 386.901 370.369 383.437 367.597 375.655C367.409 375.112 367.172 374.558 367.068 373.985C366.696 372.182 365.93 369.958 368.279 369.184C370.818 368.356 371.594 370.655 372.275 372.334C374.772 378.335 379.771 381.587 385.923 383.443C391.019 384.972 395.18 383.067 398.605 379.733C400.14 378.23 401.646 376.864 403.825 378.372C406.21 379.997 405.161 381.965 403.903 383.72C400.372 388.704 391.709 391.267 383.078 389.032L383.083 389.009Z" fill="#FFE30D"/>
<path d="M404.252 361.302C407.315 362.287 409.651 362.969 411.932 363.782C413.642 364.397 415.413 365.313 414.683 367.351C413.972 369.299 412.101 368.719 410.493 368.222C406.462 366.976 402.371 365.884 398.45 364.375C397.033 363.824 395.401 362.389 395.085 361.148C394.884 360.315 396.7 358.587 397.98 358.128C402.084 356.713 406.324 355.614 410.577 354.686C411.518 354.487 412.78 355.506 413.908 355.969C413.311 356.937 412.951 358.34 412.038 358.761C409.84 359.783 407.355 360.36 404.271 361.33L404.252 361.302Z" fill="#FFE30D"/>
<path d="M371.829 359.806C368.393 359.001 366.513 356.484 367.145 353.611C367.848 350.419 371.144 348.252 374.106 349C377.234 349.808 379.302 352.869 378.719 355.752C378.06 358.859 375.144 360.583 371.829 359.806V359.806Z" fill="#FFE30D"/>
</svg>
