<svg width="400" height="174" viewBox="0 0 400 174" fill="none" xmlns="http://www.w3.org/2000/svg">
<path d="M248.093 159.176C285.898 160.207 314.729 159.388 343.32 152.533C353.608 150.077 363.768 145.648 373.797 140.977C378.239 138.915 382.495 134.699 386.251 130.179C392.45 122.718 392.857 114.468 387.454 105.702C383.846 99.848 379.682 94.6917 375.37 90.2634C364.119 78.7071 351.739 70.912 339.285 63.6325C308.512 45.7067 276.794 34.1505 244.558 26.0217C207.974 16.801 171.186 12.9186 134.213 14.7384C106.973 16.073 79.845 19.8038 52.9202 26.9923C37.7276 31.0567 22.5535 35.0604 7.36083 39.0945C7.15727 39.1551 6.97222 39.2158 6.78717 39.2765C2.80859 40.1561 0.458455 38.4575 0.0513444 34.4234C-0.337261 30.4804 1.47623 27.8112 5.62136 26.5373C31.5654 18.4389 57.5094 10.0978 83.8606 5.82104C112.173 1.24102 140.541 -1.03383 169.021 0.452404C217.337 2.93957 264.932 13.7375 311.62 34.4538C330.107 42.6432 348.353 52.2582 365.637 65.8467C373.594 72.1252 381.125 79.981 388.509 87.9885C391.71 91.4463 394.43 96.6329 396.651 101.88C401.61 113.527 401.092 126.418 394.893 136.306C391.285 142.069 386.899 146.862 382.384 150.592C371.706 159.419 360.03 163.18 348.297 165.91C310.621 174.766 272.778 175.434 234.843 172.279C219.465 171.005 204.088 169.883 188.729 167.972C168.854 165.485 148.98 162.876 129.179 159.206C110.563 155.749 91.9843 151.563 73.5348 146.316C63.098 143.343 52.8462 138.187 42.7239 132.879C37.9496 130.361 33.2864 126.024 29.2708 121.019C20.3143 109.797 19.8517 94.3277 27.4943 80.709C32.0095 72.6712 37.7461 67.6362 43.7787 63.4505C57.3059 54.1085 71.4992 48.5275 85.8776 44.2508C105.771 38.3362 125.83 36.304 146.019 38.0632C151.052 38.4878 153.31 40.7627 153.069 45.2214C152.847 49.2858 150.738 51.136 146 51.3786C133.972 52.0459 121.907 52.0156 109.916 53.5322C89.3936 56.171 69.2786 62.7529 49.9779 74.8247C45.5922 77.5545 41.262 81.1033 37.413 85.471C28.5306 95.632 28.8452 105.641 38.3012 113.982C42.7794 117.925 47.6278 121.019 52.4946 123.506C67.7982 131.332 83.5645 135.973 99.4418 138.884C129.642 144.435 159.861 149.743 190.153 153.898C212.378 156.932 234.695 157.963 248.037 159.085L248.093 159.176Z" fill="#41E0EB"/>
</svg>
