<svg width="189" height="92" viewBox="0 0 189 92" fill="none" xmlns="http://www.w3.org/2000/svg">
<path d="M92.6366 12.1329C89.322 14.251 85.1715 16.2541 81.9986 19.0555C75.3889 24.8773 69.1629 31.0383 62.9952 37.2258C51.2835 48.9519 39.7006 60.7854 27.0718 73.5661C41.0877 72.0135 52.5738 64.0775 68.0115 68.8021C66.2813 70.6496 65.6141 72.2308 64.5212 72.4228C47.7722 75.3162 32.7486 81.3872 18.1757 88.2949C6.30758 93.9095 0.972734 91.0294 1.42229 79.7793C1.89961 67.9598 0.787971 56.0449 0.566287 44.1668C0.539553 42.2322 1.54772 40.3399 2.18021 38.0576C7.67257 41.2583 11.4941 51.6722 13.6448 69.2993C15.7148 67.2796 17.3195 65.8296 18.79 64.3062C33.584 48.773 48.1732 33.0857 63.2858 17.777C68.148 12.8607 73.8992 8.38104 80.1118 4.6701C91.223 -1.9514 101.948 0.0437805 109.656 10.2911C113.545 15.4637 116.182 21.4293 118.361 27.2699C120.845 33.9416 121.948 40.9161 124.083 47.6889C125.573 52.4815 127.746 57.1735 129.698 62.074C136.277 61.0471 139.477 57.5542 142.84 54.47C157.194 41.3192 168.81 26.5171 178.199 10.3883C179.319 8.44417 180.165 6.26517 181.826 4.71983C182.831 3.76613 185.173 3.31981 186.781 3.55725C187.655 3.69573 188.987 5.8025 188.861 6.86075C188.513 9.84887 187.985 12.913 186.678 15.6448C177.823 34.1886 165.537 50.8497 149.283 65.2123C146.013 68.1026 142.162 70.7097 138.058 72.6853C130.618 76.2539 123.845 74.9545 119.358 68.435C115.72 63.1282 113.23 57.1512 111.202 51.2822C108.233 42.673 106.36 33.8547 103.544 25.2001C101.975 20.3778 99.8521 15.5024 92.6569 12.1362L92.6366 12.1329Z" fill="white"/>
</svg>
