<svg width="1645" height="1221" viewBox="0 0 1645 1221" fill="none" xmlns="http://www.w3.org/2000/svg">
<g clip-path="url(#clip0_79_2055)">
<path d="M1699.21 597.065C1573.81 605.529 1490.99 636.281 1416.44 664.452C1408.67 667.392 1401.06 670.432 1393.49 673.198C1340.75 692.443 1289.53 704.717 1224.41 706.526C1186.31 707.581 1145.57 702.046 1104.18 696.093C1078.55 692.433 1052.5 688.423 1026.73 685.299C964.95 677.931 901.159 675.198 841.735 690.182C819.298 695.829 797.797 703.824 776.797 713.7C722.774 739.113 673.222 776.738 616.861 796.407C609.818 798.863 602.71 801.055 595.52 802.939C535.876 818.588 472.403 813.265 410.797 803.843C405.889 803.082 400.984 802.302 396.081 801.502C332.049 791.07 267.519 777.611 201.941 780.729C199.457 780.839 196.968 780.988 194.476 781.157C126.23 785.884 55.4595 812.304 14.818 868.321L7.77217 827.819C46.8048 769.45 116.075 738.022 184.782 726.966C187.283 726.561 189.801 726.178 192.314 725.834C258.52 716.468 325.48 722.693 391.734 725.174C396.811 725.362 401.89 725.531 406.974 725.661C470.78 727.308 535.775 723.941 594.261 699.69C601.322 696.761 608.239 693.558 615.05 690.084C669.467 662.427 715.391 618.604 766.644 585.32C786.557 572.384 807.201 561.061 829.236 552.261C887.672 528.893 952.81 525.01 1016.29 524.678C1042.67 524.577 1069.68 525.185 1096.39 524.927C1139.45 524.56 1182.05 522.317 1220.54 510.911C1287.82 490.982 1334 456.857 1380.5 415.912C1387.15 410.066 1393.74 403.996 1400.55 397.953C1463.53 341.951 1533.41 291.54 1676.32 302.089L1699.23 597.048L1699.21 597.065Z" fill="url(#paint0_linear_79_2055)"/>
</g>
<defs>
<linearGradient id="paint0_linear_79_2055" x1="8.19628" y1="768.821" x2="1607.33" y2="470.801" gradientUnits="userSpaceOnUse">
<stop offset="0.18" stop-color="#FFFF54"/>
<stop offset="1" stop-color="#F19623"/>
</linearGradient>
<clipPath id="clip0_79_2055">
<rect width="1645" height="1221" fill="white"/>
</clipPath>
</defs>
</svg>
