<svg width="155" height="135" viewBox="0 0 155 135" fill="none" xmlns="http://www.w3.org/2000/svg">
<g style="mix-blend-mode:multiply">
<g style="mix-blend-mode:multiply" opacity="0.01">
<path d="M64.6287 62.9241C94.387 46.365 144.41 47.9344 145.783 79.6435C146.501 95.4824 130.828 109.1 113.98 116.158C104.261 120.213 93.8762 123.451 83.8506 124.657C74.7088 125.76 65.8425 125.177 58.1869 121.939C47.5494 117.43 37.6124 106.996 37.8252 95.3121C38.026 82.7958 52.0144 69.9709 64.6237 62.963L64.6287 62.9241Z" fill="#DF9D41"/>
</g>
<g style="mix-blend-mode:multiply" opacity="0.03">
<path d="M64.6061 63.0992C94.1642 46.7123 143.654 48.2727 145.116 79.5976C145.849 95.3196 130.267 108.85 113.564 115.847C103.951 119.857 93.651 123.046 83.7227 124.265C74.5394 125.382 65.5903 124.828 57.9617 121.535C47.4849 117.006 37.708 106.711 37.9692 95.1129C38.2329 82.7234 52.0846 70.0392 64.6061 63.0992V63.0992Z" fill="#DE9C41"/>
</g>
<g style="mix-blend-mode:multiply" opacity="0.04">
<path d="M64.5863 63.2548C93.9273 47.0181 142.921 48.594 144.455 79.5127C145.222 95.1205 129.708 108.581 113.174 115.5C103.662 119.483 93.4675 122.627 83.6365 123.858C74.4288 125.012 65.3774 124.484 57.7563 121.132C47.4207 116.582 37.8064 106.408 38.1135 94.9138C38.4402 82.6511 52.1526 70.1269 64.5888 63.2353L64.5863 63.2548Z" fill="#DE9C41"/>
</g>
<g style="mix-blend-mode:multiply" opacity="0.06">
<path d="M64.425 63.4321C93.5684 47.3481 142.049 48.9173 143.63 79.4662C144.432 94.9597 128.989 108.33 112.62 115.192C103.233 119.131 93.1207 122.246 83.3675 123.488C74.1159 124.675 64.9841 124.156 57.3874 120.769C47.193 116.197 37.7415 106.142 38.114 94.7556C38.501 82.6391 52.0597 70.2338 64.425 63.4321V63.4321Z" fill="#DE9B41"/>
</g>
<g style="mix-blend-mode:multiply" opacity="0.07">
<path d="M64.3636 63.6022C93.3094 47.6709 141.274 49.2531 142.924 79.4153C143.76 94.7946 128.386 108.095 112.185 114.879C102.903 118.773 92.8737 121.858 83.2178 123.112C73.562 124.366 64.7077 123.844 57.121 120.378C47.0653 115.805 37.7984 105.853 38.2168 94.571C38.6666 82.5813 52.0887 70.3166 64.3466 63.5802L64.3636 63.6022Z" fill="#DD9B41"/>
</g>
<g style="mix-blend-mode:multiply" opacity="0.08">
<path d="M64.3023 63.7723C93.0285 48.0107 140.501 49.5694 142.219 79.3643C143.092 94.6098 127.786 107.839 111.748 114.586C102.571 118.433 92.6437 121.492 83.0657 122.756C73.4877 124.021 64.4313 123.532 56.8691 120.029C46.9546 115.434 37.8479 105.621 38.3341 94.4277C38.8443 82.5841 52.1296 70.4603 64.3023 63.7723V63.7723Z" fill="#DD9A41"/>
</g>
<g style="mix-blend-mode:multiply" opacity="0.1">
<path d="M64.2408 63.9424C92.7694 48.3335 139.746 49.9077 141.513 79.3133C142.421 94.4446 127.185 107.584 111.313 114.273C102.238 118.094 92.4186 121.088 82.9159 122.381C73.4133 123.675 64.1353 123.217 56.6001 119.659C46.8268 115.042 37.8827 105.349 38.4149 94.26C38.9879 82.5432 52.1365 70.56 64.2213 63.9399L64.2408 63.9424Z" fill="#DD9A41"/>
</g>
<g style="mix-blend-mode:multiply" opacity="0.11">
<path d="M64.1796 64.1127C92.5106 48.6565 138.973 50.2241 140.807 79.2625C141.75 94.2795 126.583 107.349 110.879 113.96C101.909 117.735 92.1913 120.702 82.7884 121.989C73.3856 123.276 63.881 122.887 56.3727 119.274C46.7382 114.655 37.9593 105.062 38.5568 94.0805C39.1927 82.4904 52.2045 70.648 64.199 64.1152L64.1796 64.1127Z" fill="#DC9A41"/>
</g>
<g style="mix-blend-mode:multiply" opacity="0.13">
<path d="M64.1181 64.2828C92.249 48.9987 138.201 50.5405 140.082 79.2091C141.059 94.1118 125.963 107.091 110.425 113.644C101.559 117.374 91.9442 120.315 82.6192 121.611C73.2942 122.908 63.5876 122.553 56.0867 118.881C46.5934 114.241 37.9772 104.768 38.6376 93.9127C39.3339 82.4689 52.209 70.7672 64.1181 64.2828V64.2828Z" fill="#DC9941"/>
</g>
<g style="mix-blend-mode:multiply" opacity="0.14">
<path d="M64.0592 64.4336C91.973 49.2997 137.448 50.8593 139.379 79.1386C140.39 93.927 125.362 106.836 109.993 113.312C101.232 116.996 91.6997 119.907 82.472 121.216C72.9813 122.571 63.3136 122.221 55.8397 118.493C46.5046 113.854 38.051 104.5 38.7598 93.7307C39.519 82.4136 52.2378 70.8501 64.0592 64.4336V64.4336Z" fill="#DC9941"/>
</g>
<g style="mix-blend-mode:multiply" opacity="0.15">
<path d="M64.0173 64.6062C91.7334 49.625 136.695 51.1781 138.696 79.0707C139.741 93.7448 124.784 106.564 109.58 112.982C100.921 116.639 91.4941 119.505 82.3443 120.824C72.8316 122.196 63.0616 121.872 55.5928 118.105C46.3989 113.444 38.1079 104.211 38.8821 93.5485C39.6562 82.8862 52.2862 70.9354 64.0198 64.5867L64.0173 64.6062Z" fill="#DB9841"/>
</g>
<g style="mix-blend-mode:multiply" opacity="0.17">
<path d="M63.9559 64.7763C91.4745 49.9478 135.92 51.514 137.99 79.0198C139.07 93.5796 124.184 106.309 109.143 112.689C100.589 116.3 91.2641 119.139 82.1921 120.468C72.6355 121.874 62.7827 121.579 55.3408 117.756C46.2856 113.093 38.1599 103.96 38.9799 93.4028C39.7999 82.8453 52.3077 71.0766 63.9534 64.7958L63.9559 64.7763Z" fill="#DB9841"/>
</g>
<g style="mix-blend-mode:multiply" opacity="0.18">
<path d="M63.8945 64.9465C91.1935 50.2876 135.167 51.8328 137.265 78.9663C138.382 93.3924 123.562 106.071 108.689 112.373C100.24 115.938 91.0171 118.752 82.0424 120.093C72.442 121.532 62.5257 121.269 55.0743 117.366C46.1579 112.701 38.1948 103.688 39.0827 93.218C39.9706 82.7483 52.3367 71.1594 63.8945 64.9465V64.9465Z" fill="#DB9841"/>
</g>
<g style="mix-blend-mode:multiply" opacity="0.2">
<path d="M63.833 65.1167C90.9344 50.6105 134.392 52.1686 136.559 78.9154C137.711 93.2272 122.961 105.816 108.235 112.058C99.8905 115.577 90.7506 118.361 81.8732 119.715C72.2313 121.169 62.2298 120.954 54.8053 116.995C46.0276 112.328 38.2297 103.415 39.1829 93.0529C40.1362 82.6906 52.363 71.2617 63.833 65.1167Z" fill="#DA9741"/>
</g>
<g style="mix-blend-mode:multiply" opacity="0.21">
<path d="M63.7742 65.2675C90.678 50.9141 133.641 52.4681 135.856 78.8451C137.061 93.0452 122.344 105.539 107.803 111.726C99.5608 115.218 90.5256 117.957 81.7286 119.301C72.0623 120.791 61.9609 120.584 54.5415 116.586C45.9025 111.917 38.2697 103.104 39.2883 92.849C40.3069 82.5939 52.3945 71.3252 63.7548 65.265L63.7742 65.2675Z" fill="#DA9741"/>
</g>
<g style="mix-blend-mode:multiply" opacity="0.23">
<path d="M63.7128 65.4376C90.397 51.2538 132.866 52.8038 135.151 78.7941C136.39 92.8799 121.741 105.304 107.368 111.413C99.2309 114.86 90.298 117.571 81.5788 118.926C71.8686 120.45 61.6844 120.271 54.2919 116.217C45.7917 111.546 38.3216 102.853 39.408 92.6861C40.4945 82.5189 52.4184 71.4469 63.7128 65.4376V65.4376Z" fill="#DA9641"/>
</g>
<g style="mix-blend-mode:multiply" opacity="0.24">
<path d="M63.671 65.6103C90.1576 51.5792 132.133 53.1252 134.465 78.7457C135.739 92.7172 121.161 105.051 106.953 111.102C98.9207 114.503 90.0902 117.189 81.4683 118.556C71.7141 120.114 61.4471 119.964 54.0645 115.832C45.703 111.159 38.4176 102.569 39.5305 92.5041C40.6434 82.4392 52.467 71.5323 63.6735 65.5908L63.671 65.6103Z" fill="#D99641"/>
</g>
<g style="mix-blend-mode:multiply" opacity="0.25">
<path d="M63.6094 65.7804C89.8984 51.902 131.377 53.4634 133.742 78.6727C135.05 92.5299 120.541 104.793 106.499 110.787C98.5907 114.144 89.843 116.801 81.2989 118.178C71.5034 119.75 61.151 119.649 53.7954 115.461C45.5726 110.786 38.4498 102.316 39.6281 92.3582C40.8063 82.4006 52.4907 71.654 63.6094 65.7804Z" fill="#D99541"/>
</g>
<g style="mix-blend-mode:multiply" opacity="0.27">
<path d="M63.5481 65.9505C89.62 52.2223 130.605 53.7798 133.036 78.6218C134.379 92.3648 119.94 104.538 106.064 110.474C98.2584 113.805 89.596 116.413 81.1493 117.802C71.3292 119.411 60.8746 119.337 53.5265 115.09C45.4424 110.414 38.4848 102.043 39.7284 92.1931C40.972 82.3427 52.5147 71.7757 63.5456 65.97L63.5481 65.9505Z" fill="#D99541"/>
</g>
<g style="mix-blend-mode:multiply" opacity="0.28">
<path d="M63.4893 66.1012C89.3611 52.5452 129.852 54.0986 132.333 78.5514C133.711 92.1801 119.343 104.264 105.632 110.141C97.9313 113.427 89.3712 116.008 81.0023 117.408C71.1383 119.051 60.6008 119.005 53.2797 114.703C45.3318 110.043 38.5418 101.754 39.8508 92.0109C41.1598 82.2679 52.5633 71.8611 63.4868 66.1207L63.4893 66.1012Z" fill="#D89541"/>
</g>
<g style="mix-blend-mode:multiply" opacity="0.3">
<path d="M63.4474 66.274C89.1215 52.8706 129.118 54.42 131.647 78.503C133.062 91.9979 118.759 104.031 105.217 109.831C97.6208 113.07 89.1631 115.626 80.8745 117.015C70.9666 118.692 60.3463 118.675 53.0351 114.295C45.226 109.634 38.5987 101.465 39.9561 91.8069C41.3135 82.1492 52.5946 71.9245 63.4304 66.252L63.4474 66.274Z" fill="#D89441"/>
</g>
<g style="mix-blend-mode:multiply" opacity="0.31">
<path d="M63.386 66.4441C88.8431 53.1909 128.363 54.7583 130.942 78.452C132.39 91.8327 118.159 103.776 104.782 109.518C97.2911 112.712 88.9356 115.24 80.7443 116.643C70.795 118.334 60.1088 118.368 52.8051 113.93C45.1322 109.286 38.6726 101.197 40.0954 91.6467C41.5181 82.0962 52.6381 72.0487 63.4055 66.4466L63.386 66.4441Z" fill="#D89441"/>
</g>
<g style="mix-blend-mode:multiply" opacity="0.32">
<path d="M63.327 66.5948C88.5864 53.4944 127.612 55.0577 130.219 78.3792C131.722 91.648 117.539 103.518 104.331 109.183C96.9441 112.331 88.6909 114.833 80.5775 116.245C70.5843 117.971 59.8153 118.034 52.5191 113.537C45.2229 109.04 38.688 100.922 40.1786 91.4596C41.6692 81.997 52.6474 72.1291 63.327 66.5948V66.5948Z" fill="#D79341"/>
</g>
<g style="mix-blend-mode:multiply" opacity="0.34">
<path d="M63.285 66.7675C88.3444 53.8392 126.876 55.3985 129.533 78.3307C131.07 91.4853 116.958 103.266 103.913 108.892C96.6287 112.013 88.4584 114.487 80.4448 115.892C70.4271 117.654 59.5558 117.743 52.2865 113.191C45.0173 108.638 38.7593 100.674 40.3153 91.3188C41.8712 81.9635 52.7102 72.2558 63.302 66.7894L63.285 66.7675Z" fill="#D79341"/>
</g>
<g style="mix-blend-mode:multiply" opacity="0.35">
<path d="M63.2236 66.9377C88.0659 54.1596 126.123 55.7173 128.827 78.2798C130.399 91.3201 116.358 103.011 103.459 108.577C96.2794 111.652 88.2114 114.099 80.2756 115.514C70.214 117.31 59.2599 117.428 52.0006 112.798C44.7414 108.168 38.7772 100.38 40.3986 91.1318C42.0199 81.8838 52.7172 72.3557 63.2041 66.9352L63.2236 66.9377Z" fill="#D79241"/>
</g>
<g style="mix-blend-mode:multiply" opacity="0.37">
<path d="M63.1819 67.1104C87.8265 54.485 125.39 56.0387 128.144 78.2119C129.75 91.1379 115.777 102.758 103.046 108.247C95.9718 111.276 88.006 113.697 80.1481 115.122C70.0426 116.952 59.0056 117.099 51.7733 112.413C44.541 107.726 38.8513 100.112 40.521 90.9496C42.1908 81.7869 52.7658 72.4411 63.1624 67.1079L63.1819 67.1104Z" fill="#D69241"/>
</g>
<g style="mix-blend-mode:multiply" opacity="0.38">
<path d="M63.1229 67.261C87.5674 54.8077 124.636 56.3575 127.421 78.139C129.061 90.9507 115.16 102.481 102.595 107.912C95.6249 110.896 87.7614 113.29 80.0033 114.708C69.8733 116.574 58.7535 116.75 51.5092 112.003C44.265 107.256 38.8911 99.8008 40.6262 90.7455C42.3613 81.6901 52.7971 72.5044 63.1059 67.2391L63.1229 67.261Z" fill="#D69241"/>
</g>
<g style="mix-blend-mode:multiply" opacity="0.39">
<path d="M63.0615 67.4312C87.289 55.1282 123.883 56.6764 126.715 78.0881C128.41 90.7881 114.56 102.226 102.16 107.599C95.2926 110.556 87.5339 112.904 79.8536 114.333C69.6823 116.213 58.4746 116.457 51.2598 111.635C44.045 106.812 38.9431 99.5503 40.7436 90.6022C42.544 81.6541 52.8211 72.6262 63.0615 67.4312Z" fill="#D69141"/>
</g>
<g style="mix-blend-mode:multiply" opacity="0.41">
<path d="M63.0196 67.6038C87.0495 55.4535 123.147 57.0171 126.029 78.0396C127.758 90.6253 113.976 101.993 101.745 107.289C94.9823 110.2 87.3234 112.541 79.7234 113.96C69.5082 115.874 58.2177 116.147 51.0128 111.247C44.2985 106.686 39 99.2609 40.8659 90.4201C42.7317 81.5793 52.867 72.731 63.0221 67.5844L63.0196 67.6038Z" fill="#D59141"/>
</g>
<g style="mix-blend-mode:multiply" opacity="0.42">
<path d="M62.9803 67.7569C86.8125 55.7593 122.416 57.3189 125.346 77.9716C127.109 90.443 113.379 101.719 101.33 106.978C94.672 109.843 87.1154 112.158 79.5933 113.587C69.3341 115.535 57.9608 115.837 50.7829 110.881C44.2048 106.338 39.0715 99.0128 41.0052 90.2598C42.9388 81.5068 52.9325 72.8381 62.9778 67.7764L62.9803 67.7569Z" fill="#D59041"/>
</g>
<g style="mix-blend-mode:multiply" opacity="0.44">
<path d="M62.9189 67.9273C86.5315 56.0993 121.68 57.6599 124.64 77.9208C126.438 90.278 112.776 101.483 100.895 106.666C94.3616 109.487 86.8684 111.771 79.4436 113.212C69.16 115.197 57.6843 115.525 50.5139 110.51C44.0721 105.985 39.1064 98.7405 41.086 90.0923C43.0656 81.4441 52.9394 72.9381 62.8969 67.9443L62.9189 67.9273Z" fill="#D59041"/>
</g>
<g style="mix-blend-mode:multiply" opacity="0.45">
<path d="M62.8768 68.0998C86.2919 56.4246 120.947 57.9813 123.935 77.8699C125.786 90.1153 112.176 101.228 100.461 106.353C94.0292 109.148 86.6383 111.405 79.3133 112.839C68.9858 114.858 57.4248 115.234 50.2838 110.144C43.9587 105.634 39.1777 98.4924 41.2251 89.932C43.2726 81.3717 53.0022 73.0648 62.8743 68.1193L62.8768 68.0998Z" fill="#D48F41"/>
</g>
<g style="mix-blend-mode:multiply" opacity="0.46">
<path d="M62.8374 68.2531C86.0549 56.7305 120.213 58.3026 123.253 77.7825C125.139 89.9136 111.6 100.937 100.05 106.003C93.7239 108.753 86.4353 110.983 79.1906 112.408C68.8192 114.46 57.1948 114.869 50.0444 109.698C43.853 105.225 39.2421 98.1445 41.3549 89.6915C43.4677 81.2385 53.0581 73.0917 62.8399 68.2336L62.8374 68.2531Z" fill="#D48F41"/>
</g>
<g style="mix-blend-mode:multiply" opacity="0.48">
<path d="M62.7759 68.4233C85.7763 57.0509 119.48 58.6239 122.548 77.7315C124.468 89.7483 110.997 100.701 99.6157 105.69C93.3939 108.394 86.2076 110.598 79.0408 112.033C68.6254 114.119 56.9158 114.576 49.7948 109.33C43.7396 104.874 39.2939 97.8941 41.4746 89.5289C43.6552 81.1637 53.0844 73.1941 62.7979 68.4063L62.7759 68.4233Z" fill="#D48F41"/>
</g>
<g style="mix-blend-mode:multiply" opacity="0.49">
<path d="M62.7365 68.5764C85.5367 57.3762 118.746 58.9453 121.864 77.6637C123.838 89.5687 110.418 100.429 99.203 105.361C93.0861 108.018 85.9995 110.215 78.9131 111.64C68.4732 113.763 56.6613 114.246 49.5478 108.942C43.6288 104.503 39.3508 97.6046 41.5774 89.3442C43.8039 81.0838 53.1109 73.2963 62.7195 68.5545L62.7365 68.5764Z" fill="#D38E41"/>
</g>
<g style="mix-blend-mode:multiply" opacity="0.51">
<path d="M62.6947 68.7491C85.2974 57.7016 118.032 59.2691 121.178 77.6152C123.187 89.406 109.835 100.196 98.7855 105.07C92.7708 107.701 85.7891 109.852 78.8 111.29C68.3162 113.446 56.4189 113.978 49.3374 108.579C43.5327 104.175 39.4418 97.3591 41.7362 89.1866C44.0306 81.014 53.1959 73.4061 62.7167 68.7321L62.6947 68.7491Z" fill="#D38E41"/>
</g>
<g style="mix-blend-mode:multiply" opacity="0.52">
<path d="M62.6527 68.9218C85.0383 58.0245 117.318 59.5931 120.472 77.5644C122.535 89.2434 109.235 99.941 98.3314 104.754C92.4215 107.339 85.5421 109.464 78.6308 110.912C68.1031 113.102 56.1204 113.682 49.0489 108.206C43.3804 103.819 39.4572 97.0842 41.8145 89.0384C44.0585 81.4133 53.2003 73.5255 62.6308 68.9388L62.6527 68.9218Z" fill="#D28D41"/>
</g>
<g style="mix-blend-mode:multiply" opacity="0.54">
<path d="M62.6134 69.075C84.7988 58.3498 116.604 59.9167 119.789 77.4963C121.886 89.061 108.657 99.6689 97.9188 104.424C92.1137 106.964 85.3341 109.081 78.5032 110.519C67.9511 112.747 55.8636 113.372 48.8215 107.82C43.2868 103.47 39.5117 96.8142 41.9563 88.8587C44.2437 81.3579 53.2657 73.6327 62.6109 69.0945L62.6134 69.075Z" fill="#D28D41"/>
</g>
<g style="mix-blend-mode:multiply" opacity="0.55">
<path d="M62.5713 69.2477C84.5591 58.6752 115.87 60.2381 119.103 77.448C121.254 88.9009 108.073 99.4359 97.5035 104.114C91.8032 106.607 85.1064 108.696 78.3728 110.147C67.7767 112.408 55.6064 113.062 48.5718 107.452C43.1539 103.117 39.5659 96.5442 42.0759 88.696C44.4237 81.3414 53.3115 73.7376 62.5688 69.2672L62.5713 69.2477Z" fill="#D28D41"/>
</g>
<g style="mix-blend-mode:multiply" opacity="0.56">
<path d="M62.5319 69.4007C84.3221 58.9809 115.156 60.5619 118.419 77.38C120.604 88.7186 107.492 99.1832 97.0909 103.784C91.5124 106.253 84.9009 108.294 78.2476 109.735C67.6076 112.03 55.352 112.733 48.3494 107.028C43.0651 102.73 39.6449 96.2377 42.2033 88.4749C44.5919 81.264 53.3454 73.7813 62.5319 69.4007Z" fill="#D18C41"/>
</g>
<g style="mix-blend-mode:multiply" opacity="0.58">
<path d="M62.4901 69.5735C84.0632 59.3039 114.442 60.8858 117.716 77.3096C119.955 88.5365 106.892 98.9282 96.6589 103.451C91.1852 105.875 84.6735 107.908 78.12 109.343C67.4556 111.674 55.0952 112.423 48.1025 106.64C42.952 102.379 39.7019 95.9484 42.3256 88.2928C44.7577 81.2061 53.3939 73.8667 62.4731 69.5515L62.4901 69.5735Z" fill="#D18C41"/>
</g>
<g style="mix-blend-mode:multiply" opacity="0.59">
<path d="M62.4506 69.7268C83.8236 59.6294 113.73 61.1903 117.032 77.2419C119.306 88.3545 106.314 98.6564 96.2461 103.122C90.8747 105.519 84.4678 107.506 77.9922 108.951C67.2814 111.336 54.8381 112.113 47.8748 106.255C42.8386 102.028 39.7562 95.6784 42.4673 88.1132C44.9403 81.1703 53.4592 73.9742 62.4531 69.7074L62.4506 69.7268Z" fill="#D18B41"/>
</g>
<g style="mix-blend-mode:multiply" opacity="0.61">
<path d="M62.4281 69.9018C83.6035 59.9571 113.053 61.5384 116.366 77.1958C118.693 88.1966 105.753 98.4063 95.848 102.833C90.5814 105.184 84.2743 107.165 77.879 108.6C67.1242 111.018 54.5956 111.845 47.6424 105.908C42.7424 101.699 39.8276 95.4304 42.604 87.9725C45.1374 81.1758 53.5221 74.1008 62.4281 69.9018V69.9018Z" fill="#D08B41"/>
</g>
<g style="mix-blend-mode:multiply" opacity="0.62">
<path d="M62.3886 70.055C83.3469 60.2605 112.341 61.8428 115.682 77.1279C118.064 88.0169 105.172 98.1537 95.4352 102.503C90.2734 104.809 84.0686 106.762 77.7511 108.207C66.972 110.663 54.3386 111.535 47.4172 105.504C42.6315 101.329 39.9039 95.1434 42.7287 87.7708C45.3055 81.0983 53.5729 74.1667 62.3886 70.055Z" fill="#D08A41"/>
</g>
<g style="mix-blend-mode:multiply" opacity="0.63">
<path d="M62.3662 70.2303C83.1244 60.6079 111.646 62.1692 115.015 77.082C117.431 87.8567 104.61 97.9036 95.0396 102.195C89.9825 104.455 83.8776 106.402 77.6404 107.837C66.8174 110.326 54.0961 111.266 47.1873 105.138C42.5159 100.998 39.9558 94.8929 42.868 87.6107C45.4857 81.0819 53.6164 74.291 62.3662 70.2303Z" fill="#D08A41"/>
</g>
<g style="mix-blend-mode:multiply" opacity="0.65">
<path d="M62.3267 70.3833C82.8873 60.9136 110.954 62.476 114.312 77.0115C116.785 87.655 104.01 97.6485 94.6074 101.863C89.6527 104.096 83.6525 105.997 77.5152 107.425C66.6482 109.948 53.8221 110.934 46.9622 104.733C42.4245 100.63 40.0347 94.5864 43.0097 87.4309C45.6708 81.0264 53.6842 74.3787 62.3267 70.3833Z" fill="#CF8A41"/>
</g>
<g style="mix-blend-mode:multiply" opacity="0.66">
<path d="M62.3043 70.5585C82.6478 61.2391 110.257 62.8217 113.646 76.9655C116.172 87.4972 103.449 97.3985 94.2118 101.555C89.3618 103.742 83.4615 105.636 77.4045 107.055C66.5105 109.634 53.5822 110.646 46.7322 104.367C42.3088 100.298 40.0866 94.3359 43.1489 87.2708C45.8509 81.01 53.7496 74.486 62.3043 70.5585V70.5585Z" fill="#CF8941"/>
</g>
<g style="mix-blend-mode:multiply" opacity="0.68">
<path d="M62.2844 70.7144C82.4303 61.5476 109.585 63.1312 112.981 76.9002C115.562 87.3202 102.89 97.129 93.8187 101.228C89.0735 103.369 83.2754 105.236 77.2962 106.665C66.3584 109.278 53.3423 110.359 46.5267 103.965C42.2176 99.9308 40.185 94.0322 43.3127 87.0743C46.0556 80.9573 53.837 74.5765 62.3038 70.7169L62.2844 70.7144Z" fill="#CF8941"/>
</g>
<g style="mix-blend-mode:multiply" opacity="0.69">
<path d="M62.2618 70.8894C82.2076 61.8948 108.89 63.4575 112.317 76.8348C114.951 87.1429 102.328 96.879 93.4033 100.917C88.763 103.013 83.0647 104.873 77.1659 106.293C66.2036 108.942 53.0632 110.066 46.2771 103.597C42.0992 99.6188 40.2173 93.779 43.4128 86.909C46.1992 80.9162 53.8633 74.6787 62.2423 70.8869L62.2618 70.8894Z" fill="#CE8841"/>
</g>
<g style="mix-blend-mode:multiply" opacity="0.7">
<path d="M62.242 71.0452C81.9707 62.2008 108.217 63.767 111.653 76.7695C114.341 86.9659 101.77 96.6096 93.0103 100.59C88.4747 102.639 82.8788 104.473 77.0578 105.903C66.0491 108.606 52.8234 109.778 46.0692 103.214C42.0056 99.2706 40.2938 93.4922 43.5742 86.732C46.4014 80.8829 53.9508 74.7691 62.242 71.0452V71.0452Z" fill="#CE8841"/>
</g>
<g style="mix-blend-mode:multiply" opacity="0.72">
<path d="M62.2415 71.2034C81.7726 62.5116 107.564 64.0788 110.989 76.704C113.731 86.7886 101.211 96.34 92.6172 100.262C88.1839 102.285 82.6902 104.093 76.969 105.516C65.9164 108.252 52.5834 109.49 45.8612 102.831C41.9118 98.9222 40.3872 93.2271 43.7355 86.5547C46.6061 80.8299 54.0162 74.8763 62.2196 71.2203L62.2415 71.2034Z" fill="#CE8741"/>
</g>
<g style="mix-blend-mode:multiply" opacity="0.73">
<path d="M62.2188 71.3786C81.5523 62.8395 106.889 64.4077 110.322 76.6581C113.118 86.6309 100.647 96.1095 92.2213 99.9547C87.8928 101.932 82.4819 103.71 76.8606 105.126C65.7835 107.899 52.3262 109.18 45.6554 102.429C41.8203 98.5545 40.4659 92.9208 43.8989 86.3582C46.8105 80.7772 54.1058 74.9473 62.2213 71.3591L62.2188 71.3786Z" fill="#CD8741"/>
</g>
<g style="mix-blend-mode:multiply" opacity="0.75">
<path d="M62.2183 71.5368C81.3322 63.1674 106.233 64.739 109.677 76.5952C112.527 86.4562 100.107 95.8424 91.8475 99.6297C87.6433 101.563 82.3128 103.333 76.7718 104.739C65.6483 107.565 52.1057 108.894 45.4474 102.046C41.7265 98.2062 40.5422 92.6339 44.0601 86.1811C47.0151 80.7243 54.1931 75.0376 62.2208 71.5173L62.2183 71.5368Z" fill="#CD8741"/>
</g>
<g style="mix-blend-mode:multiply" opacity="0.76">
<path d="M62.1986 71.6924C81.1149 63.4757 105.561 65.0483 109.013 76.5297C111.939 86.262 99.5461 95.5924 91.4545 99.3023C87.3551 101.19 82.1244 102.952 76.6637 104.349C65.5158 107.212 51.8464 108.604 45.2395 101.664C41.6304 97.8772 40.6358 92.3688 44.202 86.0013C47.1979 80.6882 54.2612 75.1254 62.2011 71.6729L62.1986 71.6924Z" fill="#CD8641"/>
</g>
<g style="mix-blend-mode:multiply" opacity="0.77">
<path d="M62.1955 71.87C80.9142 63.806 104.927 65.3626 108.347 76.4838C111.326 86.1043 98.9653 95.3398 91.0563 99.0138C87.0591 100.875 81.9333 102.591 76.5699 104C65.3755 106.917 51.6014 108.355 45.0264 101.32C41.5316 97.5677 40.7071 92.1207 44.3557 85.8825C47.395 80.6936 54.3385 75.2935 62.1905 71.9089L62.1955 71.87Z" fill="#CC8641"/>
</g>
<g style="mix-blend-mode:multiply" opacity="0.79">
<path d="M62.2145 72.0307C80.7136 64.1364 104.293 65.677 107.724 76.4039C110.777 85.9152 98.4478 95.0558 90.7045 98.672C86.8122 100.487 81.7861 102.197 76.503 103.596C65.2842 106.549 51.3614 108.067 44.8623 100.903C41.4792 97.2049 40.8249 91.8194 44.5608 85.6714C47.641 80.6264 54.4697 75.3499 62.2145 72.0307V72.0307Z" fill="#CC8541"/>
</g>
<g style="mix-blend-mode:multiply" opacity="0.8">
<path d="M62.2138 72.1889C80.5153 64.4473 103.659 65.9914 107.079 76.341C110.186 85.7404 97.9058 94.8082 90.3307 98.347C86.5431 100.116 81.6193 101.799 76.4141 103.209C65.1489 106.215 51.1212 107.779 44.654 100.52C41.3853 96.8566 40.9011 91.5324 44.7218 85.4943C47.826 80.571 54.5374 75.4378 62.2138 72.1889V72.1889Z" fill="#CC8541"/>
</g>
<g style="mix-blend-mode:multiply" opacity="0.82">
<path d="M62.2108 72.3667C80.3147 64.7777 103.003 66.3228 106.432 76.2976C109.614 85.5683 97.3639 94.5608 89.9544 98.0417C86.2716 99.7652 81.4477 101.441 76.3253 102.822C65.0331 105.884 50.8787 107.511 44.4654 100.14C41.3109 96.5109 40.9969 91.2481 44.883 85.3172C48.0281 80.5376 54.6222 75.5476 62.2108 72.3667V72.3667Z" fill="#CB8441"/>
</g>
<g style="mix-blend-mode:multiply" opacity="0.83">
<path d="M62.2299 72.5273C80.1167 65.0885 102.389 66.6396 105.807 76.2371C109.224 85.8347 96.8441 94.2962 89.6003 97.7192C86.0198 99.4163 81.2981 101.066 76.2561 102.437C64.92 105.533 50.6389 107.223 44.277 99.7597C41.2343 96.1845 41.0929 90.9636 45.0638 85.1425C48.2523 80.4872 54.7292 75.6404 62.2299 72.5273V72.5273Z" fill="#CB8441"/>
</g>
<g style="mix-blend-mode:multiply" opacity="0.85">
<path d="M62.2488 72.688C79.9355 65.4214 101.777 66.937 105.162 76.1743C108.547 85.4115 96.3021 94.0487 89.207 97.3919C85.7314 99.0431 81.112 100.666 76.1672 102.05C64.8042 105.202 50.3768 106.952 44.0908 99.36C41.1624 95.8192 41.1912 90.6597 45.2469 84.9484C48.4593 80.4149 54.8384 75.7138 62.2513 72.6685L62.2488 72.688Z" fill="#CB8441"/>
</g>
<g style="mix-blend-mode:multiply" opacity="0.86">
<path d="M62.2653 72.8681C79.7544 65.7542 101.161 67.2733 104.534 76.1333C107.908 84.9933 95.7797 93.8037 88.8478 97.1084C85.477 98.7137 80.9574 100.33 76.093 101.704C64.703 104.912 50.1294 106.722 43.8973 99.0186C41.0806 95.5317 41.2796 90.4336 45.4227 84.8127C48.6759 80.4228 54.9377 75.8649 62.2459 72.8656L62.2653 72.8681Z" fill="#CA8341"/>
</g>
<g style="mix-blend-mode:multiply" opacity="0.87">
<path d="M62.3036 73.0313C79.5756 66.0676 100.568 67.5732 103.928 76.0753C107.289 84.5775 95.2791 93.5417 88.5129 96.7886C85.2468 98.3479 80.827 99.957 76.043 101.322C64.6066 104.583 49.9063 106.456 43.7475 98.6433C41.0257 95.1884 41.3947 90.1517 45.6421 84.6431C48.9193 80.375 55.0833 75.9628 62.3011 73.0508L62.3036 73.0313Z" fill="#CA8341"/>
</g>
<g style="mix-blend-mode:multiply" opacity="0.89">
<path d="M62.3225 73.192C79.3944 66.4005 99.9538 67.89 103.303 76.0149C106.879 84.6833 94.7566 93.2966 88.1586 96.4661C84.9973 97.9795 80.6798 99.5623 75.9736 100.937C64.5127 104.234 49.6637 106.187 43.5588 98.263C40.9487 94.862 41.4905 89.8672 45.8032 84.4659C49.1239 80.322 55.1511 76.0506 62.3005 73.2089L62.3225 73.192Z" fill="#CA8241"/>
</g>
<g style="mix-blend-mode:multiply" opacity="0.9">
<path d="M62.3611 73.3551C79.2353 66.7163 99.3616 68.1899 102.7 75.9375C106.355 84.4577 94.2588 93.0151 87.8264 96.1268C84.7674 97.6138 80.5717 99.1725 75.9288 100.516C64.441 103.869 49.4263 105.88 43.4168 97.8294C40.9015 94.4603 41.6329 89.5293 46.028 84.2572C49.3725 80.2352 55.2995 76.1289 62.3636 73.3356L62.3611 73.3551Z" fill="#C98241"/>
</g>
<g style="mix-blend-mode:multiply" opacity="0.92">
<path d="M62.3968 73.5378C79.054 67.0492 98.7861 68.5118 102.072 75.8966C105.822 84.2906 93.7167 92.7676 87.4695 95.8239C84.5153 97.265 80.4193 98.8168 75.8763 100.153C64.3421 103.56 49.1787 105.65 43.245 97.471C40.8415 94.1558 41.7285 89.245 46.2254 84.1046C49.6134 80.2068 55.423 76.2437 62.3993 73.5184L62.3968 73.5378Z" fill="#C98241"/>
</g>
<g style="mix-blend-mode:multiply" opacity="0.93">
<path d="M62.4352 73.701C78.8948 67.3651 98.1938 68.8117 101.466 75.8387C105.312 84.1064 93.2163 92.5056 87.1347 95.504C84.2853 96.8991 80.2891 98.444 75.8264 99.7707C64.2653 103.233 48.9362 105.382 43.0954 97.0957C40.7867 93.8125 41.8633 88.9654 46.445 83.9349C49.8569 80.1589 55.5688 76.3416 62.4352 73.701V73.701Z" fill="#C98141"/>
</g>
<g style="mix-blend-mode:multiply" opacity="0.94">
<path d="M62.4931 73.8668C78.7526 67.703 97.6404 69.1167 100.88 75.7834C104.843 83.9079 92.7327 92.2656 86.8168 95.2061C84.0722 96.5554 80.1784 98.0737 75.7935 99.4104C64.2029 102.948 48.7082 105.155 42.9457 96.7206C40.7488 93.4912 41.998 88.6861 46.6645 83.7654C50.1199 80.1136 55.7145 76.4395 62.4931 73.8668V73.8668Z" fill="#C88141"/>
</g>
<g style="mix-blend-mode:multiply" opacity="0.96">
<path d="M62.5317 74.0299C78.5936 68.0188 97.0482 69.4164 100.274 75.7253C104.335 83.7041 92.2324 92.0034 86.4822 94.8861C83.8424 96.1894 80.0483 97.7009 75.7438 99.0281C64.1262 102.622 48.4439 104.903 42.7961 96.3452C40.694 93.1478 42.116 88.3846 46.8648 83.5931C50.3441 80.0631 55.8384 76.5542 62.5317 74.0299V74.0299Z" fill="#C88041"/>
</g>
<g style="mix-blend-mode:multiply" opacity="0.97">
<path d="M62.5869 74.2152C78.4317 68.3543 96.4946 69.7214 99.6659 75.687C103.844 83.5225 91.7292 91.761 86.1447 94.5858C83.6097 95.8432 79.9154 97.3476 75.6913 98.6654C64.0468 102.315 48.1767 104.671 42.6243 95.9871C40.6145 92.8411 42.2286 88.1223 47.0622 83.4406C50.5849 80.0348 55.9425 76.6665 62.5649 74.2321L62.5869 74.2152Z" fill="#C88041"/>
</g>
<g style="mix-blend-mode:multiply" opacity="0.99">
<path d="M62.7226 74.3907C78.3698 68.6825 96.019 70.0362 99.1574 75.6415C103.474 83.3169 91.3236 91.5308 85.9072 94.2783C83.4745 95.5093 79.885 96.9678 75.7582 98.298C64.0867 102.004 48.0071 104.452 42.5915 95.6267C40.6765 92.5126 42.4632 87.8357 47.3986 83.2857C50.9453 80.0017 56.205 76.7793 62.7396 74.4127L62.7226 74.3907Z" fill="#C77F41"/>
</g>
<g style="mix-blend-mode:multiply">
<path d="M75.6524 97.8889C63.9515 101.67 47.6867 104.173 42.3689 95.2025C39.2464 89.9356 47.2751 80.085 62.7052 74.527C78.1522 68.9909 95.3733 70.2897 98.4983 75.5372C102.935 83.0499 90.7697 91.2225 85.519 93.912C83.2105 95.0996 79.7014 96.5487 75.6574 97.85L75.6524 97.8889Z" fill="#C77F41"/>
</g>
</g>
<path d="M102.085 56.0565L102.1 55.9398C102.127 55.7257 102.212 54.4507 102.218 52.5524C102.221 52.3747 102.221 52.2165 102.205 52.0364C102.196 51.7978 102.19 51.5398 102.183 51.2818C102.003 45.1262 100.611 39.1712 98.1487 33.6922L98.1537 33.6534C97.8538 33.061 97.5929 32.4736 97.293 31.8812C95.8905 29.09 94.2125 26.4416 92.2735 23.9773C91.3744 22.8135 90.2372 21.5005 89.2378 20.5019C88.5756 19.8037 87.8696 19.1394 87.1635 18.4752L87.0592 18.3629L86.9719 18.2725C86.8482 18.1577 86.7244 18.043 86.5982 17.9477C86.1371 17.5325 85.6371 17.1122 85.0813 16.665L85.0279 16.6187C84.7584 16.4061 84.489 16.1934 84.2026 15.9589C84.0764 15.8636 83.9306 15.7658 83.8044 15.6704C83.6976 15.5776 83.5883 15.5043 83.4815 15.4114C83.3917 15.3406 83.2994 15.2891 83.2096 15.2183C81.527 13.9936 79.7541 12.8562 77.8834 11.8646C77.4024 11.605 77.0332 11.3994 76.8096 11.2916L76.4743 11.1299L76.139 10.9682L76.0806 10.9607L76.0077 10.9117C75.8401 10.8309 75.636 10.7256 75.4683 10.6448L75.3905 10.6348L75.3201 10.5665L74.9459 10.3998C74.7952 10.3409 74.5911 10.2356 74.4404 10.1767L74.0103 9.983L73.7673 9.87275L73.6894 9.86276L73.5971 9.81132L73.4659 9.75488L72.9774 9.55374C72.8656 9.49984 72.7149 9.44097 72.5812 9.40403C72.4499 9.34763 72.3162 9.31072 72.2044 9.25682C72.2044 9.25682 72.0343 9.19538 71.9589 9.16593C71.8082 9.10704 71.6381 9.04565 71.4874 8.98676L71.1665 8.86652C71.0158 8.80763 70.8626 8.76822 70.7119 8.70933L70.6341 8.69934C70.5223 8.64544 70.408 8.61093 70.2938 8.57649L70.0847 8.51019L69.8367 8.43878L69.7005 8.4213L69.5692 8.36487C69.455 8.33043 69.3212 8.29356 69.207 8.25912L68.9784 8.1902C68.8447 8.15327 68.7109 8.11639 68.5772 8.07946L68.2344 7.97609C68.2344 7.97609 68.1007 7.93912 68.0253 7.90967C67.9086 7.89469 67.8163 7.84337 67.6995 7.82839L67.3931 7.74949C67.2205 7.70756 67.0478 7.6657 66.8946 7.62627L66.435 7.50792L66.2404 7.48296C66.1092 7.42656 65.9535 7.40665 65.8197 7.36972C65.6082 7.3228 65.3966 7.27582 65.185 7.2289C65.0293 7.20893 64.8762 7.16947 64.7424 7.13253C64.5673 7.11007 64.4116 7.0902 64.2584 7.05077C64.0832 7.0283 63.9106 6.98636 63.7354 6.96389C63.6187 6.94891 63.5214 6.93644 63.4241 6.92396L63.1321 6.88651C63.1321 6.88651 62.9764 6.86654 62.9181 6.85906L62.6651 6.82661C61.7335 6.68733 60.8163 6.58948 59.8821 6.46967C59.6681 6.44221 59.4735 6.41727 59.2958 6.41426C59.0817 6.38681 58.8847 6.38123 58.6681 6.37324C58.5319 6.35576 58.4151 6.3408 58.2958 6.34529C57.9819 6.32481 57.6875 6.30679 57.3906 6.30827C57.2933 6.29579 57.1766 6.28084 57.0768 6.28782C56.6436 6.27183 56.2274 6.27781 55.8332 6.26682C55.6361 6.26132 55.4585 6.25827 55.2589 6.27223L55.1421 6.25726C54.8232 6.27571 54.5263 6.27722 54.2464 6.30067C54.0273 6.31213 53.7888 6.3211 53.5697 6.33257C53.0538 6.34552 52.6546 6.37342 52.3746 6.39686C51.0163 6.49959 49.6505 6.66074 48.2967 6.88274C47.4908 6.99698 46.7797 7.14319 45.8835 7.34476C42.1599 8.15302 38.5345 9.42887 35.0903 11.1434C34.7514 11.3175 34.4126 11.4917 34.0713 11.6853L33.9445 11.7482C33.3497 12.0675 32.7743 12.3893 32.1964 12.7307L32.0477 12.8106L32.0038 12.8444L31.9599 12.8784L31.8965 12.9099L31.8526 12.9437C31.7014 13.043 31.5307 13.1398 31.3795 13.2391C31.0577 13.4352 30.7553 13.6339 30.4528 13.8325C30.2797 13.9488 30.109 14.0455 29.9553 14.1643C29.609 14.3968 29.2846 14.6124 28.9797 14.8305L28.9358 14.8644L28.8919 14.8983C28.8919 14.8983 28.7407 14.9977 28.6748 15.0485C27.0649 16.1873 26.0839 17.0506 26.018 17.1015C25.5105 17.5112 25.0174 17.9622 24.5219 18.4328C24.1656 18.7431 23.8043 19.0925 23.4235 19.4393L23.3357 19.5071L23.2893 19.5606C22.5447 20.2761 21.7463 21.1035 20.8645 22.118L20.8595 22.1569L20.8155 22.1908C20.4198 22.6544 19.9971 23.1738 19.5719 23.7128C19.1957 24.1789 18.8388 24.6475 18.5115 25.0408L17.438 26.6241C17.0762 27.1316 16.7338 27.6416 16.4379 28.0982C15.851 28.9725 15.1853 30.1532 14.5484 31.4167C13.99 32.532 13.4435 33.7082 12.9629 34.8335L12.9504 34.9308C12.3081 36.3915 11.7901 37.8087 11.4701 38.915C10.3202 43.0998 10.2168 43.4427 9.81597 46.2597C9.30078 49.8138 9.34603 52.3913 9.36641 53.6204C9.42308 57.1885 9.91542 59.9817 10.095 60.8949C10.6856 64.1556 11.3292 66.0779 11.9389 67.9563C12.3245 69.1136 12.6359 69.925 13.049 70.8682C13.5345 72.0185 14.1003 73.1593 14.705 74.3051L14.9081 74.7268C15.4883 75.9091 16.4009 77.4307 17.1738 78.4991C17.7431 79.3041 18.4771 80.3675 19.0684 81.1555C19.6621 81.9241 20.462 82.9367 21.1411 83.6568C21.8686 84.4623 22.1595 84.8161 22.8655 85.4803C23.7048 86.3397 24.571 87.1432 25.4422 87.9078C25.7262 88.1618 26.0126 88.3963 26.299 88.6309C26.6388 88.9119 26.9811 89.1734 27.287 89.4105C27.4496 89.5302 27.6851 89.6989 27.9376 89.8896L28.0639 89.9849C28.3358 90.178 28.6417 90.4151 29.006 90.6597C29.0788 90.7086 29.1517 90.7575 29.2415 90.8284C30.2759 91.5545 31.6092 92.4178 33.0667 93.2378C33.3801 93.4165 33.8247 93.6516 34.3616 93.9381C34.5098 94.0164 34.658 94.0947 34.8062 94.1731L35.5861 94.5699C35.7538 94.6507 35.9579 94.756 36.1255 94.8368L36.3127 94.9202L36.3516 94.9252L36.648 95.0819C36.7987 95.1408 37.0027 95.2462 37.1534 95.3051L37.6395 95.5256L37.6784 95.5306C39.5885 96.369 41.4263 97.0004 43.2038 97.4856L43.3789 97.508C43.5271 97.5864 43.6998 97.6283 43.8724 97.6702L43.9308 97.6777C44.084 97.7171 44.2372 97.7566 44.3709 97.7935L45.3679 98.0401C45.8105 98.1364 46.4258 98.2747 46.8684 98.3711C47.2915 98.4649 47.795 98.5492 48.2791 98.6311L48.2985 98.6336C48.5515 98.666 48.785 98.696 48.9966 98.7429C49.6388 98.8253 50.4757 98.9326 51.1179 99.015C51.7601 99.0974 52.6458 99.1318 53.293 99.1753C54.6923 99.2163 56.5491 99.2369 57.9582 99.2C59.0511 99.1621 60.5092 99.0524 61.5975 98.8952C61.8799 98.8523 62.1624 98.8094 62.4448 98.7665C63.2921 98.6378 64.1834 98.4752 64.9114 98.351L65.7882 98.1468C66.4798 97.9982 67.1739 97.83 67.8681 97.6619L68.2139 97.5875C69.0298 97.3954 70.0019 97.0652 70.8911 96.7638C71.2639 96.6336 71.6367 96.5033 72.0119 96.3536C73.0279 95.9894 74.278 95.4969 75.2091 95.0228L75.3139 94.977C76.1573 94.5708 77.0006 94.1646 77.832 93.6976C78.0221 93.6033 78.1927 93.5065 78.3609 93.4292L79.2826 92.8747C79.5192 92.727 79.7752 92.5818 80.0117 92.4341L81.404 91.6037C81.9404 91.2769 82.8916 90.6471 84.3238 89.5054L84.3897 89.4546L84.5239 89.3333C85.2729 88.737 86.1368 88.017 87.1204 87.1343L87.1887 87.0638C88.1698 86.2005 89.8201 84.5922 91.6965 82.3007L91.743 82.2474C92.1656 81.7279 92.6153 81.1526 93.048 80.5552C93.2386 80.3027 93.4317 80.0308 93.6223 79.7783C93.8863 79.4165 94.1503 79.0547 94.351 78.7243C94.4243 78.615 94.4977 78.5058 94.571 78.3965C94.9403 77.8306 95.3146 77.2258 95.6914 76.6016C96.2149 75.7587 96.702 74.8913 97.0793 74.1089C97.7406 72.8089 98.3704 71.4457 98.9543 69.9775C99.3246 69.0953 99.6586 68.1885 99.9046 67.3496C100.2 66.4379 100.478 65.5042 100.741 64.5291C100.81 64.3005 100.857 64.089 100.904 63.8774C101.229 62.5739 101.504 61.2046 101.703 59.8059L101.735 59.5528C101.897 58.446 102.025 57.2952 102.114 56.1395L102.085 56.0565Z" fill="url(#paint0_radial_40_731)"/>
<path d="M100.651 40.2447C100.591 39.9403 100.512 39.6334 100.413 39.324C100.495 39.6114 100.574 39.9184 100.651 40.2447Z" fill="url(#paint1_linear_40_731)"/>
<path d="M8.95038 54.3979C8.92695 54.1179 8.92046 53.86 8.89453 53.5995C8.901 53.8575 8.92445 54.1374 8.95038 54.3979Z" fill="url(#paint2_linear_40_731)"/>
<path d="M93.132 78.6669C90.6118 82.1221 81.1694 93.4333 65.3799 93.4655C52.1847 93.4744 45.7079 81.6643 45.6492 78.729C45.6407 78.3323 45.9391 77.8563 46.0474 77.4745C46.4826 76.0862 47.2433 73.3944 48.291 68.4645C66.64 75.4669 87.2824 74.613 97.3743 66.4119C95.8967 74.8475 93.951 77.5257 93.132 78.6669" fill="white"/>
<path d="M68.7317 54.6867C68.5445 56.1464 68.3433 57.4064 52.7201 61.6934C50.4162 62.2288 49.0321 59.7565 50.0502 57.9879C50.4834 57.2324 51.0632 57.0299 51.5213 56.8512C55.2979 55.4761 59.2261 54.6149 63.0027 53.2398C58.7648 49.7289 57.4131 48.5466 53.806 44.899C52.3131 42.9667 53.8617 40.4551 55.8078 40.7047C56.1531 40.7886 56.4156 40.9013 56.7504 41.2211C60.331 44.7665 62.5949 46.8571 67.8581 50.8556C68.5717 51.4614 68.8496 52.0707 68.8416 53.0588C68.8106 53.6088 68.7796 54.1587 68.7292 54.7062" fill="#412121"/>
<path d="M98.2238 57.322C98.0955 58.631 97.4073 59.9869 96.6094 59.8845C96.4731 59.867 90.8201 57.5198 87.3156 56.0021C86.5966 55.5934 86.2553 55.0154 86.1346 53.9515C86.1072 53.3941 86.0579 52.8536 86.0085 52.3131C85.9841 51.5781 86.045 50.7946 86.6753 50.0446C89.2673 46.9547 91.1193 44.6996 92.929 39.6894C93.0567 39.3101 93.164 39.2447 93.3592 39.1115C94.4555 38.7378 95.3006 40.785 95.4129 41.4522C95.5945 42.5041 95.6468 42.8669 94.4286 45.5791C93.1565 48.403 91.8904 50.1002 90.4287 52.0887C93.3403 53.293 93.7924 53.4698 97.4625 54.9297C98.3028 55.4726 98.2718 56.7941 98.2213 57.3415" fill="#412121"/>
<path d="M100.717 68.2649C98.8 72.5689 98.6873 72.8315 97.1118 75.3989C94.5711 79.168 94.3755 79.4594 92.3359 81.7893L90.187 84.0459C90.4385 83.7814 96.3881 77.1854 97.8361 62.8113C102.154 60.457 103.178 59.1048 103.411 58.5214C102.526 62.7996 102.137 64.7477 100.698 68.2624" fill="#73A8DC"/>
<path d="M48.9814 64.9331C47.5068 73.191 45.0401 83.4779 41.5729 85.5258C37.8717 87.7019 30.7305 85.6979 25.6181 78.6723C22.0855 73.8275 21.0808 68.397 23.0416 64.8304C24.8433 61.5798 27.3712 60.9941 34.7804 62.1422C39.1831 62.8256 48.9136 64.8452 48.9914 64.8552L48.9839 64.9136" fill="#73A8DC"/>
<defs>
<radialGradient id="paint0_radial_40_731" cx="0" cy="0" r="1" gradientUnits="userSpaceOnUse" gradientTransform="translate(57.4725 60.413) rotate(7.07887) scale(53.3873 53.3904)">
<stop stop-color="#F79F40"/>
<stop offset="0.16" stop-color="#F7A442"/>
<stop offset="0.37" stop-color="#F8B449"/>
<stop offset="0.6" stop-color="#F9CE55"/>
<stop offset="0.77" stop-color="#FBE660"/>
<stop offset="0.91" stop-color="#FBF36F"/>
<stop offset="0.93" stop-color="#FBF672"/>
<stop offset="0.95" stop-color="#FBF676"/>
<stop offset="0.96" stop-color="#FBF782"/>
<stop offset="0.98" stop-color="#FBF897"/>
<stop offset="0.99" stop-color="#FCFAB4"/>
<stop offset="1" stop-color="#FDFBC2"/>
</radialGradient>
<linearGradient id="paint1_linear_40_731" x1="100.299" y1="39.7728" x2="100.649" y2="39.8185" gradientUnits="userSpaceOnUse">
<stop stop-color="#19B79C"/>
<stop offset="0.4" stop-color="#1DBB9D"/>
<stop offset="0.82" stop-color="#29C7A2"/>
<stop offset="1" stop-color="#31CFA6"/>
</linearGradient>
<linearGradient id="paint2_linear_40_731" x1="8.7861" y1="54.0038" x2="8.94175" y2="54.0241" gradientUnits="userSpaceOnUse">
<stop stop-color="#19B79C"/>
<stop offset="0.4" stop-color="#1DBB9D"/>
<stop offset="0.82" stop-color="#29C7A2"/>
<stop offset="1" stop-color="#31CFA6"/>
</linearGradient>
</defs>
</svg>
