<svg width="133" height="107" viewBox="0 0 133 107" fill="none" xmlns="http://www.w3.org/2000/svg">
<g style="mix-blend-mode:multiply" opacity="0.7">
<g style="mix-blend-mode:multiply" opacity="0.01">
<path d="M51.7564 44.0958C74.9833 25.0966 119.269 19.4218 126.127 47.5417C128.628 57.6547 123.387 67.9815 115.234 76.1742C112.056 79.3669 108.398 82.2806 104.545 84.7142C96.7025 89.7221 88.1318 94.0827 79.5258 96.5595C71.7821 98.7908 64.0165 99.4961 56.7626 97.7547C46.5711 95.3199 35.8934 87.4221 33.912 76.9603C31.7724 65.7265 41.8132 52.2171 51.7539 44.1152L51.7564 44.0958Z" fill="#47E7C8"/>
</g>
<g style="mix-blend-mode:multiply" opacity="0.03">
<path d="M51.7168 44.249C74.7825 25.427 118.545 19.8235 125.45 47.5735C127.956 57.6477 122.683 67.911 114.6 76.0334C111.423 79.2066 107.79 82.0839 103.957 84.52C96.1993 89.4795 87.6945 93.7892 79.1689 96.2566C71.5055 98.4784 63.8008 99.1717 56.6222 97.4597C46.506 95.0543 35.9326 87.269 33.9387 76.9044C31.7842 65.7874 41.7397 52.3263 51.7193 44.2295L51.7168 44.249Z" fill="#46E6C8"/>
</g>
<g style="mix-blend-mode:multiply" opacity="0.04">
<path d="M51.6556 44.4192C74.594 25.8183 117.86 20.2302 124.752 47.6224C127.268 57.6187 121.976 67.8796 113.941 75.9291C110.786 79.0854 107.175 81.9456 103.344 84.3622C95.6526 89.2708 87.2307 93.5517 78.7903 95.9706C71.1903 98.161 63.5635 98.8643 56.4602 97.1817C46.4363 94.8278 35.9502 87.1327 33.9414 76.885C31.7549 65.8627 41.6785 52.4965 51.6581 44.3997L51.6556 44.4192Z" fill="#46E4C7"/>
</g>
<g style="mix-blend-mode:multiply" opacity="0.06">
<path d="M51.6162 44.5723C74.4129 26.1511 117.175 20.6369 124.073 47.6739C126.615 57.6142 121.267 67.8481 113.303 75.8078C110.173 78.9277 106.565 81.7684 102.753 84.1876C95.1277 89.0453 86.791 93.2778 78.431 95.6872C70.9114 97.8681 63.3649 98.5619 56.2981 96.9038C46.3495 94.5793 35.9677 86.9965 33.9633 76.868C31.7619 65.9625 41.6196 52.6472 51.6162 44.5723V44.5723Z" fill="#45E3C7"/>
</g>
<g style="mix-blend-mode:multiply" opacity="0.07">
<path d="M51.5572 44.7231C74.1902 26.4985 116.492 21.0241 123.376 47.7033C125.927 57.5853 120.564 67.7777 112.649 75.6646C109.541 78.7674 105.955 81.5913 102.145 83.991C94.6052 88.8003 86.3344 92.9818 78.0547 95.3818C70.5985 97.5313 63.1298 98.235 56.1383 96.6063C46.2821 94.3333 35.9876 86.8408 33.9707 76.8096C31.7568 66.0014 41.5461 52.7567 51.5622 44.6843L51.5572 44.7231Z" fill="#45E1C7"/>
</g>
<g style="mix-blend-mode:multiply" opacity="0.08">
<path d="M51.4958 44.8933C73.987 26.8483 115.805 21.4502 122.675 47.7716C125.233 57.5952 119.834 67.7632 111.987 75.5797C108.904 78.6461 105.32 81.4506 101.53 83.8528C94.0557 88.6112 85.8678 92.7638 77.6515 95.1323C70.2756 97.2723 62.8678 97.9641 55.9492 96.3843C46.1683 94.1407 35.9781 86.7605 33.9657 76.8486C31.7393 66.1377 41.4578 52.9827 51.5127 44.9153L51.4958 44.8933Z" fill="#44E0C7"/>
</g>
<g style="mix-blend-mode:multiply" opacity="0.1">
<path d="M51.4563 45.0465C73.8034 27.2006 115.122 21.8375 121.999 47.8035C124.583 57.5712 119.15 67.6954 111.353 75.4391C108.291 78.4885 104.709 81.2735 100.942 83.6587C93.5333 88.3662 85.4307 92.4704 77.2947 94.8294C69.9797 96.9575 62.6522 97.6397 55.7895 96.0869C46.101 93.8947 36.037 86.6099 33.9732 76.7903C31.7538 66.1793 41.3844 53.0921 51.4588 45.0272L51.4563 45.0465Z" fill="#44DEC6"/>
</g>
<g style="mix-blend-mode:multiply" opacity="0.11">
<path d="M51.3975 45.1972C73.5834 27.5285 114.437 22.2442 121.3 47.8524C123.892 57.5617 118.423 67.6614 110.693 75.3347C107.656 78.3477 104.094 81.1351 100.329 83.5009C93.0059 88.16 84.9692 92.2133 76.9136 94.5628C69.6814 96.6619 62.4099 97.3712 55.625 95.8284C46.0093 93.6851 36.052 86.4931 33.9733 76.7903C31.7389 66.296 41.3036 53.2597 51.395 45.2167L51.3975 45.1972Z" fill="#43DDC6"/>
</g>
<g style="mix-blend-mode:multiply" opacity="0.13">
<path d="M51.3556 45.3699C73.3997 27.8808 113.771 22.6533 120.621 47.9037C123.243 57.5377 117.737 67.6129 110.056 75.2133C107.041 78.2094 103.484 80.9579 99.7383 83.3262C92.464 87.9125 84.527 91.9587 76.5543 94.2793C69.383 96.3664 62.1917 97.0663 55.4822 95.5529C45.9613 93.4415 36.0889 86.3593 34.0146 76.7758C31.7678 66.3788 41.2642 53.4129 51.3725 45.3919L51.3556 45.3699Z" fill="#43DBC6"/>
</g>
<g style="mix-blend-mode:multiply" opacity="0.14">
<path d="M51.2966 45.5205C73.177 28.228 113.086 23.06 119.925 47.9331C122.554 57.5087 117.012 67.5595 109.399 75.0896C106.389 78.0467 102.874 80.7807 99.1084 83.1465C91.9195 87.6843 84.0485 91.6797 76.1366 93.9883C69.0481 96.0465 61.9153 96.7538 55.2616 95.2674C45.8136 93.2049 36.0479 86.2155 33.9612 76.7293C31.6993 66.4491 41.1298 53.534 51.2576 45.5155L51.2966 45.5205Z" fill="#42DAC6"/>
</g>
<g style="mix-blend-mode:multiply" opacity="0.15">
<path d="M51.2573 45.6737C72.996 28.5608 112.423 23.4496 119.246 47.9844C121.902 57.5041 116.326 67.511 108.762 74.9682C105.774 77.9083 102.261 80.623 98.5177 82.9717C91.3946 87.4587 83.6064 91.4251 75.7774 93.7048C68.7498 95.751 61.6973 96.4488 55.119 94.9918C45.7658 92.9613 36.085 86.0817 34.0027 76.7147C31.7284 66.5318 41.0905 53.6872 51.2548 45.6931L51.2573 45.6737Z" fill="#42D8C6"/>
</g>
<g style="mix-blend-mode:multiply" opacity="0.17">
<path d="M51.1958 45.844C72.7733 28.9083 111.737 23.8565 118.547 48.0335C121.211 57.4948 115.598 67.4771 108.106 74.8445C105.142 77.7482 101.631 80.4433 97.9074 82.7946C90.8502 87.2307 83.1473 91.1487 75.4011 93.3995C68.4538 95.4362 61.4817 96.1246 54.9568 94.714C45.6764 92.7324 36.1218 85.9482 34.0076 76.676C31.7208 66.5905 41.0121 53.8355 51.1983 45.8245L51.1958 45.844Z" fill="#41D7C5"/>
</g>
<g style="mix-blend-mode:multiply" opacity="0.18">
<path d="M51.137 45.9945C72.5509 29.2555 111.052 24.263 117.848 48.0822C120.539 57.4876 114.893 67.426 107.447 74.74C104.505 77.6268 101.016 80.305 97.2948 82.6368C90.3034 87.022 82.6858 90.8916 75.02 93.1329C68.1361 95.1382 61.2418 95.8365 54.7728 94.4529C45.5897 92.4838 36.1175 85.8288 33.9883 76.6734C31.6865 66.7046 40.8924 53.9981 51.1151 46.0115L51.137 45.9945Z" fill="#41D5C5"/>
</g>
<g style="mix-blend-mode:multiply" opacity="0.2">
<path d="M51.095 46.1673C72.3671 29.6079 110.387 24.6723 117.169 48.1337C119.867 57.4807 114.184 67.3947 106.809 74.6189C103.892 77.4692 100.406 80.1279 96.7038 82.4622C89.7978 86.799 82.2437 90.6372 74.6606 92.8495C67.8571 94.8454 61.0236 95.5317 54.63 94.1775C45.5197 92.2573 36.1543 85.6951 34.0321 76.6395C31.7178 66.768 40.8554 54.1319 51.095 46.1673V46.1673Z" fill="#40D4C5"/>
</g>
<g style="mix-blend-mode:multiply" opacity="0.21">
<path d="M51.0362 46.318C72.1471 29.9357 109.704 25.0594 116.473 48.163C119.201 57.4347 113.479 67.3437 106.153 74.495C103.257 77.3283 99.7929 79.9701 96.0937 82.285C89.256 86.5514 81.7847 90.3606 74.2626 92.561C67.5224 94.5254 60.7668 95.2216 54.4485 93.8969C45.4331 92.0086 36.1524 85.5562 34.0152 76.6174C31.6885 66.8433 40.7577 54.2776 51.0167 46.3155L51.0362 46.318Z" fill="#40D2C5"/>
</g>
<g style="mix-blend-mode:multiply" opacity="0.23">
<path d="M50.9968 46.4711C71.966 30.2685 109.038 25.4687 115.794 48.2144C118.529 57.4277 112.773 67.2928 105.515 74.3737C102.644 77.1707 99.1827 79.7929 95.5029 82.1102C88.7311 86.3258 81.3451 90.0867 73.9032 92.2776C67.2434 94.2325 60.5487 94.9169 54.2863 93.6191C45.3437 91.7797 36.1699 85.4201 34.0372 76.6005C31.676 66.9406 40.6988 54.4283 50.9943 46.4906L50.9968 46.4711Z" fill="#3FD0C4"/>
</g>
<g style="mix-blend-mode:multiply" opacity="0.24">
<path d="M50.9352 46.6414C71.7407 30.6354 108.373 25.8778 115.095 48.2633C117.857 57.4206 112.046 67.2589 104.859 74.25C102.01 77.03 98.5697 79.6353 94.8924 81.9331C88.206 86.1002 80.8833 89.8297 73.5244 91.9917C66.9254 93.9346 60.311 94.6095 54.124 93.3412C45.2762 91.5338 36.2066 85.2864 34.042 76.5617C31.6683 66.9991 40.6228 54.5571 50.9377 46.6219L50.9352 46.6414Z" fill="#3FCFC4"/>
</g>
<g style="mix-blend-mode:multiply" opacity="0.25">
<path d="M50.8765 46.7921C71.5208 30.9632 107.69 26.265 114.397 48.3121C117.166 57.4111 111.34 67.2079 104.2 74.1456C101.356 76.8867 97.9351 79.4945 94.2823 81.7559C87.6617 85.8721 80.4245 89.5532 73.1458 91.7057C66.6297 93.6197 60.0737 94.3021 53.9594 93.0826C45.1845 91.3241 36.2218 85.1696 34.0616 76.5642C31.6755 67.0989 40.5591 54.7467 50.8934 46.8141L50.8765 46.7921Z" fill="#3ECDC4"/>
</g>
<g style="mix-blend-mode:multiply" opacity="0.27">
<path d="M50.837 46.9453C71.3396 31.2961 107.024 26.6742 113.72 48.3441C116.516 57.3872 110.635 67.157 103.565 74.0049C100.743 76.729 97.3467 79.3004 93.6939 81.5619C87.1392 85.6272 79.9847 89.2793 72.7695 91.4004C66.3142 93.3024 59.8386 93.9752 53.7803 92.7828C45.1002 91.0562 36.2222 85.0115 34.0496 76.5033C31.6484 67.1548 40.4661 54.8535 50.8175 46.9428L50.837 46.9453Z" fill="#3ECCC4"/>
</g>
<g style="mix-blend-mode:multiply" opacity="0.28">
<path d="M50.7756 47.1155C71.117 31.6434 106.359 27.0834 113.021 48.3929C115.825 57.3776 109.929 67.106 102.925 73.903C100.127 76.5907 96.7315 79.1621 93.1006 81.4066C86.6312 85.4235 79.5427 89.0246 72.4077 91.1362C66.0328 93.0287 59.6375 93.6922 53.6351 92.5267C45.0278 90.849 36.2567 84.8971 34.069 76.5058C31.6554 67.2546 40.4047 55.0236 50.7756 47.1155V47.1155Z" fill="#3DCAC3"/>
</g>
<g style="mix-blend-mode:multiply" opacity="0.3">
<path d="M50.7361 47.2686C70.9163 31.9737 105.695 27.473 112.342 48.4442C115.173 57.373 109.221 67.0745 102.288 73.7817C99.512 76.4524 96.1212 78.9848 92.4903 81.2293C86.0868 85.1953 79.0835 88.7482 72.0314 90.8308C65.7199 92.6919 59.4 93.3847 53.4753 92.2292C44.9629 90.5834 36.2766 84.7413 34.0934 76.4692C31.6673 67.3153 40.3483 55.1549 50.7555 47.2711L50.7361 47.2686Z" fill="#3DC9C3"/>
</g>
<g style="mix-blend-mode:multiply" opacity="0.31">
<path d="M50.6773 47.4193C70.6963 32.3015 105.03 27.8823 111.646 48.4737C114.485 57.3441 108.518 67.0041 101.634 73.6385C98.8824 76.2727 95.511 78.8077 91.8826 81.0327C85.545 84.9478 78.6245 88.4717 71.6553 90.5254C65.4241 92.377 59.165 93.0579 53.2963 91.9293C44.8567 90.3325 36.2772 84.5832 34.0816 76.4085C31.6405 67.3714 40.2361 55.2592 50.6823 47.3805L50.6773 47.4193Z" fill="#3CC7C3"/>
</g>
<g style="mix-blend-mode:multiply" opacity="0.32">
<path d="M50.6353 47.592C70.5102 32.6734 104.383 28.2939 110.965 48.5445C113.83 57.3591 107.807 66.9921 100.991 73.5561C98.2622 76.1734 94.8957 78.6695 91.2868 80.897C85.015 84.7612 78.1799 88.2366 71.291 90.2808C65.1232 92.101 58.942 92.7919 53.1486 91.6927C44.8038 90.1279 36.3286 84.4909 34.118 76.4329C31.6644 67.4931 40.1917 55.4513 50.6548 47.5945L50.6353 47.592Z" fill="#3CC6C3"/>
</g>
<g style="mix-blend-mode:multiply" opacity="0.34">
<path d="M50.5764 47.7428C70.29 33.0013 103.701 28.6812 110.268 48.574C113.144 57.3107 107.104 66.9218 100.337 73.4129C97.6324 75.9938 94.2854 78.4923 90.679 80.7004C84.4926 84.5162 77.7234 87.9407 70.8953 89.9729C64.8079 91.7836 58.6875 92.4625 52.967 91.4123C44.6951 89.8964 36.3266 84.3522 34.1035 76.3915C31.6374 67.549 40.0963 55.5776 50.5764 47.7428V47.7428Z" fill="#3BC4C3"/>
</g>
<g style="mix-blend-mode:multiply" opacity="0.35">
<path d="M50.5151 47.9128C70.0676 33.3484 103.035 29.0903 109.567 48.6423C112.47 57.3231 106.374 66.9072 99.6756 73.328C96.9928 75.8919 93.6508 78.3514 90.0638 80.5619C83.9433 84.3269 77.2569 87.7225 70.5117 89.7258C64.4851 91.5246 58.4451 92.194 52.7804 91.1707C44.6033 89.6867 36.3197 84.2523 34.0816 76.4084C31.6006 67.6827 39.9936 55.7621 50.4932 47.9298L50.5151 47.9128Z" fill="#3BC3C2"/>
</g>
<g style="mix-blend-mode:multiply" opacity="0.37">
<path d="M50.4756 48.0661C69.8668 33.6789 102.391 29.4826 108.891 48.6742C111.82 57.2992 105.69 66.8393 99.0407 73.1872C96.3629 75.7122 93.0598 78.1768 89.4754 80.3679C83.4207 84.0819 76.8197 87.4291 70.1548 89.423C64.211 91.1928 58.2294 91.8697 52.6401 90.8758C44.5383 89.4212 36.359 84.0991 34.1279 76.355C31.6344 67.7266 39.9591 55.8765 50.495 48.0686L50.4756 48.0661Z" fill="#3AC1C2"/>
</g>
<g style="mix-blend-mode:multiply" opacity="0.38">
<path d="M50.4167 48.2168C69.6467 34.0068 101.726 29.8917 108.195 48.7036C111.131 57.2702 104.965 66.786 98.3865 73.044C95.7307 75.552 92.4326 77.9776 88.8676 80.1712C82.8982 83.8368 76.3606 87.1526 69.7786 89.1175C63.8957 90.8753 57.9944 91.5427 52.4804 90.5783C44.471 89.1752 36.379 83.9435 34.1329 76.3162C31.6244 67.8045 39.8807 56.0247 50.4387 48.1998L50.4167 48.2168Z" fill="#3AC0C2"/>
</g>
<g style="mix-blend-mode:multiply" opacity="0.39">
<path d="M50.3749 48.3895C69.4437 34.3565 101.079 30.3034 107.513 48.7744C110.477 57.2851 104.274 66.7765 97.7444 72.9617C95.113 75.4333 91.8344 77.8614 88.2718 80.0355C82.3684 83.6503 75.916 86.9176 69.4144 88.873C63.6143 90.6019 57.7715 91.2768 52.3134 90.3394C44.3793 88.9656 36.3915 83.8461 34.15 76.3381C31.629 67.9237 39.7974 56.2118 50.3918 48.4114L50.3749 48.3895Z" fill="#39BEC2"/>
</g>
<g style="mix-blend-mode:multiply" opacity="0.41">
<path d="M50.316 48.5401C69.2237 34.6844 100.416 30.6931 106.817 48.8039C109.807 57.2586 103.552 66.7035 97.0903 72.8183C94.4809 75.2729 91.2072 77.6622 87.6641 79.8388C81.8266 83.4026 75.4596 86.6216 69.0213 88.5456C63.2821 90.2625 57.539 90.9303 52.1368 90.0198C44.2951 88.6975 36.4141 83.6709 34.1406 76.2577C31.5877 67.9382 39.7072 56.2991 50.3185 48.5206L50.316 48.5401Z" fill="#39BCC1"/>
</g>
<g style="mix-blend-mode:multiply" opacity="0.42">
<path d="M50.2571 48.6908C69.0035 35.0122 99.753 31.0827 106.118 48.8526C109.116 57.249 102.844 66.6719 96.431 72.7139C93.846 75.1321 90.5919 77.5238 87.0513 79.681C81.2991 83.1964 74.9954 86.384 68.64 88.2791C62.9812 89.9865 57.2964 90.6618 51.9696 89.7808C44.2032 88.4879 36.4265 83.5736 34.1575 76.2796C31.5896 68.0769 39.6432 56.4888 50.274 48.7128L50.2571 48.6908Z" fill="#38BBC1"/>
</g>
<g style="mix-blend-mode:multiply" opacity="0.44">
<path d="M50.2151 48.8634C68.8004 35.362 99.1068 31.4944 105.439 48.904C108.464 57.2445 102.138 66.6211 95.7938 72.5927C93.2308 74.9939 89.9791 77.3661 86.4605 79.5063C80.7741 82.9709 74.5558 86.11 68.2807 87.9956C62.6852 89.6716 57.0784 90.3569 51.8074 89.5028C44.1333 88.2613 36.4439 83.4373 34.1624 76.2407C31.5821 68.1352 39.5674 56.6174 50.2346 48.8659L50.2151 48.8634Z" fill="#38B9C1"/>
</g>
<g style="mix-blend-mode:multiply" opacity="0.45">
<path d="M50.1563 49.0142C68.5829 35.6705 98.4631 31.8867 104.743 48.9334C107.795 57.218 101.433 66.5702 95.1397 72.4495C92.6011 74.8143 89.352 77.1671 85.8333 79.3073C80.2153 82.7014 74.0799 85.8117 67.8851 87.6877C62.37 89.3542 56.824 90.0277 51.6284 89.203C44.0296 87.991 36.4445 83.2793 34.1481 76.1994C31.5552 68.1913 39.4527 56.7413 50.1588 48.9948L50.1563 49.0142Z" fill="#37B8C1"/>
</g>
<g style="mix-blend-mode:multiply" opacity="0.46">
<path d="M50.1167 49.1675C68.3821 36.0009 97.8192 32.2789 104.064 48.9849C107.143 57.2136 100.727 66.5192 94.4998 72.3476C91.9832 74.6955 88.756 77.0314 85.2398 79.1521C79.7072 82.4979 73.6351 85.5765 67.5037 87.4212C62.052 89.0562 56.5838 89.7397 51.4636 88.9445C43.9571 87.7839 36.4593 83.1625 34.1698 76.1824C31.562 68.2911 39.3936 56.892 50.1167 49.1675V49.1675Z" fill="#37B6C1"/>
</g>
<g style="mix-blend-mode:multiply" opacity="0.48">
<path d="M50.0555 49.3377C68.1597 36.3482 97.1536 32.6882 103.365 49.0338C106.454 57.1847 99.9994 66.4854 93.8433 72.224C91.3316 74.5329 88.1264 76.8517 84.6297 78.9749C79.1629 82.2698 73.1762 85.3001 67.1251 87.1353C61.7537 88.7609 56.3465 89.4324 51.2821 88.6642C43.851 87.533 36.4575 83.0239 34.153 76.1605C31.5327 68.3665 39.2959 57.0378 50.036 49.3352L50.0555 49.3377Z" fill="#36B5C0"/>
</g>
<g style="mix-blend-mode:multiply" opacity="0.49">
<path d="M50.016 49.4907C67.959 36.6784 96.5293 33.0827 102.686 49.085C105.802 57.18 99.3132 66.4368 93.2035 72.122C90.7139 74.4139 87.5305 76.7157 84.0364 78.8195C78.6354 82.0635 72.7315 85.0649 66.7633 86.8711C61.4528 88.4847 56.1259 89.1467 51.1369 88.4079C43.7981 87.3281 36.4919 82.9094 34.1919 76.1653C31.5591 68.4686 39.254 57.2103 50.0135 49.5102L50.016 49.4907Z" fill="#36B3C0"/>
</g>
<g style="mix-blend-mode:multiply" opacity="0.51">
<path d="M49.9546 49.661C67.7365 37.0258 95.8831 33.4945 101.987 49.134C105.13 57.173 98.5857 66.4028 92.5469 71.9982C90.0817 74.2537 86.9009 76.5362 83.4262 78.6424C78.1106 81.838 72.2725 84.7885 66.3846 86.5852C61.1569 88.1699 55.8884 88.8393 50.9722 88.1494C43.7088 87.0991 36.5069 82.7927 34.1944 76.1459C31.5466 68.566 39.1562 57.356 49.9716 49.6829L49.9546 49.661Z" fill="#35B2C0"/>
</g>
<g style="mix-blend-mode:multiply" opacity="0.52">
<path d="M49.8957 49.8117C67.5163 37.3537 95.2198 33.8843 101.289 49.1829C104.458 57.1661 97.88 66.3519 91.8901 71.8744C89.4469 74.113 86.288 76.3785 82.8158 78.4653C77.5661 81.61 71.8133 84.5121 66.0058 86.2993C60.839 87.872 55.6508 88.532 50.7905 87.869C43.6194 86.8701 36.5243 82.6565 34.1774 76.124C31.4977 68.6389 39.0583 57.5018 49.8932 49.8312L49.8957 49.8117Z" fill="#35B0C0"/>
</g>
<g style="mix-blend-mode:multiply" opacity="0.54">
<path d="M49.8562 49.9649C67.3182 37.6645 94.5956 34.2789 100.612 49.2148C103.809 57.1421 97.1744 66.301 91.2529 71.7532C88.834 73.9553 85.6777 76.2013 82.2275 78.2712C77.0436 81.3649 71.3737 84.238 65.632 85.9744C60.5481 87.5182 55.4353 88.2076 50.6334 87.5522C43.5376 86.5827 36.5467 82.4813 34.2068 76.0487C31.5146 68.6608 39.0069 57.5941 49.8587 49.9454L49.8562 49.9649Z" fill="#34AFBF"/>
</g>
<g style="mix-blend-mode:multiply" opacity="0.55">
<path d="M49.7948 50.1351C67.0955 38.0119 93.9492 34.6906 99.9134 49.2637C103.137 57.1351 96.4663 66.2695 90.5961 71.6294C88.1993 73.8145 85.0649 76.0435 81.6171 78.0939C76.5186 81.1392 70.9146 83.9616 65.2533 85.6884C60.2302 87.2202 55.1977 87.9002 50.4711 87.2742C43.4652 86.3756 36.5641 82.3451 34.2092 76.0292C31.5021 68.7581 38.9284 57.7424 49.7972 50.1156L49.7948 50.1351Z" fill="#34ADBF"/>
</g>
<g style="mix-blend-mode:multiply" opacity="0.56">
<path d="M49.7555 50.2883C66.8951 38.3422 93.3276 35.0659 99.2344 49.3151C102.466 57.1281 95.7608 66.2186 89.9566 71.5276C87.5842 73.6763 84.4497 75.9053 81.024 77.9387C75.9913 80.9332 70.4726 83.7071 64.8916 85.4245C59.9489 86.9468 54.9773 87.6148 50.3066 87.0157C43.3785 86.1271 36.5793 82.2283 34.2288 76.0317C31.5092 68.858 38.8477 57.91 49.7555 50.2883V50.2883Z" fill="#33ACBF"/>
</g>
<g style="mix-blend-mode:multiply" opacity="0.58">
<path d="M49.6966 50.439C66.6555 38.6676 92.6839 35.4581 98.5383 49.3445C101.796 57.1016 95.0553 66.1677 89.3024 71.3843C86.952 73.5161 83.842 75.7086 80.4162 77.742C75.4494 80.6856 70.0136 83.4305 64.5154 85.119C59.6361 86.6099 54.7423 87.2878 50.147 86.7182C43.3111 85.881 36.5993 82.0725 34.2364 75.9732C31.5017 68.9163 38.7744 58.0192 49.7186 50.422L49.6966 50.439Z" fill="#33AABF"/>
</g>
<g style="mix-blend-mode:multiply" opacity="0.59">
<path d="M49.6546 50.6117C66.4549 38.9979 92.0571 35.8721 97.8567 49.4152C101.144 57.0969 94.3471 66.1362 88.6626 71.2824C86.3172 73.3753 83.2267 75.5704 79.8228 77.5868C74.9414 80.482 69.5714 83.176 64.1342 84.8525C59.3352 86.3339 54.5022 86.9999 49.9798 86.4792C43.2168 85.6909 36.6117 81.9752 34.2338 75.9927C31.4867 69.033 38.691 58.2063 49.6522 50.631L49.6546 50.6117Z" fill="#32A9BF"/>
</g>
<g style="mix-blend-mode:multiply" opacity="0.61">
<path d="M49.5958 50.7624C66.2349 39.3258 91.4159 36.245 97.1606 49.4447C100.475 57.0706 93.6416 66.0853 88.006 71.1587C85.6825 73.2346 82.6165 75.3933 79.1932 77.4073C74.3776 80.2515 69.093 82.8972 63.7361 84.5642C58.9979 86.0336 54.2453 86.6901 49.7788 86.1963C43.1106 85.44 36.5903 81.8342 34.2194 75.9514C31.4404 69.0866 38.5763 58.3302 49.5764 50.7599L49.5958 50.7624Z" fill="#32A7BE"/>
</g>
<g style="mix-blend-mode:multiply" opacity="0.62">
<path d="M49.5368 50.913C66.0146 39.6535 90.772 36.637 96.4643 49.4739C99.8057 57.0439 92.9358 66.0343 87.3517 71.0154C85.0501 73.0743 81.9866 75.2134 78.5853 77.2104C73.8355 80.0037 68.6337 82.6205 63.3596 84.2586C58.7043 85.6991 54.0102 86.363 49.6189 85.8987C43.0236 85.1913 36.6101 81.6783 34.2242 75.9123C31.4302 69.1643 38.5028 58.4394 49.5173 50.9105L49.5368 50.913Z" fill="#31A5BE"/>
</g>
<g style="mix-blend-mode:multiply" opacity="0.63">
<path d="M49.4949 51.0858C65.7946 39.9816 90.1647 37.0538 95.7827 49.5449C99.1705 57.0615 92.2278 66.0029 86.7095 70.9331C84.4324 72.9556 81.3908 75.0778 77.9895 77.0748C73.3251 79.8197 68.1892 82.3855 62.9954 84.0141C58.401 85.4426 53.7846 86.1166 49.4713 85.6623C42.9708 84.9868 36.6421 81.5836 34.2632 75.9174C31.4567 69.2667 38.4414 58.6097 49.4949 51.0858V51.0858Z" fill="#31A4BE"/>
</g>
<g style="mix-blend-mode:multiply" opacity="0.65">
<path d="M49.436 51.2364C65.5745 40.3093 89.5234 37.4265 95.0866 49.5743C98.5013 57.035 91.5222 65.9519 86.0553 70.7897C83.8001 72.7953 80.7611 74.8981 77.3817 76.8781C72.7832 79.5721 67.7301 82.109 62.6217 83.6892C58.1101 85.0888 53.5522 85.7702 49.2947 85.3428C42.867 84.7162 36.6451 81.4058 34.2512 75.8565C31.4323 69.303 38.3486 58.7163 49.4385 51.2169L49.436 51.2364Z" fill="#30A2BE"/>
</g>
<g style="mix-blend-mode:multiply" opacity="0.66">
<path d="M49.3941 51.4091C65.374 40.6397 88.9162 37.8432 94.405 49.6451C97.8467 57.05 90.8142 65.9204 85.4352 70.6904C83.2045 72.6595 80.1849 74.7649 76.808 76.7254C72.2753 79.3686 67.3076 81.8569 62.26 83.4251C57.8093 84.8127 53.3512 85.4872 49.1495 85.0868C42.8167 84.4922 36.6796 81.2915 34.2902 75.8614C31.4563 69.4248 38.3068 58.8891 49.4136 51.4116L49.3941 51.4091Z" fill="#30A1BD"/>
</g>
<g style="mix-blend-mode:multiply" opacity="0.68">
<path d="M49.3353 51.5599C65.1539 40.9676 88.275 38.216 93.709 49.6746C97.1801 57.0041 90.1086 65.8696 84.7784 70.5667C82.5697 72.5188 79.5552 74.5851 76.1977 76.5482C71.7504 79.1429 66.8485 81.5805 61.8813 83.1392C57.511 84.5174 53.1137 85.1799 48.9849 84.8284C42.7249 84.2826 36.6946 81.1749 34.2927 75.8421C31.4269 69.5003 38.209 59.0349 49.3547 51.5624L49.3353 51.5599Z" fill="#2F9FBD"/>
</g>
<g style="mix-blend-mode:multiply" opacity="0.69">
<path d="M49.2764 51.7104C64.9169 41.2734 87.6507 38.6106 93.0128 49.7039C96.5109 56.9775 89.386 65.7966 84.1242 70.4233C81.94 72.339 78.9254 74.4054 75.5899 76.3514C71.2085 78.8953 66.3894 81.3039 61.5051 82.8337C57.1981 84.1804 52.8787 84.8529 48.8058 84.5283C42.6406 84.0145 36.6951 81.0166 34.2783 75.8006C31.3974 69.5755 38.1137 59.161 49.2764 51.7104V51.7104Z" fill="#2F9EBD"/>
</g>
<g style="mix-blend-mode:multiply" opacity="0.7">
<path d="M49.2343 51.8832C64.7136 41.6233 87.0457 39.0079 92.331 49.7748C95.8755 56.995 88.6948 65.7871 83.4819 70.341C81.3196 72.2398 78.3295 74.2697 74.994 76.2158C70.6784 78.7088 65.9447 81.069 61.1407 82.5893C56.914 83.9265 52.6555 84.587 48.658 84.2919C42.5656 83.827 36.727 80.9219 34.3171 75.8057C31.4237 69.6779 38.0547 59.3118 49.2538 51.8857L49.2343 51.8832Z" fill="#2E9CBD"/>
</g>
<g style="mix-blend-mode:multiply" opacity="0.72">
<path d="M49.1754 52.0339C64.4766 41.9292 86.424 39.3832 91.635 49.8043C95.2089 56.9491 87.9723 65.7143 82.8277 70.1979C80.6899 72.0602 77.6997 74.0901 74.3862 76.0192C70.156 78.4637 65.4881 80.773 60.745 82.2814C56.5817 83.5871 52.3985 84.2771 48.4789 83.9919C42.4788 83.5784 36.7274 80.7636 34.3026 75.7642C31.3968 69.7337 37.9593 59.4381 49.1949 52.0364L49.1754 52.0339Z" fill="#2E9BBD"/>
</g>
<g style="mix-blend-mode:multiply" opacity="0.73">
<path d="M49.136 52.187C64.276 42.2594 85.8217 39.7608 90.9558 49.8555C94.5567 56.9445 87.2837 65.6852 82.1905 70.0764C80.0552 71.9192 77.1089 73.9153 73.7954 75.8444C69.6311 78.2381 65.0461 80.5184 60.3857 81.9978C56.3028 83.2941 52.1805 83.972 48.3167 83.7138C42.3921 83.3298 36.745 80.6273 34.3246 75.7471C31.3843 69.8309 37.881 59.5861 49.153 52.2089L49.136 52.187Z" fill="#2D99BC"/>
</g>
<g style="mix-blend-mode:multiply" opacity="0.75">
<path d="M49.0746 52.3572C64.0558 42.5874 85.1949 40.175 90.2572 49.9044C93.9045 56.9399 86.556 65.6512 81.5313 69.9721C79.4204 71.7785 76.4742 73.7745 73.1631 75.6842C69.0841 78.0294 64.5649 80.259 59.985 81.7289C55.9629 83.0132 51.921 83.6816 48.1325 83.4529C42.3002 83.1203 36.7404 80.5082 34.3075 75.7253C31.3548 69.9064 37.7831 59.7319 49.0746 52.3572Z" fill="#2D98BC"/>
</g>
<g style="mix-blend-mode:multiply" opacity="0.76">
<path d="M49.0353 52.5105C63.8359 42.9152 84.5927 40.5527 89.5782 49.9557C93.2744 56.9184 85.8507 65.6003 80.8943 69.8508C78.8078 71.6208 75.881 73.6193 72.5725 75.5095C68.5594 77.8038 64.1231 80.0044 59.6259 81.4454C55.6867 82.7008 51.7031 83.3767 47.9875 83.1969C42.2305 82.8937 36.775 80.3939 34.3272 75.7278C31.3595 70.0257 37.7049 59.8801 49.0303 52.5493L49.0353 52.5105Z" fill="#2C96BC"/>
</g>
<g style="mix-blend-mode:multiply" opacity="0.77">
<path d="M48.9763 52.6611C63.6182 43.2236 83.9902 40.9305 88.8819 49.9852C92.6051 56.892 85.128 65.5275 80.2374 69.7271C78.1729 71.4801 75.2511 73.4397 71.9621 75.3323C68.0123 77.5953 63.6638 79.7279 59.2495 81.14C55.3712 82.3834 51.4679 83.05 47.8082 82.8971C42.1435 82.6453 36.7754 80.2357 34.3345 75.6694C31.3349 70.0621 37.6314 59.9894 48.9763 52.6611V52.6611Z" fill="#2C95BC"/>
</g>
<g style="mix-blend-mode:multiply" opacity="0.79">
<path d="M48.9149 52.8314C63.3762 43.5685 83.366 41.3253 88.1833 50.0341C91.9554 56.8681 84.4198 65.496 79.5807 69.6034C77.5382 71.3394 74.6384 73.282 71.3518 75.1553C67.4874 77.3698 63.2048 79.4516 58.8513 80.8516C55.0558 82.0661 51.228 82.7621 47.6266 82.6167C42.0373 82.3944 36.7709 80.1165 34.3176 75.6475C31.3029 70.157 37.5142 60.1327 48.9149 52.8314V52.8314Z" fill="#2B93BB"/>
</g>
<g style="mix-blend-mode:multiply" opacity="0.8">
<path d="M48.8754 52.9844C63.178 43.8792 82.7831 41.7053 87.5041 50.0853C91.3251 56.8464 83.7142 65.4449 78.9435 69.4818C76.9254 71.1814 74.0281 73.1046 70.761 74.9803C66.9624 77.1439 62.7626 79.1967 58.4921 80.5679C54.7574 81.7704 51.0099 82.4569 47.4839 82.341C41.9869 82.1701 36.8078 79.9826 34.3614 75.6134C31.3343 70.2202 37.4797 60.2468 48.8949 52.9869L48.8754 52.9844Z" fill="#2B91BB"/>
</g>
<g style="mix-blend-mode:multiply" opacity="0.82">
<path d="M48.8142 53.1547C62.9386 44.2047 82.1614 42.0807 86.8056 50.1344C90.673 56.842 83.0063 65.4136 78.2844 69.3777C76.2688 71.0579 73.4129 72.9665 70.1508 74.8033C66.4181 76.916 62.3037 78.9204 58.1135 80.2821C54.4592 81.4751 50.7725 82.1497 47.3024 82.0607C41.8782 81.9387 36.8059 79.844 34.3446 75.5916C31.283 70.3127 37.3626 60.3901 48.8167 53.1352L48.8142 53.1547Z" fill="#2A90BB"/>
</g>
<g style="mix-blend-mode:multiply" opacity="0.83">
<path d="M48.7747 53.3078C62.7379 44.535 81.5785 42.4609 86.1265 50.1856C90.0427 56.8205 82.3006 65.3626 77.6471 69.2563C75.656 70.9 72.8001 72.8087 69.5599 74.6285C65.9126 76.6928 61.8641 78.6463 57.7542 79.9985C54.1632 81.1601 50.5544 81.8446 47.1596 81.7851C41.8303 81.695 36.8428 79.7101 34.386 75.577C31.3119 70.3954 37.3036 60.5408 48.7942 53.3103L48.7747 53.3078Z" fill="#2A8EBB"/>
</g>
<g style="mix-blend-mode:multiply" opacity="0.85">
<path d="M48.7159 53.4586C62.501 44.8409 80.9763 42.8387 85.4305 50.2151C89.3956 56.7771 81.5952 65.3116 76.9906 69.1325C75.0214 70.7593 72.1899 72.6316 68.9498 74.4514C65.3683 76.4648 61.4026 78.3893 57.3561 79.7101C53.8455 80.8622 50.2975 81.5348 46.9756 81.5241C41.7191 81.483 36.8385 79.5909 34.3692 75.5551C31.2607 70.4877 37.2084 60.6671 48.7159 53.4586V53.4586Z" fill="#298DBA"/>
</g>
<g style="mix-blend-mode:multiply" opacity="0.86">
<path d="M48.6544 53.6287C62.2807 45.1687 80.3543 43.2139 84.7317 50.2639C88.7458 56.7531 80.8699 65.2581 76.3337 69.0087C74.389 70.599 71.5576 72.4713 68.3394 74.2742C64.8432 76.2392 60.9434 78.1128 56.9772 79.4241C53.5275 80.5643 50.0574 81.2468 46.7939 81.2436C41.6296 81.2539 36.8169 79.4496 34.352 75.5331C31.2311 70.5631 37.091 60.8102 48.6544 53.6287Z" fill="#298BBA"/>
</g>
<g style="mix-blend-mode:multiply" opacity="0.87">
<path d="M48.6149 53.7821C62.0631 45.4773 79.7714 43.5943 84.0525 50.3155C88.3335 57.0367 80.1813 65.2294 75.6965 68.8876C73.7737 70.461 70.9642 72.3162 67.7485 74.0996C64.3182 76.0137 60.5012 77.8585 56.6179 79.1408C53.251 80.252 49.8393 80.942 46.6511 80.9683C41.5622 81.008 36.8537 79.316 34.3959 75.4993C31.2599 70.646 37.037 60.9222 48.6343 53.7846L48.6149 53.7821Z" fill="#288ABA"/>
</g>
<g style="mix-blend-mode:multiply" opacity="0.89">
<path d="M48.556 53.9327C61.8431 45.8051 79.1716 43.9525 83.3564 50.3448C87.5411 56.7371 79.4588 65.1564 75.0399 68.7637C73.1415 70.3006 70.354 72.1389 67.1383 73.9223C63.9226 75.7057 60.0422 77.5819 56.2417 78.8353C52.9357 79.9345 49.6043 80.615 46.4915 80.6707C41.495 80.7618 36.8712 79.1797 34.4009 75.4603C31.233 70.7019 36.9612 61.0508 48.578 53.9157L48.556 53.9327Z" fill="#2888BA"/>
</g>
<g style="mix-blend-mode:multiply" opacity="0.9">
<path d="M48.5142 54.1052C61.6231 46.1328 78.5889 44.3326 82.6749 50.4155C86.7609 56.4984 78.7678 65.1468 74.4003 68.6618C72.5239 70.1817 69.7388 72.0006 66.5256 73.7646C63.3124 75.5285 59.5808 77.3248 55.8606 78.5688C52.6375 79.639 49.3644 80.327 46.3075 80.4097C41.3838 80.5497 36.8669 79.0604 34.401 75.4603C31.2182 70.8186 36.8635 61.1965 48.5142 54.1052V54.1052Z" fill="#2787BA"/>
</g>
<g style="mix-blend-mode:multiply" opacity="0.92">
<path d="M48.4553 54.256C61.4055 46.4413 78.0085 44.6934 81.9787 50.4449C86.2323 56.6087 78.0426 65.0935 73.7435 68.5381C71.8916 70.0216 69.1285 71.8235 65.9153 73.5875C62.7021 75.3514 59.1191 77.0679 55.4624 78.2803C52.3001 79.3387 49.1269 80.0196 46.1258 80.1293C41.297 80.3012 36.8624 78.9412 34.3865 75.4189C31.1717 70.872 36.7512 61.3008 48.4383 54.2341L48.4553 54.256Z" fill="#2785B9"/>
</g>
<g style="mix-blend-mode:multiply" opacity="0.93">
<path d="M48.416 54.4093C61.188 46.7498 77.4282 45.0542 81.2997 50.4964C85.6436 56.5728 77.3566 65.0451 73.1064 68.4168C71.257 69.8809 68.5158 71.6657 65.3246 73.4127C62.1333 75.1597 58.6796 76.7939 55.1032 77.9969C52.0212 79.0458 48.9064 79.7342 45.9807 79.8733C41.2247 80.0942 36.8994 78.8075 34.4061 75.4214C31.1763 70.9913 36.6704 61.4685 48.4135 54.4287L48.416 54.4093Z" fill="#2684B9"/>
</g>
<g style="mix-blend-mode:multiply" opacity="0.94">
<path d="M48.3546 54.5794C60.9484 47.075 76.8259 45.4319 80.6011 50.5452C85.0159 56.5318 76.6291 65.011 72.4472 68.3124C70.6223 69.7401 67.9005 71.5275 64.7118 73.255C61.523 74.9825 58.218 76.5369 54.7219 77.7304C51.7034 78.7478 48.6664 79.4462 45.7966 79.6123C41.1329 79.8845 36.8949 78.6881 34.4085 75.4019C31.1443 71.0861 36.5751 61.5948 48.3521 54.5989L48.3546 54.5794Z" fill="#2682B9"/>
</g>
<g style="mix-blend-mode:multiply" opacity="0.96">
<path d="M48.2955 54.7301C60.7306 47.3834 76.2259 45.7902 79.9047 50.5746C84.3929 56.4519 75.9257 64.9407 71.7928 68.1692C69.9898 69.5799 67.2731 71.3283 64.1038 73.0583C61.1077 74.6721 57.7587 76.2604 54.3455 77.4249C51.4072 78.4329 48.4312 79.1193 45.6367 79.3148C41.0484 79.6165 36.8927 78.5494 34.4133 75.363C31.1366 71.1445 36.5015 61.704 48.2955 54.7301V54.7301Z" fill="#2581B9"/>
</g>
<g style="mix-blend-mode:multiply" opacity="0.97">
<path d="M48.2537 54.9028C60.5107 47.7113 75.6456 46.1511 79.2232 50.6455C83.8042 56.4161 75.2153 64.9287 71.1532 68.0675C69.3746 69.4417 66.6774 71.1927 63.5106 72.9032C60.5973 74.488 57.3168 76.0059 53.9644 77.1585C51.0895 78.1349 48.1888 78.8509 45.4722 79.0564C40.9736 79.429 36.9078 78.4328 34.4354 75.3461C31.1243 71.2419 36.4258 61.8328 48.2537 54.9028V54.9028Z" fill="#257FB8"/>
</g>
<g style="mix-blend-mode:multiply" opacity="0.99">
<path d="M48.1947 55.0535C60.2735 48.0172 75.0676 46.4924 78.527 50.6749C83.2008 56.3387 74.4926 64.8558 70.4964 67.9436C68.7398 69.3009 66.0451 71.0324 62.9003 72.7259C60.0528 74.2598 56.8551 75.7488 53.5856 76.8725C50.7911 77.8395 47.9512 78.5435 45.2905 78.7759C40.8672 79.1779 36.9032 78.3134 34.4183 75.3241C31.0727 71.3342 36.2914 61.9541 48.1752 55.051L48.1947 55.0535Z" fill="#247EB8"/>
</g>
<g style="mix-blend-mode:multiply">
<path d="M62.3096 72.5512C53.2189 77.4188 40.1626 81.8966 34.4405 75.307C31.0799 71.4339 36.2327 62.1047 48.1528 55.2261C60.073 48.3475 74.4874 46.8531 77.8455 50.7457C82.6341 56.2857 73.8016 64.8461 69.8568 67.8417C68.1247 69.1625 65.4494 70.8965 62.3071 72.5707L62.3096 72.5512Z" fill="#247CB8"/>
</g>
</g>
<path d="M78.8917 43.2043L78.9042 43.1071C78.9242 42.9514 78.9907 41.9708 78.9808 40.5056C78.9983 40.3694 78.9743 40.2476 78.9723 40.1088C78.9753 39.9312 78.9614 39.7316 78.9669 39.5345C78.8214 34.8076 77.7459 30.2384 75.8709 26.0415C75.6753 25.5614 75.4577 25.0982 75.2377 24.6546C74.169 22.4997 72.8662 20.473 71.3878 18.5821C70.6922 17.6818 69.8315 16.6812 69.0601 15.9097C68.5556 15.3702 68.0072 14.8647 67.4588 14.3591L67.369 14.2883L67.2987 14.2199C67.2114 14.1296 67.1021 14.0562 67.0147 13.9659C66.6605 13.6435 66.2673 13.3161 65.8571 12.9668L65.8037 12.9203C65.6071 12.7566 65.3911 12.5905 65.175 12.4243C65.0657 12.351 64.9759 12.28 64.8692 12.1872C64.7794 12.1164 64.7065 12.0674 64.6167 11.9965C64.5438 11.9476 64.471 11.8987 64.4176 11.8523C63.1332 10.9161 61.761 10.0477 60.3374 9.27166C59.9681 9.06604 59.6912 8.91186 59.5235 8.83101L59.2635 8.69878L59.0036 8.56643L58.9646 8.56143L58.9112 8.5151C58.78 8.4587 58.6123 8.37784 58.5006 8.32394L58.4422 8.31645L58.3888 8.27L58.1094 8.13527C57.9976 8.08137 57.8469 8.02248 57.7351 7.96858L57.3973 7.82636L57.2102 7.74296L57.1518 7.73547L57.079 7.68652L56.9672 7.63271L56.5904 7.4855C56.5904 7.4855 56.3839 7.39958 56.289 7.36763C56.1942 7.33569 56.1019 7.28433 55.9876 7.24989L55.8005 7.16648C55.6862 7.13205 55.555 7.07569 55.4408 7.04126L55.1953 6.95036C55.081 6.91592 54.9692 6.86206 54.8549 6.82762L54.7965 6.82014C54.7965 6.82014 54.6264 6.75881 54.5316 6.72687L54.3809 6.66793L54.1913 6.60401L54.094 6.59153L53.9822 6.53771C53.9822 6.53771 53.7926 6.47377 53.6977 6.44183L53.5276 6.3804C53.4303 6.36792 53.3185 6.31408 53.2237 6.28214L52.9562 6.20823L52.8006 6.18826L52.5551 6.09749L52.3265 6.02857C52.1903 6.0111 52.0591 5.95466 51.9423 5.93969L51.5775 5.85342L51.4218 5.83345C51.327 5.80151 51.2128 5.76703 51.096 5.75206C50.9403 5.73209 50.7677 5.69012 50.6145 5.65069C50.4977 5.63572 50.3809 5.62072 50.2861 5.58877C50.1499 5.5713 50.0331 5.55643 49.9189 5.52199C49.7826 5.50452 49.6464 5.48702 49.5321 5.45258C49.4543 5.4426 49.3764 5.43262 49.2791 5.42014L49.0651 5.39268C49.0651 5.39268 48.9483 5.3777 48.8899 5.37021L48.6953 5.34525C47.9777 5.23344 47.2746 5.16304 46.574 5.07318C46.4184 5.05321 46.2627 5.03324 46.1264 5.01577C45.9707 4.9958 45.8151 4.97585 45.6569 4.97535C45.5596 4.96287 45.4623 4.95038 45.3844 4.9404C45.1509 4.91045 44.9124 4.91936 44.6958 4.91136C44.618 4.90138 44.5401 4.89141 44.4598 4.90089C44.1239 4.89738 43.8076 4.89636 43.5106 4.89784C43.3744 4.88037 43.2138 4.89927 43.075 4.90126L42.9777 4.88878C42.7392 4.89775 42.5007 4.90683 42.3011 4.9208C42.1234 4.9178 41.9627 4.93671 41.7851 4.9337C41.3884 4.94217 41.089 4.96305 40.8674 4.99398C39.8085 5.07577 38.7641 5.19901 37.7341 5.36364C37.1084 5.46142 36.563 5.5497 35.8688 5.71784C33.0195 6.3415 30.225 7.30851 27.5827 8.63133C27.3267 8.77653 27.0537 8.8998 26.7977 9.04501L26.6929 9.09097C26.2468 9.33049 25.7982 9.58941 25.3496 9.84839L25.2423 9.91371L25.2033 9.90872L25.1569 9.96217L25.113 9.99614L25.0691 10.03C24.9424 10.0929 24.8326 10.1777 24.7033 10.2601C24.4668 10.4078 24.2302 10.5555 23.9912 10.7227C23.8619 10.805 23.7327 10.8873 23.6034 10.9696C23.3425 11.1537 23.084 11.3184 22.8644 11.4881L22.8255 11.4831L22.818 11.5415L22.6254 11.6553C21.4057 12.5276 20.6273 13.1992 20.5833 13.2331C20.2051 13.5605 19.8048 13.9047 19.4241 14.2516C19.1556 14.4941 18.8652 14.7536 18.5917 15.035L18.5258 15.086L18.4794 15.1393C17.913 15.6997 17.2977 16.3329 16.626 17.0974L16.621 17.1364L16.5771 17.1703C16.2742 17.5271 15.9468 17.9203 15.6169 18.333C15.3335 18.6923 15.05 19.0516 14.813 19.3575L13.984 20.5766C13.715 20.9774 13.4485 21.3586 13.2065 21.7034C12.7638 22.3786 12.2523 23.2823 11.7528 24.2469C11.3265 25.1022 10.9148 25.9989 10.5445 26.8812L10.5345 26.959C10.0344 28.0818 9.63668 29.1782 9.41008 30.0195C8.52365 33.2293 8.44974 33.4969 8.13374 35.6522C7.74534 38.3719 7.76819 40.3529 7.7846 41.3046C7.82934 44.0403 8.20694 46.1857 8.33365 46.8944C8.78559 49.3856 9.26756 50.8716 9.7545 52.3189C10.0558 53.2082 10.2923 53.832 10.5967 54.5436C10.9784 55.4234 11.399 56.3082 11.861 57.1786L12.0182 57.4955C12.4752 58.4048 13.1578 59.5605 13.7635 60.3899C14.1996 60.9998 14.7664 61.8242 15.2245 62.4171C15.6825 63.0099 16.2957 63.781 16.8172 64.3424C17.37 64.9672 17.6125 65.2358 18.1414 65.7389C18.7891 66.3956 19.4418 67.0135 20.1189 67.5949C20.3324 67.7805 20.5655 67.9686 20.779 68.1543C21.0485 68.3669 21.2985 68.577 21.534 68.7457C21.6602 68.841 21.8424 68.9632 22.039 69.1269L22.1288 69.1978C22.3279 69.3421 22.5804 69.5326 22.8548 69.7063L23.0369 69.8287C23.8358 70.3861 24.8388 71.0489 25.9829 71.6902C26.2234 71.82 26.5732 72.023 26.962 72.2311C27.0737 72.285 27.183 72.3584 27.2948 72.4123L27.8901 72.7062C28.0213 72.7626 28.189 72.8435 28.3007 72.8974L28.4489 72.9758L28.4879 72.9808L28.7114 73.0886C28.8232 73.1425 28.9739 73.2014 29.0857 73.2553L29.4599 73.422L29.4988 73.4269C30.9594 74.0693 32.3815 74.5484 33.7358 74.9397L33.872 74.9572C33.9838 75.0111 34.1175 75.0481 34.2513 75.085L34.2902 75.09L34.633 75.1933L35.4014 75.371C35.7467 75.4549 36.2088 75.5537 36.5566 75.6181C36.885 75.68 37.2717 75.7493 37.639 75.8162C37.8336 75.8412 38.0087 75.8636 38.1839 75.8861C38.6704 75.9485 39.3126 76.0309 39.8186 76.0958C40.3246 76.1606 40.9938 76.1872 41.4828 76.2301C42.5656 76.2701 43.9893 76.2747 45.0626 76.2343C45.8975 76.2029 47.0148 76.1285 47.8426 75.9973C48.0447 75.9639 48.2663 75.933 48.4903 75.8826C49.1356 75.7873 49.8247 75.6581 50.3896 75.5722L51.0618 75.4211C51.5902 75.3108 52.1212 75.1811 52.6521 75.0514L52.9176 74.9866C53.5314 74.8279 54.2939 74.5894 54.9785 74.3409C55.2685 74.2396 55.5583 74.1384 55.8483 74.0371C56.6158 73.7597 57.5953 73.3709 58.3119 73.0276L58.3948 72.9987C59.048 72.6868 59.7012 72.375 60.34 72.0217C60.4887 71.9419 60.6154 71.879 60.7422 71.8161L61.4493 71.3924C61.6419 71.2787 61.8345 71.1649 62.0077 71.0486L63.0781 70.4143C63.4853 70.1698 64.2219 69.6709 65.3222 68.8031L65.3856 68.7717L65.4954 68.6869C66.0688 68.2263 66.7325 67.6784 67.4915 67.0043L67.5379 66.9508C68.297 66.2766 69.5615 65.0541 70.9932 63.299L71.0397 63.2457C71.3695 62.833 71.7019 62.4008 72.0367 61.9492C72.181 61.7501 72.3252 61.5509 72.4695 61.3518C72.6651 61.0604 72.8776 60.791 73.0294 60.5335C73.0783 60.4607 73.1297 60.3683 73.2005 60.2785C73.494 59.8414 73.7705 59.3823 74.0689 58.9062C74.4702 58.2455 74.8519 57.5823 75.1239 57.0039C75.626 56.0198 76.1186 54.9555 76.5602 53.8252C76.8447 53.1495 77.0928 52.4494 77.2944 51.8026C77.523 51.1 77.7346 50.3754 77.9268 49.6483C77.9687 49.4757 78.0082 49.3225 78.0501 49.1498C78.2967 48.1527 78.5118 47.0923 78.6685 46.0244L78.6935 45.8297C78.8228 44.9758 78.9157 44.0976 78.9916 43.1973L78.8917 43.2043Z" fill="url(#paint0_radial_40_816)"/>
<path d="M77.7991 31.0563C77.7512 30.8127 77.6814 30.5862 77.614 30.3402C77.6644 30.5643 77.7317 30.8103 77.7991 31.0563Z" fill="url(#paint1_linear_40_816)"/>
<path d="M7.38829 41.9264C7.37682 41.7073 7.36284 41.5077 7.34888 41.3081C7.36284 41.5077 7.37433 41.7268 7.38829 41.9264Z" fill="url(#paint2_linear_40_816)"/>
<defs>
<radialGradient id="paint0_radial_40_816" cx="0" cy="0" r="1" gradientUnits="userSpaceOnUse" gradientTransform="translate(44.639 46.5555) rotate(7.07887) scale(40.9872 40.9895)">
<stop stop-color="#F79F40"/>
<stop offset="0.16" stop-color="#F7A442"/>
<stop offset="0.37" stop-color="#F8B449"/>
<stop offset="0.6" stop-color="#F9CE55"/>
<stop offset="0.77" stop-color="#FBE660"/>
<stop offset="0.91" stop-color="#FBF36F"/>
<stop offset="0.93" stop-color="#FBF672"/>
<stop offset="0.95" stop-color="#FBF676"/>
<stop offset="0.96" stop-color="#FBF782"/>
<stop offset="0.98" stop-color="#FBF897"/>
<stop offset="0.99" stop-color="#FCFAB4"/>
<stop offset="1" stop-color="#FDFBC2"/>
</radialGradient>
<linearGradient id="paint1_linear_40_816" x1="77.4917" y1="30.7078" x2="77.7641" y2="30.7433" gradientUnits="userSpaceOnUse">
<stop stop-color="#19B79C"/>
<stop offset="0.4" stop-color="#1DBB9D"/>
<stop offset="0.82" stop-color="#29C7A2"/>
<stop offset="1" stop-color="#31CFA6"/>
</linearGradient>
<linearGradient id="paint2_linear_40_816" x1="7.24498" y1="41.6406" x2="7.36173" y2="41.6558" gradientUnits="userSpaceOnUse">
<stop stop-color="#19B79C"/>
<stop offset="0.4" stop-color="#1DBB9D"/>
<stop offset="0.82" stop-color="#29C7A2"/>
<stop offset="1" stop-color="#31CFA6"/>
</linearGradient>
</defs>
</svg>
