<svg width="1645" height="1221" viewBox="0 0 1645 1221" fill="none" xmlns="http://www.w3.org/2000/svg">
<g style="mix-blend-mode:multiply" opacity="0.7">
<g style="mix-blend-mode:multiply" opacity="0.01">
<path d="M448.271 913.042C471.395 893.918 515.65 888.004 522.659 916.086C525.214 926.186 520.029 936.541 511.921 944.777C508.759 947.987 505.118 950.92 501.278 953.375C493.462 958.425 484.915 962.832 476.323 965.355C468.591 967.628 460.83 968.375 453.566 966.673C443.362 964.293 432.642 956.453 430.604 946.002C428.404 934.78 438.372 921.216 448.269 913.061L448.271 913.042Z" fill="#47E7C8"/>
</g>
<g style="mix-blend-mode:multiply" opacity="0.03">
<path d="M448.232 913.195C471.196 894.249 514.928 888.41 521.983 916.122C524.543 926.182 519.325 936.474 511.286 944.64C508.126 947.83 504.509 950.727 500.689 953.184C492.958 958.185 484.477 962.541 475.964 965.054C468.313 967.317 460.612 968.052 453.425 966.378C443.296 964.028 432.68 956.299 430.631 945.946C428.416 934.84 438.299 921.326 448.235 913.175L448.232 913.195Z" fill="#46E6C8"/>
</g>
<g style="mix-blend-mode:multiply" opacity="0.04">
<path d="M448.172 913.366C471.01 894.641 514.245 888.82 521.285 916.175C523.854 926.157 518.618 936.447 510.626 944.539C507.489 947.712 503.893 950.592 500.075 953.029C492.41 957.979 484.012 962.306 475.585 964.77C467.996 967.001 460.373 967.746 453.261 966.101C443.225 963.802 432.697 956.163 430.633 945.926C428.387 934.916 438.239 921.497 448.175 913.346L448.172 913.366Z" fill="#46E4C7"/>
</g>
<g style="mix-blend-mode:multiply" opacity="0.06">
<path d="M448.134 913.519C470.831 894.975 513.563 889.23 520.606 916.23C523.202 926.156 517.909 936.419 509.988 944.421C506.875 947.558 503.282 950.418 499.484 952.858C491.884 957.757 483.571 962.034 475.224 964.488C467.716 966.71 460.173 967.444 453.098 965.824C443.137 963.553 432.714 956.027 430.655 945.909C428.395 935.016 438.181 921.648 448.134 913.519V913.519Z" fill="#45E3C7"/>
</g>
<g style="mix-blend-mode:multiply" opacity="0.07">
<path d="M448.075 913.67C470.61 895.324 512.882 889.621 519.91 916.263C522.513 926.131 517.206 936.352 509.333 944.282C506.242 947.401 502.671 950.244 498.875 952.665C491.36 957.514 483.112 961.74 474.846 964.185C467.401 966.375 459.936 967.119 452.936 965.528C443.068 963.308 432.733 955.871 430.662 945.851C428.39 935.055 438.108 921.757 448.08 913.631L448.075 913.67Z" fill="#45E1C7"/>
</g>
<g style="mix-blend-mode:multiply" opacity="0.08">
<path d="M448.015 913.84C470.409 895.675 512.196 890.051 519.209 916.335C521.82 926.145 516.476 936.342 508.671 944.2C505.604 947.283 502.035 950.107 498.259 952.53C490.81 957.328 482.644 961.525 474.441 963.938C467.077 966.117 459.673 966.849 452.746 965.307C442.953 963.116 432.723 955.791 430.657 945.89C428.373 935.191 438.021 921.984 448.032 913.862L448.015 913.84Z" fill="#44E0C7"/>
</g>
<g style="mix-blend-mode:multiply" opacity="0.1">
<path d="M447.977 913.994C470.227 896.028 511.516 890.442 518.533 916.371C521.17 926.124 515.792 936.278 508.036 944.063C504.991 947.129 501.424 949.933 497.67 952.339C490.286 957.086 482.206 961.234 474.083 963.637C466.78 965.804 459.456 966.526 452.585 965.01C442.885 962.87 432.782 955.64 430.665 945.831C428.388 935.233 437.948 922.094 447.979 913.975L447.977 913.994Z" fill="#44DEC6"/>
</g>
<g style="mix-blend-mode:multiply" opacity="0.11">
<path d="M447.918 914.145C470.008 896.357 510.833 890.852 517.834 916.423C520.479 926.118 515.064 936.247 507.376 943.962C504.355 946.992 500.808 949.798 497.056 952.184C489.758 956.883 481.743 960.979 473.7 963.372C466.479 965.51 459.212 966.259 452.418 964.753C442.791 962.661 432.796 955.523 430.664 945.831C428.374 935.349 437.868 922.262 447.916 914.164L447.918 914.145Z" fill="#43DDC6"/>
</g>
<g style="mix-blend-mode:multiply" opacity="0.13">
<path d="M447.877 914.318C469.827 896.71 510.17 891.265 517.155 916.478C519.829 926.098 514.378 936.203 506.738 943.844C503.739 946.857 500.197 949.624 496.464 952.013C489.215 956.638 481.3 960.727 473.339 963.091C466.179 965.216 458.992 965.955 452.274 964.478C442.742 962.418 432.832 955.389 430.706 945.817C428.403 935.432 437.829 922.415 447.894 914.34L447.877 914.318Z" fill="#43DBC6"/>
</g>
<g style="mix-blend-mode:multiply" opacity="0.14">
<path d="M447.819 914.469C469.606 897.059 509.486 891.675 516.459 916.511C519.14 926.073 513.652 936.153 506.08 943.724C503.086 946.697 499.585 949.45 495.833 951.836C488.669 956.413 480.819 960.451 472.92 962.802C465.843 964.898 458.714 965.644 452.052 964.193C442.593 962.182 432.79 955.245 430.652 945.77C428.335 935.503 437.696 922.537 447.78 914.464L447.819 914.469Z" fill="#42DAC6"/>
</g>
<g style="mix-blend-mode:multiply" opacity="0.15">
<path d="M447.781 914.622C469.427 897.392 508.825 892.069 515.78 916.566C518.488 926.072 512.966 936.108 505.443 943.606C502.47 946.562 498.972 949.296 495.241 951.665C488.143 956.19 480.376 960.199 472.559 962.52C465.543 964.604 458.494 965.34 451.908 963.919C442.544 961.939 432.826 955.111 430.694 945.756C428.364 935.585 437.657 922.69 447.778 914.642L447.781 914.622Z" fill="#42D8C6"/>
</g>
<g style="mix-blend-mode:multiply" opacity="0.17">
<path d="M447.72 914.793C469.206 897.741 508.143 892.479 515.082 916.619C517.797 926.066 512.238 936.078 504.786 943.486C501.838 946.406 498.341 949.12 494.63 951.491C487.597 955.965 479.916 959.925 472.182 962.217C465.245 964.291 458.277 965.017 451.745 963.642C442.454 961.71 432.863 954.978 430.699 945.717C428.357 935.644 437.58 922.839 447.723 914.773L447.72 914.793Z" fill="#41D7C5"/>
</g>
<g style="mix-blend-mode:multiply" opacity="0.18">
<path d="M447.662 914.944C468.985 898.089 507.46 892.889 514.384 916.672C517.125 926.062 511.532 936.031 504.126 943.385C501.2 946.288 497.725 948.985 494.017 951.337C487.049 955.759 479.453 959.67 471.799 961.953C464.926 963.995 458.035 964.73 451.559 963.382C442.366 961.462 432.858 954.858 430.679 945.715C428.324 935.758 437.461 923.002 447.64 914.961L447.662 914.944Z" fill="#41D5C5"/>
</g>
<g style="mix-blend-mode:multiply" opacity="0.2">
<path d="M447.621 915.117C468.804 898.443 506.796 893.302 513.705 916.727C516.453 926.059 510.824 936.004 503.488 943.267C500.586 946.134 497.114 948.811 493.425 951.165C486.542 955.539 479.009 959.418 471.438 961.671C464.645 963.704 457.816 964.427 451.415 963.107C442.294 961.236 432.894 954.724 430.723 945.68C428.355 935.822 437.425 923.136 447.621 915.117V915.117Z" fill="#40D4C5"/>
</g>
<g style="mix-blend-mode:multiply" opacity="0.21">
<path d="M447.563 915.268C468.585 898.772 506.115 893.693 513.009 916.76C515.786 926.017 510.118 935.956 502.83 943.147C499.95 945.996 496.5 948.656 492.813 950.991C485.999 955.294 478.548 959.144 471.038 961.385C464.309 963.385 457.557 964.118 451.232 962.828C442.206 960.988 432.891 954.586 430.705 945.658C428.326 935.897 437.327 923.283 447.543 915.265L447.563 915.268Z" fill="#40D2C5"/>
</g>
<g style="mix-blend-mode:multiply" opacity="0.23">
<path d="M447.524 915.421C468.406 899.106 505.452 894.106 512.33 916.815C515.115 926.013 509.412 935.909 502.192 943.029C499.337 945.842 495.889 948.482 492.222 950.82C485.473 955.072 478.107 958.872 470.677 961.103C464.028 963.094 457.337 963.815 451.068 962.551C442.116 960.759 432.908 954.449 430.727 945.641C428.314 935.994 437.269 923.434 447.522 915.44L447.524 915.421Z" fill="#3FD0C4"/>
</g>
<g style="mix-blend-mode:multiply" opacity="0.24">
<path d="M447.464 915.592C468.183 899.474 504.788 894.519 511.632 916.867C514.443 926.01 508.685 935.879 501.535 942.909C498.701 945.704 495.276 948.328 491.611 950.646C484.947 954.849 477.644 958.618 470.297 960.819C463.709 962.798 457.098 963.508 450.904 962.273C442.047 960.514 432.944 954.315 430.732 945.603C428.307 936.053 437.194 923.563 447.466 915.572L447.464 915.592Z" fill="#3FCFC4"/>
</g>
<g style="mix-blend-mode:multiply" opacity="0.25">
<path d="M447.406 915.743C467.964 899.803 504.108 894.909 510.933 916.92C513.752 926.004 507.979 935.832 500.875 942.808C498.046 945.565 494.64 948.191 490.999 950.472C484.401 954.624 477.184 958.344 469.917 960.535C463.411 962.485 456.859 963.202 450.738 962.016C441.954 960.305 432.958 954.198 430.752 945.605C428.315 936.153 437.131 923.753 447.423 915.764L447.406 915.743Z" fill="#3ECDC4"/>
</g>
<g style="mix-blend-mode:multiply" opacity="0.27">
<path d="M447.367 915.896C467.785 900.136 503.444 895.322 510.257 916.956C513.102 925.984 507.273 935.785 500.24 942.671C497.433 945.41 494.051 948 490.41 950.281C483.877 954.382 476.743 958.072 469.539 960.232C463.094 962.169 456.622 962.877 450.558 961.717C441.868 960.037 432.958 954.04 430.739 945.544C428.288 936.209 437.039 923.86 447.348 915.894L447.367 915.896Z" fill="#3ECCC4"/>
</g>
<g style="mix-blend-mode:multiply" opacity="0.28">
<path d="M447.307 916.066C467.564 900.485 502.781 895.735 509.559 917.008C512.411 925.978 506.567 935.738 499.6 942.573C496.817 945.275 493.435 947.865 489.816 950.129C483.368 954.181 476.299 957.82 469.176 959.97C462.811 961.897 456.42 962.595 450.411 961.462C441.795 959.83 432.992 953.926 430.759 945.546C428.295 936.308 436.979 924.03 447.307 916.066V916.066Z" fill="#3DCAC3"/>
</g>
<g style="mix-blend-mode:multiply" opacity="0.3">
<path d="M447.268 916.22C467.366 900.816 502.12 896.128 508.88 917.063C511.759 925.977 505.859 935.71 498.962 942.455C496.201 945.14 492.824 947.691 489.205 949.955C482.823 953.955 475.839 957.546 468.798 959.667C462.497 961.562 456.18 962.289 450.25 961.165C441.729 959.565 433.011 953.77 430.783 945.51C428.308 936.369 436.923 924.162 447.288 916.222L447.268 916.22Z" fill="#3DC9C3"/>
</g>
<g style="mix-blend-mode:multiply" opacity="0.31">
<path d="M447.21 916.371C467.147 901.145 501.457 896.541 508.184 917.097C511.07 925.952 505.155 935.644 498.307 942.315C495.57 944.964 492.213 947.517 488.596 949.762C482.28 953.711 475.378 957.272 468.42 959.363C462.199 961.248 455.944 961.963 450.069 960.866C441.621 959.315 433.011 953.612 430.771 945.449C428.281 936.425 436.811 924.267 447.215 916.332L447.21 916.371Z" fill="#3CC7C3"/>
</g>
<g style="mix-blend-mode:multiply" opacity="0.32">
<path d="M447.169 916.544C466.963 901.518 500.812 896.956 507.503 917.171C510.415 925.97 504.445 935.635 497.664 942.236C494.949 944.868 491.596 947.382 488 949.629C481.749 953.527 474.933 957.039 468.055 959.121C461.897 960.974 455.719 961.698 449.92 960.63C441.567 959.11 433.062 953.519 430.808 945.473C428.306 936.547 436.768 924.459 447.189 916.546L447.169 916.544Z" fill="#3CC6C3"/>
</g>
<g style="mix-blend-mode:multiply" opacity="0.34">
<path d="M447.111 916.695C466.745 901.847 500.132 897.347 506.806 917.204C509.729 925.925 503.741 935.569 497.009 942.096C494.318 944.692 490.985 947.208 487.39 949.436C481.225 953.285 474.474 956.746 467.657 958.815C461.579 960.658 455.463 961.37 449.737 960.351C441.457 958.879 433.058 953.38 430.792 945.432C428.279 936.603 436.673 924.586 447.111 916.695V916.695Z" fill="#3BC4C3"/>
</g>
<g style="mix-blend-mode:multiply" opacity="0.35">
<path d="M447.05 916.865C466.524 902.196 499.468 897.76 506.106 917.276C509.055 925.941 503.011 935.558 496.347 942.015C493.678 944.593 490.35 947.071 486.774 949.301C480.674 953.099 474.006 956.53 467.272 958.57C461.255 960.401 455.219 961.103 449.549 960.11C441.364 958.67 433.051 953.281 430.771 945.449C428.243 936.737 436.571 924.771 447.029 916.882L447.05 916.865Z" fill="#3BC3C2"/>
</g>
<g style="mix-blend-mode:multiply" opacity="0.37">
<path d="M447.012 917.019C466.325 902.527 498.827 898.156 505.43 917.312C508.405 925.921 502.327 935.494 495.712 941.878C493.048 944.417 489.758 946.899 486.185 949.11C480.151 952.856 473.568 956.239 466.914 958.269C460.98 960.071 455.002 960.78 449.407 959.816C441.298 958.405 433.09 953.127 430.817 945.395C428.277 936.781 436.538 924.886 447.031 917.021L447.012 917.019Z" fill="#3AC1C2"/>
</g>
<g style="mix-blend-mode:multiply" opacity="0.38">
<path d="M446.954 917.17C466.107 902.856 498.163 898.568 504.733 917.345C507.716 925.896 501.602 935.445 495.057 941.738C492.414 944.26 489.13 946.704 485.576 948.916C479.627 952.614 473.107 955.965 466.536 957.966C460.663 959.755 454.765 960.454 449.246 959.52C441.229 958.16 433.109 952.972 430.822 945.357C428.267 936.859 436.46 925.034 446.976 917.153L446.954 917.17Z" fill="#3AC0C2"/>
</g>
<g style="mix-blend-mode:multiply" opacity="0.39">
<path d="M446.913 917.343C465.906 903.207 497.519 898.983 504.052 917.42C507.062 925.914 500.911 935.439 494.414 941.659C491.796 944.145 488.531 946.591 484.98 948.784C479.096 952.43 472.661 955.733 466.17 957.723C460.38 959.483 454.541 960.189 449.078 959.281C441.136 957.951 433.121 952.874 430.839 945.378C428.273 936.978 436.378 925.222 446.93 917.365L446.913 917.343Z" fill="#39BEC2"/>
</g>
<g style="mix-blend-mode:multiply" opacity="0.41">
<path d="M446.855 917.494C465.687 903.536 496.858 899.377 503.356 917.453C506.392 925.891 500.188 935.37 493.759 941.519C491.163 943.988 487.902 946.395 484.371 948.591C478.553 952.186 472.203 955.439 465.775 957.398C460.045 959.145 454.306 959.844 448.899 958.963C441.05 957.683 433.142 952.699 430.829 945.298C428.231 936.992 436.288 925.31 446.857 917.474L446.855 917.494Z" fill="#39BCC1"/>
</g>
<g style="mix-blend-mode:multiply" opacity="0.42">
<path d="M446.796 917.645C465.469 903.865 496.197 899.77 502.658 917.505C505.701 925.885 499.479 935.342 493.099 941.419C490.527 943.851 487.286 946.26 483.757 948.436C478.024 951.982 471.738 955.204 465.393 957.133C459.743 958.871 454.062 959.577 448.731 958.725C440.957 957.474 433.154 952.602 430.846 945.32C428.234 937.131 436.225 925.5 446.814 917.667L446.796 917.645Z" fill="#38BBC1"/>
</g>
<g style="mix-blend-mode:multiply" opacity="0.44">
<path d="M446.756 917.818C465.268 904.216 495.553 900.185 501.979 917.56C505.049 925.884 498.774 935.295 492.462 941.301C489.912 943.716 486.673 946.105 483.166 948.265C477.498 951.76 471.297 954.932 465.032 956.852C459.446 958.558 453.843 959.273 448.567 958.448C440.886 957.248 433.171 952.465 430.851 945.281C428.227 937.189 436.15 925.629 446.775 917.82L446.756 917.818Z" fill="#38B9C1"/>
</g>
<g style="mix-blend-mode:multiply" opacity="0.45">
<path d="M446.698 917.969C465.052 904.526 494.911 900.581 501.283 917.594C504.38 925.862 498.068 935.248 491.807 941.161C489.281 943.539 486.045 945.91 482.538 948.069C476.938 951.493 470.819 954.637 464.635 956.546C459.129 958.242 453.586 958.946 448.386 958.149C440.781 956.978 433.171 952.307 430.836 945.24C428.2 937.246 436.036 925.753 446.7 917.949L446.698 917.969Z" fill="#37B8C1"/>
</g>
<g style="mix-blend-mode:multiply" opacity="0.46">
<path d="M446.659 918.122C464.853 904.857 494.27 900.976 500.604 917.648C503.727 925.86 497.362 935.201 491.166 941.062C488.662 943.424 485.448 945.777 481.943 947.917C476.428 951.292 470.373 954.404 464.252 956.281C458.809 957.946 453.345 958.659 448.22 957.891C440.707 956.771 433.185 952.19 430.858 945.222C428.207 937.345 435.977 925.904 446.659 918.122V918.122Z" fill="#37B6C1"/>
</g>
<g style="mix-blend-mode:multiply" opacity="0.48">
<path d="M446.598 918.292C464.632 905.206 493.606 901.389 499.906 917.701C503.038 925.835 496.634 935.171 490.509 940.942C488.01 943.265 484.817 945.601 481.332 947.743C475.883 951.067 469.913 954.13 463.871 955.997C458.509 957.652 453.105 958.353 448.037 957.612C440.6 956.521 433.182 952.051 430.841 945.201C428.178 937.421 435.88 926.05 446.579 918.29L446.598 918.292Z" fill="#36B5C0"/>
</g>
<g style="mix-blend-mode:multiply" opacity="0.49">
<path d="M446.56 918.446C464.434 905.537 492.984 901.787 499.227 917.756C502.386 925.834 495.948 935.126 489.869 940.844C487.392 943.149 484.221 945.468 480.738 947.591C475.355 950.864 469.467 953.897 463.509 955.735C458.207 957.378 452.884 958.068 447.891 957.356C440.546 956.316 433.216 951.937 430.88 945.205C428.206 937.523 435.84 926.223 446.558 918.465L446.56 918.446Z" fill="#36B3C0"/>
</g>
<g style="mix-blend-mode:multiply" opacity="0.51">
<path d="M446.499 918.616C464.213 905.886 492.34 902.203 498.529 917.809C501.715 925.831 495.22 935.096 489.211 940.724C486.758 942.992 483.59 945.292 480.127 947.417C474.828 950.641 469.006 953.623 463.128 955.452C457.909 957.064 452.644 957.762 447.724 957.099C440.455 956.088 433.23 951.82 430.882 945.186C428.194 937.62 435.743 926.37 446.516 918.638L446.499 918.616Z" fill="#35B2C0"/>
</g>
<g style="mix-blend-mode:multiply" opacity="0.52">
<path d="M446.442 918.767C463.995 906.215 491.679 902.596 497.831 917.862C501.043 925.828 494.514 935.049 488.554 940.603C486.123 942.855 482.977 945.138 479.516 947.243C474.283 950.416 468.546 953.349 462.748 955.168C457.59 956.768 452.405 957.456 447.542 956.819C440.365 955.859 433.247 951.684 430.865 945.164C428.145 937.694 435.646 926.516 446.439 918.787L446.442 918.767Z" fill="#35B0C0"/>
</g>
<g style="mix-blend-mode:multiply" opacity="0.54">
<path d="M446.403 918.921C463.798 906.527 491.057 902.994 497.154 917.897C500.393 925.807 493.808 935.002 487.916 940.486C485.509 942.701 482.365 944.964 478.926 947.052C473.759 950.174 468.105 953.077 462.372 954.845C457.297 956.416 452.188 957.133 447.382 956.503C440.281 955.572 433.269 951.509 430.894 945.089C428.162 937.715 435.595 926.608 446.405 918.901L446.403 918.921Z" fill="#34AFBF"/>
</g>
<g style="mix-blend-mode:multiply" opacity="0.55">
<path d="M446.342 919.091C463.577 906.875 490.413 903.409 496.456 917.95C499.722 925.804 493.1 934.974 487.259 940.365C484.874 942.563 481.752 944.809 478.315 946.878C473.233 949.951 467.644 952.803 461.992 954.561C456.978 956.12 451.949 956.827 447.219 956.226C440.208 955.365 433.286 951.372 430.897 945.069C428.15 937.813 435.517 926.757 446.345 919.072L446.342 919.091Z" fill="#34ADBF"/>
</g>
<g style="mix-blend-mode:multiply" opacity="0.56">
<path d="M446.304 919.245C463.378 907.206 489.793 903.788 495.777 918.005C499.05 925.8 492.394 934.927 486.619 940.267C484.258 942.428 481.135 944.674 477.721 946.726C472.704 949.748 467.201 952.551 461.629 954.299C456.694 955.848 451.726 956.542 447.053 955.969C440.12 955.117 433.3 951.255 430.916 945.071C428.158 937.912 435.437 926.925 446.304 919.245V919.245Z" fill="#33ACBF"/>
</g>
<g style="mix-blend-mode:multiply" opacity="0.58">
<path d="M446.246 919.396C463.141 907.533 489.152 904.183 495.081 918.038C498.381 925.777 491.688 934.88 485.964 940.127C483.625 942.272 480.527 944.481 477.112 946.533C472.161 949.503 466.74 952.277 461.251 953.995C456.38 955.513 451.49 956.217 446.892 955.672C440.051 954.872 433.319 951.099 430.923 945.013C428.151 937.971 435.364 927.035 446.268 919.379L446.246 919.396Z" fill="#33AABF"/>
</g>
<g style="mix-blend-mode:multiply" opacity="0.59">
<path d="M446.204 919.569C462.942 907.865 488.527 904.601 494.399 918.112C497.728 925.776 490.98 934.852 485.323 940.029C482.989 942.134 479.911 944.346 476.518 946.381C471.652 949.302 466.296 952.025 460.868 953.731C456.077 955.238 451.248 955.93 446.723 955.434C439.956 954.682 433.331 951.002 430.921 945.032C428.136 938.088 435.282 927.222 446.202 919.588L446.204 919.569Z" fill="#32A9BF"/>
</g>
<g style="mix-blend-mode:multiply" opacity="0.61">
<path d="M446.146 919.72C462.724 908.194 487.888 904.977 493.703 918.146C497.059 925.753 490.274 934.805 484.666 939.909C482.354 941.997 479.299 944.172 475.887 946.205C471.087 949.075 465.817 951.749 460.469 953.445C455.738 954.94 450.99 955.622 446.52 955.152C439.848 954.432 433.309 950.861 430.906 944.991C428.09 938.141 435.168 927.347 446.127 919.717L446.146 919.72Z" fill="#32A7BE"/>
</g>
<g style="mix-blend-mode:multiply" opacity="0.62">
<path d="M446.088 919.871C462.505 908.523 487.246 905.373 493.007 918.179C496.39 925.731 489.568 934.758 484.011 939.769C481.721 941.84 478.669 943.996 475.278 946.011C470.544 948.83 465.356 951.475 460.091 953.141C455.443 954.607 450.753 955.296 446.359 954.855C439.76 954.184 433.328 950.705 430.911 944.952C428.08 938.219 435.095 927.456 446.069 919.868L446.088 919.871Z" fill="#31A5BE"/>
</g>
<g style="mix-blend-mode:multiply" opacity="0.63">
<path d="M446.047 920.044C462.287 908.852 486.641 905.793 492.326 918.253C495.755 925.751 488.86 934.73 483.368 939.69C481.102 941.725 478.072 943.863 474.682 945.879C470.032 948.649 464.91 951.242 459.725 952.899C455.139 954.352 450.526 955.051 446.21 954.62C439.706 953.979 433.359 950.61 430.95 944.957C428.107 938.322 435.035 927.627 446.047 920.044V920.044Z" fill="#31A4BE"/>
</g>
<g style="mix-blend-mode:multiply" opacity="0.65">
<path d="M445.989 920.195C462.069 909.181 486.002 906.169 491.63 918.286C495.085 925.729 488.154 934.683 482.714 939.55C480.469 941.568 477.442 943.687 474.073 945.685C469.489 948.404 464.45 950.968 459.35 952.576C454.846 954 450.292 954.706 446.032 954.301C439.601 953.709 433.361 950.433 430.938 944.896C428.083 938.358 434.943 927.734 445.992 920.175L445.989 920.195Z" fill="#30A2BE"/>
</g>
<g style="mix-blend-mode:multiply" opacity="0.66">
<path d="M445.949 920.368C461.87 909.512 485.397 906.589 490.949 918.361C494.431 925.747 487.446 934.655 482.093 939.454C479.873 941.435 476.865 943.557 473.499 945.536C468.98 948.203 464.026 950.718 458.987 952.314C454.544 953.725 450.089 954.424 445.886 954.046C439.55 953.486 433.395 950.318 430.977 944.901C428.108 938.48 434.902 927.907 445.968 920.37L445.949 920.368Z" fill="#30A1BD"/>
</g>
<g style="mix-blend-mode:multiply" opacity="0.68">
<path d="M445.89 920.519C461.651 909.841 484.757 906.965 490.253 918.394C493.764 925.705 486.74 934.608 481.435 939.334C479.237 941.298 476.234 943.381 472.887 945.362C468.454 947.98 463.565 950.444 458.606 952.03C454.243 953.432 449.85 954.118 445.719 953.788C439.456 953.276 433.409 950.201 430.979 944.882C428.079 938.555 434.804 928.053 445.91 920.521L445.89 920.519Z" fill="#2F9FBD"/>
</g>
<g style="mix-blend-mode:multiply" opacity="0.69">
<path d="M445.832 920.669C461.416 910.148 484.136 907.363 489.557 918.427C493.095 925.682 486.017 934.539 480.781 939.194C478.607 941.122 475.603 943.204 472.278 945.168C467.911 947.736 463.105 950.17 458.229 951.726C453.929 953.096 449.613 953.792 445.539 953.489C439.371 953.009 433.409 950.043 430.964 944.84C428.05 938.631 434.71 928.18 445.832 920.669V920.669Z" fill="#2F9EBD"/>
</g>
<g style="mix-blend-mode:multiply" opacity="0.7">
<path d="M445.791 920.842C461.215 910.499 483.533 907.764 488.876 918.502C492.459 925.703 485.326 934.533 480.138 939.115C477.986 941.026 475.007 943.072 471.682 945.036C467.38 947.552 462.659 949.938 457.863 951.484C453.644 952.844 449.389 953.527 445.39 953.254C439.295 952.822 433.441 949.948 431.003 944.845C428.077 938.733 434.652 928.331 445.811 920.845L445.791 920.842Z" fill="#2E9CBD"/>
</g>
<g style="mix-blend-mode:multiply" opacity="0.72">
<path d="M445.733 920.993C460.979 910.806 482.913 908.142 488.18 918.535C491.792 925.66 484.603 934.464 479.483 938.976C477.355 940.849 474.376 942.895 471.073 944.842C466.856 947.31 462.2 949.644 457.466 951.178C453.309 952.506 449.13 953.219 445.209 952.955C439.207 952.574 433.44 949.79 430.988 944.804C428.05 938.789 434.557 928.458 445.753 920.996L445.733 920.993Z" fill="#2E9BBD"/>
</g>
<g style="mix-blend-mode:multiply" opacity="0.73">
<path d="M445.694 921.147C460.781 911.138 482.313 908.523 487.501 918.59C491.14 925.659 483.914 934.439 478.845 938.858C476.719 940.712 473.784 942.724 470.481 944.671C466.33 947.087 461.757 949.392 457.105 950.896C453.029 952.215 448.91 952.915 445.045 952.678C439.118 952.325 433.457 949.653 431.01 944.786C428.038 938.886 434.479 928.606 445.712 921.169L445.694 921.147Z" fill="#2D99BC"/>
</g>
<g style="mix-blend-mode:multiply" opacity="0.75">
<path d="M445.634 921.317C460.562 911.467 481.688 908.941 486.803 918.643C490.488 925.658 483.187 934.409 478.185 938.757C476.084 940.575 473.149 942.587 469.848 944.514C465.782 946.881 461.275 949.135 456.703 950.63C452.687 951.936 448.649 952.626 444.86 952.418C439.026 952.117 433.452 949.534 430.993 944.765C428.009 938.962 434.382 928.753 445.634 921.317Z" fill="#2D98BC"/>
</g>
<g style="mix-blend-mode:multiply" opacity="0.76">
<path d="M445.595 921.471C460.344 911.796 481.088 909.322 486.124 918.698C489.858 925.64 482.481 934.362 477.547 938.639C475.471 940.42 472.555 942.435 469.256 944.343C465.256 946.659 460.831 948.883 456.342 950.348C452.41 951.625 448.43 952.322 444.713 952.162C438.955 951.89 433.486 949.42 431.013 944.767C428.014 939.081 434.305 928.901 445.591 921.51L445.595 921.471Z" fill="#2C96BC"/>
</g>
<g style="mix-blend-mode:multiply" opacity="0.77">
<path d="M445.538 921.622C460.128 912.105 480.488 909.702 485.428 918.731C489.189 925.617 481.758 934.293 476.89 938.519C474.835 940.283 471.924 942.258 468.645 944.169C464.708 946.453 460.371 948.609 455.964 950.045C452.093 951.309 448.193 951.997 444.533 951.864C438.867 951.642 433.485 949.262 431.02 944.709C427.99 939.118 434.232 929.011 445.538 921.622V921.622Z" fill="#2C95BC"/>
</g>
<g style="mix-blend-mode:multiply" opacity="0.79">
<path d="M445.477 921.792C459.888 912.452 479.865 910.101 484.73 918.783C488.538 925.597 481.049 934.265 476.233 938.399C474.199 940.146 471.31 942.104 468.034 943.995C464.181 946.23 459.91 948.335 455.564 949.759C451.775 950.994 447.951 951.71 444.349 951.584C438.759 951.392 433.48 949.142 431.003 944.687C427.958 939.213 434.116 929.155 445.477 921.792V921.792Z" fill="#2B93BB"/>
</g>
<g style="mix-blend-mode:multiply" opacity="0.8">
<path d="M445.439 921.946C459.692 912.763 479.285 910.484 484.051 918.838C487.908 925.579 480.344 934.218 475.595 938.281C473.586 939.991 470.699 941.93 467.442 943.823C463.655 946.007 459.467 948.083 455.204 949.477C451.476 950.699 447.732 951.406 444.205 951.309C438.707 951.168 433.517 949.008 431.047 944.653C427.991 939.276 434.082 929.269 445.458 921.948L445.439 921.946Z" fill="#2B91BB"/>
</g>
<g style="mix-blend-mode:multiply" opacity="0.82">
<path d="M445.378 922.116C459.454 913.09 478.665 910.863 483.353 918.891C487.256 925.578 479.636 934.191 474.935 938.18C472.929 939.871 470.083 941.795 466.831 943.649C463.11 945.782 459.006 947.809 454.823 949.193C451.176 950.406 447.493 951.1 444.022 951.03C438.597 950.937 433.514 948.87 431.03 944.631C427.94 939.368 433.965 929.413 445.38 922.097L445.378 922.116Z" fill="#2A90BB"/>
</g>
<g style="mix-blend-mode:multiply" opacity="0.83">
<path d="M445.339 922.27C459.255 913.422 478.084 911.246 482.674 918.946C486.626 925.56 478.93 934.143 474.297 938.062C472.315 939.717 469.469 941.641 466.239 943.478C462.603 945.562 458.565 947.537 454.462 948.911C450.878 950.092 447.273 950.796 443.878 950.755C438.548 950.694 433.55 948.736 431.071 944.616C427.969 939.451 433.907 929.564 445.359 922.272L445.339 922.27Z" fill="#2A8EBB"/>
</g>
<g style="mix-blend-mode:multiply" opacity="0.85">
<path d="M445.281 922.421C459.02 913.729 477.484 911.627 481.978 918.979C485.978 925.52 478.224 934.096 473.64 937.942C471.68 939.579 468.858 941.467 465.628 943.304C462.057 945.337 458.102 947.283 454.063 948.625C450.559 949.796 447.014 950.488 443.692 950.495C438.436 950.482 433.545 948.617 431.054 944.594C427.918 939.544 433.813 929.691 445.281 922.421V922.421Z" fill="#298DBA"/>
</g>
<g style="mix-blend-mode:multiply" opacity="0.86">
<path d="M445.221 922.591C458.801 914.058 476.864 912.006 481.28 919.032C485.329 925.499 477.499 934.047 472.983 937.822C471.047 939.422 468.225 941.31 465.017 943.13C461.531 945.114 457.642 947.009 453.683 948.341C450.239 949.5 446.773 950.201 443.509 950.216C438.345 950.254 433.523 948.475 431.037 944.572C427.889 939.619 433.696 929.835 445.221 922.591Z" fill="#298BBA"/>
</g>
<g style="mix-blend-mode:multiply" opacity="0.87">
<path d="M445.182 922.745C458.585 914.367 476.283 912.389 480.601 919.087C484.918 925.785 476.81 934.022 472.345 937.704C470.431 939.288 467.631 941.158 464.425 942.959C461.005 944.891 457.198 946.757 453.322 948.06C449.961 949.189 446.553 949.898 443.365 949.941C438.276 950.008 433.559 948.342 431.081 944.538C427.918 939.702 433.643 929.947 445.202 922.747L445.182 922.745Z" fill="#288ABA"/>
</g>
<g style="mix-blend-mode:multiply" opacity="0.89">
<path d="M445.124 922.896C458.367 914.696 475.685 912.75 479.904 919.12C484.123 925.49 476.087 933.953 471.687 937.584C469.797 939.131 467.02 940.984 463.814 942.785C460.607 944.585 456.737 946.483 452.944 947.756C449.644 948.873 446.316 949.572 443.203 949.644C438.207 949.762 433.575 948.205 431.085 944.499C427.891 939.758 433.567 930.076 445.146 922.878L445.124 922.896Z" fill="#2888BA"/>
</g>
<g style="mix-blend-mode:multiply" opacity="0.9">
<path d="M445.083 923.068C458.149 915.025 475.104 913.134 479.223 919.194C483.342 925.255 475.395 933.947 471.047 937.485C469.179 939.015 466.404 940.849 463.2 942.63C459.996 944.411 456.274 946.228 452.561 947.492C449.344 948.58 446.074 949.285 443.018 949.384C438.095 949.551 433.57 948.086 431.085 944.499C427.877 939.875 433.471 930.222 445.083 923.068V923.068Z" fill="#2787BA"/>
</g>
<g style="mix-blend-mode:multiply" opacity="0.92">
<path d="M445.025 923.219C457.933 915.335 474.526 913.498 478.527 919.228C482.814 925.368 474.67 933.897 470.39 937.365C468.546 938.858 465.792 940.675 462.589 942.456C459.385 944.238 455.812 945.973 452.161 947.206C449.005 948.281 445.835 948.979 442.835 949.105C438.007 949.303 433.565 947.967 431.07 944.458C427.831 939.928 433.359 930.327 445.008 923.198L445.025 923.219Z" fill="#2785B9"/>
</g>
<g style="mix-blend-mode:multiply" opacity="0.93">
<path d="M444.986 923.373C457.717 915.645 473.948 913.861 477.848 919.283C482.225 925.336 473.984 933.852 469.752 937.247C467.91 938.721 465.179 940.521 461.997 942.285C458.815 944.049 455.37 945.702 451.8 946.924C448.724 947.99 445.613 948.695 442.688 948.85C437.934 949.096 433.601 947.833 431.09 944.46C427.836 940.048 433.279 930.495 444.984 923.392L444.986 923.373Z" fill="#2684B9"/>
</g>
<g style="mix-blend-mode:multiply" opacity="0.94">
<path d="M444.926 923.543C457.479 915.971 473.347 914.243 477.15 919.335C481.597 925.298 473.256 933.822 469.092 937.146C467.275 938.584 464.563 940.386 461.383 942.13C458.204 943.875 454.907 945.447 451.418 946.66C448.405 947.693 445.372 948.408 442.503 948.59C437.841 948.887 433.596 947.713 431.092 944.441C427.805 940.143 433.184 930.622 444.923 923.563L444.926 923.543Z" fill="#2682B9"/>
</g>
<g style="mix-blend-mode:multiply" opacity="0.96">
<path d="M444.868 923.694C457.263 916.281 472.749 914.604 476.454 919.369C480.974 925.222 472.552 933.756 468.437 937.007C466.642 938.427 463.934 940.19 460.775 941.937C457.787 943.567 454.447 945.173 451.04 946.356C448.107 947.38 445.135 948.083 442.341 948.293C437.755 948.62 433.593 947.575 431.097 944.402C427.797 940.201 433.111 930.732 444.868 923.694V923.694Z" fill="#2581B9"/>
</g>
<g style="mix-blend-mode:multiply" opacity="0.97">
<path d="M444.827 923.867C457.045 916.61 472.171 914.968 475.773 919.443C480.385 925.189 471.842 933.748 467.797 936.908C466.026 938.292 463.338 940.058 460.181 941.785C457.276 943.386 454.004 944.921 450.657 946.092C447.788 947.084 444.891 947.815 442.176 948.036C437.679 948.432 433.608 947.458 431.119 944.385C427.786 940.299 433.036 930.861 444.827 923.867V923.867Z" fill="#257FB8"/>
</g>
<g style="mix-blend-mode:multiply" opacity="0.99">
<path d="M444.769 924.018C456.809 916.917 471.595 915.312 475.077 919.476C479.781 925.115 471.119 933.679 467.139 936.788C465.39 938.155 462.705 939.901 459.569 941.611C456.73 943.16 453.54 944.667 450.277 945.808C447.488 946.79 444.652 947.509 441.992 947.756C437.571 948.182 433.603 947.339 431.102 944.363C427.735 940.391 432.903 930.983 444.749 924.016L444.769 924.018Z" fill="#247EB8"/>
</g>
<g style="mix-blend-mode:multiply">
<path d="M458.977 941.44C449.913 946.356 436.881 950.904 431.124 944.346C427.742 940.491 432.845 931.134 444.727 924.191C456.61 917.248 471.017 915.676 474.396 919.551C479.214 925.065 470.428 933.673 466.499 936.69C464.774 938.02 462.108 939.768 458.975 941.459L458.977 941.44Z" fill="#247CB8"/>
</g>
</g>
<path d="M475.402 912.004L475.414 911.907C475.433 911.751 475.494 910.77 475.476 909.305C475.493 909.168 475.468 909.047 475.466 908.908C475.468 908.73 475.452 908.531 475.457 908.334C475.286 903.608 474.186 899.044 472.288 894.858C472.09 894.379 471.87 893.917 471.648 893.474C470.567 891.325 469.254 889.305 467.765 887.422C467.065 886.526 466.198 885.53 465.423 884.763C464.916 884.226 464.364 883.723 463.813 883.221L463.723 883.15L463.652 883.082C463.565 882.992 463.455 882.92 463.367 882.83C463.011 882.509 462.616 882.184 462.204 881.837L462.151 881.791C461.953 881.628 461.736 881.463 461.519 881.298C461.409 881.225 461.319 881.155 461.212 881.063C461.122 880.992 461.049 880.944 460.958 880.873C460.885 880.825 460.812 880.776 460.759 880.73C459.469 879.801 458.092 878.94 456.665 878.172C456.294 877.968 456.016 877.815 455.848 877.735L455.588 877.605L455.327 877.474L455.288 877.469L455.234 877.423C455.103 877.367 454.935 877.287 454.823 877.234L454.764 877.227L454.711 877.181L454.43 877.047C454.318 876.994 454.167 876.936 454.055 876.883L453.717 876.742L453.529 876.66L453.471 876.653L453.398 876.604L453.286 876.551L452.908 876.406C452.908 876.406 452.701 876.321 452.606 876.29C452.511 876.258 452.418 876.207 452.304 876.173L452.116 876.091C452.002 876.057 451.87 876.002 451.756 875.968L451.51 875.878C451.396 875.844 451.283 875.791 451.169 875.757L451.111 875.75C451.111 875.75 450.94 875.69 450.845 875.658L450.694 875.6L450.504 875.537L450.407 875.525L450.295 875.472C450.295 875.472 450.105 875.409 450.01 875.378L449.839 875.317C449.742 875.305 449.63 875.252 449.535 875.221L449.267 875.148L449.111 875.129L448.865 875.04L448.636 874.972C448.5 874.955 448.368 874.899 448.252 874.885L447.886 874.801L447.731 874.782C447.636 874.75 447.521 874.716 447.404 874.702C447.249 874.683 447.076 874.642 446.922 874.603C446.805 874.589 446.689 874.575 446.594 874.543C446.457 874.526 446.34 874.512 446.226 874.478C446.09 874.462 445.953 874.445 445.839 874.411C445.761 874.401 445.683 874.392 445.586 874.38L445.372 874.354C445.372 874.354 445.255 874.339 445.196 874.332L445.002 874.308C444.283 874.2 443.58 874.134 442.879 874.047C442.723 874.028 442.567 874.009 442.431 873.992C442.275 873.973 442.119 873.954 441.961 873.955C441.864 873.943 441.766 873.931 441.689 873.921C441.455 873.892 441.216 873.903 441 873.896C440.922 873.886 440.844 873.877 440.764 873.887C440.428 873.885 440.111 873.886 439.815 873.889C439.678 873.872 439.518 873.892 439.379 873.894L439.282 873.882C439.043 873.893 438.805 873.903 438.605 873.918C438.427 873.916 438.267 873.936 438.089 873.934C437.693 873.944 437.393 873.967 437.172 873.999C436.113 874.087 435.07 874.215 434.041 874.386C433.415 874.487 432.87 874.578 432.177 874.75C429.331 875.389 426.542 876.371 423.907 877.708C423.652 877.855 423.379 877.979 423.124 878.126L423.02 878.172C422.575 878.414 422.128 878.676 421.68 878.937L421.573 879.003L421.534 878.998L421.488 879.052L421.445 879.086L421.401 879.12C421.275 879.184 421.165 879.269 421.036 879.352C420.801 879.501 420.565 879.65 420.327 879.819C420.198 879.902 420.069 879.985 419.94 880.068C419.68 880.253 419.423 880.419 419.204 880.59L419.165 880.585L419.158 880.644L418.966 880.759C417.751 881.637 416.976 882.313 416.932 882.347C416.556 882.677 416.158 883.023 415.779 883.372C415.512 883.616 415.223 883.877 414.951 884.16L414.885 884.211L414.839 884.265C414.275 884.828 413.664 885.465 412.996 886.233L412.991 886.272L412.947 886.306C412.647 886.665 412.321 887.06 411.994 887.474C411.712 887.835 411.431 888.196 411.195 888.503L410.373 889.726C410.106 890.129 409.842 890.511 409.601 890.857C409.162 891.535 408.656 892.441 408.161 893.409C407.74 894.266 407.333 895.165 406.967 896.049L406.958 896.127C406.464 897.253 406.072 898.351 405.85 899.194C404.981 902.408 404.908 902.676 404.604 904.833C404.23 907.555 404.264 909.536 404.285 910.487C404.345 913.223 404.734 915.366 404.864 916.074C405.33 918.563 405.82 920.046 406.315 921.491C406.621 922.379 406.86 923.001 407.169 923.711C407.555 924.589 407.98 925.471 408.447 926.339L408.606 926.655C409.068 927.562 409.757 928.714 410.367 929.54C410.806 930.148 411.378 930.969 411.839 931.56C412.3 932.15 412.917 932.918 413.442 933.476C413.998 934.098 414.242 934.365 414.774 934.866C415.425 935.519 416.081 936.133 416.761 936.711C416.976 936.895 417.21 937.082 417.424 937.267C417.695 937.478 417.946 937.687 418.182 937.854C418.309 937.949 418.492 938.07 418.689 938.233L418.78 938.303C418.979 938.446 419.233 938.635 419.508 938.808L419.691 938.929C420.493 939.482 421.5 940.139 422.647 940.775C422.888 940.903 423.239 941.104 423.629 941.31C423.741 941.364 423.851 941.436 423.963 941.49L424.56 941.78C424.691 941.836 424.859 941.916 424.971 941.969L425.12 942.047L425.159 942.052L425.383 942.158C425.495 942.211 425.646 942.27 425.758 942.323L426.133 942.488L426.172 942.492C427.636 943.127 429.061 943.598 430.417 943.982L430.554 943.999C430.666 944.052 430.8 944.089 430.934 944.125L430.973 944.13L431.316 944.231L432.085 944.405C432.431 944.487 432.894 944.583 433.242 944.645C433.571 944.706 433.958 944.773 434.325 944.838C434.52 944.862 434.695 944.883 434.871 944.905C435.357 944.964 436 945.043 436.506 945.105C437.013 945.168 437.682 945.191 438.171 945.231C439.254 945.265 440.678 945.262 441.751 945.216C442.586 945.18 443.703 945.099 444.53 944.964C444.732 944.929 444.953 944.897 445.177 944.846C445.822 944.747 446.51 944.614 447.074 944.525L447.746 944.37C448.274 944.257 448.804 944.125 449.334 943.992L449.599 943.926C450.212 943.764 450.973 943.521 451.657 943.269C451.946 943.166 452.235 943.063 452.525 942.96C453.291 942.679 454.268 942.285 454.983 941.938L455.066 941.908C455.717 941.593 456.369 941.278 457.005 940.921C457.154 940.84 457.28 940.777 457.407 940.713L458.111 940.286C458.303 940.171 458.495 940.056 458.668 939.939L459.735 939.299C460.141 939.052 460.875 938.549 461.97 937.675L462.034 937.644L462.143 937.558C462.714 937.095 463.374 936.543 464.13 935.865L464.176 935.811C464.931 935.133 466.189 933.904 467.612 932.141L467.658 932.087C467.985 931.673 468.315 931.239 468.648 930.785C468.791 930.586 468.934 930.386 469.077 930.186C469.271 929.893 469.482 929.623 469.633 929.364C469.681 929.291 469.732 929.199 469.803 929.108C470.094 928.67 470.368 928.209 470.664 927.732C471.061 927.069 471.439 926.403 471.708 925.824C472.205 924.837 472.692 923.77 473.127 922.637C473.408 921.96 473.652 921.258 473.851 920.611C474.075 919.907 474.283 919.181 474.471 918.453C474.512 918.28 474.551 918.127 474.592 917.954C474.833 916.955 475.043 915.894 475.194 914.825L475.218 914.63C475.342 913.776 475.43 912.897 475.501 911.996L475.402 912.004Z" fill="url(#paint0_radial_79_2055)"/>
<path d="M474.244 899.862C474.194 899.619 474.123 899.392 474.055 899.147C474.106 899.371 474.175 899.616 474.244 899.862Z" fill="url(#paint1_linear_79_2055)"/>
<path d="M403.892 911.111C403.88 910.892 403.865 910.693 403.85 910.493C403.865 910.693 403.877 910.912 403.892 911.111Z" fill="url(#paint2_linear_79_2055)"/>
<defs>
<radialGradient id="paint0_radial_79_2055" cx="0" cy="0" r="1" gradientUnits="userSpaceOnUse" gradientTransform="translate(441.167 915.54) rotate(6.76999) scale(40.9872 40.9895)">
<stop stop-color="#F79F40"/>
<stop offset="0.16" stop-color="#F7A442"/>
<stop offset="0.37" stop-color="#F8B449"/>
<stop offset="0.6" stop-color="#F9CE55"/>
<stop offset="0.77" stop-color="#FBE660"/>
<stop offset="0.91" stop-color="#FBF36F"/>
<stop offset="0.93" stop-color="#FBF672"/>
<stop offset="0.95" stop-color="#FBF676"/>
<stop offset="0.96" stop-color="#FBF782"/>
<stop offset="0.98" stop-color="#FBF897"/>
<stop offset="0.99" stop-color="#FCFAB4"/>
<stop offset="1" stop-color="#FDFBC2"/>
</radialGradient>
<linearGradient id="paint1_linear_79_2055" x1="473.934" y1="899.515" x2="474.207" y2="899.549" gradientUnits="userSpaceOnUse">
<stop stop-color="#19B79C"/>
<stop offset="0.4" stop-color="#1DBB9D"/>
<stop offset="0.82" stop-color="#29C7A2"/>
<stop offset="1" stop-color="#31CFA6"/>
</linearGradient>
<linearGradient id="paint2_linear_79_2055" x1="403.748" y1="910.826" x2="403.864" y2="910.841" gradientUnits="userSpaceOnUse">
<stop stop-color="#19B79C"/>
<stop offset="0.4" stop-color="#1DBB9D"/>
<stop offset="0.82" stop-color="#29C7A2"/>
<stop offset="1" stop-color="#31CFA6"/>
</linearGradient>
</defs>
</svg>
