<svg width="1645" height="1221" viewBox="0 0 1645 1221" fill="none" xmlns="http://www.w3.org/2000/svg">
<path d="M149.306 802.575C149.607 802.217 149.886 801.875 150.168 801.515C150.355 801.281 150.522 801.044 150.689 800.808C150.784 800.681 150.879 800.554 150.973 800.427C151.235 800.064 151.478 799.699 151.72 799.333C151.747 799.277 151.791 799.243 151.818 799.187C151.866 799.114 151.917 799.021 151.965 798.948C152.237 798.507 152.509 798.066 152.761 797.622C152.863 797.437 152.943 797.269 153.044 797.084C153.226 796.731 153.408 796.377 153.59 796.024C153.696 795.8 153.805 795.556 153.912 795.332C154.021 795.088 154.13 794.845 154.239 794.601C154.348 794.358 154.437 794.112 154.527 793.866C154.616 793.619 154.725 793.376 154.795 793.127C154.885 792.881 154.955 792.633 155.044 792.387C155.134 792.141 155.204 791.893 155.274 791.644C155.344 791.396 155.414 791.147 155.484 790.899C155.554 790.651 155.605 790.4 155.675 790.151C155.723 789.92 155.771 789.689 155.817 789.477C155.874 789.168 155.935 788.839 155.973 788.528C155.999 788.313 156.028 788.08 156.054 787.865C156.092 787.554 156.133 787.223 156.132 786.906C156.161 786.673 156.173 786.417 156.182 786.181C156.199 786.045 156.194 785.925 156.191 785.787C156.195 785.431 156.199 785.076 156.184 784.718C156.196 784.621 156.186 784.541 156.178 784.441C156.175 784.302 156.156 784.142 156.133 784C156.103 783.601 156.054 783.2 156.004 782.798C155.955 782.397 155.883 782.012 155.792 781.626C155.741 781.402 155.689 781.178 155.618 780.952C155.527 780.565 155.417 780.176 155.285 779.804L155.289 779.765C155.138 779.391 155.003 779.038 154.849 778.683C154.803 778.578 154.756 778.474 154.71 778.369C154.602 778.119 154.475 777.866 154.345 777.633C154.299 777.528 154.25 777.443 154.204 777.339C154.025 777.02 153.847 776.702 153.647 776.4C153.446 776.099 153.246 775.798 153.024 775.513C152.89 775.319 152.734 775.142 152.58 774.945L155.889 778.91C156.008 779.063 156.147 779.218 156.267 779.371C156.284 779.393 156.318 779.437 156.333 779.478C156.555 779.762 156.755 780.064 156.955 780.365C157.153 780.686 157.334 780.985 157.51 781.323C157.525 781.364 157.561 781.388 157.576 781.43C157.608 781.493 157.639 781.556 157.671 781.619C157.801 781.853 157.908 782.103 158.035 782.356C158.067 782.419 158.099 782.482 158.131 782.545C158.145 782.587 158.16 782.628 158.175 782.669C158.329 783.024 158.463 783.377 158.596 783.749L158.591 783.788C158.743 784.163 158.833 784.549 158.944 784.939C158.956 784.999 158.971 785.041 158.983 785.101C159.022 785.264 159.059 785.447 159.096 785.629C159.175 785.955 159.234 786.279 159.274 786.6C159.266 786.659 159.276 786.739 159.289 786.8C159.338 787.201 159.388 787.602 159.418 788.002C159.423 788.121 159.45 788.223 159.455 788.342C159.45 788.381 159.448 788.401 159.443 788.44C159.431 788.537 159.441 788.617 159.448 788.717C159.464 789.075 159.46 789.43 159.456 789.785C159.439 789.922 159.444 790.041 159.447 790.18C159.435 790.277 159.44 790.396 159.447 790.496C159.431 790.632 159.414 790.769 159.397 790.905C159.359 791.217 159.338 791.55 159.319 791.864C159.293 792.078 159.264 792.312 159.238 792.526C159.199 792.838 159.139 793.167 159.082 793.476C159.065 793.612 159.051 793.729 159.034 793.865C159.022 793.963 158.99 794.058 158.957 794.172C158.906 794.423 158.836 794.671 158.766 794.92C158.696 795.168 158.645 795.419 158.556 795.665C158.486 795.913 158.396 796.159 158.326 796.408C158.237 796.654 158.167 796.902 158.077 797.148C157.988 797.394 157.898 797.64 157.809 797.886C157.719 798.132 157.61 798.376 157.521 798.622C157.412 798.866 157.303 799.109 157.194 799.353C157.136 799.504 157.058 799.652 157 799.803C156.971 799.879 156.92 799.971 156.872 800.045C156.709 800.4 156.508 800.751 156.329 801.085C156.227 801.27 156.147 801.438 156.045 801.623C155.793 802.067 155.521 802.508 155.252 802.93C155.204 803.003 155.175 803.078 155.129 803.132L155.124 803.171C155.124 803.171 155.034 803.259 155.007 803.315C154.765 803.68 154.522 804.046 154.26 804.409C154.165 804.536 154.071 804.663 153.976 804.789C153.879 804.936 153.763 805.08 153.666 805.226C153.595 805.316 153.525 805.406 153.454 805.496C153.173 805.857 152.891 806.218 152.593 806.557C152.501 806.664 152.428 806.774 152.336 806.881C152.289 806.935 152.243 806.988 152.2 807.023C151.945 807.327 151.673 807.61 151.398 807.913C151.284 808.037 151.168 808.181 151.054 808.305L150.896 808.464L147.587 804.499C147.767 804.324 147.93 804.126 148.09 803.948C148.362 803.665 148.636 803.363 148.891 803.058C149.029 802.897 149.168 802.736 149.287 802.573L149.306 802.575Z" fill="url(#paint0_linear_79_2055)"/>
<path d="M146.595 846.387C146.933 846.211 147.252 846.032 147.57 845.854C147.696 845.79 147.825 845.707 147.952 845.644C148.377 845.399 148.805 845.136 149.232 844.872L149.317 844.823C149.704 844.574 150.093 844.305 150.479 844.056C150.608 843.973 150.739 843.871 150.868 843.788C151.15 843.585 151.412 843.38 151.694 843.177C151.825 843.075 151.956 842.972 152.107 842.872C152.391 842.65 152.656 842.426 152.94 842.204C153.05 842.118 153.161 842.013 153.271 841.928C153.647 841.599 154.046 841.252 154.403 840.92C154.449 840.867 154.514 840.815 154.56 840.762C154.896 840.447 155.233 840.113 155.549 839.796C155.641 839.688 155.753 839.584 155.845 839.476C156.231 839.069 156.62 838.642 156.989 838.213C157.406 837.711 157.824 837.209 158.202 836.702C158.272 836.611 158.345 836.502 158.435 836.414C158.576 836.233 158.697 836.051 158.838 835.87C158.957 835.707 159.073 835.563 159.173 835.397C159.294 835.215 159.418 835.012 159.558 834.832C159.655 834.686 159.752 834.539 159.849 834.393C160.165 833.918 160.444 833.418 160.72 832.938C160.773 832.826 160.844 832.736 160.897 832.624C161.176 832.124 161.437 831.603 161.677 831.099C161.871 830.648 162.06 830.236 162.232 829.803C162.287 829.671 162.343 829.54 162.379 829.406C162.498 829.084 162.636 828.765 162.735 828.441C162.791 828.31 162.827 828.176 162.883 828.044C163.035 827.608 163.165 827.189 163.279 826.749C163.395 826.288 163.508 825.847 163.602 825.404C163.616 825.287 163.631 825.171 163.665 825.056C163.761 824.594 163.838 824.128 163.912 823.683C163.919 823.625 163.927 823.566 163.936 823.488C163.998 822.982 164.058 822.495 164.081 821.984C164.1 821.828 164.1 821.67 164.1 821.512C164.121 821.336 164.104 821.156 164.106 820.979C164.108 820.801 164.11 820.623 164.095 820.424C164.097 820.246 164.08 820.066 164.082 819.888C164.079 819.75 164.057 819.609 164.052 819.489C164.016 818.971 163.962 818.45 163.885 817.947C163.828 817.604 163.772 817.261 163.693 816.935C163.642 816.711 163.59 816.487 163.519 816.261C163.428 815.874 163.318 815.485 163.185 815.113L163.19 815.074C163.038 814.699 162.904 814.347 162.75 813.992C162.703 813.887 162.657 813.783 162.61 813.678C162.503 813.428 162.376 813.175 162.246 812.941C162.2 812.837 162.151 812.752 162.104 812.647C161.926 812.329 161.748 812.011 161.547 811.709C161.347 811.408 161.147 811.106 160.925 810.822C160.791 810.628 160.635 810.45 160.481 810.254L163.789 814.218C163.909 814.371 164.048 814.527 164.168 814.68C164.185 814.702 164.219 814.745 164.234 814.787C164.456 815.071 164.658 815.353 164.856 815.674C165.054 815.995 165.235 816.294 165.413 816.612C165.428 816.653 165.464 816.678 165.479 816.719C165.511 816.782 165.543 816.845 165.574 816.909C165.704 817.142 165.811 817.392 165.938 817.645C165.97 817.708 166.002 817.772 166.034 817.835C166.048 817.876 166.063 817.918 166.078 817.959C166.232 818.314 166.367 818.666 166.499 819.039L166.494 819.078C166.626 819.45 166.737 819.839 166.847 820.228C166.859 820.289 166.874 820.33 166.889 820.371C166.926 820.554 166.965 820.717 167.002 820.899C167.08 821.225 167.137 821.568 167.177 821.889C167.251 822.413 167.306 822.933 167.341 823.452C167.334 823.51 167.346 823.571 167.358 823.632C167.349 823.71 167.358 823.79 167.368 823.87C167.366 824.048 167.384 824.228 167.384 824.386C167.382 824.564 167.397 824.763 167.395 824.941C167.393 825.119 167.391 825.296 167.389 825.474C167.377 825.571 167.384 825.671 167.373 825.768C167.365 825.827 167.358 825.885 167.353 825.924C167.333 826.416 167.29 826.925 167.208 827.429C167.201 827.487 167.194 827.545 167.184 827.623C167.127 828.091 167.033 828.534 166.937 828.997C166.929 829.055 166.92 829.133 166.913 829.191C166.908 829.23 166.901 829.289 166.896 829.328C166.802 829.771 166.689 830.212 166.575 830.652C166.459 831.113 166.309 831.529 166.177 831.967C166.14 832.101 166.085 832.233 166.029 832.364C165.91 832.686 165.792 833.008 165.673 833.329C165.618 833.461 165.562 833.592 165.526 833.726C165.356 834.14 165.165 834.571 164.976 834.983C164.731 835.526 164.472 836.028 164.191 836.547C164.138 836.659 164.065 836.769 164.014 836.862C163.735 837.361 163.439 837.839 163.143 838.316C163.141 838.336 163.117 838.372 163.095 838.39C163.02 838.519 162.925 838.645 162.852 838.755C162.731 838.938 162.61 839.121 162.486 839.323C162.367 839.486 162.27 839.633 162.151 839.796C162.03 839.979 161.889 840.159 161.748 840.34C161.722 840.396 161.678 840.43 161.651 840.486C161.605 840.539 161.559 840.593 161.533 840.649C161.135 841.154 160.734 841.678 160.319 842.161C159.95 842.59 159.562 843.017 159.176 843.424C159.129 843.478 159.083 843.531 159.037 843.585C158.991 843.638 158.925 843.69 158.879 843.743C158.561 844.08 158.226 844.395 157.891 844.709C157.847 844.743 157.801 844.797 157.777 844.834L157.733 844.868C157.354 845.217 156.978 845.546 156.601 845.875C156.577 845.912 156.536 845.927 156.511 845.963C156.424 846.032 156.356 846.102 156.268 846.171C156.004 846.395 155.719 846.617 155.455 846.842C155.389 846.893 155.323 846.944 155.255 847.015C155.19 847.066 155.124 847.117 155.039 847.166C154.777 847.371 154.495 847.574 154.213 847.777C154.126 847.845 154.038 847.913 153.951 847.982C153.907 848.016 153.866 848.03 153.822 848.065C153.433 848.333 153.066 848.585 152.68 848.834L152.614 848.885C152.186 849.149 151.759 849.413 151.333 849.657C151.292 849.672 151.248 849.706 151.226 849.723C151.141 849.772 151.037 849.818 150.952 849.867C150.633 850.045 150.295 850.221 149.977 850.4C149.892 850.449 149.829 850.48 149.744 850.529C149.68 850.561 149.598 850.59 149.535 850.622C149.136 850.81 148.735 851.018 148.338 851.187C148.275 851.219 148.193 851.248 148.129 851.28L147.983 851.341C147.4 851.586 146.816 851.83 146.238 852.036C146.174 852.068 146.092 852.097 146.029 852.129C145.924 852.175 145.822 852.203 145.72 852.229C145.513 852.303 145.326 852.379 145.121 852.433C144.895 852.504 144.689 852.577 144.462 852.648C144.258 852.702 144.071 852.778 143.867 852.832C143.764 852.859 143.66 852.906 143.558 852.933C143.475 852.962 143.395 852.972 143.312 853.001C142.964 853.097 142.616 853.193 142.291 853.271C142.147 853.313 142.004 853.355 141.862 853.377C141.393 853.497 140.907 853.596 140.442 853.677L140.383 853.67C139.814 853.798 139.23 853.884 138.666 853.973C138.544 853.998 138.425 854.003 138.323 854.03C137.761 854.099 137.199 854.168 136.642 854.199C136.542 854.206 136.423 854.212 136.323 854.219C135.805 854.254 135.286 854.289 134.773 854.286C134.714 854.278 134.654 854.291 134.595 854.284C134.04 854.295 133.507 854.288 132.955 854.28C132.838 854.266 132.719 854.271 132.6 854.276C132.069 854.25 131.538 854.225 131.01 854.18C130.932 854.17 130.874 854.163 130.796 854.153C130.309 854.093 129.82 854.053 129.335 853.974C129.238 853.962 129.16 853.952 129.063 853.94C128.556 853.878 128.033 853.794 127.531 853.693C127.434 853.681 127.317 853.667 127.222 853.635C126.701 853.532 126.2 853.431 125.698 853.33L125.679 853.327C125.18 853.207 124.68 853.086 124.203 852.948C124.106 852.936 124.011 852.905 123.896 852.871C123.419 852.733 122.942 852.596 122.484 852.46C122.387 852.449 122.313 852.4 122.218 852.369C121.78 852.236 121.344 852.083 120.908 851.931C120.85 851.924 120.794 851.897 120.757 851.873C120.302 851.718 119.849 851.544 119.396 851.37C119.301 851.338 119.206 851.307 119.113 851.256C118.66 851.082 118.227 850.91 117.793 850.738L117.622 850.677C117.208 850.508 116.814 850.341 116.419 850.174L116.193 850.087C115.781 849.898 115.369 849.709 114.955 849.539C114.863 849.488 114.787 849.459 114.695 849.409C114.283 849.22 113.871 849.031 113.481 848.825C107.398 845.883 102.504 842.594 101.975 842.232L91.2808 834.989L87.9722 831.024L98.6667 838.268C99.1956 838.629 104.09 841.919 110.173 844.86C110.565 845.046 110.977 845.235 111.386 845.444C111.478 845.495 111.554 845.524 111.647 845.575C112.058 845.764 112.47 845.953 112.884 846.122C112.96 846.151 113.035 846.18 113.111 846.209C113.505 846.376 113.9 846.543 114.314 846.713L114.484 846.773C114.918 846.945 115.351 847.117 115.805 847.291C115.899 847.323 115.992 847.374 116.087 847.405C116.54 847.579 116.996 847.734 117.449 847.908L117.6 847.966C118.036 848.119 118.474 848.251 118.91 848.404C119.007 848.416 119.08 848.464 119.158 848.474C119.635 848.612 120.093 848.747 120.571 848.885C120.668 848.897 120.763 848.928 120.858 848.959C121.355 849.099 121.834 849.218 122.336 849.319L122.355 849.321C122.855 849.442 123.376 849.545 123.879 849.627C123.977 849.639 124.094 849.653 124.189 849.685C124.693 849.766 125.197 849.848 125.72 849.932C125.817 849.944 125.895 849.954 125.993 849.966C126.479 850.025 126.966 850.085 127.453 850.145C127.531 850.154 127.59 850.162 127.667 850.171C128.196 850.216 128.726 850.242 129.257 850.267C129.374 850.282 129.493 850.277 129.612 850.272C130.165 850.28 130.698 850.286 131.252 850.275C131.311 850.282 131.369 850.29 131.43 850.277C131.946 850.262 132.462 850.246 133 850.213C133.099 850.205 133.199 850.198 133.318 850.193C133.878 850.143 134.438 850.093 135 850.024C135.119 850.018 135.24 849.994 135.343 849.967C135.907 849.878 136.471 849.789 137.058 849.683L137.116 849.69C137.583 849.59 138.072 849.472 138.539 849.371C138.683 849.329 138.824 849.307 138.967 849.265C139.315 849.17 139.66 849.093 140.008 848.998C140.193 848.941 140.378 848.885 140.563 848.829C140.767 848.775 140.954 848.699 141.159 848.645C141.365 848.571 141.591 848.5 141.798 848.427C142.005 848.353 142.192 848.277 142.396 848.223C142.562 848.165 142.749 848.089 142.914 848.03C143.495 847.805 144.077 847.58 144.66 847.335C144.784 847.291 144.891 847.225 145.018 847.161C145.416 846.973 145.815 846.785 146.214 846.597C146.362 846.516 146.508 846.455 146.656 846.374L146.595 846.387Z" fill="url(#paint1_linear_79_2055)"/>
<path d="M163.737 816.9C162.092 809.206 155.67 804.681 147.589 804.48C154.012 797.895 157.434 789.182 155.814 781.609C153.429 770.443 141.01 765.973 128.059 771.638C114.086 777.731 105.947 790.886 100.412 801.672C96.6222 809.035 93.9622 815.727 93.6742 816.462L87.9309 831.039L98.6254 838.282C99.1543 838.644 104.048 841.933 110.131 844.875C118.975 849.163 130.879 853.313 144.621 847.33C157.57 841.685 166.144 828.049 163.759 816.883L163.737 816.9Z" fill="url(#paint2_linear_79_2055)"/>
<path style="mix-blend-mode:overlay" d="M163.737 816.9C162.092 809.206 155.67 804.681 147.589 804.48C154.012 797.895 157.434 789.182 155.814 781.609C153.429 770.443 141.01 765.973 128.059 771.638C114.086 777.731 105.947 790.886 100.412 801.672C96.6222 809.035 93.9622 815.727 93.6742 816.462L87.9309 831.039L98.6254 838.282C99.1543 838.644 104.048 841.933 110.131 844.875C118.975 849.163 130.879 853.313 144.621 847.33C157.57 841.685 166.144 828.049 163.759 816.883L163.737 816.9ZM144.321 846.72C130.868 852.6 119.134 848.51 110.422 844.278C104.117 841.21 99.0452 837.761 98.9892 837.734L88.7529 830.784L94.2977 816.697C94.985 814.963 97.5245 808.771 101.007 801.982C106.491 791.289 114.574 778.265 128.318 772.262C135.252 769.239 142.27 769.073 147.589 771.802C151.568 773.852 154.189 777.297 155.143 781.764C155.836 784.972 155.574 788.558 154.421 792.152C153.05 796.393 150.53 800.492 147.094 804.004C147.026 804.075 146.956 804.165 146.942 804.282C146.884 804.433 146.903 804.593 146.962 804.759C147.07 805.009 147.306 805.177 147.581 805.191C155.622 805.387 161.548 809.93 163.063 817.075C163.756 820.283 163.494 823.869 162.341 827.464C159.713 835.661 152.799 843.036 144.318 846.74L144.321 846.72Z" fill="url(#paint3_linear_79_2055)"/>
<defs>
<linearGradient id="paint0_linear_79_2055" x1="162.662" y1="779.391" x2="144.066" y2="800.504" gradientUnits="userSpaceOnUse">
<stop offset="0.12" stop-color="#FF6560"/>
<stop offset="0.16" stop-color="#FA605A"/>
<stop offset="0.21" stop-color="#EE514C"/>
<stop offset="0.27" stop-color="#D93933"/>
<stop offset="1" stop-color="#9E1D17"/>
</linearGradient>
<linearGradient id="paint1_linear_79_2055" x1="97.3307" y1="852.006" x2="168.922" y2="814.532" gradientUnits="userSpaceOnUse">
<stop stop-color="#FF6560"/>
<stop offset="0.04" stop-color="#FA605A"/>
<stop offset="0.08" stop-color="#EE514C"/>
<stop offset="0.11" stop-color="#DA3A34"/>
<stop offset="0.12" stop-color="#D93933"/>
<stop offset="0.16" stop-color="#CA322C"/>
<stop offset="0.26" stop-color="#B1261F"/>
<stop offset="0.35" stop-color="#A21F18"/>
<stop offset="0.42" stop-color="#9D1D16"/>
<stop offset="0.86" stop-color="#AC1F18"/>
<stop offset="0.88" stop-color="#B2241D"/>
<stop offset="0.91" stop-color="#C6342E"/>
<stop offset="0.94" stop-color="#E54F49"/>
<stop offset="0.96" stop-color="#FF6560"/>
</linearGradient>
<linearGradient id="paint2_linear_79_2055" x1="95.1287" y1="791.136" x2="164.648" y2="825.769" gradientUnits="userSpaceOnUse">
<stop stop-color="#FCA690"/>
<stop offset="0.33" stop-color="#F18574"/>
<stop offset="1" stop-color="#D93933"/>
</linearGradient>
<linearGradient id="paint3_linear_79_2055" x1="161.241" y1="799.432" x2="77.0838" y2="833.447" gradientUnits="userSpaceOnUse">
<stop stop-color="white"/>
<stop offset="0.02" stop-color="white" stop-opacity="0.97"/>
<stop offset="0.5" stop-color="white" stop-opacity="0.46"/>
<stop offset="0.82" stop-color="white" stop-opacity="0.13"/>
<stop offset="0.97" stop-color="white" stop-opacity="0"/>
</linearGradient>
</defs>
</svg>
