<svg width="37" height="263" viewBox="0 0 37 263" fill="none" xmlns="http://www.w3.org/2000/svg">
<path d="M198.648 108.864C198.648 108.864 198.668 108.709 198.678 108.631C198.731 108.222 198.914 105.713 198.877 101.99C198.881 101.654 198.862 101.335 198.866 100.999C198.867 100.524 198.849 100.047 198.834 99.5509C198.461 87.4952 195.683 75.8431 190.862 65.1556L190.834 65.0728C190.309 63.9175 189.765 62.7597 189.18 61.6164C186.44 56.1414 183.128 50.9687 179.332 46.1693C177.568 43.8857 175.342 41.345 173.379 39.3722C172.07 38.0173 170.696 36.6938 169.296 35.4262C169.226 35.3578 169.156 35.2894 169.085 35.2211L168.908 35.0598C168.658 34.8497 168.43 34.6227 168.18 34.4126C167.275 33.6041 166.294 32.7662 165.219 31.8963L165.093 31.801C164.573 31.3783 164.035 30.9531 163.457 30.5229C163.204 30.3322 162.932 30.1391 162.68 29.9485C162.464 29.7823 162.248 29.6161 162.032 29.4499C161.85 29.3276 161.687 29.2078 161.507 29.0661C158.215 26.6656 154.737 24.4786 151.093 22.5078C150.15 21.9912 149.426 21.6215 148.999 21.4084L148.347 21.0875L147.696 20.7665L147.604 20.7151L147.456 20.6368C147.14 20.4776 146.71 20.2839 146.394 20.1247L146.246 20.0463L146.097 19.968L145.369 19.6371C145.07 19.4999 144.695 19.3332 144.396 19.1959L143.553 18.8306C143.402 18.7717 143.235 18.6908 143.084 18.6319L142.953 18.5755L142.783 18.5142L142.52 18.4014L141.58 18.0235C141.334 17.9327 141.052 17.8175 140.79 17.7047C140.544 17.6138 140.279 17.5205 140.036 17.4102L139.997 17.4052C139.847 17.3463 139.676 17.2849 139.526 17.226C139.244 17.1107 138.884 16.9854 138.619 16.8921L137.975 16.671C137.69 16.5751 137.387 16.4769 137.105 16.3616L136.954 16.3026C136.725 16.2338 136.519 16.148 136.29 16.0791L135.892 15.9488L135.418 15.7891L135.34 15.7791L135.17 15.7177C135.17 15.7177 134.999 15.6563 134.902 15.6439C134.654 15.5725 134.425 15.5036 134.177 15.4322C134.024 15.3928 133.854 15.3314 133.72 15.2945C133.453 15.2206 133.186 15.1467 132.918 15.0729L132.23 14.8857C132.113 14.8707 131.962 14.8118 131.829 14.7749C131.617 14.7279 131.408 14.6616 131.216 14.6172C131.004 14.5702 130.815 14.5063 130.623 14.4619C130.297 14.3806 129.952 14.2967 129.626 14.2154L128.723 14.0007C128.626 13.9882 128.531 13.9563 128.417 13.9219L128.359 13.9144C128.111 13.843 127.802 13.7836 127.512 13.7267C127.089 13.6328 126.686 13.5415 126.26 13.4672C125.951 13.4078 125.662 13.3509 125.411 13.2989C125.083 13.237 124.774 13.1776 124.446 13.1158C124.115 13.0733 123.769 12.9895 123.441 12.9276C123.227 12.9001 123.032 12.8751 122.818 12.8477L122.254 12.7753C122.123 12.7189 121.965 12.7184 121.831 12.6814C121.675 12.6615 121.519 12.6415 121.344 12.619C119.539 12.348 117.725 12.1548 115.907 11.9811C115.498 11.9286 115.104 11.9176 114.751 11.8922C114.34 11.8592 113.929 11.8262 113.535 11.8152C113.282 11.7828 113.024 11.7893 112.81 11.7618C112.221 11.7259 111.63 11.7093 111.058 11.6953C110.863 11.6704 110.644 11.6819 110.447 11.6764C109.6 11.6469 108.79 11.6419 108.018 11.6418C107.644 11.6333 107.266 11.6443 106.889 11.6552C106.889 11.6552 106.731 11.6547 106.651 11.6642C106.037 11.6647 105.461 11.6896 104.925 11.7C104.487 11.723 104.051 11.7265 103.613 11.7494C102.618 11.7998 101.819 11.8556 101.281 11.8855C98.6061 12.0765 95.9524 12.4088 93.3057 12.8408C91.7328 13.0743 90.3325 13.3496 88.5815 13.7383C81.3144 15.3384 74.2099 17.8298 67.4651 21.2179C66.7874 21.5662 66.1292 21.9169 65.4515 22.2652C65.3662 22.3136 65.2809 22.3621 65.1956 22.4105C64.0473 23.0347 62.8991 23.6589 61.7823 24.3465C61.697 24.3949 61.5921 24.4408 61.5043 24.5087L61.3995 24.5546L61.3141 24.603C61.3141 24.603 61.2288 24.6514 61.1849 24.6853L61.0776 24.7507C60.7752 24.9493 60.4559 25.126 60.1535 25.3246C59.5292 25.7193 58.9268 26.097 58.3439 26.4773C58.0196 26.6928 57.6758 26.9059 57.349 27.1409C56.6783 27.589 56.049 28.0227 55.4392 28.4588L55.3513 28.5266L55.2635 28.5945C55.1317 28.6963 54.9805 28.7956 54.8488 28.8974C51.7119 31.1459 49.7742 32.836 49.6619 32.9403C48.6858 33.7647 47.7022 34.6474 46.7186 35.5302C46.0254 36.1534 45.3273 36.8156 44.5827 37.5312C44.5363 37.5846 44.4704 37.6355 44.4265 37.6694L44.3117 37.7931C42.864 39.2098 41.311 40.8307 39.5938 42.8063L39.5499 42.8402L39.5035 42.8936C39.5035 42.8936 39.4571 42.9469 39.4326 42.9834C38.6436 43.8911 37.8422 44.8961 37.0113 45.9765C36.3002 46.8942 35.589 47.8119 34.9563 48.5814L32.8557 51.6947C32.154 52.6927 31.4938 53.6763 30.9019 54.5895C29.7501 56.3211 28.487 58.6121 27.2183 61.1002L27.2134 61.1391C26.1284 63.2749 25.0624 65.5714 24.1231 67.8051L24.1131 67.8829C24.1131 67.8829 24.0668 67.9363 24.0423 67.9727C22.8211 70.8626 21.8143 73.6217 21.2209 75.781C18.9653 83.9586 18.7808 84.6273 18.0135 90.147C17.0445 97.0851 17.1279 102.14 17.1736 104.56C17.3045 111.56 18.2897 116.988 18.6124 118.79C19.7747 125.15 21.0305 128.932 22.2623 132.591C23.0191 134.864 23.6274 136.446 24.4392 138.291C25.3981 140.53 26.4957 142.768 27.6737 144.996C27.7969 145.269 27.9422 145.525 28.0824 145.82C29.2309 148.124 31.0053 151.101 32.5171 153.194C33.6438 154.743 35.0727 156.865 36.2433 158.38C37.4164 159.876 39.0041 161.84 40.3064 163.254C41.725 164.84 42.3118 165.509 43.6875 166.813C45.3321 168.488 47.0087 170.068 48.7392 171.536L48.7585 171.538C49.3094 172.024 49.8797 172.513 50.4356 172.96C51.0983 173.5 51.7634 174.021 52.3582 174.473C52.6835 174.712 53.1157 175.045 53.6231 175.407L53.8587 175.575C54.3831 175.959 54.9999 176.394 55.6895 176.878C55.8352 176.976 55.9978 177.096 56.1435 177.194C58.1784 178.602 60.7696 180.299 63.6507 181.896C64.2775 182.253 65.1472 182.72 66.1651 183.266C66.4615 183.423 66.758 183.58 67.0349 183.734L68.5608 184.484C68.8767 184.643 69.3069 184.837 69.6227 184.996L69.9969 185.162L70.0748 185.172L70.6506 185.464C70.9495 185.601 71.3238 185.768 71.6227 185.905L72.5777 186.324L72.6556 186.334C76.3835 187.96 80.0032 189.196 83.4802 190.156L83.8036 190.257C84.0906 190.333 84.4333 190.436 84.7786 190.52L84.876 190.533C85.1799 190.631 85.4667 190.707 85.7367 190.762L87.6943 191.231C88.5795 191.423 89.7542 191.673 90.6394 191.865C91.4688 192.031 92.4538 192.217 93.4049 192.359L93.4437 192.364C93.9302 192.426 94.3923 192.525 94.8205 192.58C96.0635 192.759 97.7202 192.952 98.9682 193.092C100.233 193.254 101.946 193.316 103.238 193.422C105.976 193.516 109.631 193.55 112.354 193.444C114.501 193.363 117.34 193.134 119.458 192.812C119.984 192.721 120.549 192.635 121.133 192.552C122.808 192.292 124.53 191.979 125.964 191.747L127.679 191.334C129.042 191.034 130.389 190.713 131.741 190.352L132.416 190.181C133.989 189.79 135.911 189.146 137.651 188.538C138.396 188.278 139.122 188.015 139.849 187.752C141.82 187.035 144.298 186.067 146.097 185.151C146.16 185.119 146.224 185.088 146.287 185.056C147.949 184.28 149.599 183.444 151.216 182.563C151.576 182.372 151.935 182.2 152.254 182.023L154.037 180.927C154.51 180.631 155 180.358 155.473 180.062L158.177 178.411C159.209 177.772 161.089 176.529 163.887 174.297L164.039 174.198L164.307 173.955C165.764 172.777 167.445 171.39 169.39 169.642C169.434 169.608 169.481 169.554 169.525 169.52C171.445 167.808 174.675 164.682 178.335 160.205L178.428 160.099C179.273 159.06 180.126 157.962 180.989 156.787C181.351 156.28 181.732 155.775 182.096 155.248C182.624 154.524 183.111 153.815 183.529 153.176C183.654 152.975 183.803 152.737 183.95 152.518C184.688 151.386 185.413 150.213 186.142 149.001C187.147 147.33 188.116 145.634 188.844 144.125C190.137 141.601 191.372 138.91 192.511 136.049C193.229 134.302 193.87 132.544 194.377 130.908C194.962 129.123 195.493 127.292 195.993 125.398C196.109 124.958 196.22 124.557 196.314 124.134C196.938 121.583 197.46 118.9 197.873 116.144C197.885 116.046 197.898 115.949 197.91 115.852L197.935 115.657C198.254 113.482 198.499 111.259 198.655 108.964L198.648 108.864Z" fill="url(#paint0_radial_40_476)"/>
<defs>
<radialGradient id="paint0_radial_40_476" cx="0" cy="0" r="1" gradientUnits="userSpaceOnUse" gradientTransform="translate(106.347 111.625) rotate(6.94886) scale(100.006 100.011)">
<stop offset="0.52" stop-color="#BD45A7"/>
<stop offset="0.59" stop-color="#BE49A8"/>
<stop offset="0.66" stop-color="#C255AE"/>
<stop offset="0.73" stop-color="#CA6AB8"/>
<stop offset="0.8" stop-color="#D487C6"/>
<stop offset="0.88" stop-color="#E2ADD8"/>
<stop offset="0.95" stop-color="#F2DBED"/>
<stop offset="1" stop-color="white"/>
</radialGradient>
</defs>
</svg>
