<svg width="1645" height="1221" viewBox="0 0 1645 1221" fill="none" xmlns="http://www.w3.org/2000/svg">
<g clip-path="url(#clip0_79_2055)">
<g style="mix-blend-mode:multiply">
<g style="mix-blend-mode:multiply" opacity="0.01">
<path d="M1556.46 609.707C1612.87 577.925 1708.02 580.397 1710.94 640.675C1712.46 670.792 1682.83 696.827 1650.82 710.412C1632.39 718.231 1612.66 724.507 1593.63 726.875C1576.28 729.074 1559.45 728.035 1544.87 721.956C1524.6 713.497 1505.6 693.767 1505.86 671.519C1506.09 647.707 1532.57 623.182 1556.48 609.71L1556.46 609.707Z" fill="#F5B330"/>
</g>
<g style="mix-blend-mode:multiply" opacity="0.03">
<path d="M1556.38 610.053C1612.37 578.596 1706.46 581.055 1709.55 640.583C1711.1 670.466 1681.65 696.346 1649.97 709.793C1631.74 717.538 1612.19 723.697 1593.35 726.109C1575.95 728.342 1558.96 727.362 1544.43 721.19C1524.44 712.706 1505.7 693.207 1506.1 671.173C1506.42 647.608 1532.64 623.369 1556.38 610.034L1556.38 610.053Z" fill="#F4B331"/>
</g>
<g style="mix-blend-mode:multiply" opacity="0.04">
<path d="M1556.34 610.384C1611.92 579.232 1705.01 581.708 1708.21 640.498C1709.83 670.133 1680.52 695.852 1649.17 709.182C1631.16 716.834 1611.8 722.939 1593.12 725.37C1575.69 727.637 1558.54 726.718 1544.07 720.473C1524.35 711.964 1505.96 692.705 1506.41 670.875C1506.9 647.568 1532.79 623.605 1556.36 610.406L1556.34 610.384Z" fill="#F4B332"/>
</g>
<g style="mix-blend-mode:multiply" opacity="0.06">
<path d="M1556.31 610.737C1611.48 579.89 1703.59 582.363 1706.88 640.433C1708.55 669.837 1679.39 695.377 1648.36 708.587C1630.55 716.166 1611.38 722.195 1592.87 724.648C1575.37 726.966 1558.1 726.091 1543.68 719.754C1524.23 711.217 1506.16 692.196 1506.73 670.558C1507.32 647.521 1532.94 623.821 1556.31 610.757L1556.31 610.737Z" fill="#F3B433"/>
</g>
<g style="mix-blend-mode:multiply" opacity="0.07">
<path d="M1556.27 611.068C1611.02 580.546 1702.15 583.016 1705.54 640.348C1707.28 669.504 1678.27 694.883 1647.57 707.956C1629.96 715.462 1610.99 721.395 1592.63 723.867C1574.28 726.338 1557.67 725.406 1543.3 718.976C1524.13 710.414 1506.37 691.628 1507.03 670.2C1507.73 647.433 1533.08 623.996 1556.27 611.068V611.068Z" fill="#F3B434"/>
</g>
<g style="mix-blend-mode:multiply" opacity="0.08">
<path d="M1556.25 611.402C1610.57 581.182 1700.72 583.652 1704.21 640.244C1706 669.168 1677.15 694.369 1646.77 707.325C1629.38 714.738 1610.59 720.615 1592.41 723.108C1574.24 725.601 1557.26 724.742 1542.92 718.217C1524.03 709.631 1506.58 691.08 1507.33 669.861C1508.13 647.344 1533.23 624.193 1556.24 611.38L1556.25 611.402Z" fill="#F3B435"/>
</g>
<g style="mix-blend-mode:multiply" opacity="0.1">
<path d="M1556.21 611.752C1610.11 581.838 1699.28 584.325 1702.88 640.179C1704.73 668.854 1676.02 693.914 1645.96 706.731C1628.75 714.067 1610.16 719.871 1592.16 722.386C1574.16 724.9 1556.82 724.115 1542.53 717.517C1523.92 708.925 1506.78 690.59 1507.62 669.561C1508.53 647.314 1533.36 624.426 1556.19 611.75L1556.21 611.752Z" fill="#F2B436"/>
</g>
<g style="mix-blend-mode:multiply" opacity="0.11">
<path d="M1556.17 612.083C1609.66 582.493 1697.84 584.958 1701.52 640.092C1703.43 668.536 1674.87 693.418 1645.14 706.117C1628.14 713.36 1609.74 719.108 1591.92 721.624C1574.1 724.141 1556.39 723.45 1542.15 716.759C1523.8 708.14 1506.96 690.04 1507.94 669.224C1508.96 647.228 1533.52 624.623 1556.17 612.083Z" fill="#F2B437"/>
</g>
<g style="mix-blend-mode:multiply" opacity="0.13">
<path d="M1556.15 612.436C1609.22 583.151 1696.41 585.633 1700.21 640.029C1702.18 668.244 1673.76 692.946 1644.37 705.527C1627.57 712.697 1609.36 718.369 1591.71 720.907C1574.06 723.445 1555.99 722.827 1541.8 716.044C1523.73 707.419 1507.2 689.536 1508.27 668.929C1509.4 647.203 1533.69 624.861 1556.16 612.458L1556.15 612.436Z" fill="#F2B438"/>
</g>
<g style="mix-blend-mode:multiply" opacity="0.14">
<path d="M1556.1 612.767C1608.77 583.788 1694.97 586.266 1698.85 639.942C1700.87 667.906 1672.62 692.449 1643.53 704.911C1626.94 712.007 1608.92 717.603 1591.45 720.163C1573.98 722.722 1555.54 722.179 1541.38 715.3C1523.58 706.651 1507.37 689.002 1508.53 668.585C1509.76 647.109 1533.78 625.051 1556.09 612.765L1556.1 612.767Z" fill="#F1B439"/>
</g>
<g style="mix-blend-mode:multiply" opacity="0.15">
<path d="M1556.08 613.101C1608.33 584.446 1693.54 586.922 1697.52 639.838C1699.61 667.573 1671.49 691.936 1642.74 704.28C1626.36 711.283 1608.52 716.823 1591.23 719.384C1573.93 721.946 1555.13 721.496 1541.02 714.544C1523.48 705.887 1507.59 688.457 1508.87 668.251C1510.21 647.045 1533.95 625.25 1556.06 613.098L1556.08 613.101Z" fill="#F1B53A"/>
</g>
<g style="mix-blend-mode:multiply" opacity="0.17">
<path d="M1556.06 613.454C1607.89 585.104 1692.14 587.579 1696.2 639.775C1698.34 667.26 1670.38 691.483 1641.96 703.67C1625.79 710.601 1608.14 716.064 1591.02 718.647C1573.9 721.231 1554.73 720.854 1540.67 713.81C1523.41 705.147 1507.83 687.933 1509.2 667.917C1510.58 647.901 1534.13 625.43 1556.06 613.434L1556.06 613.454Z" fill="#F0B53B"/>
</g>
<g style="mix-blend-mode:multiply" opacity="0.18">
<path d="M1556.02 613.785C1607.42 585.757 1690.69 588.232 1694.85 639.688C1697.06 666.944 1669.24 690.987 1641.13 703.054C1625.17 709.891 1607.72 715.301 1590.76 717.903C1572.81 720.642 1554.28 720.225 1540.27 713.068C1523.29 704.4 1508 687.399 1509.48 667.595C1510.96 647.791 1534.24 625.641 1556 613.783L1556.02 613.785Z" fill="#F0B53C"/>
</g>
<g style="mix-blend-mode:multiply" opacity="0.2">
<path d="M1556 614.118C1606.98 586.396 1689.29 588.871 1693.54 639.605C1695.79 666.63 1668.13 690.495 1640.36 702.445C1624.58 709.206 1607.34 714.542 1590.55 717.166C1572.56 719.958 1553.9 719.585 1539.93 712.334C1523.2 703.677 1508.24 686.876 1509.82 667.28C1511.39 647.685 1534.41 625.86 1556 614.118Z" fill="#F0B53D"/>
</g>
<g style="mix-blend-mode:multiply" opacity="0.21">
<path d="M1555.96 614.469C1606.53 587.051 1687.84 589.543 1692.18 639.518C1694.51 666.294 1666.99 689.999 1639.54 701.831C1623.97 708.519 1606.92 713.799 1590.31 716.405C1572.27 719.251 1553.47 718.919 1539.52 711.593C1523.07 702.93 1508.42 686.345 1510.12 666.942C1511.88 646.776 1534.57 626.057 1555.96 614.449L1555.96 614.469Z" fill="#EFB53E"/>
</g>
<g style="mix-blend-mode:multiply" opacity="0.23">
<path d="M1555.93 614.802C1606.09 587.709 1686.44 590.181 1690.87 639.436C1693.26 665.983 1665.88 689.527 1638.77 701.222C1623.41 707.817 1606.54 713.04 1590.1 715.668C1572 718.565 1553.07 718.297 1539.18 710.858C1523 702.21 1508.67 685.821 1510.45 666.627C1512.23 647.433 1534.74 626.275 1555.95 614.805L1555.93 614.802Z" fill="#EFB53F"/>
</g>
<g style="mix-blend-mode:multiply" opacity="0.24">
<path d="M1555.91 615.136C1605.66 588.348 1685.02 590.837 1689.54 639.351C1691.98 665.667 1664.75 689.033 1637.95 700.608C1622.8 707.129 1606.12 712.277 1589.86 714.926C1571.7 717.877 1552.64 717.651 1538.79 710.119C1522.88 701.463 1508.85 685.29 1510.75 666.307C1512.64 647.325 1534.87 626.489 1555.91 615.155L1555.91 615.136Z" fill="#EFB540"/>
</g>
<g style="mix-blend-mode:multiply" opacity="0.25">
<path d="M1555.87 615.486C1605.2 589.004 1683.59 591.492 1688.2 639.286C1690.71 665.354 1663.63 688.558 1637.15 700.016C1622.21 706.444 1605.71 711.535 1589.63 714.187C1571.44 717.172 1552.24 717.029 1538.43 709.383C1522.79 700.741 1509.07 684.783 1511.08 665.973C1513.1 647.163 1535.04 626.688 1555.91 615.491L1555.87 615.486Z" fill="#EEB641"/>
</g>
<g style="mix-blend-mode:multiply" opacity="0.27">
<path d="M1555.85 615.82C1604.74 589.659 1682.19 592.131 1686.87 639.202C1689.45 665.04 1662.5 688.064 1636.36 699.385C1621.63 705.74 1605.33 710.777 1589.39 713.426C1571.13 716.462 1551.81 716.363 1538.03 708.641C1522.64 700.011 1509.25 684.252 1511.36 665.651C1513.53 646.544 1535.16 626.9 1555.83 615.818L1555.85 615.82Z" fill="#EEB642"/>
</g>
<g style="mix-blend-mode:multiply" opacity="0.28">
<path d="M1555.83 616.153C1604.31 590.298 1680.78 592.788 1685.55 639.1C1688.18 664.707 1661.4 687.553 1635.57 698.754C1621.04 705.035 1604.93 709.997 1589.17 712.667C1570.86 715.756 1551.41 715.721 1537.67 707.885C1522.55 699.269 1509.46 683.704 1511.68 665.315C1513.95 646.477 1535.31 627.097 1555.81 616.151L1555.83 616.153Z" fill="#EDB643"/>
</g>
<g style="mix-blend-mode:multiply" opacity="0.3">
<path d="M1555.81 616.487C1603.87 590.956 1679.38 593.427 1684.22 639.015C1686.92 664.374 1660.27 687.078 1634.77 698.142C1620.43 704.329 1604.53 709.236 1588.94 711.908C1570.59 715.051 1551 715.077 1537.3 707.129C1522.45 698.524 1509.69 683.159 1512.02 664.961C1514.35 646.764 1535.48 627.276 1555.81 616.467L1555.81 616.487Z" fill="#EDB644"/>
</g>
<g style="mix-blend-mode:multiply" opacity="0.31">
<path d="M1555.76 616.837C1603.42 591.612 1677.95 594.101 1682.88 638.95C1685.65 664.08 1659.14 686.604 1633.98 697.55C1619.84 703.663 1604.13 708.514 1588.72 711.188C1570.31 714.385 1550.58 714.453 1536.93 706.432C1522.35 697.841 1509.9 682.671 1512.33 664.683C1514.76 646.695 1535.63 627.532 1555.78 616.859L1555.76 616.837Z" fill="#EDB645"/>
</g>
<g style="mix-blend-mode:multiply" opacity="0.32">
<path d="M1555.74 617.171C1602.98 592.25 1676.55 594.74 1681.55 638.865C1684.38 663.766 1658.02 686.11 1633.16 696.936C1619.24 702.956 1603.71 707.75 1588.47 710.446C1570 713.694 1550.16 713.828 1536.53 705.69C1522.2 697.13 1510.07 682.158 1512.61 664.361C1515.15 646.565 1535.74 627.743 1555.72 617.188L1555.74 617.171Z" fill="#ECB646"/>
</g>
<g style="mix-blend-mode:multiply" opacity="0.34">
<path d="M1555.72 617.504C1602.55 592.908 1675.14 595.397 1680.24 638.763C1683.14 663.435 1656.91 685.599 1632.39 696.307C1618.67 702.254 1603.34 706.994 1588.27 709.67C1569.76 712.972 1549.77 713.167 1536.19 704.917C1522.62 696.667 1510.31 681.595 1512.95 663.988C1515.58 646.381 1535.94 627.886 1555.72 617.485L1555.72 617.504Z" fill="#ECB647"/>
</g>
<g style="mix-blend-mode:multiply" opacity="0.35">
<path d="M1555.7 617.838C1602.11 593.547 1673.74 596.036 1678.9 638.679C1681.86 663.1 1655.79 685.105 1631.6 695.676C1618.09 701.549 1602.95 706.214 1588.05 708.912C1569.49 712.267 1549.37 712.525 1535.83 704.161C1522.29 695.796 1510.52 681.047 1513.29 663.654C1516.05 646.261 1536.12 628.085 1555.72 617.821L1555.7 617.838Z" fill="#EBB748"/>
</g>
<g style="mix-blend-mode:multiply" opacity="0.37">
<path d="M1555.68 618.171C1601.66 594.183 1672.34 596.694 1677.59 638.596C1680.61 662.789 1654.68 684.633 1630.8 695.065C1617.5 700.845 1602.54 705.473 1587.82 708.172C1569.22 711.581 1548.95 711.901 1535.46 703.444C1521.97 694.987 1510.74 680.54 1513.6 663.356C1516.46 646.172 1536.27 628.321 1555.68 618.191L1555.68 618.171Z" fill="#EBB749"/>
</g>
<g style="mix-blend-mode:multiply" opacity="0.38">
<path d="M1555.66 618.505C1601.22 594.841 1670.95 597.334 1676.26 638.512C1679.34 662.475 1653.55 684.139 1630.01 694.453C1616.91 700.16 1602.14 704.712 1587.6 707.413C1568.95 710.876 1548.54 711.257 1535.08 702.685C1521.62 694.114 1510.92 680.009 1513.9 662.998C1516.88 645.987 1536.4 628.496 1555.64 618.502L1555.66 618.505Z" fill="#EBB74A"/>
</g>
<g style="mix-blend-mode:multiply" opacity="0.39">
<path d="M1555.63 618.858C1600.79 595.499 1669.55 598.011 1674.92 638.446C1678.07 662.181 1652.43 683.664 1629.21 693.861C1616.33 699.475 1601.76 703.992 1587.37 706.693C1568.65 710.207 1548.14 710.654 1534.72 701.968C1521.29 693.282 1511.14 679.502 1514.23 662.703C1517.32 645.903 1536.57 628.734 1555.63 618.858V618.858Z" fill="#EAB74B"/>
</g>
<g style="mix-blend-mode:multiply" opacity="0.41">
<path d="M1555.61 619.191C1600.35 596.138 1668.16 598.652 1673.61 638.345C1676.83 661.831 1651.32 683.153 1628.42 693.23C1615.72 698.768 1601.36 703.231 1587.15 705.935C1568.38 709.502 1547.72 710.029 1534.35 701.212C1520.99 692.394 1511.35 678.954 1514.55 662.366C1517.75 645.778 1536.72 628.931 1555.61 619.191Z" fill="#EAB74C"/>
</g>
<g style="mix-blend-mode:multiply" opacity="0.42">
<path d="M1555.61 619.527C1599.93 596.798 1666.8 599.315 1672.29 638.262C1675.59 661.519 1650.23 682.683 1627.64 692.621C1615.15 698.085 1600.97 702.473 1586.94 705.178C1568.13 708.819 1547.34 709.39 1534.01 700.478C1521.51 692.123 1511.59 678.431 1514.89 662.032C1518.19 645.633 1536.9 629.13 1555.61 619.527Z" fill="#EAB74D"/>
</g>
<g style="mix-blend-mode:multiply" opacity="0.44">
<path d="M1555.59 619.861C1599.5 597.437 1665.41 599.955 1670.98 638.18C1674.34 661.208 1649.13 682.191 1626.87 692.012C1614.59 697.383 1600.59 701.734 1586.74 704.441C1567.88 708.136 1546.95 708.768 1533.64 699.741C1521.4 691.418 1511.79 677.921 1515.2 661.715C1518.62 645.508 1537.05 629.347 1555.59 619.88L1555.59 619.861Z" fill="#E9B74E"/>
</g>
<g style="mix-blend-mode:multiply" opacity="0.45">
<path d="M1555.57 620.194C1599.06 598.095 1664.03 600.615 1669.65 638.095C1673.07 660.895 1648 681.697 1626.06 691.378C1613.98 696.676 1600.19 700.973 1586.49 703.68C1567.57 707.426 1546.53 708.143 1533.26 698.982C1521.27 690.71 1512 677.373 1515.52 661.378C1519.05 645.383 1537.22 629.546 1555.57 620.194V620.194Z" fill="#E9B84F"/>
</g>
<g style="mix-blend-mode:multiply" opacity="0.46">
<path d="M1555.57 620.53C1598.63 598.734 1662.66 601.259 1668.35 637.996C1671.85 660.566 1646.92 681.189 1625.3 690.752C1613.44 695.957 1599.83 700.197 1586.29 702.923C1567.32 706.723 1546.13 707.502 1532.92 698.229C1521.18 689.987 1512.22 676.847 1515.86 661.025C1519.51 645.202 1537.4 629.725 1555.57 620.51L1555.57 620.53Z" fill="#E8B850"/>
</g>
<g style="mix-blend-mode:multiply" opacity="0.48">
<path d="M1555.55 620.863C1598.19 599.372 1661.28 601.919 1667.02 637.911C1670.58 660.233 1645.79 680.695 1624.51 690.14C1612.85 695.272 1599.43 699.456 1586.07 702.165C1567.05 706.018 1545.72 706.877 1532.56 697.492C1521.07 689.301 1512.42 676.319 1516.18 660.708C1519.93 645.096 1537.55 629.942 1555.53 620.861L1555.55 620.863Z" fill="#E8B851"/>
</g>
<g style="mix-blend-mode:multiply" opacity="0.49">
<path d="M1555.54 621.199C1597.78 600.033 1659.91 602.562 1665.72 637.831C1669.36 659.924 1644.7 680.225 1623.75 689.534C1612.3 694.592 1599.08 698.722 1585.88 701.43C1566.82 705.356 1545.35 706.279 1532.23 696.76C1520.99 688.62 1512.68 675.797 1516.55 660.398C1520.42 644.998 1537.76 630.165 1555.56 621.221L1555.54 621.199Z" fill="#E8B852"/>
</g>
<g style="mix-blend-mode:multiply" opacity="0.51">
<path d="M1555.52 621.533C1597.34 600.671 1658.53 603.202 1664.39 637.747C1668.11 659.613 1643.58 679.731 1622.94 688.92C1611.68 693.882 1598.66 697.978 1585.64 700.688C1566.53 704.668 1544.92 705.652 1531.83 696.019C1520.84 687.929 1512.85 675.283 1516.83 660.056C1520.82 644.829 1537.88 630.338 1555.5 621.53L1555.52 621.533Z" fill="#E7B852"/>
</g>
<g style="mix-blend-mode:multiply" opacity="0.52">
<path d="M1555.52 621.869C1596.93 601.312 1657.18 603.867 1663.1 637.667C1666.88 659.304 1642.49 679.242 1622.18 688.313C1611.13 693.202 1598.3 697.241 1585.45 699.934C1566.3 703.968 1544.56 705.035 1531.51 695.268C1520.77 687.228 1513.09 674.74 1517.19 659.725C1521.29 644.709 1538.07 630.539 1555.52 621.869V621.869Z" fill="#E7B853"/>
</g>
<g style="mix-blend-mode:multiply" opacity="0.54">
<path d="M1555.52 622.204C1596.51 601.973 1655.84 604.513 1661.78 637.565C1665.64 658.974 1641.39 678.73 1621.41 687.684C1610.56 692.481 1597.94 696.466 1585.25 699.178C1566.02 703.282 1544.16 704.413 1531.16 694.533C1520.68 686.544 1513.31 674.233 1517.53 659.39C1521.53 645.331 1538.24 630.739 1555.52 622.204Z" fill="#E7B854"/>
</g>
<g style="mix-blend-mode:multiply" opacity="0.55">
<path d="M1555.52 622.54C1596.1 602.614 1654.47 605.175 1660.49 637.485C1664.41 658.665 1640.3 678.241 1620.64 687.056C1610 691.778 1597.55 695.707 1585.04 698.421C1565.77 702.579 1543.76 703.81 1530.82 693.78C1520.58 685.861 1513.54 673.688 1517.88 659.059C1521.97 645.267 1538.43 630.94 1555.54 622.543L1555.52 622.54Z" fill="#E6B855"/>
</g>
<g style="mix-blend-mode:multiply" opacity="0.56">
<path d="M1555.52 622.857C1595.66 603.252 1653.13 605.801 1659.18 637.383C1663.19 658.317 1639.2 677.75 1619.87 686.427C1609.43 691.076 1597.17 694.949 1584.84 697.645C1565.52 701.876 1543.36 703.168 1530.46 693.004C1520.47 685.136 1513.74 673.12 1518.2 658.703C1522.37 645.179 1538.59 631.117 1555.52 622.857V622.857Z" fill="#E6B956"/>
</g>
<g style="mix-blend-mode:multiply" opacity="0.58">
<path d="M1555.54 623.195C1595.27 603.896 1651.81 606.449 1657.9 637.306C1661.98 658.011 1638.14 677.304 1619.13 685.823C1608.9 690.399 1596.85 694.217 1584.68 696.913C1565.31 701.198 1543 702.57 1530.15 692.275C1520.4 684.474 1514 672.618 1518.58 658.373C1522.84 645.117 1538.82 631.324 1555.54 623.176L1555.54 623.195Z" fill="#E5B957"/>
</g>
<g style="mix-blend-mode:multiply" opacity="0.59">
<path d="M1555.53 623.531C1594.85 604.537 1650.48 607.116 1656.59 637.204C1660.76 657.682 1637.04 676.793 1618.34 685.192C1608.32 689.694 1596.45 693.456 1584.45 696.154C1565.04 700.512 1542.58 701.965 1529.79 691.538C1520.28 683.788 1514.21 672.09 1518.92 658.058C1523.26 645.07 1538.99 631.542 1555.53 623.531V623.531Z" fill="#E5B958"/>
</g>
<g style="mix-blend-mode:multiply" opacity="0.61">
<path d="M1555.55 623.869C1594.45 605.2 1649.15 607.764 1655.31 637.126C1659.55 657.376 1635.97 676.306 1617.6 684.587C1607.79 689.016 1596.1 692.722 1584.29 695.403C1564.83 699.814 1542.22 701.348 1529.49 690.789C1520.23 683.109 1514.47 671.568 1519.29 657.729C1523.72 645.008 1539.21 631.746 1555.57 623.871L1555.55 623.869Z" fill="#E5B959"/>
</g>
<g style="mix-blend-mode:multiply" opacity="0.62">
<path d="M1555.55 624.205C1594.04 605.841 1647.81 608.41 1654 637.044C1658.32 657.067 1634.87 675.815 1616.83 683.978C1607.22 688.314 1595.74 691.985 1584.08 694.666C1564.57 699.15 1541.82 700.765 1529.12 690.052C1520.09 682.44 1514.67 671.04 1519.61 657.393C1524.12 644.939 1539.36 631.943 1555.55 624.205Z" fill="#E4B95A"/>
</g>
<g style="mix-blend-mode:multiply" opacity="0.63">
<path d="M1555.57 624.543C1593.64 606.484 1646.5 609.06 1652.72 636.967C1657.13 656.763 1633.8 675.347 1616.07 683.371C1606.67 687.634 1595.37 691.248 1583.9 693.931C1564.34 698.469 1541.44 700.184 1528.8 689.32C1520.02 681.778 1514.91 670.535 1519.96 657.08C1524.56 644.894 1539.55 632.164 1555.57 624.543V624.543Z" fill="#E4B95B"/>
</g>
<g style="mix-blend-mode:multiply" opacity="0.65">
<path d="M1555.59 624.862C1593.25 607.127 1645.2 609.691 1651.43 636.867C1655.93 656.418 1632.71 674.838 1615.32 682.725C1606.13 686.895 1595.03 690.475 1583.72 693.138C1564.11 697.749 1541.06 699.545 1528.48 688.55C1519.92 681.075 1515.14 669.97 1520.34 656.731C1525.01 644.791 1539.76 632.349 1555.61 624.864L1555.59 624.862Z" fill="#E4B95C"/>
</g>
<g style="mix-blend-mode:multiply" opacity="0.66">
<path d="M1555.63 625.203C1592.85 607.771 1643.91 610.343 1650.16 636.77C1654.74 656.094 1631.65 674.332 1614.59 682.101C1605.6 686.198 1594.69 689.741 1583.53 692.384C1563.88 697.068 1540.68 698.944 1528.15 687.798C1519.83 680.391 1515.38 669.446 1520.7 656.38C1525.46 644.707 1539.96 632.531 1555.63 625.183L1555.63 625.203Z" fill="#E3BA5D"/>
</g>
<g style="mix-blend-mode:multiply" opacity="0.68">
<path d="M1555.64 625.541C1592.46 608.414 1642.61 611.013 1648.88 636.693C1653.56 655.79 1630.58 673.845 1613.83 681.495C1605.03 685.515 1594.33 689.004 1583.35 691.649C1563.65 696.407 1540.28 698.361 1527.81 687.064C1519.73 679.746 1515.6 668.92 1521.04 656.065C1525.88 644.66 1540.13 632.75 1555.62 625.538L1555.64 625.541Z" fill="#E3BA5E"/>
</g>
<g style="mix-blend-mode:multiply" opacity="0.69">
<path d="M1555.68 625.862C1592.08 609.06 1641.32 611.646 1647.61 636.596C1652.37 655.466 1629.52 673.339 1613.1 680.871C1604.51 684.798 1594 688.253 1583.18 690.878C1563.44 695.709 1539.9 697.761 1527.5 686.315C1519.66 679.065 1515.85 668.377 1521.43 655.738C1526.34 644.598 1540.36 632.936 1555.66 625.86L1555.68 625.862Z" fill="#E2BA5F"/>
</g>
<g style="mix-blend-mode:multiply" opacity="0.7">
<path d="M1555.72 626.203C1591.71 609.706 1640.06 612.301 1646.35 636.521C1651.2 655.145 1628.47 672.874 1612.38 680.269C1604 684.123 1593.68 687.521 1583.04 690.148C1563.24 695.033 1539.55 697.185 1527.22 685.588C1519.6 678.406 1516.13 667.878 1521.83 655.411C1526.8 644.536 1540.62 633.145 1555.72 626.203Z" fill="#E2BA60"/>
</g>
<g style="mix-blend-mode:multiply" opacity="0.72">
<path d="M1555.76 626.543C1591.33 610.371 1638.77 612.934 1645.08 636.424C1650.02 654.822 1627.4 672.368 1611.63 679.643C1603.45 683.404 1593.34 686.767 1582.85 689.394C1563.01 694.352 1539.15 696.602 1526.9 684.837C1519.5 677.742 1516.35 667.332 1522.19 655.08C1527.25 644.472 1540.81 633.347 1555.74 626.541L1555.76 626.543Z" fill="#E2BA61"/>
</g>
<g style="mix-blend-mode:multiply" opacity="0.73">
<path d="M1555.82 626.867C1590.98 611 1637.53 613.572 1643.85 636.331C1648.89 654.505 1626.38 671.866 1610.93 679.024C1602.97 682.711 1593.03 686.018 1582.73 688.648C1562.83 693.678 1538.81 696.025 1526.61 684.09C1519.45 677.082 1516.62 666.791 1522.58 654.753C1527.71 644.41 1541.04 633.553 1555.8 626.884L1555.82 626.867Z" fill="#E1BA62"/>
</g>
<g style="mix-blend-mode:multiply" opacity="0.75">
<path d="M1555.87 627.21C1590.62 611.648 1636.28 614.23 1642.59 636.256C1647.72 654.184 1625.33 671.382 1610.22 678.402C1602.46 682.016 1592.73 685.289 1582.58 687.879C1562.64 693.002 1538.44 695.428 1526.33 683.344C1519.39 676.403 1516.88 666.27 1523 654.409C1528.19 644.312 1541.29 633.742 1555.87 627.21V627.21Z" fill="#E1BA63"/>
</g>
<g style="mix-blend-mode:multiply" opacity="0.76">
<path d="M1555.93 627.533C1590.24 612.294 1635.06 614.87 1641.36 636.164C1646.6 653.868 1624.31 670.88 1609.5 677.781C1601.95 681.302 1592.4 684.538 1582.44 687.13C1562.45 692.326 1538.06 694.866 1526.04 682.597C1519.33 675.744 1517.14 665.729 1523.4 654.082C1528.68 644.252 1541.53 633.949 1555.93 627.533V627.533Z" fill="#E0BB64"/>
</g>
<g style="mix-blend-mode:multiply" opacity="0.77">
<path d="M1555.99 627.876C1589.89 612.942 1633.81 615.508 1640.1 636.089C1645.45 653.549 1623.25 670.415 1608.78 677.178C1601.42 680.624 1592.1 683.808 1582.29 686.4C1562.27 691.671 1537.69 694.307 1525.76 681.87C1519.25 675.101 1517.4 665.207 1523.79 653.774C1529.14 644.21 1541.75 634.175 1555.99 627.896L1555.99 627.876Z" fill="#E0BB65"/>
</g>
<g style="mix-blend-mode:multiply" opacity="0.79">
<path d="M1556.07 628.202C1589.55 613.573 1632.61 616.151 1638.89 635.98C1644.34 653.216 1622.27 669.899 1608.11 676.542C1600.96 679.895 1591.81 683.062 1582.19 685.616C1562.12 690.961 1537.35 693.712 1525.52 681.089C1519.24 674.408 1517.71 664.632 1524.25 653.396C1529.66 644.097 1542.05 634.33 1556.11 628.188L1556.07 628.202Z" fill="#E0BB66"/>
</g>
<g style="mix-blend-mode:multiply" opacity="0.8">
<path d="M1556.14 628.548C1589.21 614.243 1631.4 616.794 1637.65 635.907C1643.22 652.899 1621.24 669.417 1607.41 675.943C1600.47 679.222 1591.53 682.335 1582.06 684.889C1561.94 690.326 1536.98 693.172 1525.23 680.382C1519.18 673.787 1517.97 664.13 1524.64 653.108C1530.12 644.054 1542.28 634.575 1556.14 628.567L1556.14 628.548Z" fill="#DFBB67"/>
</g>
<g style="mix-blend-mode:multiply" opacity="0.82">
<path d="M1556.24 628.876C1588.9 614.876 1630.21 617.439 1636.46 635.819C1642.15 652.571 1620.26 668.92 1606.74 675.326C1600 678.512 1591.24 681.588 1581.95 684.144C1561.79 689.655 1536.61 692.613 1524.98 679.64C1519.14 673.13 1518.28 663.594 1525.08 652.786C1530.61 643.995 1542.55 634.786 1556.24 628.896L1556.24 628.876Z" fill="#DFBB68"/>
</g>
<g style="mix-blend-mode:multiply" opacity="0.83">
<path d="M1556.34 629.205C1588.58 615.51 1629.03 618.064 1635.24 635.73C1641.06 652.24 1619.25 668.421 1606.06 674.709C1599.53 677.822 1590.98 680.863 1581.85 683.38C1561.65 688.986 1536.27 692.057 1524.74 678.879C1519.1 672.454 1518.56 663.036 1525.52 652.424C1531.11 643.879 1542.84 634.961 1556.34 629.205V629.205Z" fill="#DFBB69"/>
</g>
<g style="mix-blend-mode:multiply" opacity="0.85">
<path d="M1556.44 629.552C1588.26 616.182 1627.84 618.709 1634.05 635.642C1640 651.911 1618.26 667.924 1605.41 674.076C1599.09 677.115 1590.71 680.1 1581.77 682.619C1561.52 688.297 1535.92 691.5 1524.52 678.12C1519.11 671.782 1518.89 662.483 1525.99 652.088C1531.66 643.808 1543.16 635.157 1556.48 629.538L1556.44 629.552Z" fill="#DEBB6A"/>
</g>
<g style="mix-blend-mode:multiply" opacity="0.86">
<path d="M1556.55 629.883C1587.95 616.816 1626.7 619.34 1632.85 635.555C1638.93 651.582 1617.27 667.447 1604.73 673.459C1598.6 676.403 1590.45 679.356 1581.66 681.874C1561.38 687.648 1535.53 690.958 1524.25 677.395C1519.05 671.142 1519.15 661.962 1526.41 651.763C1532.14 643.729 1543.41 635.346 1556.55 629.883Z" fill="#DEBC6B"/>
</g>
<g style="mix-blend-mode:multiply" opacity="0.87">
<path d="M1556.67 630.214C1587.65 617.471 1625.55 619.97 1631.68 635.47C1637.8 650.969 1616.31 666.952 1604.1 672.847C1598.17 675.717 1590.2 678.633 1581.58 681.113C1561.25 686.979 1535.19 690.402 1524.03 676.636C1519.03 670.468 1519.46 661.387 1526.87 651.424C1532.65 643.633 1543.7 635.541 1556.67 630.214Z" fill="#DDBC6C"/>
</g>
<g style="mix-blend-mode:multiply" opacity="0.89">
<path d="M1556.79 630.564C1587.35 618.126 1624.41 620.601 1630.48 635.402C1636.84 650.93 1615.3 666.473 1603.44 672.252C1597.72 675.029 1589.95 677.911 1581.49 680.39C1561.12 686.351 1534.8 689.879 1523.8 675.916C1519.01 669.833 1519.78 660.872 1527.34 651.126C1533.18 643.6 1544.01 635.776 1556.81 630.566L1556.79 630.564Z" fill="#DDBC6D"/>
</g>
<g style="mix-blend-mode:multiply" opacity="0.9">
<path d="M1556.92 630.897C1587.08 618.765 1623.31 621.216 1629.3 635.317C1635.83 650.589 1614.33 665.978 1602.78 671.638C1597.27 674.342 1589.71 677.189 1581.4 679.648C1560.99 685.702 1534.42 689.359 1523.57 675.177C1518.99 669.178 1520.08 660.317 1527.79 650.786C1533.69 643.504 1544.3 635.97 1556.9 630.895L1556.92 630.897Z" fill="#DDBC6E"/>
</g>
<g style="mix-blend-mode:multiply" opacity="0.92">
<path d="M1557.08 631.233C1586.82 619.425 1622.2 621.852 1628.17 635.217C1634.85 650.211 1613.41 665.469 1602.19 671.011C1596.89 673.622 1589.5 676.432 1581.38 678.874C1560.93 685.023 1534.1 688.805 1523.39 674.423C1519 668.506 1520.43 659.747 1528.29 650.452C1534.25 643.415 1544.63 636.169 1557.06 631.23L1557.08 631.233Z" fill="#DCBC6F"/>
</g>
<g style="mix-blend-mode:multiply" opacity="0.93">
<path d="M1557.23 631.588C1586.56 620.085 1621.12 622.47 1627.01 635.154C1633.88 649.895 1612.46 664.977 1601.57 670.421C1596.46 672.937 1589.29 675.734 1581.33 678.156C1560.83 684.397 1533.72 688.324 1523.2 673.708C1519.01 667.895 1520.77 659.215 1528.78 650.156C1534.8 643.343 1544.96 636.407 1557.21 631.605L1557.23 631.588Z" fill="#DCBC70"/>
</g>
<g style="mix-blend-mode:multiply" opacity="0.94">
<path d="M1557.39 631.923C1586.3 620.725 1620.03 623.088 1625.87 635.074C1632.92 649.52 1611.53 664.488 1600.95 669.792C1596.05 672.234 1589.09 674.978 1581.28 677.399C1560.75 683.736 1533.35 687.804 1523.02 672.954C1519.02 667.224 1521.12 658.645 1529.3 649.805C1535.38 643.237 1545.31 636.588 1557.39 631.904L1557.39 631.923Z" fill="#DCBC71"/>
</g>
<g style="mix-blend-mode:multiply" opacity="0.96">
<path d="M1557.55 632.259C1586.02 621.383 1618.95 623.686 1624.72 634.991C1631.95 649.164 1610.58 664.015 1600.34 669.183C1595.64 671.551 1588.86 674.258 1581.23 676.643C1560.67 683.093 1532.96 687.282 1522.83 672.2C1519.04 666.555 1521.44 658.072 1529.79 649.47C1535.93 643.146 1545.66 636.79 1557.55 632.239L1557.55 632.259Z" fill="#DBBD72"/>
</g>
<g style="mix-blend-mode:multiply" opacity="0.97">
<path d="M1557.72 632.616C1585.78 622.046 1617.89 624.307 1623.6 634.913C1631.05 648.776 1609.67 663.528 1599.76 668.578C1595.27 670.854 1588.69 673.526 1581.23 675.91C1560.63 682.475 1532.61 686.783 1522.66 671.487C1519.06 665.924 1521.81 657.544 1530.31 649.177C1536.49 643.077 1546.01 637.03 1557.72 632.616V632.616Z" fill="#DBBD73"/>
</g>
<g style="mix-blend-mode:multiply" opacity="0.99">
<path d="M1557.92 632.956C1585.56 622.711 1616.86 624.893 1622.48 634.835C1630.17 648.391 1608.76 663.041 1599.16 667.971C1594.88 670.173 1588.51 672.81 1581.2 675.175C1560.57 681.835 1532.19 686.298 1522.5 670.755C1519.08 665.274 1522.17 656.976 1530.84 648.847C1537.09 642.993 1546.38 637.233 1557.92 632.956V632.956Z" fill="#DABD74"/>
</g>
<g style="mix-blend-mode:multiply">
<path d="M1581.19 674.443C1560.53 681.217 1531.82 685.817 1522.35 670.025C1516.79 660.743 1530.85 643.255 1558.09 633.314C1585.32 623.373 1615.8 625.494 1621.36 634.777C1629.29 648.006 1607.85 662.573 1598.58 667.386C1594.51 669.495 1588.31 672.115 1581.19 674.443Z" fill="#DABD75"/>
</g>
</g>
<path d="M1641.45 591.319C1641.45 591.319 1641.47 591.163 1641.48 591.086C1641.53 590.677 1641.7 588.167 1641.64 584.443C1641.64 584.108 1641.62 583.789 1641.62 583.453C1641.62 582.978 1641.6 582.501 1641.58 582.005C1641.14 569.951 1638.3 558.314 1633.43 547.653L1633.4 547.57C1632.87 546.418 1632.32 545.263 1631.72 544.123C1628.96 538.663 1625.61 533.508 1621.79 528.729C1620.02 526.455 1617.78 523.927 1615.8 521.964C1614.49 520.616 1613.11 519.3 1611.7 518.04C1611.63 517.972 1611.56 517.904 1611.49 517.836L1611.31 517.676C1611.06 517.467 1610.83 517.242 1610.58 517.033C1609.67 516.229 1608.68 515.397 1607.6 514.533L1607.48 514.438C1606.95 514.018 1606.41 513.596 1605.83 513.169C1605.58 512.979 1605.31 512.788 1605.05 512.598C1604.84 512.433 1604.62 512.268 1604.4 512.103C1604.22 511.982 1604.06 511.863 1603.88 511.722C1600.57 509.34 1597.08 507.171 1593.43 505.22C1592.48 504.709 1591.76 504.343 1591.33 504.132L1590.67 503.815L1590.02 503.497L1589.93 503.446L1589.78 503.369C1589.46 503.211 1589.03 503.02 1588.72 502.863L1588.57 502.785L1588.42 502.707L1587.69 502.381C1587.39 502.245 1587.01 502.08 1586.71 501.945L1585.87 501.584C1585.72 501.526 1585.55 501.446 1585.4 501.388L1585.27 501.332L1585.1 501.272L1584.83 501.16L1583.89 500.787C1583.64 500.698 1583.36 500.584 1583.1 500.473C1582.85 500.383 1582.59 500.291 1582.34 500.182L1582.3 500.178C1582.15 500.12 1581.98 500.059 1581.83 500.001C1581.55 499.887 1581.19 499.764 1580.92 499.672L1580.28 499.454C1579.99 499.36 1579.69 499.263 1579.41 499.15L1579.25 499.091C1579.03 499.024 1578.82 498.939 1578.59 498.872L1578.19 498.743L1577.72 498.586L1577.64 498.577L1577.47 498.516C1577.47 498.516 1577.3 498.456 1577.2 498.444C1576.95 498.374 1576.72 498.306 1576.47 498.236C1576.32 498.197 1576.15 498.137 1576.02 498.101C1575.75 498.028 1575.48 497.956 1575.21 497.883L1574.52 497.7C1574.41 497.686 1574.26 497.628 1574.12 497.591C1573.91 497.546 1573.7 497.48 1573.51 497.437C1573.3 497.391 1573.11 497.328 1572.91 497.285C1572.59 497.205 1572.24 497.123 1571.92 497.044L1571.01 496.834C1570.91 496.822 1570.82 496.791 1570.71 496.757L1570.65 496.75C1570.4 496.68 1570.09 496.622 1569.8 496.566C1569.38 496.475 1568.97 496.386 1568.55 496.314C1568.24 496.256 1567.95 496.201 1567.7 496.15C1567.37 496.09 1567.06 496.032 1566.73 495.972C1566.4 495.931 1566.05 495.849 1565.72 495.789C1565.51 495.763 1565.31 495.739 1565.1 495.713L1564.54 495.643C1564.4 495.588 1564.25 495.588 1564.11 495.552C1563.96 495.533 1563.8 495.514 1563.63 495.492C1561.82 495.231 1560 495.047 1558.18 494.883C1557.78 494.833 1557.38 494.824 1557.03 494.801C1556.62 494.77 1556.21 494.739 1555.81 494.73C1555.56 494.699 1555.3 494.707 1555.09 494.681C1554.5 494.648 1553.91 494.635 1553.33 494.624C1553.14 494.6 1552.92 494.613 1552.72 494.608C1551.88 494.583 1551.07 494.583 1550.29 494.587C1549.92 494.58 1549.54 494.593 1549.17 494.606C1549.17 494.606 1549.01 494.607 1548.93 494.616C1548.31 494.62 1547.74 494.648 1547.2 494.662C1546.76 494.687 1546.33 494.693 1545.89 494.718C1544.89 494.774 1544.1 494.834 1543.56 494.867C1540.88 495.072 1538.23 495.419 1535.59 495.865C1534.02 496.107 1532.62 496.39 1530.87 496.788C1523.61 498.427 1516.52 500.957 1509.79 504.381C1509.12 504.733 1508.46 505.087 1507.79 505.439C1507.7 505.488 1507.62 505.537 1507.53 505.586C1506.39 506.216 1505.24 506.847 1504.13 507.54C1504.04 507.589 1503.94 507.636 1503.85 507.704L1503.75 507.751L1503.66 507.799C1503.66 507.799 1503.58 507.848 1503.53 507.882L1503.42 507.948C1503.12 508.149 1502.81 508.327 1502.5 508.527C1501.88 508.925 1501.28 509.306 1500.7 509.69C1500.38 509.907 1500.03 510.122 1499.71 510.359C1499.04 510.81 1498.41 511.247 1497.81 511.687L1497.72 511.755L1497.63 511.824C1497.5 511.926 1497.35 512.026 1497.22 512.129C1494.09 514.394 1492.17 516.095 1492.05 516.199C1491.08 517.029 1490.1 517.917 1489.12 518.805C1488.43 519.432 1487.74 520.098 1487 520.818C1486.95 520.871 1486.89 520.923 1486.84 520.957L1486.73 521.081C1485.29 522.506 1483.75 524.135 1482.04 526.12L1482 526.154L1481.95 526.207C1481.95 526.207 1481.9 526.261 1481.88 526.298C1481.09 527.209 1480.3 528.219 1479.47 529.304C1478.77 530.225 1478.06 531.147 1477.43 531.92L1475.35 535.044C1474.65 536.046 1474 537.033 1473.41 537.95C1472.27 539.687 1471.02 541.985 1469.76 544.48L1469.76 544.519C1468.68 546.661 1467.63 548.963 1466.7 551.201L1466.69 551.279C1466.69 551.279 1466.65 551.333 1466.62 551.37C1465.42 554.266 1464.43 557.03 1463.84 559.193C1461.63 567.382 1461.45 568.052 1460.71 573.576C1459.78 580.519 1459.89 585.574 1459.95 587.993C1460.12 594.992 1461.13 600.415 1461.47 602.215C1462.66 608.569 1463.94 612.344 1465.19 615.996C1465.96 618.265 1466.58 619.844 1467.4 621.684C1468.37 623.919 1469.48 626.15 1470.67 628.372C1470.79 628.645 1470.94 628.9 1471.08 629.194C1472.24 631.491 1474.03 634.459 1475.56 636.544C1476.69 638.087 1478.13 640.201 1479.31 641.71C1480.49 643.199 1482.09 645.155 1483.4 646.561C1484.83 648.14 1485.42 648.806 1486.8 650.102C1488.45 651.768 1490.14 653.339 1491.88 654.798L1491.9 654.8C1492.45 655.283 1493.02 655.769 1493.58 656.213C1494.25 656.75 1494.92 657.266 1495.51 657.715C1495.84 657.953 1496.27 658.283 1496.78 658.642L1497.02 658.81C1497.55 659.191 1498.16 659.623 1498.86 660.103C1499 660.2 1499.17 660.319 1499.31 660.416C1501.36 661.813 1503.96 663.497 1506.85 665.077C1507.47 665.431 1508.35 665.894 1509.37 666.435C1509.66 666.59 1509.96 666.745 1510.24 666.897L1511.77 667.639C1512.09 667.796 1512.52 667.988 1512.83 668.145L1513.21 668.31L1513.29 668.319L1513.86 668.608C1514.16 668.743 1514.54 668.908 1514.84 669.044L1515.8 669.458L1515.87 669.467C1519.61 671.073 1523.24 672.289 1526.72 673.231L1527.04 673.33C1527.33 673.404 1527.67 673.506 1528.02 673.588L1528.12 673.6C1528.42 673.697 1528.71 673.771 1528.98 673.824L1530.94 674.282C1531.82 674.47 1533 674.714 1533.89 674.901C1534.72 675.063 1535.7 675.243 1536.66 675.38L1536.69 675.384C1537.18 675.444 1537.64 675.541 1538.07 675.593C1539.32 675.766 1540.97 675.949 1542.22 676.083C1543.49 676.238 1545.2 676.291 1546.49 676.39C1549.23 676.469 1552.89 676.483 1555.61 676.363C1557.76 676.271 1560.59 676.026 1562.71 675.693C1563.24 675.599 1563.8 675.51 1564.38 675.424C1566.06 675.155 1567.78 674.832 1569.21 674.593L1570.92 674.171C1572.29 673.863 1573.63 673.534 1574.98 673.166L1575.65 672.992C1577.23 672.592 1579.14 671.938 1580.88 671.321C1581.62 671.056 1582.35 670.789 1583.07 670.522C1585.04 669.795 1587.51 668.814 1589.31 667.888C1589.37 667.856 1589.43 667.824 1589.5 667.792C1591.16 667.007 1592.8 666.162 1594.41 665.272C1594.77 665.079 1595.13 664.906 1595.45 664.727L1597.22 663.621C1597.7 663.323 1598.18 663.047 1598.66 662.749L1601.35 661.083C1602.38 660.439 1604.25 659.186 1607.04 656.938L1607.19 656.838L1607.46 656.594C1608.91 655.408 1610.58 654.012 1612.52 652.253C1612.56 652.219 1612.61 652.166 1612.65 652.131C1614.56 650.409 1617.78 647.265 1621.41 642.769L1621.5 642.662C1622.34 641.618 1623.19 640.516 1624.05 639.337C1624.41 638.827 1624.78 638.32 1625.15 637.791C1625.67 637.065 1626.15 636.353 1626.57 635.712C1626.69 635.51 1626.84 635.271 1626.98 635.052C1627.72 633.916 1628.43 632.739 1629.16 631.523C1630.15 629.846 1631.11 628.145 1631.83 626.632C1633.11 624.101 1634.33 621.404 1635.46 618.537C1636.17 616.786 1636.8 615.025 1637.29 613.386C1637.87 611.598 1638.39 609.764 1638.88 607.867C1638.99 607.426 1639.1 607.025 1639.2 606.601C1639.81 604.047 1640.31 601.361 1640.71 598.603C1640.72 598.505 1640.73 598.408 1640.75 598.31L1640.77 598.116C1641.08 595.939 1641.31 593.714 1641.45 591.419L1641.45 591.319Z" fill="url(#paint0_radial_79_2055)"/>
</g>
<defs>
<radialGradient id="paint0_radial_79_2055" cx="0" cy="0" r="1" gradientUnits="userSpaceOnUse" gradientTransform="translate(1549.16 594.577) rotate(6.63998) scale(100.006 100.011)">
<stop offset="0.52" stop-color="#BD45A7"/>
<stop offset="0.59" stop-color="#BE49A8"/>
<stop offset="0.66" stop-color="#C255AE"/>
<stop offset="0.73" stop-color="#CA6AB8"/>
<stop offset="0.8" stop-color="#D487C6"/>
<stop offset="0.88" stop-color="#E2ADD8"/>
<stop offset="0.95" stop-color="#F2DBED"/>
<stop offset="1" stop-color="white"/>
</radialGradient>
<clipPath id="clip0_79_2055">
<rect width="1645" height="1221" fill="white"/>
</clipPath>
</defs>
</svg>
