<svg width="120" height="97" viewBox="0 0 120 97" fill="none" xmlns="http://www.w3.org/2000/svg">
<g style="mix-blend-mode:multiply" opacity="0.4">
<g style="mix-blend-mode:multiply" opacity="0.01">
<path d="M54.6158 45.6883C75.958 33.8263 111.816 34.9438 112.8 57.6613C113.32 69.0239 102.08 78.7789 89.9974 83.8366C83.0376 86.7421 75.5783 89.0693 68.406 89.9298C61.8546 90.7314 55.4798 90.3094 50.0043 87.9652C42.3877 84.7331 35.2569 77.2507 35.4031 68.862C35.5464 59.8794 45.5855 50.7021 54.6183 45.6688L54.6158 45.6883Z" fill="#AF3CA5"/>
</g>
<g style="mix-blend-mode:multiply" opacity="0.03">
<path d="M54.6008 45.805C75.8113 34.0448 111.292 35.1733 112.35 57.6234C112.88 68.9081 101.705 78.6122 89.728 83.6239C82.8315 86.498 75.4551 88.7963 68.3413 89.6642C61.7483 90.4803 55.3127 90.0703 49.8397 87.7066C42.3254 84.4481 35.3208 77.0611 35.5154 68.7577C35.7046 59.8799 45.6339 50.7875 54.6203 45.8075L54.6008 45.805Z" fill="#AD3DA6"/>
</g>
<g style="mix-blend-mode:multiply" opacity="0.04">
<path d="M54.5663 45.9193C75.6231 34.2778 110.768 35.4028 111.88 57.5829C112.44 68.7922 101.292 78.4405 89.439 83.4089C82.6254 86.254 75.3123 88.5208 68.2349 89.4132C61.62 90.2463 55.1015 89.8652 49.6336 87.4626C42.2191 84.1971 35.3432 76.8859 35.5693 68.6459C35.8069 59.8534 45.6433 50.8678 54.5663 45.9193V45.9193Z" fill="#AB3EA6"/>
</g>
<g style="mix-blend-mode:multiply" opacity="0.06">
<path d="M54.5345 46.0142C75.4595 34.4745 110.247 35.6129 111.393 57.5205C111.986 68.635 100.882 78.2494 89.1332 83.1718C82.3999 86.0075 75.1333 88.2209 68.1337 89.1233C61.1341 90.0257 54.8955 89.6212 49.4351 87.1602C42.1229 83.8682 35.3538 76.6499 35.6282 68.4952C35.9117 59.8076 45.6578 50.9093 54.515 46.0117L54.5345 46.0142Z" fill="#A93FA6"/>
</g>
<g style="mix-blend-mode:multiply" opacity="0.07">
<path d="M54.3807 46.1329C75.174 34.695 109.606 35.8275 110.807 57.4651C111.429 68.5043 100.371 78.0652 88.7469 82.9442C82.077 85.7485 74.8907 87.9524 67.9495 88.8623C61.0083 89.7722 54.6065 89.4061 49.1511 86.9062C41.9387 83.6072 35.2958 76.4842 35.6237 68.3759C35.9555 59.7736 45.5894 50.9796 54.4002 46.1354L54.3807 46.1329Z" fill="#A740A6"/>
</g>
<g style="mix-blend-mode:multiply" opacity="0.08">
<path d="M54.3268 46.2446C74.9858 34.928 109.063 36.0545 110.299 57.4197C110.93 68.381 99.9189 77.8885 88.419 82.7241C81.832 85.4994 74.709 87.6718 67.8262 88.5892C60.9434 89.5066 54.3615 89.157 48.9305 86.6207C41.8179 83.3147 35.3038 76.2676 35.6631 68.2227C36.0409 59.7252 45.5844 51.0185 54.3293 46.2252L54.3268 46.2446Z" fill="#A540A7"/>
</g>
<g style="mix-blend-mode:multiply" opacity="0.1">
<path d="M54.2729 46.3565C74.7807 35.1392 108.519 36.2815 109.81 57.3767C110.471 68.2627 99.5058 77.7169 88.1107 82.5065C81.587 85.2504 74.5445 87.4134 67.72 88.3383C60.8955 89.2631 54.1505 88.952 48.7245 86.3767C41.7141 83.0443 35.3068 76.09 35.7145 68.1304C36.1407 59.7182 45.5914 51.1183 54.2704 46.3759L54.2729 46.3565Z" fill="#A341A7"/>
</g>
<g style="mix-blend-mode:multiply" opacity="0.11">
<path d="M54.2189 46.4683C74.5925 35.3722 107.978 36.4891 109.301 57.3313C109.991 68.1419 99.0731 77.5427 87.7828 82.2865C81.342 85.0014 74.3627 87.1329 67.5967 88.0653C60.8306 88.9977 53.9224 88.7249 48.5013 86.1107C41.5908 82.7713 35.3123 75.8929 35.7514 67.9967C36.226 59.6698 45.5643 51.1742 54.1994 46.4658L54.2189 46.4683Z" fill="#A142A7"/>
</g>
<g style="mix-blend-mode:multiply" opacity="0.13">
<path d="M54.1652 46.58C74.4071 35.5858 107.435 36.7161 108.812 57.2883C109.534 68.0041 98.6431 77.349 87.4746 82.0688C81.0971 84.7523 74.2007 86.8549 67.4906 87.8142C60.7804 88.7736 53.7115 88.5197 48.298 85.8471C41.4872 82.5008 35.3179 75.6957 35.8249 67.8874C36.3454 59.6653 45.5935 51.257 54.1627 46.5994L54.1652 46.58Z" fill="#9F43A7"/>
</g>
<g style="mix-blend-mode:multiply" opacity="0.14">
<path d="M54.1113 46.6918C74.2189 35.8188 106.892 36.9432 108.306 57.2235C109.058 67.8639 98.213 77.1554 87.1687 81.8318C80.8741 84.4863 74.0192 86.5745 67.3893 87.5243C60.7595 88.4742 53.5054 88.2757 48.0969 85.5642C41.386 82.2109 35.3454 75.4817 35.8838 67.7367C36.4502 59.6194 45.6079 51.2985 54.1113 46.6918V46.6918Z" fill="#9D44A8"/>
</g>
<g style="mix-blend-mode:multiply" opacity="0.15">
<path d="M54.0573 46.8036C74.0136 36.0299 106.351 37.1508 107.817 57.1806C108.598 67.7456 97.7997 76.9837 86.8602 81.6142C80.6484 84.2399 73.8568 86.2965 67.2854 87.2539C60.7139 88.2112 53.2992 88.0317 47.8957 85.2813C41.304 81.9235 35.3727 75.2676 35.9401 67.6055C36.5074 59.9433 45.6003 51.3569 54.0573 46.8036V46.8036Z" fill="#9B45A8"/>
</g>
<g style="mix-blend-mode:multiply" opacity="0.17">
<path d="M54.0034 46.9154C73.8281 36.2435 105.807 37.3778 107.309 57.1351C108.119 67.6248 97.3477 76.807 86.5325 81.3941C80.3841 83.9883 73.6728 86.0355 67.1597 87.0004C60.223 88.0295 53.0688 87.8241 47.6702 85.0347C41.1784 81.6699 35.3539 75.1069 35.9941 67.4937C36.6343 59.8804 45.6099 51.4372 54.0009 46.9348L54.0034 46.9154Z" fill="#9946A8"/>
</g>
<g style="mix-blend-mode:multiply" opacity="0.18">
<path d="M53.9521 47.0077C73.6425 36.4571 105.266 37.5854 106.822 57.0727C107.643 67.4846 96.9371 76.6159 86.2266 81.1571C80.1611 83.7224 73.5132 85.7381 67.0585 86.7104C60.0998 87.7566 52.8627 87.5801 47.4911 84.7349C41.099 81.3631 35.4033 74.8759 36.0749 67.326C36.7466 59.7762 45.6464 51.4617 53.974 46.9908L53.9521 47.0077Z" fill="#9747A8"/>
</g>
<g style="mix-blend-mode:multiply" opacity="0.2">
<path d="M53.8983 47.1194C73.4569 36.6706 104.723 37.8124 106.314 57.0273C107.166 67.3443 96.5045 76.4417 85.9183 80.9395C79.9162 83.4733 73.3486 85.4796 66.9328 86.4569C59.9302 87.537 52.6322 87.3724 47.2656 84.4883C40.9734 81.1095 35.3869 74.6957 36.107 67.2312C36.827 59.7667 45.6145 51.5565 53.8958 47.1389L53.8983 47.1194Z" fill="#9548A9"/>
</g>
<g style="mix-blend-mode:multiply" opacity="0.21">
<path d="M53.8637 47.2337C73.2687 36.9036 104.201 38.0225 105.847 56.9673C106.729 67.2091 96.0938 76.2505 85.6319 80.7049C79.7125 83.2098 73.2083 85.1847 66.8509 86.1695C59.8069 87.264 52.4456 87.1309 47.084 84.2078C40.8915 80.8221 35.4338 74.4841 36.1852 67.083C36.9367 59.6818 45.6483 51.6004 53.8637 47.2337V47.2337Z" fill="#9349A9"/>
</g>
<g style="mix-blend-mode:multiply" opacity="0.23">
<path d="M53.8098 47.3455C73.083 37.1172 103.677 38.252 105.338 56.9219C106.249 67.0882 95.661 76.0763 85.3039 80.4848C79.4479 82.9582 73.0047 84.9211 66.7251 85.9159C59.6591 87.0274 52.215 86.9232 46.8608 83.9418C40.7682 80.549 35.4392 74.287 36.239 66.9712C37.0389 59.6554 45.6577 51.6807 53.8073 47.3649L53.8098 47.3455Z" fill="#914AA9"/>
</g>
<g style="mix-blend-mode:multiply" opacity="0.24">
<path d="M53.756 47.4573C72.895 37.3503 103.134 38.479 104.849 56.8789C105.79 66.9699 95.2506 75.8852 84.9957 80.2672C79.2226 82.7117 72.8427 84.6432 66.6215 85.6454C59.5116 86.7909 52.0066 86.6987 46.6574 83.6783C40.6646 80.2786 35.4449 74.0898 36.2956 66.8399C37.1464 59.59 45.6504 51.7391 53.7535 47.4767L53.756 47.4573Z" fill="#8F4BAA"/>
</g>
<g style="mix-blend-mode:multiply" opacity="0.25">
<path d="M53.702 47.5691C72.7093 37.5639 102.593 38.6866 104.36 56.836C105.33 66.8517 94.8178 75.7111 84.7067 80.0522C79.0164 82.4677 72.6974 84.3872 66.5346 85.3969C59.4028 86.5593 51.8149 86.4961 46.4732 83.4173C40.5777 80.0301 35.4867 73.9172 36.3689 66.7307C37.2511 59.5441 45.6793 51.8219 53.719 47.591L53.702 47.5691Z" fill="#8D4BAA"/>
</g>
<g style="mix-blend-mode:multiply" opacity="0.27">
<path d="M53.6482 47.6809C72.5042 37.7749 102.05 38.9136 103.854 56.7711C104.854 66.7114 94.3877 75.5173 84.3839 79.7931C78.757 82.1772 72.5208 84.0677 66.4164 85.085C59.2406 86.2813 51.5919 86.2301 46.2552 83.1124C40.4595 79.7182 35.4777 73.6786 36.4303 66.5605C37.3828 59.4423 45.6962 51.8439 53.6701 47.6639L53.6482 47.6809Z" fill="#8B4CAA"/>
</g>
<g style="mix-blend-mode:multiply" opacity="0.28">
<path d="M53.5968 47.7731C72.3186 37.9885 101.528 39.1237 103.368 56.7087C104.399 66.5542 93.9771 75.3262 84.0781 79.556C78.5315 81.9306 72.3587 83.7897 66.3127 84.8145C59.0955 86.0253 51.3834 86.0055 46.0542 82.8294C40.3583 79.4282 35.5052 73.4645 36.4892 66.4097C37.4732 59.3549 45.6913 51.8828 53.6188 47.7562L53.5968 47.7731Z" fill="#894DAA"/>
</g>
<g style="mix-blend-mode:multiply" opacity="0.3">
<path d="M53.5429 47.885C72.1329 38.2021 100.987 39.3313 102.859 56.6633C103.92 66.4335 93.525 75.1496 83.7502 79.336C78.267 81.6792 72.1745 83.5289 66.1894 84.5416C58.9502 85.7694 51.1553 85.7785 45.8311 82.5634C40.2325 79.1747 35.4913 73.265 36.5236 66.2955C37.556 59.3261 45.6788 51.9802 53.5429 47.885V47.885Z" fill="#874EAB"/>
</g>
<g style="mix-blend-mode:multiply" opacity="0.31">
<path d="M53.4888 47.9967C71.9447 38.4351 100.463 39.5608 102.37 56.6203C103.461 66.3151 93.1116 74.9779 83.4417 79.1184C78.0413 81.4326 72.0122 83.2509 66.0854 84.2711C58.8024 85.5328 50.9441 85.5734 45.6274 82.2999C40.3107 79.0265 35.5161 73.0703 36.5799 66.1642C37.6437 59.2582 45.6906 52.0411 53.4913 47.9773L53.4888 47.9967Z" fill="#854FAB"/>
</g>
<g style="mix-blend-mode:multiply" opacity="0.32">
<path d="M53.4546 48.111C71.7592 38.6487 99.9394 39.7903 101.881 56.5774C103.001 66.1968 92.6792 74.8037 83.153 78.9033C77.816 81.1861 71.8672 82.9948 65.9988 84.0226C58.6938 85.3012 50.7526 85.3707 45.4434 82.0389C40.1342 78.7071 35.5387 72.8951 36.6729 66.0574C37.807 59.2197 45.7197 52.1238 53.474 48.1135L53.4546 48.111Z" fill="#8350AB"/>
</g>
<g style="mix-blend-mode:multiply" opacity="0.34">
<path d="M53.4005 48.2228C71.5708 38.8818 99.4153 40.0199 101.394 56.515C102.544 66.0591 92.2684 74.6125 82.8469 78.6662C77.5927 80.9201 71.6879 82.6949 65.8974 83.7326C58.5485 85.0453 50.5464 85.1267 45.2422 81.756C39.938 78.3853 35.566 72.6811 36.7316 65.9068C37.8972 59.1325 45.734 52.1653 53.4224 48.2059L53.4005 48.2228Z" fill="#8151AB"/>
</g>
<g style="mix-blend-mode:multiply" opacity="0.35">
<path d="M53.3467 48.3346C71.3854 39.0953 98.8745 40.2274 100.886 56.4696C102.065 65.9383 91.8359 74.4383 82.5193 78.4461C77.3479 80.6711 71.504 82.4339 65.7524 83.4766C58.362 84.8037 50.2965 84.9166 44.9998 81.4875C39.7031 78.0584 35.5327 72.479 36.7467 65.79C37.9607 59.101 45.7047 52.2407 53.3273 48.3321L53.3467 48.3346Z" fill="#7F52AC"/>
</g>
<g style="mix-blend-mode:multiply" opacity="0.37">
<path d="M53.2952 48.4269C71.2021 39.2894 98.3529 40.4375 100.399 56.4072C101.608 65.8006 91.4081 74.2252 82.2132 78.2091C77.1053 80.4026 71.3417 82.1559 65.6509 83.1866C58.2361 84.5502 50.0903 84.6725 44.7986 81.2045C39.5069 77.7365 35.56 72.2649 36.8249 65.6418C38.0898 59.0186 45.7385 52.2846 53.2952 48.4269V48.4269Z" fill="#7D53AC"/>
</g>
<g style="mix-blend-mode:multiply" opacity="0.38">
<path d="M53.2608 48.5412C71.014 39.5225 97.829 40.667 99.9104 56.3642C101.151 65.6628 90.995 74.0535 81.9244 77.994C76.8992 80.1586 71.199 81.8805 65.5642 82.9381C58.108 84.3161 49.8963 84.4894 44.6121 80.963C39.3278 77.4366 35.5801 72.1092 36.8959 65.552C38.2117 58.9947 45.7456 52.3844 53.2583 48.5607L53.2608 48.5412Z" fill="#7B54AC"/>
</g>
<g style="mix-blend-mode:multiply" opacity="0.39">
<path d="M53.207 48.6529C70.8284 39.736 97.3075 40.8771 99.4239 56.3018C100.694 65.525 90.5844 73.8624 81.6185 77.7569C76.6568 79.89 71.0369 81.6025 65.4629 82.6482C57.9822 84.0626 49.7097 84.2478 44.4329 80.663C39.501 77.3203 35.6296 71.8781 36.9768 65.3843C38.324 58.8904 45.782 52.4088 53.2289 48.6359L53.207 48.6529Z" fill="#7955AC"/>
</g>
<g style="mix-blend-mode:multiply" opacity="0.41">
<path d="M53.1531 48.7647C70.6403 39.9691 96.7837 41.1066 98.9155 56.2564C100.215 65.4043 90.1324 73.6857 81.2907 77.5368C76.4118 79.641 70.8528 81.3415 65.3372 82.3947C57.8151 83.8236 49.4792 84.0403 44.2075 80.4165C39.3728 77.0863 35.6131 71.698 37.0113 65.27C38.4094 58.842 45.7721 52.4867 53.1337 48.7622L53.1531 48.7647Z" fill="#7756AD"/>
</g>
<g style="mix-blend-mode:multiply" opacity="0.42">
<path d="M53.121 48.8596C70.4765 40.1657 96.2814 41.3192 98.4482 56.1965C99.777 65.269 89.741 73.497 81.0042 77.3022C76.1887 79.375 70.7099 81.066 65.2552 82.1072C57.6892 83.57 49.29 83.8181 44.0282 80.1166C39.2908 76.7988 35.6404 71.4839 37.1089 65.1243C38.5774 58.7646 45.8059 52.5306 53.121 48.8596Z" fill="#7556AD"/>
</g>
<g style="mix-blend-mode:multiply" opacity="0.44">
<path d="M53.0673 48.9713C70.269 40.3963 95.7407 41.5268 97.9399 56.1511C99.2982 65.1482 89.3085 73.3229 80.6765 77.0822C75.9438 79.126 70.5285 80.7855 65.1322 81.8342C57.5442 83.314 49.0621 83.5911 43.8053 79.8506C39.1653 76.5453 35.6461 71.2868 37.146 64.9906C38.6459 58.6943 45.7986 52.589 53.0478 48.9688L53.0673 48.9713Z" fill="#7357AD"/>
</g>
<g style="mix-blend-mode:multiply" opacity="0.45">
<path d="M53.0328 49.0857C70.1028 40.6124 95.2361 41.7588 97.4703 56.1106C98.858 65.0324 88.8953 73.1512 80.407 76.8696C75.7571 78.8845 70.4028 80.5321 65.0648 81.5883C57.4329 83.102 48.8874 83.4105 43.6406 79.5921C39.0979 76.2993 35.6905 71.0947 37.2388 64.8838C38.7871 58.6729 45.8469 52.6744 53.0328 49.0857V49.0857Z" fill="#7158AE"/>
</g>
<g style="mix-blend-mode:multiply" opacity="0.46">
<path d="M52.9788 49.1974C69.9171 40.8259 94.7121 41.9883 96.9837 56.0482C98.4008 64.8946 88.4846 72.96 80.1011 76.6325C75.5146 78.616 70.2211 80.2515 64.9635 81.2983C57.3096 82.8289 48.6813 83.1664 43.4395 79.3091C38.9746 76.0263 35.7179 70.8806 37.3171 64.7355C38.9163 58.5905 45.8613 52.7157 53.0008 49.1804L52.9788 49.1974Z" fill="#6F59AE"/>
</g>
<g style="mix-blend-mode:multiply" opacity="0.48">
<path d="M52.9469 49.2922C69.7509 41.042 94.21 42.2009 96.4971 55.9858C97.9437 64.7569 88.0739 72.7689 79.7952 76.3955C75.2915 78.35 70.0613 79.9542 64.8596 81.0278C57.1619 82.5925 48.4702 82.9613 43.2359 79.0457C38.8683 75.7753 35.7209 70.7029 37.371 64.6238C39.0211 58.5446 45.8708 52.7961 52.9444 49.3117L52.9469 49.2922Z" fill="#6D5AAE"/>
</g>
<g style="mix-blend-mode:multiply" opacity="0.49">
<path d="M52.8931 49.404C69.5459 41.253 93.6887 42.4109 96.0082 55.9428C97.4843 64.6386 87.6439 72.5752 79.4869 76.1778C75.0441 78.1204 69.8968 79.6956 64.756 80.7573C57.0338 82.3584 48.2618 82.7367 43.0349 78.7627C38.7646 75.5048 35.729 70.4864 37.43 64.4731C39.1309 58.4598 45.8853 52.8375 52.8931 49.404V49.404Z" fill="#6B5BAE"/>
</g>
<g style="mix-blend-mode:multiply" opacity="0.51">
<path d="M52.8587 49.5183C69.3773 41.4886 93.1842 42.643 95.5192 55.9C97.0442 64.5229 87.2308 72.4036 79.1981 75.9628C74.8381 77.8764 69.7517 79.4397 64.6498 80.5064C56.8862 82.1219 48.0482 82.5511 42.8289 78.5187C38.6534 75.2928 35.7515 70.3112 37.4839 64.3613C39.1349 58.7373 45.8754 52.9154 52.8367 49.5353L52.8587 49.5183Z" fill="#6A5CAF"/>
</g>
<g style="mix-blend-mode:multiply" opacity="0.52">
<path d="M52.8047 49.6301C69.1916 41.7022 92.6627 42.8531 95.0302 55.857C96.5871 64.385 86.8176 72.2319 78.8897 75.7452C74.6126 77.6299 69.587 79.1812 64.546 80.2359C56.7579 81.8878 47.8396 82.3265 42.6277 78.2357C38.5301 75.0197 35.757 70.1141 37.5598 64.2326C39.2592 58.6939 45.9068 52.9788 52.8047 49.6301V49.6301Z" fill="#685DAF"/>
</g>
<g style="mix-blend-mode:multiply" opacity="0.54">
<path d="M52.7728 49.7248C69.0254 41.9182 92.1607 43.0656 94.5462 55.7751C96.1325 64.2278 86.3899 72.0187 78.5862 75.4886C74.3725 77.3419 69.4273 78.8836 64.4447 79.9458C56.6152 81.6122 47.631 82.1019 42.4267 77.9527C38.4263 74.7492 35.765 69.8974 37.6186 64.0818C39.3445 58.6454 45.9213 53.0201 52.7534 49.7223L52.7728 49.7248Z" fill="#665EAF"/>
</g>
<g style="mix-blend-mode:multiply" opacity="0.55">
<path d="M52.7382 49.8391C68.8396 42.1318 91.6756 43.3001 94.0765 55.7346C95.6923 64.112 85.9936 71.869 78.2972 75.2736C74.1664 77.0978 69.2845 78.6081 64.3602 79.6778C56.4868 81.3782 47.4393 81.8993 42.2449 77.6722C38.3394 74.5007 35.8117 69.6858 37.6944 63.953C39.4662 58.6214 45.9331 53.081 52.7188 49.8366L52.7382 49.8391Z" fill="#645FAF"/>
</g>
<g style="mix-blend-mode:multiply" opacity="0.56">
<path d="M52.7038 49.9534C68.6734 42.3479 91.1735 43.5127 93.5875 55.6917C95.2327 63.9937 85.5804 71.6973 78.0083 75.0584C73.9408 76.8513 69.1393 78.3521 64.2734 79.4293C56.3755 81.1661 47.2452 81.7161 42.0583 77.4307C38.2306 74.2691 35.8317 69.5302 37.7872 63.8463C39.5879 58.5975 45.9815 53.1664 52.7013 49.9729L52.7038 49.9534Z" fill="#6260B0"/>
</g>
<g style="mix-blend-mode:multiply" opacity="0.58">
<path d="M52.672 50.0482C68.5074 42.564 90.6717 43.7253 93.1206 55.6318C94.8147 63.861 85.1919 71.4893 77.7221 74.824C73.7374 76.5879 68.9968 78.0768 64.1918 79.142C56.2525 80.8932 47.0368 81.4916 41.8769 77.1503C38.144 74.0207 35.8594 69.3162 37.8632 63.7176C39.7099 58.5736 46.0131 53.2298 52.667 50.0872L52.672 50.0482Z" fill="#6061B0"/>
</g>
<g style="mix-blend-mode:multiply" opacity="0.59">
<path d="M52.6374 50.1625C68.3411 42.7801 90.1865 43.9598 92.6339 55.5694C94.3575 63.7232 84.7616 71.2956 77.4185 74.5674C73.5167 76.3023 68.8369 77.7793 64.0928 78.8325C56.1291 80.6202 46.8331 81.228 41.6806 76.8283C38.0451 73.7112 35.8722 69.0606 37.9269 63.5279C39.8 58.4863 46.0129 53.2297 52.6229 50.1211L52.6374 50.1625Z" fill="#5E61B0"/>
</g>
<g style="mix-blend-mode:multiply" opacity="0.61">
<path d="M52.6031 50.2768C68.1531 43.0131 89.6846 44.1724 92.1644 55.529C93.9174 63.6074 84.368 71.1264 77.1297 74.3523C73.2913 76.0558 68.6919 77.5232 64.0061 78.584C55.9985 80.4056 46.6391 81.0449 41.5136 76.5893C37.9534 73.5016 35.9117 68.9074 38.0199 63.4211C39.9219 58.4623 46.0615 53.3151 52.6056 50.2573L52.6031 50.2768Z" fill="#5C62B1"/>
</g>
<g style="mix-blend-mode:multiply" opacity="0.62">
<path d="M52.5712 50.3715C67.9894 43.2096 89.202 44.3874 91.6779 55.4665C93.4798 63.4721 83.9574 70.9352 76.8239 74.1152C73.0683 75.7898 68.5297 77.2453 63.9049 78.294C55.8752 80.1326 46.4306 80.8203 41.315 76.2868C37.8521 73.2116 35.9417 68.6738 38.0982 63.2729C40.0462 58.4188 46.0954 53.3589 52.5737 50.3521L52.5712 50.3715Z" fill="#5A63B1"/>
</g>
<g style="mix-blend-mode:multiply" opacity="0.63">
<path d="M52.5366 50.4859C67.8206 43.4452 88.6999 44.6 91.2082 55.4261C93.0396 63.3563 83.5441 70.7636 76.5543 73.9027C72.8596 75.5653 68.4063 76.9724 63.8374 78.0481C55.7638 79.9205 46.2557 80.6397 41.1477 76.0478C37.7601 73.0021 35.9835 68.5012 38.1909 63.1661C40.1653 58.4144 46.1242 53.4418 52.556 50.4884L52.5366 50.4859Z" fill="#5864B1"/>
</g>
<g style="mix-blend-mode:multiply" opacity="0.65">
<path d="M52.5021 50.6001C67.6543 43.6613 88.2148 44.8345 90.7386 55.3857C92.6214 63.2236 83.1503 70.5944 76.2653 73.6875C72.6534 75.3212 68.2611 76.7163 63.753 77.78C55.655 79.689 46.0421 80.454 40.9635 75.7868C37.6707 72.773 36.0084 68.3065 38.2642 63.0568C40.2675 58.388 46.1531 53.5246 52.5215 50.6026L52.5021 50.6001Z" fill="#5665B1"/>
</g>
<g style="mix-blend-mode:multiply" opacity="0.66">
<path d="M52.4702 50.695C67.4712 43.8555 87.7154 45.0276 90.2547 55.3039C92.1669 63.0664 82.7422 70.3838 75.962 73.4311C72.4329 75.0358 68.1015 76.4189 63.6323 77.4876C55.4904 79.4305 45.8142 80.227 40.7456 75.4819C37.5307 72.4781 35.997 68.0875 38.3257 62.8867C40.3749 58.3227 46.1676 53.5662 52.4727 50.6756L52.4702 50.695Z" fill="#5466B2"/>
</g>
<g style="mix-blend-mode:multiply" opacity="0.68">
<path d="M52.4554 50.8118C67.3221 44.0935 87.2499 45.2646 89.8047 55.2659C91.7658 62.9556 82.3486 70.2146 75.6927 73.2184C72.227 74.7917 67.9759 76.1654 63.5676 77.2222C55.4013 79.2014 45.6422 80.0268 40.581 75.2234C37.4609 72.2515 36.0416 67.8954 38.4186 62.7799C40.4968 58.2987 46.1966 53.649 52.4554 50.8118V50.8118Z" fill="#5267B2"/>
</g>
<g style="mix-blend-mode:multiply" opacity="0.69">
<path d="M52.4233 50.9065C67.1583 44.29 86.7696 45.4602 89.318 55.2034C91.3085 62.8178 81.9377 70.0234 75.4061 72.9838C72.0232 74.5282 67.833 75.8899 63.4831 76.9541C55.2753 78.9478 45.4309 79.8216 40.3992 74.9429C37.3545 72.0004 36.0688 67.6813 38.4968 62.6317C40.6014 58.2527 46.2304 53.6928 52.4233 50.9065V50.9065Z" fill="#5068B2"/>
</g>
<g style="mix-blend-mode:multiply" opacity="0.7">
<path d="M52.4085 51.0233C67.0093 44.5281 86.3043 45.6973 88.8681 55.1656C90.9075 62.7071 81.5662 69.8373 75.1369 72.7713C71.8174 74.2843 67.7075 75.6364 63.4184 76.6887C55.1862 78.7189 45.2565 79.6411 40.2348 74.6845C37.2679 71.752 36.1109 67.5086 38.5898 62.5249C40.7208 58.2483 46.2791 53.7782 52.406 51.0428L52.4085 51.0233Z" fill="#4E69B2"/>
</g>
<g style="mix-blend-mode:multiply" opacity="0.72">
<path d="M52.3958 51.1207C66.8454 44.7247 85.8434 45.8953 88.4032 55.0861C90.4916 62.5548 81.1578 69.6266 74.8527 72.5172C71.616 74.0012 67.5475 75.3389 63.3364 76.4012C55.0602 78.4653 45.0476 79.4165 40.0554 74.3845C37.1833 71.484 36.1406 67.2751 38.6899 62.3597C40.8693 58.1684 46.3347 53.8051 52.3983 51.1012L52.3958 51.1207Z" fill="#4C6AB3"/>
</g>
<g style="mix-blend-mode:multiply" opacity="0.73">
<path d="M52.381 51.2375C66.6963 44.9628 85.378 46.1324 87.9533 55.0483C90.0736 62.4221 80.7837 69.46 74.5834 72.3047C71.4101 73.7573 67.422 75.0855 63.2717 76.1357C54.9711 78.2363 44.8537 79.2334 39.8909 74.126C37.0942 71.2549 36.1853 67.083 38.7854 62.2336C40.9912 58.1446 46.3663 53.8686 52.3835 51.218L52.381 51.2375Z" fill="#4A6BB3"/>
</g>
<g style="mix-blend-mode:multiply" opacity="0.75">
<path d="M52.3464 51.3517C66.53 45.1788 84.8953 46.3474 87.4642 55.0053C89.6334 62.3062 80.351 69.2858 74.2749 72.0871C71.1845 73.5107 67.2572 74.827 63.1678 75.8653C54.8428 78.0022 44.6426 79.0282 39.6873 73.8625C36.9659 71.0209 36.1906 66.8858 38.8392 62.1217C41.074 58.1155 46.3756 53.9489 52.3269 51.3492L52.3464 51.3517Z" fill="#486CB3"/>
</g>
<g style="mix-blend-mode:multiply" opacity="0.76">
<path d="M52.3535 51.4514C66.4054 45.3804 84.4543 46.5479 87.0361 54.9503C89.2542 62.1784 79.9987 69.1021 74.0469 71.8599C71.0393 73.2546 67.173 74.5589 63.142 75.6047C54.773 77.7756 44.4875 78.85 39.5641 73.5894C36.9375 70.7798 36.2766 66.6792 38.9954 61.9834C41.2567 58.0796 46.4875 54.0027 52.3729 51.4539L52.3535 51.4514Z" fill="#466CB3"/>
</g>
<g style="mix-blend-mode:multiply" opacity="0.77">
<path d="M52.3384 51.5682C66.2366 45.6159 84.0081 46.7875 86.5665 54.9099C88.8335 62.0651 79.605 68.9329 73.758 71.6449C70.8138 73.0081 67.0277 74.3029 63.0576 75.3367C54.6642 77.5441 44.2738 78.6644 39.3799 73.3285C36.8286 70.5482 36.2795 66.5016 39.0687 61.8742C41.3589 58.0532 46.4969 54.0831 52.3359 51.5877L52.3384 51.5682Z" fill="#446DB4"/>
</g>
<g style="mix-blend-mode:multiply" opacity="0.79">
<path d="M52.326 51.6657C66.0925 45.8151 83.5476 46.9856 86.1214 54.8331C88.4399 61.896 79.2164 68.7248 73.4936 71.3934C70.6322 72.7277 66.9071 74.0105 62.9953 75.0518C54.558 77.2931 44.0848 78.4424 39.2203 73.0311C36.7444 70.2803 36.329 66.2706 39.1691 61.7091C41.4857 57.9904 46.5529 54.1101 52.3285 51.6462L52.326 51.6657Z" fill="#426EB4"/>
</g>
<g style="mix-blend-mode:multiply" opacity="0.8">
<path d="M52.3305 51.7849C65.9627 46.0556 83.104 47.2057 85.6714 54.7951C88.0387 61.7851 78.8421 68.5581 73.2242 71.1807C70.4262 72.4836 66.7813 73.757 62.9304 74.7863C54.4687 77.064 43.8907 78.2592 39.0557 72.7726C36.6551 70.0512 36.3734 66.0784 39.2619 61.6022C41.6075 57.9664 46.6013 54.1954 52.3111 51.7824L52.3305 51.7849Z" fill="#406FB4"/>
</g>
<g style="mix-blend-mode:multiply" opacity="0.82">
<path d="M52.318 51.8822C65.8185 46.2547 82.6629 47.4063 85.2238 54.7377C87.6425 61.6354 78.4729 68.3525 72.9767 70.9512C70.2616 72.2251 66.6776 73.4865 62.8656 74.5208C54.3794 76.835 43.6966 78.076 38.913 72.4971C36.5878 69.8052 36.4399 65.8693 39.3987 61.4615C41.7707 57.9279 46.6742 54.2443 52.3375 51.8847L52.318 51.8822Z" fill="#3E70B5"/>
</g>
<g style="mix-blend-mode:multiply" opacity="0.83">
<path d="M52.3226 52.0014C65.6693 46.4927 82.2193 47.6263 84.7738 54.6997C87.3283 61.7732 78.0792 68.1833 72.7073 70.7386C70.0555 71.981 66.5519 73.233 62.8008 74.2553C54.2707 76.6034 43.4831 77.8904 38.7484 72.2386C36.4986 69.5762 36.4648 65.6747 39.4941 61.3353C41.895 57.8845 46.7251 54.3102 52.3226 52.0014Z" fill="#3C71B5"/>
</g>
<g style="mix-blend-mode:multiply" opacity="0.85">
<path d="M52.3296 52.1013C65.5446 46.6944 81.7951 47.8489 84.3456 54.6449C86.8961 61.4408 77.727 67.9997 72.4598 70.5091C69.8909 71.7226 66.4482 72.9625 62.7555 73.9923C54.2009 76.3768 43.306 77.7292 38.6032 71.9826C36.4482 69.3521 36.5288 65.4851 39.6064 61.2309C42.0338 57.8825 46.793 54.398 52.3246 52.1402L52.3296 52.1013Z" fill="#3A72B5"/>
</g>
<g style="mix-blend-mode:multiply" opacity="0.86">
<path d="M52.3339 52.2205C65.4172 46.9154 81.3709 48.0714 83.9174 54.5899C86.4639 61.1084 77.3746 67.816 72.2122 70.2795C69.7066 71.4616 66.3443 72.6921 62.7124 73.7099C54.1334 76.1308 43.1142 77.5266 38.4629 71.6877C36.3832 69.0866 36.5975 65.2565 39.7455 61.0708C42.2018 57.8052 46.8682 54.4275 52.3559 52.2036L52.3339 52.2205Z" fill="#3873B5"/>
</g>
<g style="mix-blend-mode:multiply" opacity="0.87">
<path d="M52.3408 52.3203C65.2899 47.1365 80.9491 48.2745 83.4697 54.5325C85.9903 60.7905 76.9833 67.6273 71.9452 70.0474C69.5199 71.22 66.2404 72.4216 62.6475 73.4444C54.0221 75.9187 42.9201 77.3434 38.2982 71.4291C36.2938 68.8575 36.6224 65.0619 39.8382 60.964C42.321 57.8007 46.9165 54.5128 52.3383 52.3398L52.3408 52.3203Z" fill="#3674B6"/>
</g>
<g style="mix-blend-mode:multiply" opacity="0.89">
<path d="M52.3453 52.4395C65.1431 47.355 80.5079 48.4751 83.039 54.497C85.7487 60.9771 76.6285 67.4631 71.7146 69.8398C69.3722 70.9835 66.1536 72.173 62.6216 73.1839C53.9717 75.6946 42.7429 77.1822 38.1749 71.1561C36.2264 68.6115 36.7082 64.8553 39.975 60.8232C42.4867 57.7428 47.0088 54.5642 52.3647 52.442L52.3453 52.4395Z" fill="#3475B6"/>
</g>
<g style="mix-blend-mode:multiply" opacity="0.9">
<path d="M52.3719 52.5419C65.0354 47.5786 80.1058 48.6807 82.611 54.4422C85.3915 60.8324 76.2763 67.2795 71.4698 69.5908C69.1907 70.703 66.0524 71.8831 62.5813 72.882C53.9069 75.4292 42.5539 76.9601 38.0348 70.8612C36.1617 68.346 36.7578 64.6242 40.1118 60.6825C42.6525 57.685 47.0818 54.6132 52.3913 52.5444L52.3719 52.5419Z" fill="#3276B6"/>
</g>
<g style="mix-blend-mode:multiply" opacity="0.92">
<path d="M52.3959 52.6637C64.9277 47.8022 79.7012 48.9057 82.2023 54.3897C85.0538 60.6902 75.9266 67.0764 71.2418 69.3637C69.0481 70.4276 65.9681 71.6151 62.5554 72.6215C53.8566 75.2051 42.3574 76.7964 37.9091 70.6077C36.1114 68.1219 36.8411 64.4371 40.2461 60.5613C42.8157 57.6466 47.1716 54.684 52.4153 52.6662L52.3959 52.6637Z" fill="#3077B6"/>
</g>
<g style="mix-blend-mode:multiply" opacity="0.93">
<path d="M52.4028 52.7635C64.8004 48.0232 79.2794 49.1088 81.7547 54.3323C84.677 60.5429 75.5548 66.8902 70.9748 69.1317C68.8445 70.1641 65.8448 71.3421 62.493 72.3365C53.7477 74.9735 42.1438 76.6108 37.7494 70.3103C36.027 67.854 36.8735 64.1841 40.3438 60.4156C42.9398 57.6031 47.225 54.7304 52.4053 52.744L52.4028 52.7635Z" fill="#2E77B7"/>
</g>
<g style="mix-blend-mode:multiply" opacity="0.94">
<path d="M52.4266 52.8853C64.673 48.2443 78.8966 49.3169 81.3434 54.2994C84.356 60.4227 75.1999 66.7261 70.7636 68.9266C68.7136 69.9495 65.7774 71.0961 62.4839 72.098C53.7142 74.7714 41.964 76.4691 37.6405 70.0787C35.9934 67.6519 36.9542 64.0165 40.4949 60.3163C43.1004 57.5842 47.3122 54.8208 52.4461 52.8878L52.4266 52.8853Z" fill="#2C78B7"/>
</g>
<g style="mix-blend-mode:multiply" opacity="0.96">
<path d="M52.4532 52.9875C64.5678 48.4484 78.497 49.503 80.9154 54.2444C84.0013 60.2584 74.8477 66.5423 70.5162 68.697C68.5296 69.6884 65.6737 70.8256 62.4411 71.8155C53.6444 74.5448 41.77 76.2859 37.5004 69.7838C35.9092 67.3839 37.0232 63.7879 40.6342 60.1561C43.2687 57.5068 47.4071 54.8527 52.4556 52.9681L52.4532 52.9875Z" fill="#2A79B7"/>
</g>
<g style="mix-blend-mode:multiply" opacity="0.97">
<path d="M52.4772 53.1093C64.4576 48.6915 78.0924 49.7281 80.5043 54.2115C83.6831 60.1187 74.493 66.3782 70.2857 68.4894C68.3819 69.4519 65.587 70.5771 62.3933 71.572C53.5722 74.3377 41.5515 76.1392 37.3528 69.5473C35.8395 67.1573 37.0678 63.5958 40.7441 60.0713C43.4075 57.5049 47.4726 54.96 52.4552 53.1263L52.4772 53.1093Z" fill="#287AB7"/>
</g>
<g style="mix-blend-mode:multiply" opacity="0.99">
<path d="M52.5815 53.2216C64.4301 48.9055 77.7705 49.9241 80.1565 54.1471C83.4281 59.9475 74.2235 66.1655 70.1186 68.2503C68.2782 69.1814 65.5636 70.2971 62.4308 71.2801C53.5827 74.1017 41.3988 75.9415 37.2929 69.2428C35.855 66.8823 37.217 63.3577 40.9443 59.8991C43.6366 57.4155 47.6088 54.9775 52.5476 53.1777L52.5815 53.2216Z" fill="#267BB8"/>
</g>
<g style="mix-blend-mode:multiply">
<path d="M62.3633 71.0341C53.4908 73.8921 41.1607 75.7924 37.1257 69.0038C34.7681 65.0219 40.8325 57.5307 52.5469 53.3359C64.2419 49.1386 77.3292 50.1248 79.6868 54.1067C83.0512 59.8003 73.8297 65.9964 69.849 68.0377C68.0915 68.9399 65.4377 70.0436 62.3633 71.0341Z" fill="#247CB8"/>
</g>
</g>
<path d="M7.5386 48.295C7.47624 48.01 7.4114 47.7446 7.34654 47.4791C6.81176 45.0168 6.4756 42.0855 6.60555 38.759C6.63509 37.1406 6.83434 34.9702 7.42432 32.3753C7.56508 31.7405 7.7328 31.0499 7.93943 30.3642C7.98135 30.1916 8.04276 30.0214 8.08219 29.8682C8.08968 29.8098 8.1191 29.7345 8.14605 29.6786C8.20993 29.489 8.25434 29.2968 8.31572 29.1267C8.61569 28.176 8.96907 27.2718 9.31743 26.4065C9.43272 26.1245 9.54802 25.8426 9.68277 25.5631L9.73664 25.4513C9.82249 25.2447 9.90584 25.0576 10.0086 24.873C10.7463 23.2861 11.5562 21.9063 12.3877 20.6677C12.5369 20.4297 12.7056 20.1942 12.8742 19.9587C12.9476 19.8494 13.0185 19.7595 13.0893 19.6697C13.1602 19.5799 13.2116 19.4876 13.2849 19.3783L13.3803 19.252C13.3803 19.252 13.4511 19.1622 13.4781 19.1063C13.527 19.0335 13.5978 18.9436 13.6687 18.8538C14.8125 17.3388 15.7822 16.2565 16.6271 15.3757C16.649 15.3587 16.6735 15.3223 16.6954 15.3053L16.6904 15.3442C16.7418 15.2519 16.8321 15.1646 16.9224 15.0773C17.2643 14.7255 17.6915 14.3253 18.1161 13.9445C18.3432 13.7165 18.5873 13.5104 18.7874 13.3382C19.3438 12.8557 20.1198 12.2035 20.7296 11.7673C21.0176 11.5273 21.3199 11.3288 21.6029 11.1277L21.6418 11.1327C21.8199 10.9775 21.9931 10.8612 22.1443 10.7619C22.3614 10.6117 22.576 10.4809 22.793 10.3307C23.4418 9.89961 24.1294 9.47349 24.873 9.0743C25.4508 8.73299 26.0432 8.43305 26.6745 8.13815C29.8188 6.60277 33.1343 5.58392 36.6064 5.04014C38.3863 4.73431 40.5041 4.57075 42.811 4.62925L43.064 4.6617L43.069 4.62274C43.7187 4.64672 44.3295 4.66576 44.9937 4.73117C45.4438 4.76912 45.9523 4.81451 46.3999 4.87192C46.3999 4.87192 46.3998 4.87192 46.4193 4.87441L46.5555 4.89189C47.2756 4.98424 47.6064 5.02672 48.1464 5.13553L48.3215 5.158C48.9198 5.2743 49.326 5.34618 49.844 5.47196C50.1698 5.55332 50.5151 5.63716 50.8409 5.71852L50.8993 5.72601C51.3394 5.8418 51.7601 5.95511 52.1977 6.09037L52.2561 6.09786C52.6353 6.22563 52.9976 6.33142 53.3769 6.45919C53.6418 6.55252 53.8873 6.64335 54.1523 6.73668C54.2471 6.76862 54.3419 6.80056 54.4562 6.835C57.0424 7.79975 58.9835 8.85983 60.1566 9.58398C60.2854 9.65984 60.3777 9.71121 60.4311 9.75762C60.9825 10.0855 61.4755 10.4059 61.8761 10.6749C62.0024 10.7702 62.1311 10.8461 62.2768 10.9439L62.3158 10.9489L62.3497 10.9928C63.0029 11.4525 63.8187 12.0319 64.8186 12.8723C69.5225 16.7595 73.0402 21.7211 75.1417 27.3912C75.1995 27.5569 75.2574 27.7226 75.3153 27.8882L75.3468 27.9516C75.6701 28.8239 75.9689 29.7327 76.1659 30.5097L76.2069 30.6534C76.3655 31.2672 76.5336 31.9614 76.6823 32.6531C76.7087 32.7554 76.7326 32.8772 76.7591 32.9795L76.8115 33.3423C76.8594 33.5858 76.9073 33.8293 76.9357 34.0703C77.0384 34.6572 77.1243 35.2221 77.1786 35.7236C77.238 36.1862 77.2803 36.6269 77.3033 37.0651L77.3222 37.2257C77.3412 37.3864 77.3432 37.5252 77.3621 37.6859C77.3711 37.9244 77.3995 38.1654 77.4084 38.4039L77.396 38.5013C77.715 44.4967 76.4891 50.3533 73.8046 55.7063C73.7287 55.835 73.6698 55.9857 73.594 56.1145C73.567 56.1704 73.5376 56.2457 73.5106 56.3016C73.4053 56.5057 73.3025 56.6904 73.2022 56.8555C70.935 61.1147 67.9182 64.5853 64.6191 67.3274C58.9626 72.1013 52.5637 74.6436 46.4219 75.1813L46.2613 75.2002C45.9788 75.2431 45.6794 75.2641 45.38 75.285C45.2608 75.2895 45.139 75.3135 45.0392 75.3205C44.8785 75.3394 44.7203 75.3389 44.5791 75.3603C44.3795 75.3743 44.2189 75.3933 44.0412 75.3903L44.0217 75.3878C43.3037 75.4342 42.8485 75.4351 42.8096 75.4301C42.2133 75.4525 41.8191 75.4415 41.1694 75.4176L41.0527 75.4026C41.0527 75.4026 40.9528 75.4096 40.9139 75.4046L40.7777 75.3871C40.5197 75.3936 40.2447 75.3781 39.9698 75.3626L39.853 75.3477L39.381 75.3267L39.3226 75.3192C38.8505 75.2982 38.2278 75.2183 37.7218 75.1534L37.7024 75.1509C37.7024 75.1509 37.605 75.1384 37.5661 75.1334L37.2353 75.091C36.7098 75.0236 36.3984 74.9837 35.9169 74.8824C35.878 74.8774 35.8196 74.8699 35.7807 74.8649L35.7612 74.8624C35.4304 74.82 35.1045 74.7386 34.7592 74.6547C34.623 74.6373 34.4893 74.6003 34.3555 74.5634C34.1999 74.5434 34.0467 74.504 33.8935 74.4646C33.7378 74.4446 33.5481 74.3807 33.3755 74.3388C32.7043 74.1736 32.0552 73.9914 31.4474 73.7947L31.4084 73.7897C27.9684 72.6957 25.4151 71.3198 23.965 70.4414C23.8363 70.3655 23.7439 70.3141 23.6905 70.2677C23.3068 70.0207 22.9401 69.7956 22.5758 69.5511C22.4666 69.4777 22.3573 69.4043 22.248 69.3309C21.8084 69.0569 21.1213 68.5534 20.3663 67.962C18.9073 66.8451 17.5606 65.6239 16.3795 64.3448C16.1879 64.1422 16.0133 63.9616 15.8606 63.7639C15.7393 63.6297 15.6011 63.4735 15.4629 63.3173C12.8343 60.3689 11.1473 57.4819 10.0671 55.1079C9.97284 54.9178 9.89803 54.7302 9.80373 54.54L9.75534 54.4547C8.76944 52.2709 8.10688 50.1879 7.64093 48.2686L7.61446 48.1662L7.5386 48.295Z" fill="url(#paint0_radial_40_896)"/>
<defs>
<radialGradient id="paint0_radial_40_896" cx="0" cy="0" r="1" gradientUnits="userSpaceOnUse" gradientTransform="translate(18.7017 36.5268) rotate(-144.73) scale(42.7669 42.7683)">
<stop offset="0.02" stop-color="#BCDEE7"/>
<stop offset="0.46" stop-color="#BDDEE7"/>
<stop offset="0.64" stop-color="#C5E2EA"/>
<stop offset="0.77" stop-color="#D1E8EE"/>
<stop offset="0.88" stop-color="#E2F1F4"/>
<stop offset="0.97" stop-color="#F9FCFC"/>
<stop offset="0.99" stop-color="white"/>
</radialGradient>
</defs>
</svg>
