<svg width="198" height="212" viewBox="0 0 198 212" fill="none" xmlns="http://www.w3.org/2000/svg">
<path d="M141.909 87.3623C142.564 86.5759 143.199 85.7869 143.796 84.993C144.199 84.471 144.58 83.966 144.964 83.4415C145.179 83.1526 145.375 82.8612 145.587 82.5917C146.167 81.7758 146.707 80.955 147.248 80.1341C147.321 80.0248 147.394 79.9155 147.468 79.8062C147.59 79.624 147.671 79.4564 147.793 79.2743C148.392 78.3027 148.972 77.3286 149.535 76.3325C149.763 75.9463 149.954 75.5356 150.165 75.1274C150.581 74.3499 150.978 73.57 151.355 72.7875C151.597 72.2845 151.842 71.762 152.065 71.2565C152.313 70.7145 152.541 70.1701 152.769 69.6257C152.997 69.0812 153.206 68.5343 153.414 67.9874C153.623 67.4405 153.832 66.8935 154.023 66.3246C154.213 65.7752 154.382 65.2233 154.571 64.6739C154.741 64.1219 154.911 63.57 155.08 63.0181C155.231 62.4637 155.381 61.9092 155.512 61.3523C155.642 60.7954 155.793 60.241 155.904 59.6816C156.008 59.1805 156.114 58.6601 156.199 58.1566C156.33 57.4415 156.439 56.7433 156.551 56.0257C156.613 55.5391 156.676 55.0526 156.738 54.566C156.828 53.8654 156.881 53.1403 156.913 52.4322C156.944 51.8823 156.992 51.3542 157.003 50.8018C157.021 50.5074 157.017 50.2299 157.016 49.933C157.018 49.142 157.002 48.3486 156.982 47.5746C156.968 47.3749 156.976 47.1584 156.962 46.9588C156.944 46.6399 156.886 46.316 156.87 45.9777C156.788 45.0769 156.703 44.1956 156.58 43.3093C156.456 42.4231 156.31 41.5537 156.123 40.6989C156.011 40.1898 155.876 39.6978 155.741 39.2057C155.515 38.3459 155.27 37.4835 154.98 36.6551C154.985 36.6162 154.951 36.5723 154.954 36.5528C154.665 35.7244 154.351 34.9324 154.015 34.1574C153.926 33.9283 153.814 33.7163 153.706 33.4847C153.462 32.9193 153.174 32.3878 152.908 31.8393C152.796 31.6272 152.685 31.4152 152.574 31.2031C152.189 30.5009 151.766 29.7938 151.337 29.1255C150.911 28.4378 150.438 27.8036 149.946 27.1668C149.624 26.7496 149.302 26.3324 148.957 25.9321L156.342 34.6735C156.616 35.0054 156.91 35.3398 157.162 35.6886C157.212 35.7545 157.261 35.8398 157.312 35.9057C157.784 36.54 158.257 37.1743 158.705 37.845C159.15 38.5352 159.555 39.2398 159.939 39.942C159.988 40.0273 160.038 40.0932 160.067 40.176C160.13 40.3028 160.191 40.449 160.273 40.5783C160.561 41.1097 160.827 41.6582 161.071 42.2236C161.131 42.3698 161.214 42.4991 161.274 42.6453C161.303 42.7282 161.329 42.8305 161.378 42.9158C161.713 43.6908 162.025 44.5023 162.317 45.3112C162.317 45.3112 162.326 45.3915 162.343 45.4135C162.632 46.2419 162.878 47.1043 163.104 47.9641C163.128 48.0859 163.174 48.1907 163.198 48.3124C163.287 48.6997 163.375 49.0869 163.464 49.4742C163.63 50.1878 163.754 50.9159 163.878 51.644C163.9 51.7853 163.899 51.9435 163.921 52.0847C164.044 52.971 164.148 53.8547 164.211 54.753C164.237 55.0135 164.285 55.257 164.292 55.515C164.282 55.5929 164.294 55.6538 164.303 55.7341C164.317 55.9338 164.309 56.1503 164.323 56.3499C164.362 57.1264 164.379 57.9199 164.357 58.7084C164.358 59.0053 164.343 59.2803 164.344 59.5772C164.334 59.8133 164.343 60.0518 164.332 60.2878C164.314 60.5822 164.274 60.8936 164.254 61.2075C164.203 61.9132 164.152 62.6188 164.079 63.3414C164.017 63.8279 163.954 64.3145 163.892 64.801C163.802 65.5017 163.671 66.2168 163.539 66.9319C163.502 67.2238 163.467 67.4963 163.391 67.7833C163.363 67.9973 163.275 68.2234 163.225 68.4545C163.114 69.0139 162.964 69.5683 162.833 70.1252C162.702 70.6821 162.552 71.2365 162.402 71.7909C162.252 72.3454 162.082 72.8973 161.893 73.4467C161.723 73.9986 161.534 74.548 161.345 75.0975C161.156 75.6469 160.947 76.1938 160.738 76.7408C160.53 77.2877 160.321 77.8347 160.093 78.3791C159.865 78.9235 159.617 79.4655 159.389 80.0099C159.247 80.3477 159.107 80.6661 158.965 81.0039C158.882 81.1911 158.779 81.3757 158.676 81.5603C158.299 82.3428 157.902 83.1228 157.486 83.9003C157.275 84.3085 157.067 84.6972 156.857 85.1054C156.316 86.0845 155.733 87.078 155.114 88.0471C155.017 88.1928 154.936 88.3605 154.838 88.5062L154.789 88.5791C154.716 88.6884 154.642 88.7976 154.569 88.9069C154.048 89.7303 153.488 90.5487 152.909 91.3646C152.713 91.656 152.498 91.945 152.285 92.2144C152.046 92.5398 151.826 92.8676 151.586 93.193C151.442 93.3921 151.259 93.5862 151.114 93.7853C150.499 94.5768 149.863 95.3657 149.228 96.1546C149.018 96.4046 148.849 96.6402 148.639 96.8902C148.546 96.9969 148.434 97.1012 148.339 97.2275C147.76 97.8852 147.162 98.5404 146.563 99.1956C146.309 99.4796 146.053 99.7829 145.779 100.064C145.664 100.188 145.55 100.312 145.415 100.433L138.031 91.6917C138.419 91.2865 138.788 90.8789 139.159 90.4517C139.757 89.7965 140.356 89.1413 140.935 88.4836C141.238 88.1268 141.521 87.7675 141.824 87.4107L141.909 87.3623Z" fill="url(#paint0_linear_40_997)"/>
<path d="M136.497 184.769C137.219 184.387 137.943 183.985 138.667 183.583C138.945 183.421 139.243 183.261 139.52 183.099C140.484 182.53 141.427 181.959 142.354 181.366C142.417 181.334 142.464 181.281 142.527 181.249C143.39 180.688 144.237 180.104 145.083 179.52C145.366 179.319 145.649 179.118 145.934 178.897C146.547 178.442 147.157 178.006 147.752 177.528C148.059 177.29 148.347 177.05 148.655 176.813C149.272 176.318 149.889 175.824 150.49 175.307C150.734 175.101 150.978 174.895 151.224 174.67C152.071 173.928 152.92 173.166 153.731 172.4C153.843 172.295 153.958 172.172 154.073 172.048C154.817 171.332 155.542 170.614 156.25 169.874C156.478 169.646 156.685 169.416 156.915 169.168C157.784 168.251 158.617 167.309 159.43 166.365C160.366 165.239 161.263 164.108 162.121 162.971C162.287 162.755 162.453 162.539 162.619 162.323C162.908 161.925 163.199 161.507 163.487 161.109C163.729 160.764 163.993 160.402 164.235 160.058C164.526 159.64 164.798 159.22 165.069 158.8C165.289 158.472 165.509 158.144 165.71 157.813C166.383 156.733 167.016 155.647 167.631 154.558C167.761 154.318 167.89 154.077 168.018 153.856C168.617 152.726 169.217 151.597 169.742 150.437L169.747 150.399C170.202 149.468 170.602 148.51 170.98 147.57C171.095 147.288 171.213 146.986 171.328 146.704C171.598 145.987 171.868 145.27 172.116 144.57C172.212 144.285 172.33 143.984 172.406 143.697C172.726 142.749 173.009 141.776 173.27 140.821L173.277 140.762C173.56 139.79 173.785 138.81 173.99 137.827C174.042 137.577 174.094 137.326 174.146 137.076C174.356 136.054 174.527 135.028 174.66 133.996C174.677 133.86 174.694 133.724 174.712 133.587C174.854 132.478 174.938 131.361 175.003 130.242C175.028 129.889 175.032 129.553 175.055 129.22C175.066 128.826 175.077 128.431 175.068 128.035C175.062 127.618 175.054 127.222 175.045 126.825C175.037 126.428 175.026 126.051 174.998 125.652C174.977 125.352 174.956 125.053 174.935 124.753C174.846 123.595 174.736 122.453 174.545 121.321C174.425 120.554 174.284 119.803 174.121 119.07C174.008 118.561 173.876 118.05 173.741 117.558C173.515 116.698 173.27 115.836 172.978 115.027C172.983 114.988 172.949 114.944 172.952 114.924C172.662 114.096 172.348 113.304 172.013 112.529C171.923 112.3 171.812 112.088 171.703 111.856C171.44 111.288 171.174 110.74 170.886 110.208C170.775 109.996 170.663 109.784 170.552 109.572C170.168 108.87 169.744 108.163 169.315 107.495C168.87 106.804 168.397 106.17 167.925 105.536C167.602 105.119 167.28 104.701 166.936 104.301L174.321 113.043C174.614 113.377 174.885 113.728 175.159 114.06C175.21 114.126 175.259 114.211 175.309 114.277C175.782 114.912 176.255 115.546 176.703 116.217C177.129 116.904 177.552 117.611 177.937 118.314C177.985 118.399 178.036 118.465 178.065 118.548C178.148 118.677 178.188 118.821 178.268 118.969C178.556 119.501 178.822 120.049 179.066 120.615C179.126 120.761 179.209 120.89 179.269 121.036C179.298 121.119 179.344 121.224 179.373 121.307C179.709 122.082 180.02 122.893 180.312 123.702C180.312 123.702 180.321 123.783 180.338 123.805C180.628 124.633 180.873 125.495 181.099 126.355C181.123 126.477 181.169 126.582 181.193 126.703C181.282 127.091 181.39 127.48 181.479 127.868C181.642 128.601 181.786 129.331 181.907 130.079L181.902 130.118C182.093 131.25 182.204 132.392 182.293 133.551C182.295 133.689 182.319 133.811 182.343 133.933C182.359 134.113 182.359 134.271 182.356 134.449C182.386 134.829 182.395 135.226 182.403 135.622C182.409 136.038 182.417 136.435 182.423 136.851C182.412 137.246 182.421 137.642 182.41 138.037C182.402 138.253 182.411 138.492 182.403 138.708C182.388 138.825 182.37 138.961 182.355 139.078C182.291 140.197 182.21 141.295 182.065 142.424C182.047 142.56 182.03 142.696 182.01 142.852C181.878 143.883 181.706 144.91 181.496 145.931C181.476 146.087 181.459 146.223 181.439 146.379C181.424 146.496 181.392 146.59 181.357 146.705C181.152 147.687 180.928 148.667 180.664 149.642L180.657 149.701C180.396 150.657 180.096 151.607 179.774 152.575C179.678 152.859 179.58 153.163 179.464 153.445C179.214 154.165 178.946 154.862 178.676 155.579C178.561 155.861 178.443 156.163 178.328 156.445C177.95 157.385 177.533 158.321 177.117 159.257L177.109 159.315C176.565 160.472 175.985 161.604 175.385 162.734C175.255 162.974 175.125 163.215 174.996 163.455C174.381 164.544 173.747 165.63 173.075 166.711C173.048 166.766 172.999 166.839 172.972 166.895C172.798 167.17 172.605 167.442 172.429 167.736C172.157 168.156 171.886 168.576 171.617 168.977C171.372 169.341 171.13 169.686 170.866 170.048C170.578 170.446 170.287 170.863 169.999 171.262C169.925 171.371 169.854 171.461 169.781 171.57C169.688 171.677 169.593 171.803 169.5 171.91C168.64 173.066 167.743 174.197 166.81 175.304C165.994 176.267 165.144 177.187 164.272 178.124C164.157 178.247 164.064 178.354 163.95 178.478C163.835 178.602 163.723 178.706 163.608 178.83C162.9 179.57 162.175 180.288 161.43 181.003C161.34 181.091 161.249 181.178 161.157 181.285C161.135 181.302 161.11 181.338 161.088 181.355C160.278 182.122 159.428 182.883 158.582 183.625C158.513 183.695 158.447 183.746 158.379 183.817C158.201 183.972 158.025 184.108 157.847 184.263C157.247 184.779 156.649 185.276 156.031 185.771C155.878 185.89 155.744 186.011 155.59 186.13C155.436 186.248 155.282 186.367 155.129 186.486C154.536 186.944 153.924 187.4 153.333 187.838C153.136 187.991 152.938 188.144 152.743 188.277C152.655 188.345 152.57 188.393 152.482 188.461C151.655 189.047 150.789 189.629 149.926 190.19C149.882 190.224 149.819 190.256 149.775 190.29C148.845 190.903 147.902 191.474 146.939 192.043C146.853 192.091 146.768 192.14 146.68 192.208C146.488 192.321 146.275 192.432 146.063 192.544C145.359 192.948 144.635 193.35 143.894 193.729C143.723 193.826 143.552 193.923 143.382 194.02C143.233 194.1 143.065 194.177 142.919 194.237C142.051 194.68 141.166 195.101 140.262 195.519C140.094 195.596 139.945 195.676 139.796 195.756L139.482 195.893C138.183 196.459 136.908 196.988 135.639 197.478C135.473 197.536 135.324 197.616 135.159 197.673C134.93 197.763 134.703 197.833 134.474 197.922C134.038 198.084 133.582 198.243 133.146 198.404C132.669 198.581 132.194 198.737 131.699 198.891C131.265 199.034 130.812 199.173 130.379 199.315C130.152 199.385 129.926 199.455 129.699 199.525C129.514 199.58 129.329 199.636 129.124 199.689C128.364 199.908 127.604 200.127 126.847 200.326C126.52 200.403 126.211 200.502 125.885 200.579C124.823 200.838 123.783 201.081 122.748 201.284L122.709 201.279C122.709 201.279 122.646 201.311 122.607 201.306C121.328 201.557 120.074 201.772 118.806 201.946C118.543 201.991 118.282 202.017 118.039 202.065C116.79 202.241 115.546 202.378 114.326 202.479C114.085 202.507 113.866 202.519 113.627 202.528C112.469 202.617 111.313 202.686 110.161 202.716C110.023 202.718 109.903 202.723 109.765 202.725C108.536 202.745 107.328 202.749 106.126 202.713C105.871 202.7 105.613 202.707 105.357 202.694C104.175 202.661 102.978 202.586 101.822 202.497C101.666 202.477 101.511 202.457 101.355 202.438C100.26 202.337 99.1847 202.238 98.1144 202.101C97.9198 202.076 97.7057 202.049 97.5111 202.024C96.3629 201.876 95.2391 201.693 94.1154 201.509C93.8819 201.479 93.6508 201.43 93.4003 201.378C92.2596 201.172 91.1214 200.947 90.0051 200.705L89.9467 200.697C88.833 200.436 87.7387 200.177 86.6469 199.898C86.4158 199.849 86.2067 199.782 85.9757 199.733C84.9034 199.457 83.8555 199.145 82.827 198.835C82.6374 198.771 82.4478 198.707 82.2362 198.66C81.2662 198.358 80.2961 198.055 79.3286 197.733C79.2143 197.699 79.1 197.664 78.9688 197.608C77.9454 197.259 76.9244 196.891 75.9229 196.525C75.7163 196.439 75.4878 196.37 75.2812 196.284C74.2992 195.921 73.3197 195.538 72.3427 195.136C72.2309 195.082 72.0971 195.045 71.9854 194.991C71.0837 194.618 70.182 194.245 69.2998 193.875C69.1321 193.794 68.962 193.733 68.8113 193.674C67.8732 193.277 66.9765 192.865 66.0603 192.451C65.8537 192.365 65.6692 192.262 65.4626 192.176C64.5464 191.762 63.6522 191.331 62.7555 190.919C49.1845 184.45 38.2831 177.216 37.0811 176.409L13.2147 160.45L5.8299 151.709L29.6964 167.668C30.8984 168.475 41.7998 175.709 55.3708 182.178C56.2455 182.606 57.1617 183.021 58.0778 183.435C58.2844 183.521 58.469 183.623 58.6756 183.709C59.5723 184.121 60.4909 184.516 61.4266 184.933C61.5942 185.013 61.7449 185.072 61.9151 185.134C62.7973 185.504 63.6965 185.896 64.6006 186.25C64.7124 186.304 64.8462 186.34 64.9579 186.394C65.918 186.775 66.8975 187.158 67.8965 187.543C68.1031 187.629 68.3316 187.697 68.5382 187.783C69.5397 188.149 70.5606 188.518 71.584 188.866C71.6983 188.901 71.8126 188.935 71.9269 188.97C72.8944 189.292 73.8619 189.614 74.8515 189.919C75.0411 189.982 75.2307 190.046 75.4228 190.091C76.4707 190.403 77.5211 190.696 78.591 190.992C78.8026 191.039 79.0311 191.107 79.2427 191.154C80.3345 191.433 81.4263 191.711 82.5425 191.953L82.6009 191.961C83.7147 192.222 84.8554 192.428 85.9961 192.634C86.2296 192.664 86.4607 192.713 86.6917 192.763C87.8155 192.946 88.9392 193.13 90.0874 193.277C90.282 193.302 90.4766 193.327 90.6712 193.352C91.7416 193.489 92.8339 193.61 93.9312 193.691C94.0869 193.711 94.2426 193.731 94.3983 193.751C95.5734 193.842 96.7536 193.895 97.9532 193.95C98.2087 193.963 98.4667 193.956 98.7222 193.969C99.9243 194.005 101.131 194.001 102.36 193.981C102.499 193.979 102.618 193.974 102.757 193.972C103.908 193.942 105.065 193.873 106.223 193.784C106.462 193.775 106.683 193.744 106.922 193.735C108.141 193.634 109.385 193.497 110.634 193.321C110.895 193.295 111.158 193.25 111.401 193.202C112.65 193.026 113.924 192.813 115.202 192.562C115.241 192.567 115.283 192.552 115.344 192.54C116.379 192.337 117.438 192.097 118.5 191.837C118.807 191.758 119.133 191.681 119.44 191.602C120.198 191.402 120.955 191.203 121.737 190.967C122.149 190.841 122.558 190.736 122.972 190.591C123.406 190.449 123.859 190.309 124.292 190.167C124.767 190.01 125.243 189.853 125.72 189.677C126.156 189.516 126.612 189.357 127.048 189.195C127.443 189.048 127.818 188.898 128.213 188.751C129.482 188.261 130.776 187.734 132.075 187.169C132.348 187.046 132.602 186.92 132.875 186.797C133.779 186.379 134.664 185.958 135.531 185.515C135.87 185.341 136.187 185.184 136.526 185.01L136.497 184.769Z" fill="url(#paint1_linear_40_997)"/>
<path d="M174.167 119.017C170.407 101.917 156.075 91.9685 138.116 91.6433C152.288 76.923 159.783 57.5085 156.084 40.6939C150.637 15.9201 122.95 6.15717 94.233 18.9131C63.2938 32.65 45.3632 62.0218 33.2005 86.0602C24.883 102.481 19.0771 117.364 18.4318 119.003L5.85737 151.495L29.7238 167.454C30.9259 168.261 41.8272 175.495 55.3983 181.964C75.1219 191.358 101.653 200.418 132.066 186.93C160.78 174.194 179.617 143.771 174.167 119.017V119.017Z" fill="url(#paint2_linear_40_997)"/>
<path style="mix-blend-mode:overlay" d="M174.167 119.017C170.407 101.917 156.075 91.9685 138.116 91.6433C152.288 76.923 159.783 57.5085 156.084 40.6939C150.637 15.9201 122.95 6.15717 94.233 18.9131C63.2938 32.65 45.3632 62.0218 33.2005 86.0602C24.883 102.481 19.0771 117.364 18.4318 119.003L5.85737 151.495L29.7238 167.454C30.9259 168.261 41.8272 175.495 55.3983 181.964C75.1219 191.358 101.653 200.418 132.066 186.93C160.78 174.194 179.617 143.771 174.167 119.017V119.017ZM131.433 185.544C101.605 198.79 75.4723 189.86 56.0476 180.603C41.993 173.894 30.6865 166.272 30.5577 166.196L7.71369 150.902L19.8465 119.54C21.3532 115.658 26.9 101.869 34.5368 86.7459C46.5942 62.9117 64.3486 33.8338 94.8272 20.295C110.2 13.4834 125.811 12.993 137.641 19.001C146.519 23.5027 152.367 31.1172 154.557 41.0321C156.116 48.1559 155.626 56.1444 153.118 64.1313C150.148 73.5624 144.584 82.7004 136.985 90.5883C136.824 90.7655 136.699 90.9671 136.63 91.1956C136.527 91.5385 136.541 91.8963 136.676 92.2301C136.9 92.793 137.447 93.1598 138.058 93.1788C155.917 93.511 169.17 103.539 172.66 119.358C174.219 126.482 173.728 134.47 171.22 142.457C165.479 160.692 150.245 177.215 131.43 185.563L131.433 185.544Z" fill="url(#paint3_linear_40_997)"/>
<defs>
<linearGradient id="paint0_linear_40_997" x1="171.087" y1="35.7036" x2="130.041" y2="82.8727" gradientUnits="userSpaceOnUse">
<stop offset="0.12" stop-color="#FF6560"/>
<stop offset="0.16" stop-color="#FA605A"/>
<stop offset="0.21" stop-color="#EE514C"/>
<stop offset="0.27" stop-color="#D93933"/>
<stop offset="1" stop-color="#9E1D17"/>
</linearGradient>
<linearGradient id="paint1_linear_40_997" x1="26.8969" y1="197.987" x2="185.495" y2="113.698" gradientUnits="userSpaceOnUse">
<stop stop-color="#FF6560"/>
<stop offset="0.04" stop-color="#FA605A"/>
<stop offset="0.08" stop-color="#EE514C"/>
<stop offset="0.11" stop-color="#DA3A34"/>
<stop offset="0.12" stop-color="#D93933"/>
<stop offset="0.16" stop-color="#CA322C"/>
<stop offset="0.26" stop-color="#B1261F"/>
<stop offset="0.35" stop-color="#A21F18"/>
<stop offset="0.42" stop-color="#9D1D16"/>
<stop offset="0.86" stop-color="#AC1F18"/>
<stop offset="0.88" stop-color="#B2241D"/>
<stop offset="0.91" stop-color="#C6342E"/>
<stop offset="0.94" stop-color="#E54F49"/>
<stop offset="0.96" stop-color="#FF6560"/>
</linearGradient>
<linearGradient id="paint2_linear_40_997" x1="21.1498" y1="62.7273" x2="176.159" y2="138.726" gradientUnits="userSpaceOnUse">
<stop stop-color="#FCA690"/>
<stop offset="0.33" stop-color="#F18574"/>
<stop offset="1" stop-color="#D93933"/>
</linearGradient>
<linearGradient id="paint3_linear_40_997" x1="168.232" y1="80.2567" x2="-18.3531" y2="157.01" gradientUnits="userSpaceOnUse">
<stop stop-color="white"/>
<stop offset="0.02" stop-color="white" stop-opacity="0.97"/>
<stop offset="0.5" stop-color="white" stop-opacity="0.46"/>
<stop offset="0.82" stop-color="white" stop-opacity="0.13"/>
<stop offset="0.97" stop-color="white" stop-opacity="0"/>
</linearGradient>
</defs>
</svg>
