<svg width="90" height="96" viewBox="0 0 90 96" fill="none" xmlns="http://www.w3.org/2000/svg">
<path d="M64.3901 40.0193C64.6931 39.6625 64.974 39.3228 65.2575 38.9635C65.4456 38.7304 65.6143 38.4949 65.783 38.2593C65.8783 38.1331 65.9736 38.0068 66.0689 37.8805C66.3329 37.5188 66.5774 37.1545 66.822 36.7902C66.8489 36.7343 66.8929 36.7004 66.9198 36.6445C66.9687 36.5716 67.0201 36.4793 67.069 36.4064C67.343 35.9668 67.617 35.5272 67.8715 35.0851C67.9743 34.9005 68.0551 34.7328 68.1579 34.5482C68.3416 34.1959 68.5253 33.8436 68.7089 33.4913C68.8167 33.2677 68.927 33.0247 69.0348 32.8011C69.1451 32.5581 69.2554 32.315 69.3657 32.072C69.476 31.829 69.5668 31.5834 69.6577 31.3379C69.7485 31.0924 69.8588 30.8493 69.9302 30.6013C70.021 30.3558 70.0924 30.1079 70.1832 29.8624C70.274 29.6168 70.3454 29.3688 70.4168 29.1208C70.4882 28.8728 70.5595 28.6247 70.6309 28.3767C70.7023 28.1287 70.7542 27.8781 70.8256 27.6301C70.875 27.3991 70.9244 27.1681 70.9713 26.9565C71.0307 26.6476 71.0926 26.3193 71.1326 26.0079C71.16 25.7938 71.19 25.5602 71.2174 25.3461C71.2574 25.0347 71.2998 24.7039 71.3008 24.3875C71.3308 24.1539 71.3438 23.8984 71.3543 23.6624C71.3717 23.5261 71.3673 23.4069 71.3653 23.2681C71.3713 22.9128 71.3773 22.5575 71.3638 22.1997C71.3763 22.1024 71.3668 22.0221 71.3599 21.9222C71.3579 21.7835 71.3389 21.6229 71.3175 21.4817C71.2895 21.0824 71.2422 20.6806 71.1948 20.2789C71.1474 19.8772 71.0781 19.4924 70.9893 19.1051C70.9389 18.8811 70.8885 18.6571 70.8187 18.4305C70.7299 18.0433 70.6216 17.6535 70.4914 17.2807L70.4964 17.2418C70.3467 16.8665 70.214 16.5131 70.0618 16.1573C70.0159 16.0525 69.97 15.9478 69.9241 15.843C69.8178 15.592 69.6921 15.3384 69.5639 15.1043C69.518 14.9995 69.4696 14.9143 69.4236 14.8095C69.247 14.4901 69.0704 14.1707 68.8718 13.8683C68.6732 13.5659 68.4746 13.2634 68.2541 12.9779C68.1209 12.7828 67.9657 12.6046 67.813 12.407L71.1002 16.3895C71.219 16.5432 71.3572 16.6993 71.476 16.8531C71.4929 16.875 71.5269 16.9189 71.5413 16.9603C71.7619 17.2458 71.9604 17.5483 72.159 17.8507C72.3551 18.1726 72.5342 18.4725 72.7084 18.8114C72.7228 18.8528 72.7593 18.8772 72.7737 18.9187C72.8052 18.982 72.8366 19.0453 72.868 19.1087C72.9963 19.3428 73.1025 19.5939 73.2283 19.8474C73.2597 19.9108 73.2911 19.9741 73.3226 20.0375C73.337 20.0789 73.3515 20.1203 73.366 20.1617C73.5182 20.5175 73.6509 20.8709 73.7811 21.2437L73.7761 21.2826C73.9258 21.6579 74.0146 22.0452 74.1228 22.4349C74.1348 22.4958 74.1493 22.5371 74.1612 22.598C74.1997 22.7612 74.2356 22.9439 74.2715 23.1265C74.3483 23.4529 74.4057 23.7768 74.4436 24.0982C74.4361 24.1566 74.4456 24.2369 74.4575 24.2978C74.5049 24.6995 74.5523 25.1012 74.5802 25.5004C74.5847 25.6197 74.6111 25.7221 74.6156 25.8413C74.6106 25.8803 74.6081 25.8997 74.6032 25.9386C74.5907 26.0359 74.6001 26.1163 74.6071 26.2161C74.6206 26.5739 74.6146 26.9292 74.6086 27.2845C74.5911 27.4207 74.5956 27.54 74.5976 27.6788C74.5851 27.7761 74.5896 27.8953 74.5965 27.9951C74.5791 28.1313 74.5616 28.2676 74.5441 28.4039C74.5042 28.7153 74.4812 29.0486 74.4607 29.3625C74.4333 29.5766 74.4033 29.8102 74.3758 30.0242C74.3359 30.3356 74.274 30.664 74.2146 30.9729C74.1971 31.1091 74.1822 31.2259 74.1647 31.3621C74.1522 31.4595 74.1203 31.5542 74.0858 31.6685C74.0339 31.919 73.9625 32.1671 73.8912 32.4151C73.8198 32.6631 73.7679 32.9136 73.677 33.1592C73.6057 33.4072 73.5148 33.6526 73.4435 33.9006C73.3526 34.1461 73.2813 34.3942 73.1904 34.6397C73.0996 34.8852 73.0088 35.1308 72.9179 35.3763C72.8271 35.6218 72.7168 35.8649 72.6259 36.1104C72.5157 36.3534 72.4054 36.5963 72.2951 36.8394C72.2362 36.9901 72.1578 37.1384 72.0989 37.2891C72.0695 37.3644 72.0181 37.4566 71.9692 37.5295C71.805 37.8843 71.6019 38.2341 71.4207 38.567C71.3179 38.7516 71.2371 38.9193 71.1342 39.104C70.8797 39.5461 70.6058 39.9857 70.3343 40.4058C70.2854 40.4787 70.2559 40.5541 70.2095 40.6075L70.2045 40.6464C70.2045 40.6464 70.1142 40.7337 70.0872 40.7896C69.8427 41.1539 69.5982 41.5183 69.3342 41.8801C69.2388 42.0063 69.1435 42.1325 69.0482 42.2587C68.9504 42.4045 68.8331 42.5477 68.7353 42.6934C68.6645 42.7832 68.5936 42.8731 68.5227 42.9629C68.2393 43.3222 67.9558 43.6814 67.6554 44.0187C67.5626 44.1255 67.4892 44.2349 67.3964 44.3417C67.3499 44.3951 67.3036 44.4484 67.2596 44.4823C67.0031 44.7857 66.7297 45.0672 66.4537 45.3681C66.3389 45.4918 66.2216 45.6351 66.1068 45.7589L65.9482 45.9165L62.661 41.9341C62.8416 41.7594 63.0053 41.5628 63.1665 41.3857C63.44 41.1042 63.7159 40.8033 63.9724 40.4999C64.1117 40.3397 64.2509 40.1795 64.3707 40.0168L64.3901 40.0193Z" fill="url(#paint0_linear_40_989)"/>
<path d="M61.4434 83.8154C61.7822 83.6412 62.1016 83.4646 62.421 83.2879C62.5477 83.225 62.677 83.1428 62.8037 83.0799C63.2304 82.8379 63.6595 82.5764 64.0887 82.3149L64.174 82.2666C64.5618 82.0196 64.952 81.7531 65.3398 81.5061C65.469 81.4237 65.6008 81.3219 65.73 81.2395C66.013 81.0384 66.2764 80.8349 66.5594 80.6338C66.6911 80.532 66.8229 80.4302 66.9741 80.3309C67.2595 80.1103 67.5255 79.8873 67.811 79.6667C67.9207 79.5819 68.033 79.4776 68.1428 79.3928C68.5211 79.0654 68.9213 78.7211 69.2801 78.3913C69.3265 78.3379 69.3924 78.287 69.4388 78.2336C69.7756 77.9208 70.115 77.5883 70.4324 77.2729C70.5252 77.1662 70.6375 77.0619 70.7303 76.9551C71.1186 76.5499 71.5093 76.1253 71.8806 75.6982C72.3008 75.1981 72.721 74.6981 73.1023 74.1931C73.1731 74.1032 73.2465 73.994 73.3368 73.9067C73.4785 73.727 73.6008 73.5448 73.7425 73.3652C73.8623 73.2025 73.9796 73.0594 74.0799 72.8942C74.2021 72.712 74.3269 72.5105 74.4686 72.3308C74.5665 72.1851 74.6643 72.0393 74.7621 71.8936C75.08 71.42 75.3614 70.922 75.6404 70.4435C75.6943 70.3317 75.7652 70.2419 75.8191 70.1301C76.1005 69.6321 76.3651 69.1121 76.6076 68.6091C76.8037 68.1595 76.9949 67.7488 77.1691 67.3161C77.2255 67.1849 77.2819 67.0536 77.3188 66.9198C77.4391 66.599 77.5788 66.2806 77.6796 65.9572C77.736 65.826 77.773 65.6923 77.8294 65.561C77.9841 65.1259 78.1168 64.7077 78.2326 64.2676C78.3509 63.808 78.4667 63.3678 78.5631 62.9252C78.578 62.8084 78.593 62.6916 78.6274 62.5774C78.7263 62.1153 78.8057 61.6506 78.8825 61.2055C78.89 61.1471 78.8975 61.0888 78.9075 61.0109C78.9724 60.5049 79.0348 60.0183 79.0608 59.5073C79.0808 59.3516 79.0813 59.1934 79.0818 59.0352C79.1042 58.8601 79.0878 58.6799 79.0908 58.5022C79.0938 58.3246 79.0968 58.147 79.0828 57.9474C79.0858 57.7697 79.0694 57.5895 79.0724 57.4119C79.0704 57.2731 79.049 57.1319 79.0445 57.0126C79.0121 56.4941 78.9602 55.9732 78.8864 55.4692C78.8315 55.1258 78.7766 54.7825 78.6998 54.4561C78.6494 54.2321 78.599 54.008 78.5292 53.7814C78.4404 53.3941 78.3321 53.0044 78.2019 52.6316L78.2069 52.5926C78.0572 52.2174 77.9245 51.864 77.7724 51.5082C77.7265 51.4034 77.6805 51.2987 77.6346 51.1939C77.5284 50.9428 77.4026 50.6893 77.2744 50.4552C77.2285 50.3504 77.1801 50.2652 77.1342 50.1604C76.9576 49.841 76.7809 49.5216 76.5824 49.2191C76.3838 48.9167 76.1852 48.6142 75.9646 48.3288C75.8314 48.1336 75.6762 47.9555 75.5236 47.7578L78.8107 51.7404C78.9295 51.8941 79.0677 52.0502 79.1865 52.2039C79.2034 52.2259 79.2374 52.2698 79.2519 52.3112C79.4724 52.5967 79.6735 52.8797 79.8696 53.2016C80.0657 53.5235 80.2448 53.8234 80.4214 54.1428C80.4359 54.1842 80.4723 54.2086 80.4868 54.25C80.5182 54.3134 80.5496 54.3769 80.5811 54.4402C80.7093 54.6743 80.8156 54.9253 80.9413 55.1788C80.9727 55.2422 81.0042 55.3056 81.0356 55.369C81.0501 55.4104 81.0645 55.4518 81.079 55.4932C81.2312 55.849 81.3639 56.2023 81.4941 56.5751L81.4891 56.614C81.6193 56.9868 81.7276 57.3766 81.8359 57.7663C81.8478 57.8272 81.8623 57.8686 81.8768 57.91C81.9127 58.0927 81.9511 58.2559 81.987 58.4385C82.0638 58.7649 82.1187 59.1082 82.1566 59.4296C82.2279 59.9531 82.2798 60.474 82.3122 60.9925C82.3047 61.0509 82.3167 61.1119 82.3287 61.1727C82.3187 61.2506 82.3282 61.3309 82.3376 61.4113C82.3346 61.5889 82.3511 61.7691 82.3506 61.9273C82.3476 62.1049 82.3615 62.3045 82.3585 62.4822C82.3555 62.6598 82.3525 62.8375 82.3495 63.0152C82.337 63.1125 82.344 63.2123 82.3315 63.3096C82.324 63.368 82.3166 63.4263 82.3116 63.4652C82.2881 63.9568 82.2426 64.4653 82.1583 64.9689C82.1508 65.0272 82.1433 65.0856 82.1333 65.1634C82.0734 65.6305 81.9771 66.0732 81.8782 66.5353C81.8707 66.5937 81.8607 66.6716 81.8533 66.73C81.8483 66.7689 81.8408 66.8272 81.8358 66.8661C81.7395 67.3088 81.6237 67.7489 81.5079 68.1891C81.3896 68.6487 81.2374 69.0644 81.1021 69.502C81.0652 69.6357 81.0088 69.767 80.9524 69.8983C80.8321 70.2191 80.7118 70.54 80.5915 70.8609C80.5351 70.9922 80.4787 71.1233 80.4418 71.2571C80.2701 71.6703 80.0765 72.1005 79.8853 72.5112C79.6378 73.0531 79.3758 73.5536 79.0918 74.0711C79.0379 74.1828 78.9646 74.2922 78.9131 74.3845C78.6317 74.8826 78.3333 75.3586 78.0348 75.8346C78.0323 75.8541 78.0079 75.8905 77.9859 75.9075C77.9101 76.0362 77.8147 76.1625 77.7414 76.2718C77.6191 76.4539 77.4968 76.636 77.3721 76.8376C77.2523 77.0003 77.1545 77.1461 77.0347 77.3087C76.9124 77.4909 76.7707 77.6705 76.629 77.8501C76.602 77.906 76.5581 77.94 76.5312 77.9959C76.4848 78.0493 76.4384 78.1026 76.4114 78.1585C76.0107 78.661 75.6074 79.183 75.1897 79.6636C74.8185 80.0907 74.4277 80.5154 74.0395 80.9206C73.993 80.974 73.9466 81.0274 73.9002 81.0808C73.8538 81.1342 73.7879 81.1851 73.7415 81.2385C73.4217 81.5733 73.0848 81.8862 72.748 82.1991C72.704 82.233 72.6576 82.2864 72.6332 82.3228L72.5893 82.3568C72.2085 82.7036 71.8302 83.0309 71.452 83.3582C71.4275 83.3947 71.3861 83.4091 71.3616 83.4455C71.2738 83.5134 71.2054 83.5839 71.1176 83.6517C70.8516 83.8748 70.5662 84.0953 70.3002 84.3183C70.2343 84.3692 70.1685 84.4202 70.1001 84.4905C70.0342 84.5414 69.9684 84.5923 69.883 84.6407C69.6195 84.8443 69.3366 85.0453 69.0536 85.2464C68.9658 85.3143 68.878 85.3823 68.7901 85.4501C68.7462 85.4841 68.7048 85.4985 68.6609 85.5324C68.2707 85.7989 67.9024 86.0483 67.5146 86.2953L67.4488 86.3463C67.0196 86.6078 66.5904 86.8692 66.1638 87.1112C66.1224 87.1257 66.0784 87.1597 66.0565 87.1766C65.9712 87.225 65.8664 87.2709 65.781 87.3193C65.4617 87.4959 65.1228 87.6701 64.8034 87.8467C64.7181 87.8951 64.6547 87.9266 64.5694 87.975C64.506 88.0065 64.4232 88.0354 64.3598 88.0668C63.9601 88.2529 63.5579 88.4585 63.1607 88.6252C63.0973 88.6566 63.0145 88.6855 62.9511 88.717L62.8049 88.7773C62.22 89.0188 61.6352 89.2603 61.0553 89.4629C60.9919 89.4944 60.9091 89.5233 60.8457 89.5547C60.7409 89.6006 60.6386 89.6271 60.5363 89.6535C60.3292 89.7259 60.1416 89.8008 59.937 89.8537C59.7105 89.9235 59.5034 89.9958 59.2768 90.0656C59.0722 90.1185 58.8846 90.1934 58.68 90.2463C58.5777 90.2727 58.4729 90.3186 58.3706 90.3451C58.2878 90.374 58.2074 90.3835 58.1246 90.4124C57.7763 90.5062 57.428 90.6 57.1016 90.6769C56.9579 90.7178 56.8142 90.7587 56.673 90.7802C56.2029 90.8979 55.7159 90.9937 55.2508 91.0725L55.1924 91.0651C54.6225 91.1898 54.0382 91.2731 53.4733 91.3589C53.3515 91.3829 53.2323 91.3873 53.13 91.4138C52.5676 91.4801 52.0052 91.5465 51.4478 91.5739C51.348 91.5809 51.2288 91.5854 51.129 91.5924C50.6105 91.6248 50.092 91.6571 49.5786 91.6506C49.5202 91.6431 49.4593 91.6551 49.4009 91.6476C48.846 91.6556 48.3131 91.6466 47.7607 91.6351C47.6439 91.6202 47.5247 91.6246 47.4054 91.6291C46.875 91.6006 46.3445 91.5722 45.8165 91.5243C45.7387 91.5143 45.6803 91.5068 45.6025 91.4968C45.1159 91.4344 44.6269 91.3915 44.1429 91.3096C44.0456 91.2971 43.9677 91.2871 43.8704 91.2747C43.3645 91.2098 42.8415 91.1229 42.3405 91.019C42.2432 91.0065 42.1264 90.9916 42.0316 90.9596C41.5112 90.8533 41.0102 90.7495 40.5092 90.6457L40.4897 90.6432C39.9912 90.5199 39.4927 90.3966 39.0162 90.2564C38.9189 90.2439 38.8241 90.2119 38.7098 90.1775C38.2333 90.0372 37.7567 89.897 37.2996 89.7592C37.2023 89.7468 37.1295 89.6979 37.0347 89.666C36.597 89.5307 36.1619 89.376 35.7268 89.2212C35.6684 89.2137 35.6125 89.1868 35.5761 89.1623C35.1215 89.0051 34.6694 88.8284 34.2174 88.6518C34.1225 88.6198 34.0277 88.5878 33.9354 88.5364C33.4833 88.3597 33.0507 88.1855 32.6181 88.0114L32.4479 87.9501C32.0347 87.7784 31.641 87.6092 31.2473 87.44L31.0213 87.3516C30.6106 87.1605 30.2 86.9693 29.7868 86.7976C29.6945 86.7462 29.6191 86.7168 29.5268 86.6654C29.1162 86.4742 28.7055 86.2831 28.3168 86.075C22.2495 83.101 17.3735 79.7851 16.8465 79.4207L6.19123 72.1194L2.90403 68.137L13.5593 75.4383C14.0863 75.8026 18.9624 79.1184 25.0296 82.0925C25.4208 82.2811 25.8314 82.4723 26.2396 82.6829C26.3319 82.7344 26.4073 82.7638 26.4996 82.8152C26.9103 83.0063 27.3209 83.1975 27.7341 83.3692C27.8094 83.3986 27.8848 83.428 27.9602 83.4575C28.3539 83.6267 28.7476 83.7958 29.1607 83.9675L29.3309 84.0289C29.7635 84.2031 30.1961 84.3773 30.6482 84.554C30.743 84.5859 30.8353 84.6374 30.9301 84.6693C31.3822 84.846 31.8368 85.0032 32.2889 85.1799L32.4396 85.2388C32.8747 85.3935 33.3124 85.5287 33.7475 85.6834C33.8448 85.6959 33.9176 85.7449 33.9955 85.7548C34.472 85.8951 34.9291 86.0328 35.4056 86.1731C35.5029 86.1856 35.5977 86.2175 35.6926 86.2495C36.1886 86.3922 36.6676 86.513 37.1686 86.6168L37.1881 86.6193C37.6866 86.7426 38.207 86.8489 38.7105 86.9332C38.8078 86.9457 38.9246 86.9607 39.0194 86.9927C39.5229 87.077 40.0264 87.1614 40.5493 87.2483C40.6466 87.2608 40.7245 87.2708 40.8218 87.2832C41.3083 87.3456 41.7948 87.408 42.2814 87.4704C42.3592 87.4804 42.4176 87.4879 42.4954 87.4979C43.0234 87.5458 43.5538 87.5743 44.0842 87.6028C44.201 87.6178 44.3203 87.6132 44.4395 87.6088C44.9919 87.6203 45.5249 87.6292 46.0798 87.6212C46.1382 87.6287 46.1965 87.6363 46.2574 87.6243C46.7734 87.6114 47.2894 87.5984 47.8273 87.5685C47.9271 87.5615 48.0269 87.5545 48.1462 87.55C48.7061 87.5031 49.2659 87.4562 49.8283 87.3899C49.9476 87.3854 50.0693 87.3615 50.1716 87.335C50.7365 87.2492 51.3014 87.1634 51.8882 87.0607L51.9466 87.0681C52.4142 86.9699 52.9037 86.8546 53.3713 86.7563C53.515 86.7154 53.6562 86.6939 53.7999 86.653C54.1483 86.5592 54.4941 86.4848 54.8424 86.391C55.0275 86.3357 55.2127 86.2803 55.3978 86.2249C55.6024 86.172 55.79 86.0972 55.9946 86.0443C56.2017 85.9719 56.4282 85.9021 56.6353 85.8298C56.8424 85.7574 57.0301 85.6826 57.2347 85.6297C57.4003 85.5718 57.588 85.4969 57.7536 85.4391C58.336 85.217 58.9183 84.995 59.5032 84.7535C59.6274 84.7101 59.7347 84.6447 59.8615 84.5818C60.2612 84.3957 60.6609 84.2096 61.0606 84.0235C61.2093 83.9436 61.3556 83.8832 61.5043 83.8034L61.4434 83.8154Z" fill="url(#paint1_linear_40_989)"/>
<path d="M78.7438 54.4222C77.1404 46.719 70.7425 42.1595 62.6636 41.9146C69.1216 35.3641 72.5907 26.6697 71.0113 19.0883C68.6867 7.90981 56.2922 3.3725 43.3102 8.96755C29.3047 14.9852 21.0953 28.0964 15.5023 38.8528C11.6724 46.1954 8.97639 52.8724 8.68443 53.6065L2.86263 68.1515L13.5179 75.4528C14.0449 75.8172 18.9209 79.133 24.9882 82.107C33.8083 86.443 45.6904 90.6575 59.4643 84.7486C72.4438 79.173 81.0904 65.5837 78.7657 54.4052L78.7438 54.4222Z" fill="url(#paint2_linear_40_989)"/>
<path style="mix-blend-mode:overlay" d="M78.7438 54.4222C77.1404 46.719 70.7425 42.1595 62.6636 41.9146C69.1216 35.3641 72.5907 26.6697 71.0113 19.0883C68.6867 7.90981 56.2922 3.3725 43.3102 8.96755C29.3047 14.9852 21.0953 28.0964 15.5023 38.8528C11.6724 46.1954 8.97639 52.8724 8.68443 53.6065L2.86263 68.1515L13.5179 75.4528C14.0449 75.8172 18.9209 79.133 24.9882 82.107C33.8083 86.443 45.6904 90.6575 59.4643 84.7486C72.4438 79.173 81.0904 65.5837 78.7657 54.4052L78.7438 54.4222ZM59.1669 84.1367C45.6829 89.9443 33.971 85.7913 25.2821 81.5116C18.9938 78.4103 13.9406 74.9334 13.8847 74.9064L3.68601 67.901L9.30667 53.8444C10.0034 52.1138 12.5761 45.9354 16.0951 39.1662C21.6367 28.5021 29.7897 15.5222 43.5661 9.59382C50.5165 6.60793 57.5355 6.47953 62.8392 9.23694C66.8067 11.3086 69.4093 14.7681 70.3392 19.2394C71.0151 22.4517 70.7335 26.0358 69.5611 29.6243C68.1676 33.857 65.6259 37.9425 62.1711 41.4361C62.1027 41.5064 62.0318 41.5962 62.0169 41.7129C61.958 41.8637 61.9769 42.0243 62.0348 42.19C62.1411 42.441 62.3766 42.6098 62.6515 42.6253C70.6915 42.8652 76.593 47.4401 78.0691 54.5928C78.745 57.8051 78.4634 61.3892 77.291 64.9777C74.6193 73.1612 67.6647 80.4986 59.1644 84.1561L59.1669 84.1367Z" fill="url(#paint3_linear_40_989)"/>
<defs>
<linearGradient id="paint0_linear_40_989" x1="77.8704" y1="16.9071" x2="59.1615" y2="37.9199" gradientUnits="userSpaceOnUse">
<stop offset="0.12" stop-color="#FF6560"/>
<stop offset="0.16" stop-color="#FA605A"/>
<stop offset="0.21" stop-color="#EE514C"/>
<stop offset="0.27" stop-color="#D93933"/>
<stop offset="1" stop-color="#9E1D17"/>
</linearGradient>
<linearGradient id="paint1_linear_40_989" x1="12.1492" y1="89.1691" x2="83.9418" y2="52.0815" gradientUnits="userSpaceOnUse">
<stop stop-color="#FF6560"/>
<stop offset="0.04" stop-color="#FA605A"/>
<stop offset="0.08" stop-color="#EE514C"/>
<stop offset="0.11" stop-color="#DA3A34"/>
<stop offset="0.12" stop-color="#D93933"/>
<stop offset="0.16" stop-color="#CA322C"/>
<stop offset="0.26" stop-color="#B1261F"/>
<stop offset="0.35" stop-color="#A21F18"/>
<stop offset="0.42" stop-color="#9D1D16"/>
<stop offset="0.86" stop-color="#AC1F18"/>
<stop offset="0.88" stop-color="#B2241D"/>
<stop offset="0.91" stop-color="#C6342E"/>
<stop offset="0.94" stop-color="#E54F49"/>
<stop offset="0.96" stop-color="#FF6560"/>
</linearGradient>
<linearGradient id="paint2_linear_40_989" x1="10.2755" y1="28.2883" x2="79.6074" y2="63.2953" gradientUnits="userSpaceOnUse">
<stop stop-color="#FCA690"/>
<stop offset="0.33" stop-color="#F18574"/>
<stop offset="1" stop-color="#D93933"/>
</linearGradient>
<linearGradient id="paint3_linear_40_989" x1="76.3423" y1="36.9402" x2="-7.99725" y2="70.5014" gradientUnits="userSpaceOnUse">
<stop stop-color="white"/>
<stop offset="0.02" stop-color="white" stop-opacity="0.97"/>
<stop offset="0.5" stop-color="white" stop-opacity="0.46"/>
<stop offset="0.82" stop-color="white" stop-opacity="0.13"/>
<stop offset="0.97" stop-color="white" stop-opacity="0"/>
</linearGradient>
</defs>
</svg>
