<svg width="1645" height="1221" viewBox="0 0 1645 1221" fill="none" xmlns="http://www.w3.org/2000/svg">
<path d="M886.482 1160.03C886.418 1159.74 886.352 1159.48 886.286 1159.21C885.738 1156.76 885.386 1153.83 885.498 1150.5C885.518 1148.88 885.706 1146.71 886.282 1144.11C886.419 1143.48 886.583 1142.78 886.786 1142.1C886.827 1141.92 886.888 1141.75 886.926 1141.6C886.933 1141.54 886.962 1141.47 886.989 1141.41C887.052 1141.22 887.095 1141.03 887.156 1140.86C887.451 1139.91 887.799 1139 888.143 1138.13C888.257 1137.85 888.37 1137.57 888.504 1137.29L888.557 1137.17C888.642 1136.97 888.724 1136.78 888.826 1136.59C889.552 1135.02 890.357 1133.62 891.182 1132.38C891.33 1132.14 891.497 1131.9 891.665 1131.66C891.738 1131.56 891.808 1131.46 891.878 1131.37C891.949 1131.28 892 1131.19 892.072 1131.08L892.167 1130.96C892.167 1130.96 892.237 1130.87 892.264 1130.81C892.313 1130.74 892.383 1130.65 892.453 1130.56C893.589 1129.03 894.553 1127.95 895.393 1127.06C895.415 1127.04 895.439 1127.01 895.461 1126.99L895.456 1127.03C895.507 1126.94 895.597 1126.85 895.687 1126.76C896.027 1126.41 896.452 1126.01 896.874 1125.62C897.1 1125.39 897.343 1125.19 897.542 1125.01C898.096 1124.53 898.868 1123.87 899.476 1123.43C899.763 1123.19 900.064 1122.99 900.346 1122.79L900.385 1122.79C900.562 1122.64 900.734 1122.52 900.885 1122.42C901.101 1122.27 901.315 1122.14 901.532 1121.98C902.178 1121.55 902.863 1121.12 903.605 1120.72C904.181 1120.37 904.771 1120.07 905.401 1119.77C908.537 1118.22 911.847 1117.18 915.316 1116.62C917.094 1116.3 919.211 1116.13 921.519 1116.17L921.772 1116.21L921.776 1116.17C922.426 1116.19 923.037 1116.2 923.702 1116.26C924.152 1116.3 924.661 1116.34 925.109 1116.4C925.109 1116.4 925.109 1116.4 925.128 1116.4C925.167 1116.4 925.225 1116.41 925.264 1116.42C925.985 1116.51 926.316 1116.55 926.857 1116.65L927.032 1116.67C927.631 1116.79 928.037 1116.86 928.556 1116.98C928.882 1117.06 929.228 1117.14 929.574 1117.22L929.632 1117.23C930.073 1117.34 930.494 1117.45 930.932 1117.59L930.991 1117.59C931.371 1117.72 931.734 1117.82 932.114 1117.95C932.379 1118.04 932.625 1118.13 932.89 1118.22C932.985 1118.25 933.08 1118.29 933.195 1118.32C935.786 1119.27 937.733 1120.32 938.91 1121.04C939.039 1121.11 939.132 1121.16 939.185 1121.21C939.739 1121.53 940.233 1121.85 940.635 1122.12C940.762 1122.21 940.891 1122.29 941.038 1122.39L941.077 1122.39L941.111 1122.43C941.766 1122.89 942.585 1123.47 943.59 1124.3C948.315 1128.16 951.859 1133.11 953.991 1138.76C954.05 1138.93 954.108 1139.09 954.167 1139.26L954.199 1139.32C954.527 1140.19 954.831 1141.1 955.032 1141.88L955.074 1142.02C955.236 1142.63 955.407 1143.33 955.56 1144.02C955.587 1144.12 955.611 1144.24 955.638 1144.34L955.693 1144.71C955.742 1144.95 955.791 1145.19 955.821 1145.43C955.927 1146.02 956.016 1146.58 956.073 1147.09C956.135 1147.55 956.179 1147.99 956.205 1148.43L956.224 1148.59C956.244 1148.75 956.247 1148.89 956.267 1149.05C956.277 1149.29 956.307 1149.53 956.317 1149.76L956.305 1149.86C956.656 1155.86 955.462 1161.72 952.807 1167.09C952.731 1167.22 952.673 1167.37 952.598 1167.5C952.571 1167.55 952.545 1167.61 952.516 1167.68C952.411 1167.89 952.31 1168.07 952.21 1168.24C949.966 1172.51 946.968 1176 943.684 1178.76C938.053 1183.56 931.668 1186.14 925.529 1186.71L925.369 1186.73C925.086 1186.77 924.787 1186.8 924.488 1186.82C924.369 1186.82 924.247 1186.85 924.147 1186.85C923.987 1186.87 923.828 1186.87 923.687 1186.9C923.507 1186.91 923.327 1186.93 923.15 1186.93L923.13 1186.93C922.412 1186.98 921.957 1186.98 921.918 1186.98C921.322 1187 920.928 1186.99 920.278 1186.97L920.161 1186.96C920.161 1186.96 920.061 1186.97 920.022 1186.96L919.886 1186.94C919.628 1186.95 919.353 1186.94 919.078 1186.92L918.961 1186.91L918.489 1186.89L918.431 1186.88C917.959 1186.87 917.335 1186.79 916.829 1186.73L916.81 1186.72C916.81 1186.72 916.712 1186.71 916.673 1186.71L916.342 1186.67C915.816 1186.6 915.505 1186.56 915.023 1186.47C914.984 1186.46 914.925 1186.45 914.886 1186.45L914.867 1186.45C914.536 1186.41 914.21 1186.33 913.864 1186.24C913.728 1186.23 913.594 1186.19 913.46 1186.16C913.304 1186.14 913.15 1186.1 912.997 1186.06C912.841 1186.04 912.651 1185.98 912.478 1185.94C911.806 1185.77 911.156 1185.6 910.547 1185.4L910.508 1185.4C907.063 1184.32 904.502 1182.96 903.047 1182.09C902.918 1182.01 902.825 1181.96 902.772 1181.92C902.387 1181.67 902.019 1181.45 901.653 1181.21C901.543 1181.13 901.434 1181.06 901.324 1180.99C900.883 1180.72 900.193 1180.22 899.435 1179.63C897.97 1178.52 896.617 1177.31 895.429 1176.03C895.236 1175.83 895.06 1175.65 894.907 1175.46C894.785 1175.32 894.646 1175.17 894.507 1175.01C891.862 1172.08 890.16 1169.2 889.067 1166.83C888.971 1166.64 888.896 1166.45 888.8 1166.26L888.751 1166.18C887.754 1164 887.08 1161.92 886.604 1160L886.577 1159.9L886.482 1160.03Z" fill="url(#paint0_radial_79_2055)"/>
<defs>
<radialGradient id="paint0_radial_79_2055" cx="0" cy="0" r="1" gradientUnits="userSpaceOnUse" gradientTransform="translate(901.336 1155.43) rotate(-145.039) scale(42.7669 42.7683)">
<stop offset="0.02" stop-color="#BCDEE7"/>
<stop offset="0.46" stop-color="#BDDEE7"/>
<stop offset="0.64" stop-color="#C5E2EA"/>
<stop offset="0.77" stop-color="#D1E8EE"/>
<stop offset="0.88" stop-color="#E2F1F4"/>
<stop offset="0.97" stop-color="#F9FCFC"/>
<stop offset="0.99" stop-color="white"/>
</radialGradient>
</defs>
</svg>
