<svg width="1645" height="1221" viewBox="0 0 1645 1221" fill="none" xmlns="http://www.w3.org/2000/svg">
<g clip-path="url(#clip0_79_2055)">
<path d="M1722.14 892.026C1614.27 919.526 1518.85 931.592 1432.37 930.917C1423.66 930.856 1415.04 930.765 1406.5 930.429C1347.58 928.117 1291.24 917.977 1228.31 902.086C1190.58 892.55 1151.72 879.476 1112.01 867.187C1087.46 859.625 1062.39 852.218 1037.22 845.865C977.12 830.776 914.708 821.472 854.301 828.052C831.481 830.528 809.102 835.213 786.997 842.008C730.188 859.527 677.023 890.995 618.72 902.656C611.444 904.115 604.148 905.256 596.807 906.114C536.006 913.159 474.055 899.147 414.629 881.946C409.895 880.574 405.144 879.18 400.415 877.769C338.627 859.369 276.49 838.652 211.537 835.56C209.081 835.436 206.601 835.349 204.136 835.304C136.351 833.702 64.0968 855.136 21.827 908.799L14.7812 868.297C55.4227 812.28 126.196 785.84 194.439 781.132C196.931 780.964 199.42 780.815 201.905 780.705C267.484 777.568 332.034 791.029 396.044 801.478C400.947 802.278 405.852 803.058 410.76 803.818C472.386 813.243 535.84 818.563 595.483 802.915C602.673 801.03 609.781 798.839 616.824 796.382C673.185 776.713 722.718 739.086 776.76 713.676C797.76 703.8 819.28 695.807 841.699 690.158C901.122 675.174 964.894 677.904 1026.69 685.275C1052.48 688.401 1078.52 692.409 1104.14 696.069C1145.52 702.019 1186.27 707.557 1224.37 706.502C1289.49 704.693 1340.72 692.419 1393.45 673.174C1401.02 670.407 1408.63 667.368 1416.41 664.428C1490.95 636.257 1573.79 605.527 1699.18 597.041L1722.08 892L1722.14 892.026Z" fill="url(#paint0_linear_79_2055)"/>
</g>
<defs>
<linearGradient id="paint0_linear_79_2055" x1="21.629" y1="918.461" x2="1718.37" y2="751.383" gradientUnits="userSpaceOnUse">
<stop offset="0.18" stop-color="#6BFFCE"/>
<stop offset="1" stop-color="#00BABC"/>
</linearGradient>
<clipPath id="clip0_79_2055">
<rect width="1645" height="1221" fill="white"/>
</clipPath>
</defs>
</svg>
