<svg width="1242" height="397" viewBox="0 0 1242 397" fill="none" xmlns="http://www.w3.org/2000/svg">
<path d="M226.385 142.418C296.747 157.535 360.32 194.117 422.744 229.937C485.171 265.738 549.142 301.836 619.729 315.816C684.527 328.657 747.848 317.075 812.789 320.321C879.283 323.646 945.273 337.372 1007.52 361.004C1049.02 376.752 1115.24 394.998 1158.85 363.005C1202.56 330.946 1204.29 262.879 1167.17 226.387C1124.1 184.048 1070.6 152.339 1012.69 135.14C979.67 125.326 945.27 120.241 910.835 119.899C876.933 119.567 845.794 128.075 812.564 131.449C749.612 137.836 690.651 164.774 626.016 165.781C548.792 166.994 474.437 139.218 401.785 112.966C329.133 86.7141 253.492 61.2459 176.48 67.293C118.291 71.8574 58.0996 98.5189 22.5979 146.131C9.88569 163.195 -3.1579 212.917 21.7955 186.009C44.7513 161.258 69.6247 145.615 101.041 138.804C138.764 130.626 188.712 134.322 226.347 142.413L226.385 142.418Z" fill="url(#paint0_linear_40_363)"/>
<g style="mix-blend-mode:overlay" opacity="0.8">
<path d="M256.385 142.418C326.747 157.535 390.32 194.117 452.744 229.937C515.171 265.738 579.142 301.836 649.729 315.816C714.527 328.657 777.848 317.075 842.789 320.321C909.283 323.646 975.273 337.372 1037.52 361.004C1079.02 376.752 1145.24 394.998 1188.85 363.005C1232.56 330.946 1234.29 262.879 1197.17 226.387C1154.1 184.048 1100.6 152.339 1042.69 135.14C1009.67 125.326 975.27 120.241 940.835 119.899C906.933 119.567 875.794 128.075 842.564 131.449C779.612 137.836 720.651 164.774 656.016 165.781C578.792 166.994 504.437 139.218 431.785 112.966C359.133 86.7141 283.492 61.2459 206.48 67.293C148.291 71.8574 88.0996 98.5189 52.5979 146.131C39.8857 163.195 26.8421 212.917 51.7955 186.009C74.7513 161.258 99.6247 145.615 131.041 138.804C168.764 130.626 218.712 134.322 256.347 142.413L256.385 142.418Z" fill="#C8FCF2"/>
</g>
<defs>
<linearGradient id="paint0_linear_40_363" x1="108.475" y1="107.215" x2="1328.75" y2="308.708" gradientUnits="userSpaceOnUse">
<stop offset="0.18" stop-color="#FFFF54"/>
<stop offset="1" stop-color="#F19623"/>
</linearGradient>
</defs>
</svg>
