<svg width="1645" height="1221" viewBox="0 0 1645 1221" fill="none" xmlns="http://www.w3.org/2000/svg">
<g style="mix-blend-mode:multiply" opacity="0.4">
<g style="mix-blend-mode:multiply" opacity="0.01">
<path d="M569.723 465.973C591.001 453.996 626.865 454.92 627.97 477.632C628.552 488.992 617.364 498.807 605.309 503.93C598.365 506.873 590.919 509.24 583.751 510.139C577.204 510.976 570.827 510.589 565.339 508.274C557.705 505.083 550.534 497.639 550.635 489.25C550.73 480.267 560.719 471.035 569.725 465.953L569.723 465.973Z" fill="#AF3CA5"/>
</g>
<g style="mix-blend-mode:multiply" opacity="0.03">
<path d="M569.709 466.09C590.855 454.215 626.342 455.152 627.52 477.597C628.112 488.878 616.989 498.642 605.039 503.719C598.158 506.63 590.794 508.968 583.685 509.874C577.097 510.726 570.659 510.35 565.173 508.016C557.642 504.798 550.597 497.449 550.747 489.145C550.888 480.266 560.769 471.12 569.728 466.092L569.709 466.09Z" fill="#AD3DA6"/>
</g>
<g style="mix-blend-mode:multiply" opacity="0.04">
<path d="M569.674 466.204C590.668 454.449 625.819 455.385 627.05 477.559C627.671 488.765 616.575 498.473 604.749 503.505C597.95 506.387 590.65 508.693 583.577 509.624C576.967 510.492 570.447 510.147 564.966 507.773C557.534 504.548 550.619 497.274 550.8 489.033C550.99 480.239 560.778 471.201 569.674 466.204V466.204Z" fill="#AB3EA6"/>
</g>
<g style="mix-blend-mode:multiply" opacity="0.06">
<path d="M569.643 466.299C590.506 454.647 625.299 455.598 626.563 477.499C627.215 488.61 616.163 498.284 604.442 503.27C597.724 506.142 590.469 508.394 583.475 509.334C576.48 510.274 570.239 509.904 564.766 507.472C557.436 504.22 550.628 497.038 550.858 488.882C551.095 480.193 560.793 471.242 569.624 466.297L569.643 466.299Z" fill="#A93FA6"/>
</g>
<g style="mix-blend-mode:multiply" opacity="0.07">
<path d="M569.49 466.419C590.222 454.869 624.66 455.816 625.977 477.447C626.658 488.482 615.652 498.103 604.055 503.044C597.4 505.884 590.226 508.127 583.289 509.074C576.353 510.022 569.949 509.69 564.481 507.22C557.25 503.96 550.569 496.872 550.853 488.763C551.139 480.159 560.725 471.313 569.51 466.421L569.49 466.419Z" fill="#A740A6"/>
</g>
<g style="mix-blend-mode:multiply" opacity="0.08">
<path d="M569.437 466.531C590.035 455.103 624.117 456.046 625.468 477.404C626.159 488.362 615.199 497.928 603.725 502.826C597.153 505.637 590.042 507.847 583.164 508.802C576.287 509.756 569.703 509.442 564.258 506.935C557.128 503.668 550.576 496.656 550.892 488.609C551.224 480.11 560.72 471.352 569.439 466.511L569.437 466.531Z" fill="#A540A7"/>
</g>
<g style="mix-blend-mode:multiply" opacity="0.1">
<path d="M569.383 466.643C589.83 455.315 623.575 456.276 624.979 477.364C625.698 488.246 614.785 497.759 603.416 502.61C596.907 505.389 589.876 507.59 583.057 508.552C576.237 509.513 569.491 509.238 564.051 506.692C557.023 503.398 550.578 496.478 550.943 488.517C551.323 480.102 560.728 471.451 569.381 466.662L569.383 466.643Z" fill="#A341A7"/>
</g>
<g style="mix-blend-mode:multiply" opacity="0.11">
<path d="M569.33 466.755C589.644 455.549 623.035 456.486 624.47 477.321C625.219 488.128 614.351 497.587 603.087 502.392C596.661 505.141 589.693 507.31 582.932 508.279C576.171 509.248 569.261 509.013 563.826 506.428C556.898 503.126 550.582 496.281 550.979 488.383C551.409 480.053 560.701 471.508 569.311 466.753L569.33 466.755Z" fill="#A142A7"/>
</g>
<g style="mix-blend-mode:multiply" opacity="0.13">
<path d="M569.277 466.867C589.459 455.764 622.493 456.716 623.981 477.281C624.761 487.992 613.92 497.396 602.777 502.176C596.414 504.894 589.529 507.033 582.825 508.029C576.12 509.024 569.05 508.809 563.622 506.165C556.793 502.856 550.587 496.084 551.052 488.273C551.528 480.048 560.731 471.59 569.275 466.886L569.277 466.867Z" fill="#9F43A7"/>
</g>
<g style="mix-blend-mode:multiply" opacity="0.14">
<path d="M569.224 466.979C589.272 455.998 621.951 456.946 623.474 477.218C624.284 487.855 613.489 497.204 602.47 501.94C596.19 504.629 589.346 506.754 582.722 507.739C576.097 508.725 568.842 508.566 563.419 505.883C556.69 502.566 550.613 495.87 551.11 488.122C551.632 480.002 560.745 471.632 569.224 466.979V466.979Z" fill="#9D44A8"/>
</g>
<g style="mix-blend-mode:multiply" opacity="0.15">
<path d="M569.17 467.091C589.068 456.21 621.411 457.157 622.985 477.178C623.824 487.739 613.075 497.035 602.161 501.724C595.963 504.384 589.183 506.477 582.616 507.47C576.05 508.462 568.635 508.323 563.216 505.602C556.607 502.279 550.64 495.655 551.166 487.99C551.692 480.325 560.738 471.69 569.17 467.091V467.091Z" fill="#9B45A8"/>
</g>
<g style="mix-blend-mode:multiply" opacity="0.17">
<path d="M569.117 467.203C588.884 456.425 620.869 457.386 622.477 477.135C623.344 487.621 612.622 496.861 601.832 501.506C595.697 504.133 588.997 506.217 582.489 507.217C575.558 508.283 568.403 508.116 562.989 505.356C556.48 502.026 550.62 495.495 551.219 487.878C551.818 480.262 560.748 471.77 569.115 467.223L569.117 467.203Z" fill="#9946A8"/>
</g>
<g style="mix-blend-mode:multiply" opacity="0.18">
<path d="M569.066 467.296C588.699 456.639 620.329 457.597 621.99 477.076C622.866 487.483 612.21 496.672 601.524 501.271C595.473 503.869 588.836 505.92 582.386 506.927C575.433 508.011 568.195 507.873 562.809 505.057C556.398 501.72 550.668 495.264 551.299 487.71C551.93 480.157 560.784 471.795 569.088 467.279L569.066 467.296Z" fill="#9747A8"/>
</g>
<g style="mix-blend-mode:multiply" opacity="0.2">
<path d="M569.013 467.408C588.515 456.854 619.787 457.827 621.481 477.033C622.389 487.345 611.777 496.5 601.215 501.055C595.226 503.621 588.67 505.663 582.259 506.674C575.263 507.792 567.964 507.667 562.582 504.812C556.271 501.467 550.65 495.083 551.33 487.615C552.01 480.147 560.753 471.889 569.01 467.427L569.013 467.408Z" fill="#9548A9"/>
</g>
<g style="mix-blend-mode:multiply" opacity="0.21">
<path d="M568.979 467.522C588.328 457.088 619.266 458.04 621.013 476.976C621.951 487.212 611.365 496.311 600.927 500.822C595.021 503.359 588.528 505.368 582.176 506.387C575.138 507.52 567.776 507.427 562.398 504.532C556.188 501.18 550.696 494.872 551.408 487.467C552.119 480.062 560.787 471.933 568.979 467.522V467.522Z" fill="#9349A9"/>
</g>
<g style="mix-blend-mode:multiply" opacity="0.23">
<path d="M568.926 467.634C588.143 457.302 618.744 458.272 620.505 476.933C621.471 487.094 610.931 496.139 600.598 500.603C594.755 503.108 588.323 505.106 582.049 506.135C574.989 507.284 567.544 507.22 562.174 504.268C556.063 500.908 550.701 494.675 551.461 487.355C552.221 480.035 560.797 472.013 568.923 467.654L568.926 467.634Z" fill="#914AA9"/>
</g>
<g style="mix-blend-mode:multiply" opacity="0.24">
<path d="M568.873 467.746C587.957 457.536 618.202 458.502 620.016 476.893C621.011 486.978 610.52 495.95 600.289 500.388C594.529 502.863 588.159 504.829 581.944 505.865C574.84 507.048 567.335 506.997 561.969 504.005C555.958 500.638 550.705 494.477 551.517 487.223C552.329 479.969 560.79 472.072 568.87 467.766L568.873 467.746Z" fill="#8F4BAA"/>
</g>
<g style="mix-blend-mode:multiply" opacity="0.25">
<path d="M568.819 467.859C587.772 457.751 617.661 458.713 619.526 476.852C620.551 486.863 610.086 495.778 599.998 500.174C594.321 502.62 588.013 504.574 581.855 505.617C574.73 506.818 567.142 506.795 561.784 503.745C555.87 500.39 550.746 494.305 551.589 487.113C552.433 479.922 560.819 472.155 568.836 467.88L568.819 467.859Z" fill="#8D4BAA"/>
</g>
<g style="mix-blend-mode:multiply" opacity="0.27">
<path d="M568.766 467.971C587.568 457.963 617.12 458.943 619.02 476.79C620.074 486.725 609.655 495.587 599.674 499.917C594.06 502.331 587.834 504.255 581.736 505.305C574.566 506.54 566.918 506.53 561.564 503.441C555.75 500.079 550.736 494.066 551.65 486.943C552.564 479.82 560.837 472.176 568.788 467.954L568.766 467.971Z" fill="#8B4CAA"/>
</g>
<g style="mix-blend-mode:multiply" opacity="0.28">
<path d="M568.715 468.063C587.384 458.178 616.599 459.155 618.533 476.73C619.618 486.57 609.243 495.398 599.367 499.681C593.833 502.086 587.671 503.978 581.63 505.035C574.42 506.285 566.707 506.307 561.361 503.16C555.647 499.789 550.762 493.852 551.708 486.792C552.654 479.732 560.832 472.215 568.737 468.046L568.715 468.063Z" fill="#894DAA"/>
</g>
<g style="mix-blend-mode:multiply" opacity="0.3">
<path d="M568.662 468.175C587.199 458.392 616.059 459.366 618.025 476.688C619.138 486.452 608.79 495.224 599.038 499.463C593.568 501.836 587.485 503.718 581.506 504.763C574.273 506.03 566.478 506.081 561.137 502.895C555.52 499.536 550.747 493.652 551.742 486.677C552.737 479.702 560.82 472.313 568.662 468.175V468.175Z" fill="#874EAB"/>
</g>
<g style="mix-blend-mode:multiply" opacity="0.31">
<path d="M568.609 468.287C587.013 458.626 615.537 459.598 617.535 476.647C618.678 486.336 608.376 495.055 598.729 499.247C593.341 501.59 587.322 503.441 581.401 504.493C574.124 505.794 566.266 505.877 560.932 502.632C555.598 499.388 550.771 493.457 551.798 486.546C552.824 479.634 560.832 472.374 568.611 468.268L568.609 468.287Z" fill="#854FAB"/>
</g>
<g style="mix-blend-mode:multiply" opacity="0.32">
<path d="M568.575 468.402C586.828 458.841 615.014 459.831 617.046 476.607C618.218 486.22 607.943 494.883 598.439 499.033C593.114 501.345 587.175 503.186 581.312 504.245C574.014 505.563 566.074 505.676 560.747 502.372C555.419 499.069 550.793 493.282 551.89 486.438C552.987 479.595 560.862 472.456 568.594 468.404L568.575 468.402Z" fill="#8350AB"/>
</g>
<g style="mix-blend-mode:multiply" opacity="0.34">
<path d="M568.521 468.514C586.641 459.075 614.491 460.063 616.559 476.547C617.76 486.085 607.531 494.694 598.131 498.798C592.889 501.08 586.994 502.887 581.209 503.956C573.867 505.308 565.866 505.433 560.544 502.091C555.221 498.748 550.819 493.068 551.948 486.287C553.077 479.507 560.876 472.498 568.543 468.497L568.521 468.514Z" fill="#8151AB"/>
</g>
<g style="mix-blend-mode:multiply" opacity="0.35">
<path d="M568.468 468.626C586.456 459.29 613.951 460.273 616.05 476.505C617.28 485.967 607.097 494.522 597.802 498.58C592.643 500.833 586.809 502.627 581.063 503.701C573.68 505.067 565.615 505.224 560.3 501.823C554.984 498.423 550.784 492.866 551.962 486.171C553.14 479.475 560.847 472.573 568.448 468.624L568.468 468.626Z" fill="#7F52AC"/>
</g>
<g style="mix-blend-mode:multiply" opacity="0.37">
<path d="M568.417 468.719C586.274 459.485 613.431 460.486 615.563 476.445C616.823 485.832 606.669 494.311 597.495 498.344C592.399 500.565 586.645 502.35 580.96 503.411C573.553 504.815 565.408 504.981 560.097 501.541C554.787 498.102 550.811 492.652 552.04 486.022C553.269 479.392 560.881 472.617 568.417 468.719V468.719Z" fill="#7D53AC"/>
</g>
<g style="mix-blend-mode:multiply" opacity="0.38">
<path d="M568.383 468.833C586.088 459.719 612.908 460.719 615.074 476.404C616.365 485.696 606.254 494.142 597.205 498.131C592.192 500.322 586.501 502.075 580.872 503.163C573.423 504.581 565.213 504.799 559.909 501.301C554.606 497.803 550.83 492.496 552.11 485.932C553.391 479.368 560.889 472.717 568.381 468.853L568.383 468.833Z" fill="#7B54AC"/>
</g>
<g style="mix-blend-mode:multiply" opacity="0.39">
<path d="M568.33 468.945C585.903 459.933 612.388 460.932 614.588 476.345C615.907 485.561 605.843 493.953 596.898 497.895C591.948 500.055 586.337 501.798 580.769 502.874C573.296 504.328 565.025 504.558 559.729 501.002C554.779 497.686 550.878 492.265 552.19 485.764C553.503 479.263 560.926 472.741 568.352 468.928L568.33 468.945Z" fill="#7955AC"/>
</g>
<g style="mix-blend-mode:multiply" opacity="0.41">
<path d="M568.277 469.057C585.716 460.167 611.865 461.164 614.079 476.302C615.427 485.443 605.39 493.778 596.569 497.677C591.701 499.808 586.152 501.538 580.642 502.621C573.128 504.09 564.793 504.352 559.502 500.757C554.649 497.453 550.861 492.085 552.224 485.649C553.587 479.214 560.916 472.819 568.257 469.055L568.277 469.057Z" fill="#7756AD"/>
</g>
<g style="mix-blend-mode:multiply" opacity="0.42">
<path d="M568.245 469.152C585.553 460.365 611.364 461.379 613.611 476.245C614.989 485.31 604.997 493.592 596.281 497.444C591.477 499.543 586.007 501.263 580.558 502.334C573 503.837 564.602 504.131 559.321 500.458C554.566 497.166 550.887 491.87 552.321 485.503C553.755 479.135 560.95 472.863 568.245 469.152Z" fill="#7556AD"/>
</g>
<g style="mix-blend-mode:multiply" opacity="0.44">
<path d="M568.192 469.264C585.347 460.597 610.825 461.59 613.103 476.202C614.509 485.192 604.564 493.42 595.952 497.226C591.231 499.295 585.824 500.984 580.434 502.062C572.854 503.582 564.373 503.905 559.097 500.193C554.439 496.913 550.891 491.673 552.357 485.369C553.823 479.065 560.943 472.921 568.172 469.262L568.192 469.264Z" fill="#7357AD"/>
</g>
<g style="mix-blend-mode:multiply" opacity="0.45">
<path d="M568.158 469.379C585.182 460.814 610.321 461.824 612.633 476.164C614.068 485.078 604.15 493.251 595.682 497.015C591.043 499.055 585.697 500.731 580.365 501.816C572.741 503.371 564.198 503.725 558.93 499.935C554.37 496.667 550.935 491.481 552.449 485.262C553.964 479.043 560.992 473.006 568.158 469.379V469.379Z" fill="#7158AE"/>
</g>
<g style="mix-blend-mode:multiply" opacity="0.46">
<path d="M568.105 469.491C584.998 461.028 609.799 462.057 612.146 476.104C613.611 484.943 603.738 493.062 595.375 496.779C590.799 498.787 585.514 500.451 580.262 501.527C572.617 503.098 563.99 503.482 558.728 499.653C554.245 496.395 550.961 491.267 552.527 485.113C554.093 478.96 561.006 473.047 568.127 469.474L568.105 469.491Z" fill="#6F59AE"/>
</g>
<g style="mix-blend-mode:multiply" opacity="0.48">
<path d="M568.073 469.586C584.833 461.245 609.298 462.272 611.659 476.044C613.153 484.808 603.326 492.873 595.067 496.544C590.574 498.523 585.353 500.155 580.157 501.257C572.468 502.863 563.778 503.278 558.523 499.391C554.138 496.144 550.963 491.089 552.58 485.001C554.198 478.913 561.016 473.128 568.071 469.605L568.073 469.586Z" fill="#6D5AAE"/>
</g>
<g style="mix-blend-mode:multiply" opacity="0.49">
<path d="M568.02 469.698C584.629 461.457 608.777 462.485 611.17 476.004C612.693 484.692 602.895 492.681 594.758 496.328C590.326 498.294 585.187 499.897 580.052 500.987C572.338 502.629 563.569 503.055 558.32 499.109C554.033 495.874 550.97 490.872 552.638 484.85C554.307 478.828 561.031 473.169 568.02 469.698V469.698Z" fill="#6B5BAE"/>
</g>
<g style="mix-blend-mode:multiply" opacity="0.51">
<path d="M567.986 469.812C584.461 461.694 608.274 462.72 610.68 475.964C612.252 484.578 602.481 492.512 594.468 496.114C590.118 498.051 585.04 499.642 579.944 500.736C572.189 502.394 563.354 502.871 558.113 498.866C553.92 495.663 550.991 490.697 552.691 484.738C554.312 479.105 561.021 473.247 567.964 469.829L567.986 469.812Z" fill="#6A5CAF"/>
</g>
<g style="mix-blend-mode:multiply" opacity="0.52">
<path d="M567.933 469.924C584.277 461.908 607.754 462.933 610.191 475.923C611.794 484.443 602.067 492.342 594.158 495.898C589.891 497.806 584.874 499.384 579.839 500.466C572.06 502.16 563.144 502.647 557.91 498.584C553.795 495.391 550.996 490.5 552.767 484.609C554.436 479.061 561.053 473.31 567.933 469.924V469.924Z" fill="#685DAF"/>
</g>
<g style="mix-blend-mode:multiply" opacity="0.54">
<path d="M567.901 470.019C584.112 462.125 607.253 463.148 609.707 475.844C611.339 484.288 601.638 492.132 593.853 495.644C589.65 497.519 584.713 499.088 579.736 500.177C571.915 501.885 562.934 502.424 557.707 498.302C553.69 495.121 551.002 490.283 552.825 484.458C554.521 479.012 561.068 473.351 567.882 470.017L567.901 470.019Z" fill="#665EAF"/>
</g>
<g style="mix-blend-mode:multiply" opacity="0.55">
<path d="M567.868 470.134C583.927 462.34 606.769 463.385 609.237 475.806C610.898 484.175 601.241 491.984 593.563 495.43C589.442 497.277 584.569 498.813 579.65 499.909C571.786 501.652 562.742 502.222 557.525 498.023C553.602 494.873 551.048 490.071 552.9 484.329C554.643 478.987 561.08 473.412 567.848 470.131L567.868 470.134Z" fill="#645FAF"/>
</g>
<g style="mix-blend-mode:multiply" opacity="0.56">
<path d="M567.834 470.248C583.762 462.557 606.268 463.6 608.748 475.766C610.438 484.059 600.827 491.815 593.273 495.216C589.215 497.031 584.422 498.558 579.562 499.661C571.674 501.441 562.546 502.04 557.336 497.783C553.492 494.642 551.067 489.916 552.992 484.221C554.765 478.963 561.129 473.497 567.831 470.268L567.834 470.248Z" fill="#6260B0"/>
</g>
<g style="mix-blend-mode:multiply" opacity="0.58">
<path d="M567.802 470.343C583.597 462.774 605.767 463.816 608.28 475.709C610.019 483.929 600.437 491.609 592.985 494.984C589.01 496.769 584.278 498.283 579.479 499.374C571.549 501.168 562.337 501.817 557.153 497.503C553.404 494.394 551.094 489.702 553.067 484.092C554.886 478.938 561.161 473.561 567.797 470.382L567.802 470.343Z" fill="#6061B0"/>
</g>
<g style="mix-blend-mode:multiply" opacity="0.59">
<path d="M567.769 470.458C583.432 462.991 605.284 464.053 607.794 475.649C609.561 483.793 600.006 491.417 592.681 494.729C588.788 496.485 584.117 497.987 579.378 499.066C571.424 500.896 562.132 501.554 556.956 497.182C553.303 494.085 551.105 489.446 553.13 483.902C554.976 478.851 561.161 473.561 567.754 470.416L567.769 470.458Z" fill="#5E61B0"/>
</g>
<g style="mix-blend-mode:multiply" opacity="0.61">
<path d="M567.735 470.572C583.245 463.225 604.783 464.268 607.324 475.611C609.121 483.68 599.612 491.25 592.391 494.515C588.562 496.239 583.97 497.732 579.29 498.817C571.293 500.682 561.937 501.372 556.787 496.944C553.211 493.876 551.144 489.293 553.223 483.795C555.098 478.826 561.21 473.646 567.737 470.553L567.735 470.572Z" fill="#5C62B1"/>
</g>
<g style="mix-blend-mode:multiply" opacity="0.62">
<path d="M567.703 470.667C583.083 463.422 604.301 464.486 606.837 475.551C608.682 483.547 599.2 491.061 592.084 494.28C588.337 495.974 583.807 497.454 579.187 498.528C571.168 500.41 561.727 501.148 556.587 496.643C553.108 493.586 551.173 489.059 553.3 483.646C555.222 478.782 561.244 473.689 567.706 470.648L567.703 470.667Z" fill="#5A63B1"/>
</g>
<g style="mix-blend-mode:multiply" opacity="0.63">
<path d="M567.67 470.782C582.915 463.659 603.801 464.701 606.367 475.513C608.241 483.433 598.786 490.892 591.813 494.069C588.127 495.751 583.682 497.182 579.119 498.282C571.055 500.198 561.551 500.969 556.419 496.405C553.015 493.377 551.214 488.886 553.392 483.539C555.341 478.777 561.273 473.772 567.689 470.784L567.67 470.782Z" fill="#5864B1"/>
</g>
<g style="mix-blend-mode:multiply" opacity="0.65">
<path d="M567.636 470.896C582.75 463.876 603.317 464.938 605.897 475.475C607.822 483.303 598.391 490.725 591.523 493.855C587.92 495.508 583.535 496.927 579.033 498.015C570.945 499.967 561.337 500.784 556.233 496.145C552.924 493.149 551.238 488.691 553.465 483.429C555.443 478.75 561.303 473.855 567.655 470.898L567.636 470.896Z" fill="#5665B1"/>
</g>
<g style="mix-blend-mode:multiply" opacity="0.66">
<path d="M567.604 470.991C582.568 464.071 602.818 465.134 605.413 475.396C607.367 483.148 597.982 490.516 591.218 493.6C587.698 495.224 583.374 496.63 578.91 497.723C570.779 499.71 561.107 500.558 556.013 495.841C552.782 492.854 551.225 488.472 553.525 483.259C555.55 478.684 561.317 473.896 567.606 470.972L567.604 470.991Z" fill="#5466B2"/>
</g>
<g style="mix-blend-mode:multiply" opacity="0.68">
<path d="M567.59 471.108C582.42 464.31 602.354 465.373 604.963 475.361C606.965 483.04 597.588 490.349 590.948 493.389C587.491 494.981 583.247 496.378 578.845 497.458C570.689 499.481 560.935 500.359 555.848 495.583C552.711 492.628 551.269 488.28 553.618 483.152C555.672 478.659 561.347 473.979 567.59 471.108V471.108Z" fill="#5267B2"/>
</g>
<g style="mix-blend-mode:multiply" opacity="0.69">
<path d="M567.558 471.203C582.257 464.507 601.875 465.571 604.476 475.301C606.507 482.904 597.175 490.16 590.66 493.156C587.285 494.719 583.102 496.103 578.758 497.19C570.561 499.228 560.722 500.155 555.664 495.304C552.603 492.378 551.294 488.066 553.695 483.003C555.776 478.613 561.381 474.022 567.558 471.203V471.203Z" fill="#5068B2"/>
</g>
<g style="mix-blend-mode:multiply" opacity="0.7">
<path d="M567.544 471.32C582.109 464.746 601.41 465.811 604.025 475.265C606.105 482.796 596.803 489.976 590.389 492.945C587.078 494.476 582.975 495.85 578.692 496.925C570.471 499 560.546 499.976 555.498 495.046C552.515 492.13 551.335 487.893 553.787 482.896C555.895 478.608 561.429 474.108 567.542 471.339L567.544 471.32Z" fill="#4E69B2"/>
</g>
<g style="mix-blend-mode:multiply" opacity="0.72">
<path d="M567.532 471.417C581.947 464.943 600.951 466.012 603.56 475.188C605.689 482.646 596.393 489.768 590.104 492.692C586.875 494.194 582.814 495.553 578.609 496.638C570.344 498.747 560.336 499.752 555.317 494.747C552.429 491.862 551.364 487.659 553.887 482.73C556.044 478.527 561.485 474.134 567.534 471.398L567.532 471.417Z" fill="#4C6AB3"/>
</g>
<g style="mix-blend-mode:multiply" opacity="0.73">
<path d="M567.518 471.534C581.799 465.182 600.487 466.251 603.11 475.153C605.27 482.515 596.019 489.603 589.834 492.481C586.668 493.951 582.687 495.301 578.543 496.373C570.254 498.518 560.142 499.57 555.152 494.49C552.339 491.634 551.408 487.467 553.982 482.603C556.166 478.502 561.518 474.197 567.52 471.514L567.518 471.534Z" fill="#4A6BB3"/>
</g>
<g style="mix-blend-mode:multiply" opacity="0.75">
<path d="M567.484 471.648C581.634 465.399 600.005 466.469 602.621 475.113C604.829 482.402 595.585 489.431 589.524 492.265C586.441 493.706 582.521 495.043 578.437 496.103C570.124 498.285 559.929 499.366 554.946 494.227C552.21 491.4 551.412 487.269 554.035 482.491C556.248 478.473 561.527 474.278 567.465 471.646L567.484 471.648Z" fill="#486CB3"/>
</g>
<g style="mix-blend-mode:multiply" opacity="0.76">
<path d="M567.491 471.748C581.51 465.601 599.565 466.672 602.192 475.06C604.449 482.276 595.231 489.25 589.294 492.039C586.294 493.45 582.435 494.775 578.41 495.843C570.053 498.059 559.773 499.189 554.821 493.955C552.18 491.159 551.497 487.062 554.19 482.352C556.43 478.436 561.639 474.331 567.511 471.751L567.491 471.748Z" fill="#466CB3"/>
</g>
<g style="mix-blend-mode:multiply" opacity="0.77">
<path d="M567.477 471.865C581.343 465.838 599.121 466.914 601.723 475.022C604.028 482.165 594.837 489.082 589.005 491.826C586.068 493.205 582.289 494.52 578.324 495.575C569.943 497.828 559.559 499.004 554.636 493.695C552.07 490.928 551.499 486.885 554.263 482.242C556.533 478.409 561.649 474.411 567.475 471.885L567.477 471.865Z" fill="#446DB4"/>
</g>
<g style="mix-blend-mode:multiply" opacity="0.79">
<path d="M567.465 471.962C581.2 466.038 598.661 467.114 601.277 474.948C603.634 481.998 594.447 488.876 588.739 491.576C585.885 492.926 582.167 494.228 578.261 495.291C569.835 497.577 559.369 498.783 554.475 493.398C551.984 490.661 551.547 486.653 554.363 482.077C556.659 478.346 561.705 474.438 567.468 471.943L567.465 471.962Z" fill="#426EB4"/>
</g>
<g style="mix-blend-mode:multiply" opacity="0.8">
<path d="M567.47 472.082C581.071 466.279 598.219 467.337 600.827 474.912C603.232 481.889 594.072 488.712 588.468 491.365C585.677 492.683 582.039 493.976 578.194 495.026C569.745 497.349 559.173 498.601 554.309 493.141C551.894 490.432 551.59 486.461 554.455 481.969C556.781 478.321 561.754 474.523 567.451 472.079L567.47 472.082Z" fill="#406FB4"/>
</g>
<g style="mix-blend-mode:multiply" opacity="0.82">
<path d="M567.458 472.179C580.928 466.479 597.779 467.54 600.379 474.857C602.835 481.742 593.702 488.508 588.22 491.136C585.511 492.425 581.934 493.706 578.128 494.761C569.654 497.12 558.978 498.419 554.165 492.866C551.825 490.187 551.656 486.252 554.591 481.828C556.944 478.282 561.827 474.572 567.478 472.181L567.458 472.179Z" fill="#3E70B5"/>
</g>
<g style="mix-blend-mode:multiply" opacity="0.83">
<path d="M567.464 472.298C580.78 466.718 597.336 467.762 599.929 474.822C602.521 481.881 593.307 488.341 587.949 490.925C585.304 492.182 581.807 493.453 578.062 494.495C569.544 496.889 558.764 498.235 553.999 492.608C551.735 489.958 551.68 486.057 554.686 481.701C557.068 478.238 561.879 474.637 567.464 472.298Z" fill="#3C71B5"/>
</g>
<g style="mix-blend-mode:multiply" opacity="0.85">
<path d="M567.471 472.398C580.657 466.92 596.913 467.987 599.5 474.769C602.087 481.551 592.954 488.159 587.7 490.697C585.138 491.924 581.702 493.183 578.015 494.233C569.473 496.663 558.586 498.074 553.852 492.353C551.683 489.734 551.742 485.867 554.797 481.596C557.206 478.235 561.947 474.725 567.466 472.437L567.471 472.398Z" fill="#3A72B5"/>
</g>
<g style="mix-blend-mode:multiply" opacity="0.86">
<path d="M567.476 472.517C580.531 467.142 596.49 468.212 599.072 474.716C601.654 481.221 592.601 487.978 587.452 490.469C584.952 491.664 581.597 492.913 577.97 493.95C569.405 496.418 558.393 497.873 553.71 492.059C551.617 489.469 551.81 485.638 554.936 481.435C557.374 478.157 562.022 474.754 567.498 472.5L567.476 472.517Z" fill="#3873B5"/>
</g>
<g style="mix-blend-mode:multiply" opacity="0.87">
<path d="M567.484 472.617C580.405 467.363 596.07 468.417 598.624 474.661C601.178 480.906 592.208 487.791 587.183 490.238C584.764 491.424 581.491 492.643 577.904 493.685C569.292 496.206 558.198 497.691 553.544 491.801C551.526 489.241 551.834 485.443 555.028 481.328C557.493 478.151 562.071 474.839 567.481 472.637L567.484 472.617Z" fill="#3674B6"/>
</g>
<g style="mix-blend-mode:multiply" opacity="0.89">
<path d="M567.489 472.736C580.259 467.583 595.63 468.62 598.193 474.628C600.938 481.094 591.853 487.629 586.952 490.032C584.616 491.188 581.403 492.395 577.877 493.425C569.241 495.982 558.02 497.53 553.42 491.529C551.458 488.995 551.919 485.236 555.164 481.187C557.659 478.093 562.164 474.89 567.508 472.739L567.489 472.736Z" fill="#3475B6"/>
</g>
<g style="mix-blend-mode:multiply" opacity="0.9">
<path d="M567.516 472.839C580.152 467.807 595.229 468.828 597.765 474.576C600.58 480.951 591.499 487.447 586.705 489.784C584.432 490.909 581.3 492.106 577.835 493.123C569.174 495.717 557.83 497.309 553.278 491.235C551.391 488.73 551.967 485.005 555.3 481.045C557.824 478.034 562.237 474.938 567.535 472.841L567.516 472.839Z" fill="#3276B6"/>
</g>
<g style="mix-blend-mode:multiply" opacity="0.92">
<path d="M567.54 472.96C580.046 468.031 594.825 469.055 597.356 474.526C600.241 480.81 591.148 487.246 586.476 489.558C584.288 490.634 581.214 491.838 577.807 492.863C569.122 495.493 557.632 497.147 553.15 490.982C551.339 488.506 552.049 484.817 555.433 480.923C557.987 477.995 562.327 475.009 567.56 472.963L567.54 472.96Z" fill="#3077B6"/>
</g>
<g style="mix-blend-mode:multiply" opacity="0.93">
<path d="M567.548 473.06C579.919 468.253 594.404 469.26 596.908 474.471C599.863 480.665 590.775 487.062 586.208 489.328C584.083 490.372 581.09 491.566 577.743 492.578C569.012 495.262 557.417 496.962 552.989 490.685C551.253 488.238 552.08 484.564 555.53 480.777C558.111 477.95 562.381 475.055 567.55 473.04L567.548 473.06Z" fill="#2E77B7"/>
</g>
<g style="mix-blend-mode:multiply" opacity="0.94">
<path d="M567.572 473.182C579.794 468.475 594.023 469.471 596.496 474.44C599.542 480.547 590.42 486.899 585.996 489.124C583.951 490.158 581.021 491.32 577.733 492.34C568.978 495.06 557.237 496.821 552.879 490.454C551.219 488.037 552.16 484.396 555.681 480.677C558.272 477.931 562.468 475.145 567.592 473.184L567.572 473.182Z" fill="#2C78B7"/>
</g>
<g style="mix-blend-mode:multiply" opacity="0.96">
<path d="M567.6 473.284C579.69 468.679 593.624 469.659 596.068 474.387C599.186 480.384 590.067 486.717 585.747 488.895C583.766 489.898 580.916 491.05 577.689 492.058C568.907 494.834 557.042 496.639 552.738 490.16C551.133 487.769 552.228 484.167 555.819 480.516C558.44 477.852 562.564 475.176 567.602 473.264L567.6 473.284Z" fill="#2A79B7"/>
</g>
<g style="mix-blend-mode:multiply" opacity="0.97">
<path d="M567.624 473.405C579.581 468.923 593.221 469.886 595.657 474.356C598.868 480.246 589.711 486.555 585.516 488.689C583.617 489.662 580.828 490.802 577.64 491.814C568.834 494.627 556.823 496.494 552.589 489.925C551.063 487.543 552.272 483.975 555.929 480.43C558.579 477.85 562.63 475.283 567.603 473.422L567.624 473.405Z" fill="#287AB7"/>
</g>
<g style="mix-blend-mode:multiply" opacity="0.99">
<path d="M567.729 473.517C579.554 469.137 592.9 470.084 595.309 474.294C598.612 480.077 589.441 486.344 585.347 488.451C583.512 489.392 580.803 490.522 577.676 491.522C568.843 494.391 556.669 496.297 552.527 489.62C551.076 487.268 552.419 483.736 556.128 480.257C558.807 477.759 562.766 475.3 567.695 473.473L567.729 473.517Z" fill="#267BB8"/>
</g>
<g style="mix-blend-mode:multiply">
<path d="M577.607 491.276C568.75 494.182 556.43 496.149 552.359 489.382C549.98 485.413 556.004 477.889 567.695 473.631C579.367 469.371 592.46 470.287 594.839 474.256C598.234 479.931 589.046 486.177 585.076 488.24C583.324 489.151 580.676 490.269 577.607 491.276Z" fill="#247CB8"/>
</g>
</g>
<path d="M522.66 468.833C522.596 468.549 522.53 468.284 522.464 468.018C521.916 465.559 521.564 462.63 521.676 459.302C521.697 457.684 521.884 455.513 522.46 452.915C522.597 452.279 522.761 451.587 522.964 450.901C523.005 450.728 523.066 450.557 523.105 450.404C523.112 450.345 523.141 450.27 523.167 450.214C523.23 450.024 523.274 449.832 523.334 449.661C523.629 448.709 523.977 447.803 524.321 446.936C524.435 446.653 524.549 446.37 524.682 446.09L524.735 445.978C524.82 445.771 524.902 445.584 525.004 445.398C525.733 443.808 526.536 442.423 527.36 441.18C527.508 440.942 527.676 440.705 527.843 440.469C527.916 440.359 527.986 440.269 528.057 440.179C528.127 440.088 528.178 439.996 528.251 439.886L528.345 439.759C528.345 439.759 528.416 439.669 528.442 439.613C528.491 439.54 528.561 439.45 528.632 439.36C529.767 437.838 530.731 436.751 531.571 435.866C531.593 435.848 531.617 435.812 531.639 435.795L531.634 435.834C531.685 435.741 531.775 435.653 531.865 435.566C532.205 435.212 532.63 434.809 533.052 434.426C533.278 434.197 533.521 433.99 533.72 433.816C534.274 433.331 535.047 432.675 535.654 432.235C535.941 431.994 536.242 431.793 536.524 431.591L536.563 431.596C536.74 431.439 536.913 431.322 537.063 431.222C537.28 431.071 537.494 430.939 537.71 430.787C538.356 430.353 539.042 429.923 539.783 429.52C540.359 429.175 540.95 428.872 541.579 428.574C544.715 427.022 548.025 425.985 551.494 425.422C553.273 425.107 555.39 424.932 557.697 424.978L557.95 425.009L557.955 424.97C558.605 424.991 559.215 425.006 559.88 425.068C560.33 425.104 560.839 425.146 561.287 425.201C561.287 425.201 561.287 425.201 561.306 425.204L561.443 425.221C562.163 425.309 562.494 425.35 563.035 425.456L563.21 425.477C563.809 425.59 564.216 425.66 564.734 425.783C565.06 425.862 565.406 425.944 565.732 426.024L565.791 426.031C566.232 426.145 566.653 426.256 567.091 426.389L567.15 426.396C567.53 426.521 567.892 426.625 568.272 426.751C568.538 426.843 568.784 426.932 569.049 427.024C569.144 427.056 569.239 427.087 569.354 427.121C571.945 428.072 573.892 429.121 575.069 429.839C575.198 429.914 575.291 429.965 575.344 430.011C575.897 430.336 576.392 430.654 576.794 430.921C576.921 431.016 577.05 431.091 577.196 431.188L577.235 431.193L577.269 431.236C577.925 431.692 578.744 432.267 579.749 433.102C584.473 436.964 588.018 441.907 590.15 447.565C590.208 447.731 590.267 447.896 590.326 448.062L590.358 448.125C590.686 448.995 590.989 449.902 591.191 450.678L591.232 450.822C591.394 451.435 591.566 452.128 591.719 452.819C591.746 452.921 591.77 453.043 591.797 453.145L591.852 453.507C591.901 453.751 591.95 453.994 591.98 454.235C592.086 454.821 592.174 455.386 592.231 455.887C592.293 456.349 592.338 456.789 592.363 457.227L592.383 457.388C592.403 457.549 592.406 457.687 592.426 457.848C592.436 458.086 592.466 458.327 592.476 458.566L592.464 458.663C592.815 464.657 591.621 470.52 588.965 475.887C588.89 476.016 588.832 476.167 588.757 476.297C588.73 476.353 588.701 476.428 588.674 476.484C588.57 476.689 588.468 476.874 588.369 477.04C586.125 481.311 583.127 484.798 579.843 487.558C574.212 492.362 567.827 494.939 561.688 495.51L561.527 495.529C561.245 495.574 560.946 495.596 560.647 495.619C560.527 495.624 560.406 495.649 560.306 495.656C560.145 495.676 559.987 495.676 559.846 495.699C559.647 495.714 559.486 495.734 559.308 495.731L559.289 495.729C558.571 495.779 558.116 495.783 558.077 495.778C557.481 495.804 557.087 495.795 556.437 495.774L556.32 495.76C556.32 495.76 556.22 495.767 556.181 495.763L556.045 495.746C555.787 495.754 555.512 495.74 555.237 495.726L555.12 495.711L554.648 495.693L554.589 495.686C554.117 495.667 553.494 495.591 552.988 495.529L552.968 495.526C552.968 495.526 552.871 495.514 552.832 495.51L552.501 495.469C551.975 495.404 551.664 495.366 551.181 495.267C551.143 495.263 551.084 495.255 551.045 495.251L551.026 495.248C550.695 495.208 550.368 495.128 550.023 495.046C549.886 495.029 549.752 494.993 549.618 494.957C549.463 494.938 549.309 494.899 549.156 494.86C549 494.841 548.81 494.779 548.637 494.738C547.965 494.576 547.315 494.397 546.706 494.204L546.667 494.199C543.221 493.124 540.661 491.761 539.206 490.891C539.077 490.816 538.984 490.765 538.93 490.719C538.545 490.474 538.177 490.251 537.812 490.008C537.702 489.935 537.593 489.862 537.483 489.79C537.042 489.518 536.352 489.018 535.594 488.431C534.129 487.322 532.775 486.108 531.588 484.835C531.395 484.634 531.219 484.454 531.066 484.257C530.944 484.124 530.804 483.968 530.665 483.813C528.021 480.879 526.318 478.001 525.225 475.633C525.13 475.443 525.054 475.256 524.959 475.066L524.91 474.981C523.913 472.803 523.239 470.723 522.762 468.806L522.735 468.704L522.66 468.833Z" fill="url(#paint0_radial_79_2055)"/>
<defs>
<radialGradient id="paint0_radial_79_2055" cx="0" cy="0" r="1" gradientUnits="userSpaceOnUse" gradientTransform="translate(533.76 457.005) rotate(-145.039) scale(42.7669 42.7683)">
<stop offset="0.02" stop-color="#BCDEE7"/>
<stop offset="0.46" stop-color="#BDDEE7"/>
<stop offset="0.64" stop-color="#C5E2EA"/>
<stop offset="0.77" stop-color="#D1E8EE"/>
<stop offset="0.88" stop-color="#E2F1F4"/>
<stop offset="0.97" stop-color="#F9FCFC"/>
<stop offset="0.99" stop-color="white"/>
</radialGradient>
</defs>
</svg>
