<svg width="1645" height="1221" viewBox="0 0 1645 1221" fill="none" xmlns="http://www.w3.org/2000/svg">
<path d="M183.337 593.031C183.31 592.929 183.283 592.827 183.256 592.725C183.054 591.791 182.913 590.686 182.952 589.406C182.967 588.795 183.029 587.972 183.248 586.991C183.296 586.76 183.369 586.492 183.441 586.224C183.449 586.165 183.478 586.09 183.504 586.034L183.514 585.956C183.514 585.956 183.569 585.824 183.598 585.749C183.722 585.389 183.843 585.048 183.983 584.709C184.036 584.597 184.068 584.502 184.121 584.39L184.126 584.351C184.126 584.351 184.204 584.202 184.233 584.127C184.504 583.527 184.807 582.991 185.12 582.536C185.171 582.443 185.241 582.353 185.292 582.26L185.365 582.15C185.365 582.15 185.413 582.077 185.438 582.041L185.445 581.982L185.51 581.931L185.581 581.841C186.008 581.261 186.374 580.851 186.692 580.515L186.697 580.476L186.787 580.388C186.923 580.246 187.078 580.107 187.236 579.949C187.326 579.861 187.414 579.793 187.482 579.722C187.703 579.531 187.989 579.29 188.208 579.119C188.317 579.034 188.427 578.948 188.536 578.863C188.536 578.863 188.667 578.76 188.73 578.729C188.815 578.68 188.903 578.611 188.968 578.56C189.207 578.392 189.484 578.228 189.758 578.084C189.972 577.952 190.203 577.842 190.437 577.712C191.616 577.126 192.89 576.729 194.201 576.514C194.887 576.401 195.688 576.321 196.554 576.348L196.671 576.363C196.909 576.352 197.146 576.362 197.399 576.393C197.574 576.414 197.769 576.438 197.925 576.457L197.983 576.464C198.256 576.498 198.372 576.512 198.587 576.538L198.665 576.548C198.898 576.577 199.052 576.615 199.244 576.659C199.38 576.676 199.495 576.709 199.629 576.745L199.648 576.748C199.821 576.789 199.974 576.828 200.145 576.888C200.279 576.924 200.43 576.982 200.564 577.018C200.659 577.05 200.754 577.081 200.868 577.115C200.907 577.12 200.946 577.125 200.983 577.149C201.967 577.507 202.707 577.914 203.148 578.186L203.258 578.259C203.46 578.382 203.663 578.506 203.809 578.603L203.955 578.7L203.975 578.703C204.228 578.892 204.538 579.108 204.913 579.431C206.71 580.897 208.06 582.782 208.865 584.917C208.897 584.981 208.909 585.041 208.941 585.105C209.056 585.455 209.171 585.805 209.255 586.092L209.247 586.15C209.338 586.379 209.404 586.644 209.451 586.907L209.476 587.029L209.498 587.17C209.498 587.17 209.535 587.352 209.542 587.452C209.574 587.673 209.609 587.875 209.643 588.077C209.661 588.257 209.681 588.418 209.7 588.578L209.693 588.637C209.693 588.637 209.718 588.758 209.711 588.817C209.699 588.914 209.728 588.997 209.736 589.097L209.731 589.136C209.867 591.406 209.415 593.644 208.394 595.673C208.387 595.732 208.341 595.785 208.317 595.822L208.307 595.9C208.307 595.9 208.21 596.046 208.162 596.119C207.311 597.735 206.177 599.078 204.924 600.11C202.781 601.943 200.369 602.912 198.029 603.138L197.951 603.129C197.849 603.156 197.727 603.18 197.608 603.185L197.472 603.169C197.472 603.169 197.348 603.213 197.289 603.206C197.289 603.206 197.15 603.208 197.09 603.221C196.81 603.246 196.652 603.246 196.632 603.244C196.394 603.254 196.255 603.257 196.019 603.247L195.863 603.228C195.863 603.228 195.664 603.243 195.547 603.229L195.294 603.198C195.113 603.215 194.88 603.187 194.685 603.163C194.685 603.163 194.646 603.158 194.627 603.155L194.51 603.141C194.315 603.117 194.198 603.103 194.003 603.079L193.945 603.072C193.828 603.057 193.692 603.041 193.558 603.005C193.499 602.997 193.461 602.993 193.402 602.985C193.344 602.978 193.285 602.971 193.227 602.964C193.168 602.957 193.091 602.947 193.035 602.921C192.786 602.85 192.538 602.78 192.309 602.713C190.996 602.295 190.031 601.781 189.478 601.456L189.366 601.402C189.22 601.305 189.091 601.23 188.945 601.133L188.815 601.058C188.65 600.959 188.377 600.767 188.089 600.534C187.528 600.109 187.011 599.651 186.575 599.182C186.504 599.114 186.436 599.026 186.365 598.958C186.311 598.912 186.26 598.847 186.209 598.781C185.199 597.669 184.561 596.582 184.138 595.68C184.109 595.597 184.077 595.534 184.046 595.471L184.05 595.432C183.657 594.613 183.399 593.81 183.213 593.076L183.218 593.037L183.337 593.031Z" fill="url(#paint0_radial_79_2055)"/>
<defs>
<radialGradient id="paint0_radial_79_2055" cx="0" cy="0" r="1" gradientUnits="userSpaceOnUse" gradientTransform="translate(196.997 590.933) rotate(7) scale(15.3236 15.3244)">
<stop offset="0.54" stop-color="#CE5FB1"/>
<stop offset="0.61" stop-color="#CF63B3"/>
<stop offset="0.68" stop-color="#D36FB9"/>
<stop offset="0.76" stop-color="#D984C3"/>
<stop offset="0.83" stop-color="#E2A1D1"/>
<stop offset="0.91" stop-color="#EDC7E3"/>
<stop offset="0.98" stop-color="#FBF4FA"/>
<stop offset="1" stop-color="white"/>
</radialGradient>
</defs>
</svg>
