<svg width="1491" height="820" viewBox="0 0 1491 820" fill="none" xmlns="http://www.w3.org/2000/svg">
<path d="M1679.07 302.77C1536.21 291.451 1466.06 341.464 1402.78 397.146C1395.94 403.153 1389.31 409.187 1382.63 414.997C1335.93 455.693 1289.55 489.566 1222.16 509.132C1183.61 520.331 1141 522.343 1097.94 522.478C1071.22 522.573 1044.22 521.819 1017.84 521.798C954.359 521.787 889.202 525.319 830.64 548.372C808.559 557.053 787.851 568.284 767.871 581.092C716.44 614.1 670.28 657.675 615.715 685.038C608.887 688.455 601.951 691.641 594.874 694.531C536.278 718.47 471.246 721.484 407.45 719.493C402.367 719.336 397.288 719.139 392.213 718.924C325.973 716.086 259.045 709.519 192.792 718.509C190.274 718.859 187.776 719.211 185.254 719.6C116.491 730.266 47.0498 761.339 7.7031 819.497L0.87572 778.958C38.6068 718.436 106.592 682.369 175.85 665.377C245.107 648.384 317.154 647.892 388.255 642.59C459.376 637.291 532.057 626.455 594.108 591.308C678.022 543.792 734.167 456.611 818.801 410.414C876.424 378.952 942.999 368.837 1008.19 361.155C1078.71 352.831 1155.86 348.225 1219.29 313.552C1298.57 270.229 1341.88 204.014 1388.25 130.614C1440.96 47.1871 1497.4 -22.7248 1657.68 7.72378L1679 302.802L1679.07 302.77Z" fill="url(#paint0_linear_40_376)"/>
<defs>
<linearGradient id="paint0_linear_40_376" x1="-32.3867" y1="661.517" x2="1653.25" y2="184.572" gradientUnits="userSpaceOnUse">
<stop stop-color="#FC8683"/>
<stop offset="0.44" stop-color="#ED6662"/>
<stop offset="1" stop-color="#D93933"/>
</linearGradient>
</defs>
</svg>
