<svg width="1477" height="334" viewBox="0 0 1477 334" fill="none" xmlns="http://www.w3.org/2000/svg">
<path d="M1707.72 295.948C1599.7 322.866 1504.22 334.417 1417.75 333.277C1409.04 333.168 1400.41 333.031 1391.87 332.649C1332.97 330.019 1276.68 319.575 1213.84 303.345C1176.16 293.606 1137.37 280.323 1097.73 267.82C1073.22 260.126 1048.2 252.584 1023.06 246.096C963.04 230.683 900.68 221.042 840.238 227.296C817.405 229.649 795.001 234.214 772.86 240.889C715.957 258.101 662.624 289.283 604.258 300.629C596.974 302.049 589.672 303.15 582.327 303.969C521.489 310.686 459.614 296.34 400.282 278.819C395.556 277.422 390.812 276.002 386.091 274.566C324.403 255.833 262.378 234.782 197.443 231.339C194.988 231.202 192.508 231.102 190.043 231.043C122.268 229.076 49.8994 250.12 7.34091 303.554L0.513523 263.015C41.4564 207.218 112.371 181.16 180.639 176.82C183.131 176.665 185.621 176.529 188.107 176.433C253.702 173.649 318.178 187.458 382.131 198.252C387.03 199.078 391.931 199.885 396.835 200.672C458.408 210.429 521.832 216.091 581.559 200.765C588.759 198.918 595.88 196.766 602.935 194.347C659.402 174.982 709.137 137.622 763.315 112.504C784.368 102.741 805.931 94.8643 828.379 89.336C887.883 74.6732 951.639 77.7469 1013.4 85.4504C1039.17 88.7163 1065.18 92.8639 1090.79 96.6623C1132.13 102.835 1172.85 108.593 1210.96 107.743C1276.09 106.285 1327.38 94.2876 1380.21 75.3273C1387.8 72.6014 1395.43 69.6031 1403.22 66.7051C1477.91 38.9364 1560.92 8.65346 1686.35 0.843514L1707.66 295.922L1707.72 295.948Z" fill="url(#paint0_linear_40_378)"/>
<defs>
<linearGradient id="paint0_linear_40_378" x1="7.09081" y1="313.215" x2="1704.7" y2="155.287" gradientUnits="userSpaceOnUse">
<stop offset="0.18" stop-color="#6BFFCE"/>
<stop offset="1" stop-color="#00BABC"/>
</linearGradient>
</defs>
</svg>
