<svg width="852" height="697" viewBox="0 0 852 697" fill="none" xmlns="http://www.w3.org/2000/svg">
<path d="M191.486 432.078C254.181 408.566 320.962 401.167 386.008 386.78C451.074 372.395 517.182 349.421 565.651 301.414C589.194 278.103 607.596 249.84 626.661 222.414C645.724 195.008 666.023 167.839 692.2 147.893C724.584 123.203 780.264 100.098 818.4 135.434C869.883 183.145 817.664 271.185 779.879 303.747C684.823 385.7 578.701 441.96 457.643 468.925C434.227 474.132 410.56 478.059 386.789 480.629C322.12 487.606 256.574 484.916 192.534 497.158C156.925 503.965 121.621 515.955 90.2813 535.437C62.3579 552.805 45.536 576.464 23.5653 599.857C44.6064 518.936 119.689 458.992 191.466 432.075L191.486 432.078Z" fill="url(#paint0_linear_40_368)"/>
<g style="mix-blend-mode:overlay" opacity="0.8">
<path d="M171.486 402.078C234.181 378.566 300.962 371.167 366.008 356.78C431.074 342.395 497.182 319.421 545.651 271.414C569.194 248.103 587.596 219.84 606.661 192.414C625.724 165.008 646.023 137.839 672.2 117.893C704.584 93.2034 760.264 70.0979 798.4 105.434C849.883 153.145 797.664 241.185 759.879 273.747C664.823 355.7 558.701 411.96 437.643 438.925C414.227 444.132 390.56 448.059 366.789 450.629C302.12 457.606 236.574 454.916 172.534 467.158C136.925 473.965 101.621 485.955 70.2813 505.437C42.3579 522.805 25.536 546.464 3.56529 569.857C24.6064 488.936 99.6894 428.992 171.466 402.075L171.486 402.078Z" fill="#C8FCF2"/>
</g>
<defs>
<linearGradient id="paint0_linear_40_368" x1="60.1196" y1="315.011" x2="811.861" y2="411.43" gradientUnits="userSpaceOnUse">
<stop stop-color="#FC75B1"/>
<stop offset="0.67" stop-color="#B03BA4"/>
<stop offset="1" stop-color="#90229F"/>
</linearGradient>
</defs>
</svg>
