<svg width="1470" height="400" viewBox="0 0 1470 400" fill="none" xmlns="http://www.w3.org/2000/svg">
<path d="M1722.04 366.027C1622.46 416.637 1501.22 403.836 1396.49 364.984C1291.77 326.132 1197.72 263.624 1097.64 214.012C997.559 164.4 885.717 127.068 775.362 144.309C715.732 153.634 658.804 178.597 598.556 181.948C528.686 185.825 460.724 160.333 396.725 132.006C332.746 103.681 269 71.6869 199.813 61.2898C130.61 50.8707 52.9668 66.1543 7.20725 119.098L0.379867 78.5588C42.9384 25.1253 115.287 4.07851 183.082 6.0479C185.564 6.12886 188.024 6.22675 190.482 6.34414C255.417 9.78655 317.422 30.8352 379.13 49.5708C383.851 51.0073 388.595 52.4268 393.321 53.8244C452.653 71.3452 514.509 85.6883 575.366 78.9737C582.711 78.1551 590.013 77.0541 597.297 75.6342C655.663 64.2875 708.996 33.1064 765.899 15.8944C788.023 9.1969 810.444 4.65428 833.277 2.30092C893.702 -3.97457 956.079 5.6876 1016.1 21.1006C1041.24 27.5892 1066.26 35.1313 1090.77 42.8251C1130.4 55.3058 1169.2 68.6113 1206.88 78.3503C1269.72 94.5803 1326.01 105.004 1384.91 107.653C1393.45 108.036 1402.06 108.151 1410.79 108.281C1497.26 109.403 1592.74 97.8707 1700.76 70.9534L1722.08 366.032L1722.04 366.027Z" fill="url(#paint0_linear_40_375)"/>
<defs>
<linearGradient id="paint0_linear_40_375" x1="94.4021" y1="262.843" x2="1833.93" y2="128.806" gradientUnits="userSpaceOnUse">
<stop offset="0.02" stop-color="#62E1FF"/>
<stop offset="0.06" stop-color="#63DCFC"/>
<stop offset="1" stop-color="#7D72C7"/>
</linearGradient>
</defs>
</svg>
