<svg width="317" height="475" viewBox="0 0 317 475" fill="none" xmlns="http://www.w3.org/2000/svg">
<g style="mix-blend-mode:multiply">
<g style="mix-blend-mode:multiply" opacity="0.01">
<path d="M215.846 233.678C316.384 177.77 485.385 183.086 490.013 290.128C492.464 343.657 439.506 389.644 382.546 413.476C349.73 427.19 314.619 438.136 280.791 442.165C249.903 445.939 219.915 443.932 194.064 432.961C158.156 417.732 124.597 382.488 125.294 342.973C125.973 300.667 173.222 257.39 215.843 233.697L215.846 233.678Z" fill="#F09725"/>
</g>
<g style="mix-blend-mode:multiply" opacity="0.03">
<path d="M215.601 234.2C315.499 178.804 482.68 184.124 487.67 289.887C490.171 343.027 437.499 388.793 381.082 412.398C348.62 425.979 313.808 436.747 280.264 440.871C249.211 444.703 218.872 442.809 193.085 431.648C157.664 416.324 124.683 381.51 125.573 342.336C126.511 300.479 173.268 257.653 215.603 234.181L215.601 234.2Z" fill="#EF9726"/>
</g>
<g style="mix-blend-mode:multiply" opacity="0.04">
<path d="M215.336 234.72C314.576 179.833 480.114 185.16 485.325 289.665C487.951 342.445 435.472 387.94 379.613 411.359C347.504 424.807 313.004 435.456 279.75 439.638C248.545 443.569 217.858 441.769 192.096 430.413C157.159 415.013 124.739 380.607 125.826 341.756C126.983 300.341 173.283 257.991 215.336 234.72V234.72Z" fill="#EF9827"/>
</g>
<g style="mix-blend-mode:multiply" opacity="0.06">
<path d="M215.091 235.243C313.689 180.886 477.549 186.195 482.982 289.424C485.736 341.825 433.464 387.089 378.127 410.298C346.371 423.613 312.186 434.125 279.221 438.364C246.256 442.602 216.83 440.688 191.112 429.14C156.66 413.663 124.801 379.666 126.1 341.158C127.478 300.187 173.324 258.293 215.089 235.262L215.091 235.243Z" fill="#EF9829"/>
</g>
<g style="mix-blend-mode:multiply" opacity="0.07">
<path d="M214.826 235.763C312.766 181.915 474.982 187.231 480.636 289.203C483.518 341.224 431.437 386.235 376.657 409.259C345.255 422.442 311.402 432.837 278.69 437.109C245.978 441.38 215.779 439.623 190.128 427.866C156.16 412.313 124.862 378.724 126.358 340.538C127.955 300.011 173.328 258.57 214.826 235.763Z" fill="#EE992A"/>
</g>
<g style="mix-blend-mode:multiply" opacity="0.08">
<path d="M214.584 236.266C311.884 182.929 472.439 188.25 478.296 288.942C481.306 340.584 429.433 385.365 375.196 408.161C344.15 421.192 310.605 431.489 278.183 435.817C246.486 440.04 214.773 438.525 189.166 426.576C155.681 410.965 124.946 377.765 126.635 339.921C128.433 299.835 173.368 258.872 214.584 236.266V236.266Z" fill="#EE992B"/>
</g>
<g style="mix-blend-mode:multiply" opacity="0.1">
<path d="M214.339 236.788C310.978 183.98 469.873 189.286 475.973 288.703C479.11 339.966 427.428 384.495 373.749 407.105C343.037 420.001 309.824 430.182 277.693 434.548C245.562 438.913 213.784 437.448 188.201 425.305C155.201 409.618 125.007 376.824 126.929 339.325C128.945 299.703 173.428 259.177 214.358 236.79L214.339 236.788Z" fill="#EE9A2C"/>
</g>
<g style="mix-blend-mode:multiply" opacity="0.11">
<path d="M214.074 237.308C310.074 185.012 467.307 190.322 473.608 288.479C476.873 339.363 425.398 383.661 372.241 406.061C341.882 418.824 308.981 428.887 277.123 433.287C245.264 437.688 212.714 436.381 187.176 424.046C154.657 408.302 125.027 375.896 127.145 338.72C129.381 299.541 173.41 259.471 214.052 237.325L214.074 237.308Z" fill="#EE9A2D"/>
</g>
<g style="mix-blend-mode:multiply" opacity="0.13">
<path d="M213.829 237.83C309.19 186.046 464.76 191.36 471.265 288.238C474.656 338.762 423.374 382.788 370.777 404.983C340.771 417.613 308.182 427.558 276.616 431.996C245.049 436.434 211.705 435.302 186.217 422.736C154.177 406.955 125.113 374.918 127.424 338.083C129.861 299.345 173.434 259.751 213.813 237.809L213.829 237.83Z" fill="#ED9B2E"/>
</g>
<g style="mix-blend-mode:multiply" opacity="0.14">
<path d="M213.585 238.353C308.287 187.077 462.233 192.401 468.94 288.019C472.458 338.163 421.384 381.959 369.328 403.947C339.675 416.444 307.417 426.273 276.121 430.765C244.825 435.258 210.711 434.265 185.267 421.506C153.69 405.666 125.189 374.018 127.736 337.51C130.392 299.216 173.511 260.077 213.604 238.355L213.585 238.353Z" fill="#ED9B2F"/>
</g>
<g style="mix-blend-mode:multiply" opacity="0.15">
<path d="M213.32 238.873C307.38 188.128 459.667 193.437 466.577 287.775C470.223 337.541 419.339 381.083 367.842 402.886C338.542 415.25 306.594 424.98 275.592 429.491C244.59 434.001 209.68 433.203 184.263 420.23C153.166 404.352 125.231 373.074 127.971 336.907C130.845 299.076 173.512 260.374 213.317 238.892L213.32 238.873Z" fill="#ED9C31"/>
</g>
<g style="mix-blend-mode:multiply" opacity="0.17">
<path d="M213.077 239.376C306.479 189.14 457.123 194.456 464.256 287.517C468.03 336.903 417.354 380.215 366.38 401.788C337.434 414.02 305.798 423.632 275.068 428.177C242.4 433.028 208.676 432.085 183.284 418.917C152.664 403.022 125.297 372.093 128.233 336.248C131.308 298.858 173.538 260.635 213.06 239.354L213.077 239.376Z" fill="#EC9D32"/>
</g>
<g style="mix-blend-mode:multiply" opacity="0.18">
<path d="M212.832 239.898C305.594 190.174 454.596 195.497 461.911 287.295C465.81 336.322 415.327 379.362 364.911 400.749C336.299 412.846 304.994 422.342 274.553 426.944C241.715 431.891 207.659 431.065 182.317 417.666C152.176 401.733 125.356 371.171 128.525 335.673C131.819 298.726 173.575 260.956 212.832 239.898V239.898Z" fill="#EC9D33"/>
</g>
<g style="mix-blend-mode:multiply" opacity="0.2">
<path d="M212.587 240.421C304.688 191.225 452.069 196.538 459.587 287.057C463.634 335.706 413.339 378.514 363.464 399.693C335.208 411.638 304.229 421.057 274.064 425.675C241.074 430.721 206.667 430.008 181.372 416.397C151.709 400.446 125.454 370.254 128.819 335.077C132.311 298.591 173.635 261.261 212.604 240.443L212.587 240.421Z" fill="#EC9E34"/>
</g>
<g style="mix-blend-mode:multiply" opacity="0.21">
<path d="M212.344 240.924C303.806 192.24 449.525 197.557 457.245 286.816C461.419 335.086 411.314 377.641 362 398.615C334.097 410.427 303.43 419.728 273.537 424.381C240.374 429.544 205.658 428.929 180.371 415.102C151.165 399.13 125.479 369.288 129.059 334.435C132.639 299.583 173.642 261.519 212.325 240.921L212.344 240.924Z" fill="#EB9E35"/>
</g>
<g style="mix-blend-mode:multiply" opacity="0.23">
<path d="M212.1 241.446C302.922 193.273 446.998 198.598 454.921 286.577C459.221 334.487 409.327 376.792 360.553 397.559C333.003 409.238 302.646 418.44 273.047 423.111C239.733 428.373 204.666 427.872 179.428 413.814C150.7 397.824 125.582 368.332 129.375 333.823C133.289 298.222 173.721 261.826 212.121 241.429L212.1 241.446Z" fill="#EB9F36"/>
</g>
<g style="mix-blend-mode:multiply" opacity="0.24">
<path d="M211.854 241.969C302.018 194.305 444.49 199.641 452.576 286.355C457.003 333.886 407.299 375.939 359.064 396.518C331.868 408.064 301.82 417.167 272.513 421.875C239.026 427.254 203.65 426.851 178.439 412.579C150.185 396.591 125.619 367.426 129.627 333.242C133.636 299.058 173.74 262.144 211.852 241.988L211.854 241.969Z" fill="#EB9F37"/>
</g>
<g style="mix-blend-mode:multiply" opacity="0.25">
<path d="M211.612 242.472C301.134 195.339 441.966 200.662 450.236 286.095C454.81 333.249 405.295 375.068 357.603 395.42C330.76 406.834 301.043 415.821 271.99 420.562C238.349 426.059 202.624 425.75 177.461 411.266C149.664 395.258 125.683 366.465 129.908 332.605C134.239 297.909 173.766 262.405 211.612 242.472V242.472Z" fill="#EAA039"/>
</g>
<g style="mix-blend-mode:multiply" opacity="0.27">
<path d="M211.367 242.994C300.23 196.37 439.439 201.703 447.912 285.856C452.612 332.651 403.29 374.198 356.156 394.364C329.647 405.643 300.259 414.534 271.5 419.292C237.688 424.886 201.649 424.715 176.496 409.995C149.174 393.989 125.744 365.524 130.184 331.988C134.714 297.752 173.806 262.707 211.369 242.975L211.367 242.994Z" fill="#EAA03A"/>
</g>
<g style="mix-blend-mode:multiply" opacity="0.28">
<path d="M211.144 243.5C299.368 197.387 436.953 202.729 445.589 285.617C450.436 332.035 401.304 373.33 354.709 393.308C328.553 404.454 299.474 413.246 271.007 418.042C237.023 423.752 200.674 423.68 175.551 408.727C148.682 392.738 125.823 364.604 130.478 331.393C135.133 298.182 173.866 263.011 211.141 243.519L211.144 243.5Z" fill="#EAA13B"/>
</g>
<g style="mix-blend-mode:multiply" opacity="0.3">
<path d="M210.899 244.022C298.462 198.438 434.446 203.773 443.266 285.379C448.238 331.437 399.297 372.479 353.245 392.23C327.442 403.243 298.693 411.939 270.481 416.748C236.343 422.577 199.643 422.618 174.57 407.434C148.175 391.447 125.887 363.643 130.755 330.776C135.683 297.441 173.909 263.294 210.899 244.022V244.022Z" fill="#E9A23C"/>
</g>
<g style="mix-blend-mode:multiply" opacity="0.31">
<path d="M210.656 244.525C297.58 199.453 431.941 204.797 440.923 285.138C446.042 330.819 397.292 371.609 351.779 391.172C326.329 402.052 297.889 410.649 269.972 415.476C235.663 421.402 198.649 421.58 173.605 406.163C148.562 390.745 125.948 362.701 131.032 330.158C136.116 297.616 173.93 263.593 210.656 244.525Z" fill="#E9A23D"/>
</g>
<g style="mix-blend-mode:multiply" opacity="0.32">
<path d="M210.431 245.05C296.696 200.487 429.453 205.843 438.619 284.901C443.864 330.223 395.304 370.76 350.351 390.118C325.257 400.846 297.143 409.367 269.499 414.229C235.036 420.273 197.691 420.567 172.658 404.913C147.625 389.26 126.024 361.801 131.324 329.582C136.651 297.15 173.987 263.917 210.426 245.089L210.431 245.05Z" fill="#E9A33E"/>
</g>
<g style="mix-blend-mode:multiply" opacity="0.34">
<path d="M210.188 245.553C295.814 201.501 426.948 206.867 436.279 284.641C441.671 329.586 393.301 369.87 348.889 389.021C324.149 399.616 296.344 408.038 268.994 412.918C234.358 419.078 196.701 419.491 171.701 403.584C146.68 387.675 126.093 360.801 131.628 328.909C137.162 297.018 174.057 264.144 210.21 245.536L210.188 245.553Z" fill="#E9A33F"/>
</g>
<g style="mix-blend-mode:multiply" opacity="0.35">
<path d="M209.965 246.059C294.949 202.538 424.482 207.895 433.975 284.405C439.512 328.992 391.314 369.022 347.442 387.965C323.036 398.425 295.558 406.77 268.485 411.645C233.695 417.925 195.687 418.451 170.736 402.313C146.169 386.422 126.172 359.881 131.902 328.311C137.633 296.742 174.095 264.465 209.965 246.059V246.059Z" fill="#E8A441"/>
</g>
<g style="mix-blend-mode:multiply" opacity="0.37">
<path d="M209.739 246.584C294.064 203.572 422.013 208.944 431.651 284.166C437.316 328.374 389.328 368.154 345.995 386.909C321.942 397.236 294.792 405.485 267.995 410.376C233.032 416.772 194.712 417.416 169.791 401.044C144.87 384.673 126.25 358.961 132.198 327.697C138.147 296.432 174.138 264.747 209.742 246.564L209.739 246.584Z" fill="#E8A442"/>
</g>
<g style="mix-blend-mode:multiply" opacity="0.38">
<path d="M209.516 247.089C293.202 204.589 419.546 209.973 429.328 283.927C435.137 327.778 387.32 367.303 344.551 385.833C320.851 396.028 294.011 404.178 267.505 409.106C232.388 415.621 193.735 416.4 168.848 399.756C143.962 383.112 126.333 358.003 132.514 327.084C138.636 296.475 174.219 265.035 209.536 247.092L209.516 247.089Z" fill="#E8A543"/>
</g>
<g style="mix-blend-mode:multiply" opacity="0.39">
<path d="M209.293 247.595C292.32 205.603 417.08 211.002 427.026 283.672C432.98 327.165 385.357 366.418 343.125 384.76C319.779 394.822 293.265 402.895 267.017 407.817C231.747 414.451 192.762 415.346 167.886 398.466C144.667 382.708 126.395 357.061 132.794 326.448C139.193 295.834 174.262 265.317 209.296 247.575L209.293 247.595Z" fill="#E7A544"/>
</g>
<g style="mix-blend-mode:multiply" opacity="0.41">
<path d="M209.07 248.1C291.456 206.639 414.614 212.03 424.703 283.433C430.804 326.55 383.35 365.567 341.659 383.702C318.666 393.631 292.461 401.605 266.508 406.545C231.065 413.295 191.746 414.325 166.922 397.195C144.152 381.475 126.454 356.139 133.068 325.85C139.683 295.561 174.303 265.619 209.051 248.098L209.07 248.1Z" fill="#E7A645"/>
</g>
<g style="mix-blend-mode:multiply" opacity="0.42">
<path d="M208.867 248.608C290.593 207.657 412.168 213.062 422.421 283.18C428.667 325.94 381.406 364.685 340.256 382.612C317.616 392.408 291.738 400.306 266.06 405.261C230.463 412.13 190.81 413.295 166.019 395.912C143.696 380.249 126.557 355.183 133.423 325.242C140.29 295.302 174.404 265.909 208.884 248.63L208.867 248.608Z" fill="#E7A646"/>
</g>
<g style="mix-blend-mode:multiply" opacity="0.44">
<path d="M208.641 249.133C289.728 208.693 409.718 214.113 420.098 282.941C426.491 325.324 379.398 363.834 338.809 381.556C316.525 391.2 290.954 399.018 265.55 403.989C229.78 410.974 189.813 412.277 165.056 394.621C143.182 379.016 126.618 354.241 133.703 324.606C140.58 295.814 174.447 266.192 208.643 249.114L208.641 249.133Z" fill="#E6A747"/>
</g>
<g style="mix-blend-mode:multiply" opacity="0.45">
<path d="M208.437 249.641C288.883 209.732 407.291 215.147 417.813 282.708C424.351 324.733 377.451 362.971 337.401 380.505C315.45 390.014 290.225 397.757 265.099 402.725C229.173 409.848 188.855 411.264 164.131 393.355C142.682 377.825 126.716 353.324 134.035 324.015C141.111 295.684 174.546 266.501 208.457 249.644L208.437 249.641Z" fill="#E6A849"/>
</g>
<g style="mix-blend-mode:multiply" opacity="0.46">
<path d="M208.234 250.149C288.021 210.749 404.866 216.161 415.512 282.452C422.195 324.12 375.466 362.103 335.956 379.429C314.359 388.805 289.463 396.453 264.609 401.455C228.529 408.697 187.875 410.268 163.186 392.086C142.184 376.613 126.794 352.404 134.332 323.4C141.87 294.397 174.608 266.786 208.231 250.169L208.234 250.149Z" fill="#E6A84A"/>
</g>
<g style="mix-blend-mode:multiply" opacity="0.48">
<path d="M208.03 250.657C287.178 211.768 402.459 217.197 413.228 282.218C420.077 323.512 373.519 361.24 334.55 378.359C313.307 387.602 288.717 395.17 264.141 400.169C227.888 407.527 186.919 409.235 162.263 390.801C141.687 375.402 126.878 351.445 134.648 322.788C142.081 295.374 174.668 267.091 208.028 250.677L208.03 250.657Z" fill="#E5A94B"/>
</g>
<g style="mix-blend-mode:multiply" opacity="0.49">
<path d="M207.827 251.165C286.316 212.785 400.032 218.231 410.926 281.963C417.92 322.899 371.534 360.372 333.126 377.286C312.235 386.396 287.972 393.888 263.673 398.882C227.264 406.378 185.942 408.22 161.342 389.496C141.212 374.174 126.981 350.489 134.988 322.139C142.996 293.79 174.774 267.342 207.849 251.148L207.827 251.165Z" fill="#E5A94C"/>
</g>
<g style="mix-blend-mode:multiply" opacity="0.51">
<path d="M207.623 251.673C285.47 213.824 397.624 219.268 408.622 281.727C415.78 322.308 369.568 359.507 331.698 376.232C311.161 385.21 287.204 392.622 263.202 397.615C226.617 405.247 184.962 407.224 160.397 388.227C140.692 372.98 127.039 349.567 135.282 321.544C143.075 295.026 174.834 267.646 207.62 251.693L207.623 251.673Z" fill="#E5AA4D"/>
</g>
<g style="mix-blend-mode:multiply" opacity="0.52">
<path d="M207.439 252.184C284.627 214.844 395.236 220.306 406.36 281.476C413.666 321.681 367.622 358.644 330.295 375.142C310.111 383.987 286.481 391.323 262.754 396.331C226.015 404.082 184.021 406.232 159.494 386.944C140.212 371.791 127.14 348.63 135.618 320.934C143.589 294.875 174.933 267.955 207.436 252.203L207.439 252.184Z" fill="#E5AA4E"/>
</g>
<g style="mix-blend-mode:multiply" opacity="0.54">
<path d="M207.257 252.675C283.806 215.846 392.872 221.309 404.081 281.204C411.55 321.054 365.68 357.742 328.892 374.052C309.042 382.762 285.76 390.004 262.289 395.025C225.394 402.914 183.046 405.197 158.576 385.62C139.72 370.54 127.226 347.652 135.961 320.266C144.111 294.665 175.042 268.187 207.26 252.655L207.257 252.675Z" fill="#E4AB4F"/>
</g>
<g style="mix-blend-mode:multiply" opacity="0.55">
<path d="M207.073 253.185C282.961 216.885 390.483 222.348 401.815 280.972C409.449 320.468 363.762 356.962 327.503 373.004C308.023 381.603 285.031 388.743 261.857 393.763C224.806 401.79 182.102 404.226 157.688 384.359C139.256 369.373 127.362 346.74 136.313 319.678C144.641 294.535 175.14 268.496 207.09 253.207L207.073 253.185Z" fill="#E4AB50"/>
</g>
<g style="mix-blend-mode:multiply" opacity="0.56">
<path d="M206.908 253.698C282.157 217.91 388.134 223.392 399.553 280.722C407.351 319.862 361.835 356.101 326.119 371.916C306.993 380.383 284.327 387.446 261.428 392.481C224.203 400.625 181.161 403.235 156.785 383.076C138.775 368.184 127.463 345.803 136.65 319.049C145.138 294.361 175.242 268.786 206.908 253.698V253.698Z" fill="#E4AC52"/>
</g>
<g style="mix-blend-mode:multiply" opacity="0.58">
<path d="M206.724 254.209C281.333 218.932 385.767 224.414 397.288 280.491C405.253 319.257 359.888 355.239 324.711 370.865C305.938 379.199 283.597 386.205 260.957 391.214C223.577 399.496 180.179 402.258 155.859 381.809C138.273 367.012 127.544 344.864 136.983 318.459C145.65 294.229 175.341 269.096 206.722 254.228L206.724 254.209Z" fill="#E3AD53"/>
</g>
<g style="mix-blend-mode:multiply" opacity="0.59">
<path d="M206.562 254.702C280.513 219.934 383.44 225.441 395.028 280.221C403.157 318.632 357.964 354.359 323.328 369.778C304.908 377.979 282.873 384.905 260.531 389.913C222.994 398.333 179.24 401.247 154.98 380.49C137.814 365.806 127.649 343.889 137.346 317.793C146.171 294.019 175.469 269.33 206.564 254.683L206.562 254.702Z" fill="#E3AD54"/>
</g>
<g style="mix-blend-mode:multiply" opacity="0.61">
<path d="M206.416 255.218C279.725 220.981 381.132 226.47 392.804 279.975C401.1 318.012 356.059 353.481 321.983 368.695C303.916 376.764 282.208 383.613 260.143 388.617C222.45 397.175 178.319 400.259 154.138 379.195C137.375 364.602 127.81 342.94 137.742 317.171C146.746 293.855 175.609 269.625 206.438 255.201L206.416 255.218Z" fill="#E3AE55"/>
</g>
<g style="mix-blend-mode:multiply" opacity="0.62">
<path d="M206.252 255.731C278.902 222.003 378.802 227.516 390.54 279.744C399.019 317.429 354.129 352.64 320.594 367.647C302.881 375.582 281.499 382.355 259.69 387.372C221.841 396.068 177.351 399.323 153.209 377.948C136.868 363.468 127.886 342.04 138.075 316.581C147.238 293.721 175.708 269.934 206.252 255.731V255.731Z" fill="#E2AE56"/>
</g>
<g style="mix-blend-mode:multiply" opacity="0.63">
<path d="M206.109 256.227C278.12 223.01 376.497 228.526 388.299 279.476C396.943 316.806 352.207 351.741 319.21 366.559C301.831 374.36 280.795 381.058 259.263 386.071C221.255 394.925 176.39 398.33 152.33 376.629C136.39 362.26 127.992 341.064 138.435 315.935C147.757 293.53 175.834 270.188 206.092 256.205L206.109 256.227Z" fill="#E2AF57"/>
</g>
<g style="mix-blend-mode:multiply" opacity="0.65">
<path d="M205.983 256.745C277.333 224.057 374.208 229.558 386.092 279.252C394.922 316.211 350.336 350.907 317.882 365.499C300.856 373.166 280.125 379.805 258.892 384.797C220.728 393.789 175.485 397.363 151.504 375.356C135.965 361.098 128.15 340.135 138.867 315.337C148.349 293.388 176.029 270.509 206.003 256.747L205.983 256.745Z" fill="#E2AF58"/>
</g>
<g style="mix-blend-mode:multiply" opacity="0.66">
<path d="M205.86 257.244C276.571 225.067 371.942 230.573 383.872 278.987C392.885 315.593 348.433 350.011 316.538 364.416C299.868 371.932 279.46 378.513 258.483 383.518C220.163 392.648 174.539 396.411 150.64 374.078C135.502 359.93 128.273 339.181 139.244 314.713C148.888 293.2 176.153 270.782 205.86 257.244V257.244Z" fill="#E1B05A"/>
</g>
<g style="mix-blend-mode:multiply" opacity="0.68">
<path d="M205.737 257.742C275.808 226.077 369.692 231.61 381.667 278.744C390.886 314.981 346.564 349.158 315.21 363.356C298.893 370.739 278.812 377.243 258.112 382.244C219.633 391.532 173.613 395.461 149.795 372.802C135.055 358.785 128.431 338.252 139.638 314.111C149.421 293.051 176.313 271.08 205.734 257.762L205.737 257.742Z" fill="#E1B05B"/>
</g>
<g style="mix-blend-mode:multiply" opacity="0.69">
<path d="M205.63 258.263C275.043 227.106 367.445 232.627 379.463 278.501C388.866 314.385 344.679 348.283 313.885 362.276C297.921 369.526 278.163 375.973 257.744 380.95C219.106 390.396 172.708 394.495 148.974 371.49C134.636 357.584 128.575 337.281 140.078 313.455C150.02 292.851 176.516 271.343 205.652 258.246L205.63 258.263Z" fill="#E1B15C"/>
</g>
<g style="mix-blend-mode:multiply" opacity="0.7">
<path d="M205.526 258.764C274.297 228.138 365.217 233.647 377.281 278.241C386.889 313.756 342.834 347.393 312.559 361.196C296.949 368.313 277.518 374.683 257.373 379.676C218.579 389.26 171.779 393.564 148.148 370.217C134.209 356.441 128.734 336.352 140.491 312.855C150.573 292.704 176.695 271.643 205.546 258.766L205.526 258.764Z" fill="#E1B15D"/>
</g>
<g style="mix-blend-mode:multiply" opacity="0.72">
<path d="M205.442 259.267C273.555 229.151 363.009 234.67 375.097 278C384.891 313.144 340.966 346.54 311.251 360.138C295.975 367.12 276.887 373.435 257.003 378.402C218.05 388.144 170.833 392.612 147.322 368.944C133.762 355.296 128.896 335.403 140.907 312.236C151.131 292.519 176.858 271.921 205.442 259.267V259.267Z" fill="#E0B25E"/>
</g>
<g style="mix-blend-mode:multiply" opacity="0.73">
<path d="M205.358 259.771C272.831 230.166 360.821 235.695 372.934 277.743C382.953 312.519 339.141 345.654 309.967 359.043C295.044 365.893 276.263 372.129 256.676 377.094C217.565 386.994 169.945 391.667 146.521 367.634C133.34 354.114 129.059 334.435 141.364 311.602C151.747 292.34 177.078 272.207 205.377 259.773L205.358 259.771Z" fill="#E0B35F"/>
</g>
<g style="mix-blend-mode:multiply" opacity="0.75">
<path d="M205.29 260.296C272.102 231.219 358.651 236.722 370.766 277.524C380.991 311.931 337.289 344.823 308.676 358.007C294.106 364.724 275.649 370.903 256.341 375.845C217.091 385.904 169.033 390.759 145.734 366.366C132.952 352.976 129.24 333.489 141.816 311.007C152.341 292.179 177.296 272.512 205.31 260.299L205.29 260.296Z" fill="#E0B360"/>
</g>
<g style="mix-blend-mode:multiply" opacity="0.76">
<path d="M205.226 260.802C271.398 232.237 356.485 237.73 368.604 277.266C379.054 311.307 335.464 343.936 307.37 356.93C293.156 363.494 275.023 369.616 255.971 374.571C216.562 384.788 168.063 389.843 144.908 365.093C132.505 351.831 129.401 332.541 142.232 310.388C152.897 292.013 177.478 272.792 205.206 260.8L205.226 260.802Z" fill="#DFB462"/>
</g>
<g style="mix-blend-mode:multiply" opacity="0.77">
<path d="M205.18 261.311C270.694 233.255 354.354 238.762 366.477 277.033C377.152 310.707 333.654 343.09 306.122 355.86C292.262 362.292 274.452 368.356 255.68 373.287C216.11 383.682 167.189 388.94 144.163 363.811C132.139 350.676 129.621 331.599 142.745 309.781C153.533 291.838 177.754 273.104 205.197 261.333L205.18 261.311Z" fill="#DFB463"/>
</g>
<g style="mix-blend-mode:multiply" opacity="0.79">
<path d="M205.154 261.822C270.028 234.277 352.248 239.758 364.353 276.781C375.253 310.088 331.868 342.208 304.875 354.79C291.368 361.089 273.882 367.095 255.39 372.004C215.68 382.558 166.28 388.012 143.4 362.506C131.734 349.516 129.806 330.614 143.224 309.131C154.154 291.62 177.979 273.351 205.156 261.802L205.154 261.822Z" fill="#DFB564"/>
</g>
<g style="mix-blend-mode:multiply" opacity="0.8">
<path d="M205.128 262.333C269.361 235.319 350.14 240.774 362.249 276.531C373.397 309.454 330.082 341.327 303.647 353.722C290.474 359.886 273.334 365.818 255.098 370.74C215.227 381.471 165.382 387.146 142.653 361.243C131.366 348.381 130.026 329.673 143.715 308.541C154.785 291.484 178.237 273.661 205.128 262.333V262.333Z" fill="#DEB565"/>
</g>
<g style="mix-blend-mode:multiply" opacity="0.82">
<path d="M205.122 262.846C268.696 236.341 348.071 241.794 360.143 276.3C371.537 308.839 328.311 340.486 302.4 352.652C289.58 358.684 272.764 364.558 254.807 369.456C214.797 380.348 164.47 386.237 141.907 359.961C130.977 347.243 130.232 328.691 144.231 307.914C155.423 291.289 178.516 273.954 205.122 262.846V262.846Z" fill="#DEB666"/>
</g>
<g style="mix-blend-mode:multiply" opacity="0.83">
<path d="M205.137 263.343C268.072 237.35 346.025 242.778 358.079 276.035C369.74 308.194 326.566 339.59 301.213 351.57C288.746 357.469 272.254 363.286 254.577 368.161C214.426 379.232 163.597 385.334 141.222 358.666C130.672 346.076 130.514 327.718 144.785 307.293C156.119 291.101 178.836 274.232 205.156 263.345L205.137 263.343Z" fill="#DEB667"/>
</g>
<g style="mix-blend-mode:multiply" opacity="0.85">
<path d="M205.15 263.859C267.424 238.394 343.978 243.782 355.992 275.807C367.92 307.584 324.817 338.732 300.002 350.525C287.891 356.271 271.72 362.051 254.302 366.918C214.008 378.17 162.658 384.482 140.475 357.403C130.281 344.958 130.715 326.774 145.296 306.706C156.755 290.925 179.093 274.542 205.148 263.878L205.15 263.859Z" fill="#DDB768"/>
</g>
<g style="mix-blend-mode:multiply" opacity="0.86">
<path d="M205.182 264.377C266.817 239.424 341.97 244.79 353.946 275.565C366.142 306.941 323.087 337.877 298.835 349.445C287.077 355.059 271.23 360.781 254.092 365.625C213.637 377.054 161.782 383.598 139.809 356.111C129.973 343.811 131 325.782 145.872 306.068C157.454 290.718 179.433 274.823 205.204 264.36L205.182 264.377Z" fill="#DDB86A"/>
</g>
<g style="mix-blend-mode:multiply" opacity="0.87">
<path d="M205.234 264.898C266.21 240.454 339.983 245.782 351.9 275.322C364.385 306.3 321.359 337.003 297.646 348.383C286.222 353.861 270.74 359.512 253.86 364.349C213.261 375.977 160.882 382.75 139.123 354.836C129.627 342.659 131.264 324.807 146.424 305.466C158.129 290.548 179.751 275.121 205.234 264.898V264.898Z" fill="#DDB86B"/>
</g>
<g style="mix-blend-mode:multiply" opacity="0.89">
<path d="M205.286 265.419C265.623 241.486 338.016 246.776 349.852 275.099C362.647 305.662 319.649 336.151 296.474 347.342C285.403 352.688 270.246 358.281 253.645 363.095C212.904 374.903 159.962 381.9 138.453 353.583C129.314 341.55 131.525 323.852 147.015 304.869C158.845 290.363 180.107 275.424 205.306 265.422L205.286 265.419Z" fill="#DCB96C"/>
</g>
<g style="mix-blend-mode:multiply" opacity="0.9">
<path d="M205.358 265.943C265.052 242.541 336.049 247.769 347.845 274.861C360.951 305.009 317.958 335.301 295.343 346.287C284.626 351.5 269.792 357.036 253.449 361.844C212.564 373.85 159.057 381.092 137.785 352.31C128.984 340.42 131.808 322.879 147.586 304.27C159.542 290.175 180.423 275.741 205.358 265.943V265.943Z" fill="#DCB96D"/>
</g>
<g style="mix-blend-mode:multiply" opacity="0.92">
<path d="M205.451 266.449C264.486 243.556 334.145 248.732 345.838 274.623C359.295 304.342 316.255 334.39 294.215 345.213C283.836 350.252 269.341 355.771 253.278 360.556C212.269 372.764 158.159 380.225 137.159 351.023C128.698 339.256 132.115 321.87 148.202 303.636C160.282 289.954 180.804 276.008 205.451 266.449V266.449Z" fill="#DCBA6E"/>
</g>
<g style="mix-blend-mode:multiply" opacity="0.93">
<path d="M205.542 266.975C263.938 244.594 332.219 249.712 343.851 274.388C357.643 303.655 314.605 333.525 293.085 344.158C283.059 349.064 268.888 354.526 253.105 359.287C211.951 371.694 157.235 379.414 136.53 349.756C128.408 338.13 132.42 320.88 148.832 303.045C161.038 289.773 181.2 276.316 205.561 266.978L205.542 266.975Z" fill="#DCBA6F"/>
</g>
<g style="mix-blend-mode:multiply" opacity="0.94">
<path d="M205.652 267.504C263.387 245.651 330.332 250.696 341.86 274.173C356.026 302.992 312.931 332.697 291.971 343.125C282.299 347.898 268.451 353.303 252.926 358.057C211.628 370.664 156.288 378.62 135.899 348.507C128.114 337.024 132.722 319.91 149.442 302.45C161.753 289.588 181.573 276.641 205.652 267.504V267.504Z" fill="#DBBB70"/>
</g>
<g style="mix-blend-mode:multiply" opacity="0.96">
<path d="M205.782 268.035C262.878 246.693 328.468 251.664 339.912 273.943C354.474 302.299 311.32 331.838 290.901 342.058C281.582 346.698 268.078 352.048 252.813 356.777C211.388 369.604 155.386 377.792 135.331 347.228C127.867 335.865 133.088 318.909 150.113 301.844C162.552 289.374 181.991 276.932 205.801 268.037L205.782 268.035Z" fill="#DBBB72"/>
</g>
<g style="mix-blend-mode:multiply" opacity="0.97">
<path d="M205.911 268.566C262.349 247.733 326.605 252.612 337.944 273.71C352.926 301.566 309.668 330.993 289.809 341.008C280.824 345.513 267.663 350.808 252.679 355.513C211.109 368.54 154.439 376.998 134.722 345.963C127.596 334.742 133.415 317.902 150.762 301.255C163.329 289.177 182.406 277.242 205.931 268.568L205.911 268.566Z" fill="#DBBC73"/>
</g>
<g style="mix-blend-mode:multiply" opacity="0.99">
<path d="M206.06 269.099C261.858 248.778 324.765 253.543 336.012 273.502C351.414 300.858 308.074 330.156 288.734 339.98C280.102 344.352 267.265 349.59 252.541 354.269C210.844 367.517 153.47 376.221 134.129 344.72C127.324 333.619 133.759 316.918 151.411 300.665C164.104 289 182.818 277.572 206.06 269.099V269.099Z" fill="#DABC74"/>
</g>
<g style="mix-blend-mode:multiply">
<path d="M252.426 353.008C210.6 366.496 152.502 375.444 133.562 343.44C122.423 324.643 151.053 289.423 206.212 269.613C261.349 249.82 322.927 254.454 334.066 273.252C349.952 300.077 306.444 329.294 287.667 338.893C279.389 343.133 266.873 348.333 252.429 352.989L252.426 353.008Z" fill="#DABD75"/>
</g>
</g>
<path d="M360.73 196.613C360.747 196.476 360.765 196.34 360.782 196.204C360.857 195.462 361.222 190.919 361.178 184.168C361.175 183.574 361.175 182.961 361.153 182.364C361.143 181.512 361.119 180.619 361.095 179.726C360.457 157.864 355.476 136.71 346.77 117.295C346.755 117.254 346.721 117.21 346.709 117.149C345.755 115.029 344.757 112.942 343.736 110.872C338.76 100.936 332.803 91.5474 325.932 82.8125C322.726 78.6624 318.708 74.0521 315.174 70.4534C312.799 67.9925 310.317 65.5971 307.786 63.2744C307.663 63.1597 307.541 63.0254 307.418 62.9106L307.078 62.6297C306.634 62.2364 306.209 61.8456 305.765 61.4524C304.115 59.9747 302.351 58.4625 300.399 56.867C300.399 56.867 300.256 56.7497 300.185 56.6814C299.253 55.9288 298.265 55.1492 297.238 54.3647C296.77 54.0079 296.299 53.6705 295.83 53.3137C295.435 53.0057 295.056 52.7198 294.638 52.4288C294.313 52.1893 294.005 51.9717 293.679 51.7321C287.711 47.3663 281.419 43.3742 274.796 39.7948C273.096 38.8646 271.781 38.1619 271.001 37.7651L269.811 37.1772L268.64 36.5918C268.64 36.5918 268.528 36.5379 268.472 36.5109L268.212 36.3787C267.634 36.1067 266.851 35.7294 266.273 35.4574L265.993 35.3226C265.993 35.3226 265.806 35.2393 265.714 35.1879L264.387 34.5825C263.865 34.3374 263.153 34.0285 262.628 33.8029L261.092 33.1311C260.81 33.0158 260.511 32.8786 260.229 32.7633C260.134 32.7314 260.059 32.7019 259.967 32.6505L259.665 32.5327C259.495 32.4713 259.327 32.3905 259.177 32.3316L257.466 31.6373C257.033 31.4631 256.506 31.257 256.034 31.0778C255.582 30.9011 255.13 30.7245 254.678 30.5478L254.619 30.5403C254.337 30.425 254.036 30.3073 253.754 30.192C253.227 29.9858 252.602 29.7672 252.091 29.583L250.917 29.1753C250.387 28.9886 249.857 28.802 249.327 28.6153C249.233 28.5834 249.138 28.5514 249.043 28.5195C248.644 28.3892 248.246 28.259 247.85 28.1092L247.147 27.8806L246.274 27.5906C246.274 27.5906 246.177 27.5782 246.121 27.5512L245.817 27.4529C245.664 27.4135 245.494 27.3521 245.321 27.3101C244.883 27.1749 244.446 27.0396 244.028 26.9069C243.743 26.811 243.437 26.7322 243.189 26.6608C242.712 26.5205 242.236 26.3803 241.759 26.24L240.519 25.8832C240.291 25.8143 240.023 25.7405 239.773 25.6885C239.391 25.5802 239.026 25.4939 238.645 25.3856C238.263 25.2773 237.917 25.1934 237.572 25.1095C236.979 24.9543 236.366 24.7966 235.77 24.6608L234.122 24.2516C233.946 24.2291 233.757 24.1652 233.584 24.1233L233.467 24.1083C233.008 23.99 232.47 23.8617 231.93 23.7529C231.181 23.5777 230.411 23.4195 229.659 23.2637C229.119 23.1549 228.579 23.0461 228.098 22.9448C227.519 22.831 226.937 22.7366 226.359 22.6228C225.741 22.504 225.143 22.3877 224.522 22.2884C224.133 22.2384 223.766 22.1716 223.399 22.1047L222.394 21.9165C222.141 21.8841 221.869 21.8491 221.616 21.8167C221.324 21.7792 221.032 21.7418 220.742 21.6849C217.464 21.1852 214.17 20.8023 210.883 20.5192C210.141 20.4438 209.435 20.3929 208.768 20.3469C208.024 20.291 207.299 20.2375 206.554 20.1816C206.104 20.1437 205.632 20.1227 205.24 20.0923C204.16 20.0328 203.097 19.9953 202.053 19.9604C201.678 19.9519 201.325 19.9264 200.951 19.9179C199.432 19.8814 197.952 19.8499 196.546 19.8673C195.874 19.8602 195.181 19.8702 194.506 19.8826L194.467 19.8776C194.329 19.8796 194.19 19.8816 194.051 19.8836C192.941 19.8995 191.89 19.9229 190.897 19.9538C190.104 19.9707 189.308 20.0072 188.512 20.0435C186.701 20.1278 185.265 20.2205 184.286 20.2929C179.435 20.64 174.592 21.2256 169.803 22.0158C166.94 22.4399 164.405 22.9258 161.207 23.6433C148.02 26.5216 135.138 31.0217 122.863 37.1228L122.824 37.1178C121.596 37.7516 120.389 38.3683 119.18 39.0045C119.031 39.0844 118.86 39.1812 118.712 39.261C116.63 40.3788 114.543 41.5354 112.49 42.736C112.319 42.8328 112.168 42.9321 111.997 43.0289L111.807 43.1232C111.807 43.1232 111.7 43.1886 111.637 43.22C111.551 43.2684 111.466 43.3169 111.4 43.3678C111.337 43.3992 111.271 43.45 111.207 43.4815C110.649 43.8253 110.091 44.1691 109.532 44.5129C108.393 45.2175 107.296 45.9076 106.238 46.6027C105.633 46.9999 105.03 47.3776 104.443 47.7968C103.23 48.6106 102.06 49.4101 100.994 50.1636L100.843 50.2629L100.711 50.3647C100.45 50.5488 100.189 50.7329 99.9473 50.9196C94.2639 54.9779 90.7278 58.0259 90.5057 58.215C88.7122 59.706 86.9451 61.2993 85.1755 62.9121C83.9234 64.0374 82.642 65.238 81.309 66.5309C81.2187 66.6182 81.1089 66.7031 81.0381 66.7929L80.8329 67.004C78.189 69.5729 75.3809 72.4966 72.252 76.0715L72.1837 76.1419C72.1837 76.1419 72.1372 76.1953 72.1127 76.2317C72.0663 76.2851 72.0224 76.319 71.976 76.3724C70.5592 78.0107 69.0591 79.8361 67.5635 81.7807C66.2634 83.434 64.9635 85.0872 63.8322 86.5049L60.0054 92.1269C58.7438 93.9433 57.5456 95.7282 56.4477 97.3481C54.3641 100.483 52.0315 104.635 49.7513 109.15L49.7413 109.228C47.76 113.108 45.8216 117.271 44.0978 121.303L44.0389 121.454C44.0389 121.454 44.0045 121.568 43.9776 121.624C41.7631 126.859 39.9145 131.864 38.8384 135.782C34.7192 150.624 34.3868 151.828 32.965 161.834C31.1723 174.423 31.3229 183.581 31.3915 187.982C31.6038 200.67 33.3631 210.549 33.9563 213.791C36.0169 225.331 38.2995 232.211 40.5121 238.865C41.8837 242.977 42.9769 245.867 44.4482 249.201C46.18 253.281 48.1503 257.352 50.3033 261.387C50.5378 261.872 50.7723 262.357 51.0432 262.866C53.1153 267.069 56.342 272.448 59.0578 276.258C61.0881 279.09 63.6823 282.925 65.8029 285.669C67.904 288.412 70.791 291.967 73.1506 294.544C75.7258 297.446 76.8001 298.633 79.2626 301.026C82.2339 304.077 85.2887 306.942 88.4048 309.636L88.4437 309.641C89.4557 310.543 90.4726 311.405 91.4946 312.229C92.6936 313.213 93.8951 314.178 94.9779 314.99C95.5558 315.42 96.3496 316.017 97.2697 316.708C97.4154 316.806 97.5392 316.921 97.6849 317.019C98.644 317.715 99.7461 318.529 100.999 319.402C101.271 319.595 101.543 319.788 101.815 319.982C105.501 322.551 110.19 325.626 115.433 328.553C116.577 329.194 118.129 330.046 120 331.038C120.518 331.322 121.074 331.611 121.574 331.873L124.344 333.257C124.923 333.529 125.705 333.906 126.283 334.178L126.973 334.504C126.973 334.504 127.068 334.536 127.105 334.561L128.15 335.051C128.672 335.296 129.384 335.605 129.909 335.83L131.652 336.588L131.802 336.647C138.57 339.552 145.105 341.815 151.427 343.575L152.017 343.75C152.552 343.898 153.185 344.058 153.795 344.235C153.853 344.243 153.912 344.25 153.968 344.277C154.502 344.425 155.059 344.556 155.516 344.693L159.064 345.564C160.66 345.927 162.817 346.381 164.417 346.705C165.901 347.014 167.72 347.327 169.444 347.607L169.522 347.617C170.393 347.769 171.247 347.898 172.003 348.015C174.256 348.343 177.258 348.689 179.518 348.959C181.834 349.256 184.943 349.378 187.255 349.555C192.216 349.737 198.855 349.797 203.803 349.62C207.678 349.484 212.851 349.099 216.683 348.523C217.652 348.37 218.663 348.203 219.712 348.041C222.741 347.559 225.875 347.031 228.502 346.596L231.603 345.867C234.084 345.334 236.532 344.758 238.968 344.121L240.193 343.823C243.052 343.121 246.543 341.967 249.691 340.867C251.036 340.407 252.361 339.944 253.692 339.442C257.281 338.141 261.759 336.381 265.057 334.727C265.164 334.662 265.291 334.599 265.396 334.553C268.426 333.141 271.407 331.645 274.364 330.026C275 329.692 275.656 329.361 276.248 329.061L279.506 327.105C280.384 326.584 281.242 326.061 282.1 325.538L287.033 322.551C288.92 321.408 292.337 319.136 297.424 315.1C297.512 315.032 297.6 314.965 297.685 314.916L298.195 314.487C300.84 312.373 303.895 309.837 307.444 306.692C307.512 306.622 307.603 306.534 307.688 306.486C311.168 303.411 317.059 297.737 323.7 289.608C323.749 289.535 323.817 289.465 323.866 289.392C325.39 287.53 326.932 285.532 328.511 283.4C329.181 282.497 329.853 281.574 330.531 280.613C331.469 279.309 332.386 278.022 333.13 276.851C333.377 276.467 333.626 276.064 333.893 275.683C335.223 273.638 336.564 271.515 337.875 269.309C339.705 266.3 341.467 263.202 342.785 260.483C345.153 255.901 347.401 251.026 349.471 245.831C350.786 242.677 351.967 239.485 352.862 236.514C353.929 233.287 354.911 229.951 355.805 226.525C356.024 225.742 356.219 224.996 356.396 224.227C357.545 219.587 358.503 214.745 359.264 209.738C359.286 209.563 359.311 209.368 359.351 209.215L359.395 208.865C359.961 204.922 360.421 200.866 360.717 196.71L360.73 196.613Z" fill="url(#paint0_radial_40_386)"/>
<path d="M30.0489 190.737C29.9767 189.759 29.9213 188.802 29.8779 187.906C29.8943 188.858 29.9522 189.795 30.0489 190.737Z" fill="url(#paint1_linear_40_386)"/>
<path d="M122.287 110.244C115.919 114.392 117.605 123.61 123.442 124.833C123.865 124.927 124.454 124.963 124.89 124.959C138.32 124.506 143.346 124.339 166.557 123.044C142.002 158.41 141.673 159.436 141.27 160.73C139.224 167.114 144.482 173.625 150.774 172.532C153 172.145 154.839 170.917 156.269 168.865C166.838 152.931 178.974 138.049 188.49 121.386C189.562 119.505 190.379 116.524 188.195 113.039C187.481 111.978 186.744 110.934 186.027 109.893C184.103 107.312 181.455 106.062 178.096 106.185C141.247 108.673 122.651 110.027 122.306 110.246" fill="#412121"/>
<path d="M245.364 40.3919C244.913 40.6703 244.496 40.9926 244.415 41.7736C243.46 51.9973 241.953 58.352 235.445 73.6201C234.91 74.8572 234.459 77.4501 237.359 80.7498C238.247 81.6945 239.113 82.6562 239.998 83.6204C242.472 86.2324 245.432 87.5221 248.778 87.4963C268.784 86.9763 279.825 87.1065 296.52 89.2676C296.793 89.3026 297.454 89.3874 298.165 89.2413C302.064 88.4555 300.874 82.467 295.948 77.9974C293.007 75.3255 290.556 74.8528 289.743 74.709C278.287 73.4968 271.964 72.8243 254.794 72.9762C260.878 54.8446 260.875 49.0084 260.343 47.14C259.272 43.4616 249.415 38.4189 245.364 40.3919" fill="#412121"/>
<path d="M319.533 110.34C317.244 112.143 315.218 114.218 313.016 116.111C278.106 145.541 210.725 180.598 162.187 199.99C158.559 201.444 157.283 202.289 155.726 205.175C148.298 218.98 190.826 256.008 235.029 261.163C334.289 272.747 355.887 150.156 326.732 113.894C324.805 111.491 321.902 109.298 319.555 110.323" fill="white"/>
<defs>
<radialGradient id="paint0_radial_40_386" cx="0" cy="0" r="1" gradientUnits="userSpaceOnUse" gradientTransform="translate(202.23 212.117) rotate(7.07887) scale(189.534 189.545)">
<stop stop-color="#F79F40"/>
<stop offset="0.16" stop-color="#F7A442"/>
<stop offset="0.37" stop-color="#F8B449"/>
<stop offset="0.6" stop-color="#F9CE55"/>
<stop offset="0.77" stop-color="#FBE660"/>
<stop offset="0.91" stop-color="#FBF36F"/>
<stop offset="0.93" stop-color="#FBF672"/>
<stop offset="0.95" stop-color="#FBF676"/>
<stop offset="0.96" stop-color="#FBF782"/>
<stop offset="0.98" stop-color="#FBF897"/>
<stop offset="0.99" stop-color="#FCFAB4"/>
<stop offset="1" stop-color="#FDFBC2"/>
</radialGradient>
<linearGradient id="paint1_linear_40_386" x1="29.6629" y1="189.363" x2="30.1883" y2="189.432" gradientUnits="userSpaceOnUse">
<stop stop-color="#19B79C"/>
<stop offset="0.4" stop-color="#1DBB9D"/>
<stop offset="0.82" stop-color="#29C7A2"/>
<stop offset="1" stop-color="#31CFA6"/>
</linearGradient>
</defs>
</svg>
