<svg width="31" height="31" viewBox="0 0 31 31" fill="none" xmlns="http://www.w3.org/2000/svg">
<path d="M2.70175 18.8209C2.67531 18.7186 2.64883 18.6164 2.64185 18.5165C2.4453 17.5813 2.31017 16.476 2.35566 15.196C2.37466 14.5851 2.44058 13.7627 2.6652 12.7826C2.71461 12.5516 2.78846 12.2841 2.86233 12.0166C2.86982 11.9582 2.89924 11.8829 2.92619 11.827L2.93617 11.7492C2.93617 11.7492 2.99257 11.6179 3.02201 11.5425C3.14729 11.1827 3.27007 10.8424 3.41231 10.5046C3.46621 10.3928 3.49819 10.298 3.55209 10.1862L3.55708 10.1473C3.55708 10.1473 3.63539 9.99908 3.66483 9.92372C3.93932 9.32589 4.24526 8.79141 4.56066 8.33731C4.61206 8.24499 4.68294 8.15518 4.73434 8.06286L4.8077 7.95358C4.8077 7.95358 4.85661 7.88073 4.88106 7.8443L4.88855 7.78592L4.95442 7.73502L5.02528 7.64516C5.45546 7.0673 5.82427 6.65963 6.14415 6.32479L6.14914 6.28589L6.23949 6.19853C6.37623 6.05781 6.53239 5.91958 6.69108 5.76189C6.78141 5.67457 6.86927 5.6067 6.93764 5.53634C7.15971 5.34721 7.44761 5.10724 7.66719 4.93757C7.77697 4.85274 7.88675 4.76786 7.99654 4.68303C7.99654 4.68303 8.12827 4.58126 8.19165 4.54983C8.27698 4.50142 8.36484 4.43355 8.43072 4.38265C8.66975 4.21549 8.9477 4.0533 9.22316 3.91059C9.43774 3.77985 9.66929 3.67111 9.90334 3.54287C11.0855 2.96255 12.362 2.57237 13.6744 2.36484C14.361 2.25508 15.1619 2.17974 16.0282 2.21172L16.145 2.2267C16.3835 2.21773 16.6195 2.22822 16.8725 2.26067C17.0477 2.28314 17.2423 2.3081 17.398 2.32806L17.4563 2.33555C17.7288 2.3705 17.8456 2.38547 18.0596 2.41293L18.1375 2.42292C18.371 2.45287 18.5242 2.49228 18.7163 2.5367C18.8525 2.55417 18.9668 2.58865 19.1006 2.62559L19.12 2.62809C19.2927 2.67001 19.4458 2.7094 19.616 2.77078C19.7497 2.80772 19.9004 2.86663 20.0342 2.90356C20.129 2.93551 20.2238 2.96745 20.3381 3.00189C20.377 3.00688 20.4159 3.01189 20.4523 3.03634C21.4343 3.39969 22.1729 3.81089 22.6125 4.08488C22.6683 4.11184 22.6853 4.13383 22.7242 4.13882C22.9258 4.26359 23.1274 4.38833 23.2731 4.48615L23.4188 4.58398L23.4383 4.58648C23.6908 4.77712 23.9991 4.99471 24.3729 5.3196C26.1617 6.79532 27.5014 8.68822 28.2952 10.8276C28.3266 10.891 28.3387 10.9519 28.3701 11.0152C28.4833 11.3661 28.5965 11.7169 28.6783 12.0044L28.6709 12.0627C28.7602 12.2918 28.8251 12.5573 28.8705 12.8203L28.8944 12.942L28.9158 13.0833C28.9158 13.0833 28.9518 13.2659 28.9587 13.3657C28.9897 13.5873 29.0231 13.7894 29.0565 13.9916C29.0729 14.1717 29.0919 14.3324 29.1108 14.4931L29.1034 14.5515L29.1198 14.7316C29.1198 14.7316 29.1363 14.9117 29.1433 15.0115L29.1383 15.0505C29.2624 17.3216 28.7977 19.5567 27.7666 21.5808C27.7591 21.6391 27.7127 21.6926 27.6882 21.729L27.6782 21.8068C27.6782 21.8068 27.5804 21.9525 27.5315 22.0254C26.6721 23.6362 25.5314 24.9736 24.2723 25.999C22.12 27.8199 19.7027 28.776 17.3609 28.9899L17.2831 28.98C17.1808 29.0064 17.059 29.0303 16.9397 29.0348L16.8035 29.0173C16.8035 29.0173 16.6792 29.0608 16.6208 29.0533C16.6208 29.0533 16.4821 29.0552 16.4212 29.0672C16.1413 29.0906 15.9831 29.0902 15.9637 29.0877C15.7252 29.0966 15.5864 29.0986 15.3504 29.0882L15.1947 29.0682C15.1947 29.0682 14.9951 29.0821 14.8783 29.0671L14.6253 29.0347C14.4452 29.0512 14.2116 29.0212 14.017 28.9963C14.017 28.9963 13.9781 28.9913 13.9586 28.9888L13.8419 28.9738C13.6473 28.9489 13.5305 28.9339 13.3359 28.9089L13.2775 28.9014C13.1608 28.8865 13.0245 28.869 12.8908 28.832C12.8324 28.8245 12.7935 28.8196 12.7351 28.8121C12.6768 28.8046 12.6183 28.7971 12.5599 28.7896C12.5016 28.7821 12.4238 28.7721 12.3679 28.7452C12.1199 28.6738 11.8719 28.6024 11.6433 28.5335C10.333 28.1083 9.37089 27.5893 8.81951 27.2614L8.70774 27.2075C8.56203 27.1097 8.43328 27.0338 8.28757 26.936L8.15888 26.8601C7.99371 26.7598 7.72172 26.5667 7.43531 26.3321C6.87695 25.9044 6.36255 25.4428 5.92844 24.9717C5.85808 24.9033 5.79018 24.8155 5.71982 24.7471C5.66643 24.7007 5.61554 24.6348 5.56465 24.5689C4.56072 23.4511 3.92906 22.3611 3.51095 21.4569C3.48201 21.374 3.45059 21.3106 3.41915 21.2473L3.42414 21.2084C3.03497 20.3869 2.78201 19.583 2.59942 18.8474L2.60441 18.8085L2.70175 18.8209Z" fill="url(#paint0_radial_40_986)"/>
<defs>
<radialGradient id="paint0_radial_40_986" cx="0" cy="0" r="1" gradientUnits="userSpaceOnUse" gradientTransform="translate(14.8367 17.0539) rotate(7.30888) scale(15.3236 15.3245)">
<stop offset="0.69" stop-color="#FFC13B"/>
<stop offset="0.75" stop-color="#FFC23F"/>
<stop offset="0.81" stop-color="#FFC84B"/>
<stop offset="0.87" stop-color="#FFD160"/>
<stop offset="0.93" stop-color="#FFDE7D"/>
<stop offset="0.99" stop-color="#FFEEA3"/>
<stop offset="1" stop-color="#FFF0A7"/>
</radialGradient>
</defs>
</svg>
