<svg width="80" height="80" viewBox="0 0 80 80" fill="none" xmlns="http://www.w3.org/2000/svg">
<path d="M5.62892 48.4426C5.56657 48.1577 5.50173 47.8921 5.43687 47.6267C4.90209 45.1644 4.56594 42.2331 4.69588 38.9065C4.72543 37.2882 4.92465 35.1179 5.51464 32.523C5.6554 31.8882 5.82313 31.1975 6.02976 30.5118C6.07169 30.3392 6.13302 30.1691 6.17245 30.0159C6.17994 29.9575 6.20943 29.8821 6.23638 29.8262C6.30027 29.6366 6.34466 29.4445 6.40605 29.2743C6.70601 28.3237 7.0594 27.4194 7.40775 26.5541C7.52304 26.2722 7.63828 25.9902 7.77303 25.7107L7.82697 25.599C7.91281 25.3924 7.99617 25.2052 8.09897 25.0206C8.83411 23.4532 9.64657 22.0539 10.478 20.8153C10.6272 20.5773 10.7958 20.3418 10.9645 20.1063C11.0379 19.997 11.1087 19.9071 11.1796 19.8173C11.2505 19.7275 11.3019 19.6352 11.3753 19.5259L11.4706 19.3997C11.4706 19.3997 11.5414 19.3098 11.5684 19.2539C11.6173 19.1811 11.6882 19.0912 11.759 19.0014C12.9029 17.4864 13.8725 16.4041 14.7173 15.5234C14.7393 15.5064 14.7637 15.4699 14.7857 15.4529L14.7807 15.4919C14.8321 15.3996 14.9225 15.3122 15.0128 15.2249C15.3546 14.8731 15.7818 14.4729 16.2065 14.0922C16.4335 13.8641 16.6775 13.658 16.8776 13.4858C17.4341 13.0033 18.2101 12.3511 18.8199 11.915C19.1078 11.675 19.4102 11.4763 19.6932 11.2752L19.7321 11.2802C19.9103 11.1251 20.0834 11.0088 20.2346 10.9095C20.4517 10.7593 20.6663 10.6286 20.8834 10.4784C21.5321 10.0473 22.2198 9.62108 22.9633 9.22188C23.5412 8.88057 24.1335 8.58075 24.7648 8.28585C27.9091 6.75047 31.2245 5.73155 34.6966 5.18777C36.4766 4.88195 38.5944 4.7184 40.9013 4.77689L41.1543 4.80934L41.1593 4.77038C41.809 4.79437 42.4198 4.81334 43.084 4.87874C43.5341 4.91669 44.0425 4.96209 44.4901 5.0195C44.4901 5.0195 44.4902 5.0195 44.5096 5.022C44.5485 5.02699 44.6069 5.03448 44.6459 5.03947C45.3659 5.13183 45.6968 5.1743 46.2367 5.28312L46.4118 5.30558C47.0101 5.42188 47.4163 5.49375 47.9342 5.61953C48.2601 5.70089 48.6054 5.78474 48.9507 5.86859L49.0091 5.87608C49.4492 5.99188 49.8699 6.10526 50.3075 6.24051L50.3659 6.248C50.7451 6.37577 51.1074 6.48156 51.4866 6.60933C51.7516 6.70266 51.9971 6.79343 52.2621 6.88676C52.3569 6.9187 52.4517 6.9507 52.566 6.98514C55.1523 7.9499 57.0933 9.00997 58.2664 9.73412C58.3952 9.80998 58.4874 9.86139 58.5408 9.90781C59.0922 10.2357 59.5852 10.5561 59.9859 10.8251C60.1122 10.9204 60.2409 10.9962 60.3866 11.0941L60.4255 11.0991L60.4595 11.143C61.1127 11.6027 61.9285 12.182 62.9284 13.0225C67.6323 16.9096 71.15 21.8712 73.2514 27.5413C73.3093 27.707 73.3672 27.8726 73.425 28.0383L73.4565 28.1017C73.7798 28.9741 74.0787 29.8828 74.2758 30.6598L74.3166 30.8035C74.4752 31.4174 74.6434 32.1115 74.792 32.8032C74.8185 32.9055 74.8424 33.0273 74.8688 33.1296L74.9212 33.4924C74.9691 33.7359 75.0171 33.9794 75.0455 34.2205C75.1482 34.8073 75.234 35.3722 75.2884 35.8738C75.3477 36.3364 75.3902 36.777 75.4131 37.2152L75.4319 37.3759C75.4509 37.5366 75.453 37.6753 75.4719 37.836C75.4809 38.0745 75.5092 38.3155 75.5182 38.554L75.5057 38.6514C75.8247 44.6468 74.5989 50.5034 71.9144 55.8564C71.8385 55.9852 71.7796 56.1358 71.7038 56.2646C71.6768 56.3205 71.6498 56.3764 71.6204 56.4518C71.5151 56.6559 71.4123 56.8405 71.3119 57.0057C69.0447 61.2648 66.0281 64.7354 62.729 67.4774C57.0724 72.2514 50.6735 74.7937 44.5317 75.3314L44.371 75.3504C44.0886 75.3933 43.7892 75.4142 43.4898 75.4351C43.3705 75.4396 43.2488 75.4635 43.149 75.4705C42.9883 75.4895 42.8301 75.4889 42.6889 75.5104C42.5087 75.5269 42.3286 75.5434 42.151 75.5404L42.1315 75.5379C41.4134 75.5843 40.9583 75.5852 40.9194 75.5802C40.3231 75.6027 39.9289 75.5916 39.2792 75.5676L39.1624 75.5527C39.1624 75.5527 39.0626 75.5597 39.0237 75.5547L38.8875 75.5372C38.6295 75.5437 38.3545 75.5283 38.0796 75.5128L37.9628 75.4978L37.4907 75.4767L37.4323 75.4692C36.9603 75.4483 36.3376 75.3684 35.8316 75.3035L35.8121 75.301C35.8121 75.301 35.7148 75.2886 35.6759 75.2836L35.3451 75.2411C34.8196 75.1737 34.5082 75.1338 34.0267 75.0324C33.9877 75.0274 33.9294 75.02 33.8905 75.015L33.871 75.0125C33.5402 74.97 33.2143 74.8887 32.869 74.8049C32.7328 74.7874 32.599 74.7504 32.4653 74.7135C32.3096 74.6935 32.1564 74.6542 32.0032 74.6147C31.8475 74.5948 31.658 74.5308 31.4853 74.4889C30.8141 74.3237 30.1649 74.1416 29.5571 73.9449L29.5182 73.9399C26.0782 72.8459 23.5248 71.4699 22.0748 70.5915C21.946 70.5157 21.8537 70.4642 21.8003 70.4178C21.4166 70.1708 21.0498 69.9458 20.6856 69.7012C20.5763 69.6278 20.467 69.5544 20.3578 69.4811C19.9182 69.2071 19.231 68.7035 18.4761 68.1121C17.0171 66.9952 15.6703 65.774 14.4893 64.4949C14.2976 64.2923 14.123 64.1116 13.9704 63.914C13.8491 63.7798 13.7109 63.6236 13.5726 63.4674C10.9441 60.519 9.25715 57.6319 8.17695 55.258C8.08265 55.0679 8.00778 54.8803 7.91348 54.6902L7.86509 54.6047C6.87919 52.4209 6.21664 50.338 5.75068 48.4186L5.72426 48.3164L5.62892 48.4426Z" fill="url(#paint0_radial_40_973)"/>
<defs>
<radialGradient id="paint0_radial_40_973" cx="0" cy="0" r="1" gradientUnits="userSpaceOnUse" gradientTransform="translate(20.5076 43.9224) rotate(-144.73) scale(42.7669 42.7683)">
<stop offset="0.02" stop-color="#BCDEE7"/>
<stop offset="0.46" stop-color="#BDDEE7"/>
<stop offset="0.64" stop-color="#C5E2EA"/>
<stop offset="0.77" stop-color="#D1E8EE"/>
<stop offset="0.88" stop-color="#E2F1F4"/>
<stop offset="0.97" stop-color="#F9FCFC"/>
<stop offset="0.99" stop-color="white"/>
</radialGradient>
</defs>
</svg>
