<svg width="1645" height="1221" viewBox="0 0 1645 1221" fill="none" xmlns="http://www.w3.org/2000/svg">
<path d="M246.868 907.449C317.31 922.187 381.079 958.425 443.695 993.909C506.314 1029.37 570.479 1065.13 641.14 1078.72C706.006 1091.22 769.265 1079.29 834.222 1082.19C900.732 1085.16 966.796 1098.53 1029.17 1121.82C1070.75 1137.35 1137.07 1155.23 1180.5 1123.01C1224.04 1090.71 1225.41 1022.64 1188.09 986.346C1144.79 944.239 1091.12 912.82 1033.12 895.932C1000.05 886.296 965.622 881.397 931.186 881.241C897.283 881.092 866.19 889.768 832.979 893.321C770.062 900.047 711.247 927.302 646.618 928.658C569.402 930.288 494.898 902.913 422.106 877.053C349.313 851.193 273.536 826.132 196.558 832.595C138.395 837.473 78.3477 864.458 43.1032 912.262C30.4831 929.394 17.7078 979.185 42.5158 952.143C65.3378 927.268 90.1265 911.492 121.505 904.511C159.184 896.13 209.151 899.557 246.829 907.445L246.868 907.449Z" fill="url(#paint0_linear_79_2055)"/>
<g style="mix-blend-mode:overlay" opacity="0.8">
<path d="M276.867 907.288C347.309 922.026 411.078 958.264 473.695 993.747C536.314 1029.21 600.479 1064.96 671.14 1078.56C736.006 1091.05 799.264 1079.13 864.222 1082.03C930.732 1084.99 996.795 1098.36 1059.17 1121.66C1100.75 1137.18 1167.07 1155.07 1210.5 1122.84C1254.04 1090.55 1255.41 1022.48 1218.09 986.184C1174.79 944.077 1121.12 912.658 1063.12 895.77C1030.05 886.135 995.622 881.235 961.186 881.08C927.283 880.93 896.19 889.606 862.979 893.159C800.062 899.885 741.247 927.141 676.618 928.496C599.402 930.126 524.898 902.751 452.105 876.891C379.313 851.031 303.536 825.971 226.557 832.433C168.394 837.311 108.347 864.297 73.1027 912.1C60.4826 929.232 47.7073 979.023 72.5153 951.981C95.3373 927.106 120.126 911.33 151.505 904.35C189.183 895.968 239.151 899.395 276.828 907.283L276.867 907.288Z" fill="#C8FCF2"/>
</g>
<defs>
<linearGradient id="paint0_linear_79_2055" x1="128.769" y1="872.883" x2="1350.11" y2="1067.79" gradientUnits="userSpaceOnUse">
<stop offset="0.18" stop-color="#FFFF54"/>
<stop offset="1" stop-color="#F19623"/>
</linearGradient>
</defs>
</svg>
