<svg width="224" height="192" viewBox="0 0 224 192" fill="none" xmlns="http://www.w3.org/2000/svg">
<g style="mix-blend-mode:multiply" opacity="0.7">
<g style="mix-blend-mode:multiply" opacity="0.01">
<path d="M97.5293 97.2204C132.647 68.4902 199.599 59.9065 209.971 102.424C213.764 117.727 205.829 133.327 193.5 145.712C188.685 150.554 183.159 154.929 177.342 158.634C165.493 166.195 152.539 172.802 139.539 176.535C127.832 179.9 116.104 180.968 105.127 178.333C89.7166 174.636 73.5835 162.695 70.5655 146.897C67.3225 129.924 82.5035 109.497 97.5268 97.2398L97.5293 97.2204Z" fill="#47E7C8"/>
</g>
<g style="mix-blend-mode:multiply" opacity="0.03">
<path d="M97.4578 97.4684C132.324 69.0026 198.49 60.5357 208.934 102.488C212.718 117.712 204.751 133.248 192.514 145.526C187.724 150.332 182.222 154.671 176.428 158.359C164.686 165.854 151.842 172.376 138.964 176.086C127.359 179.424 115.75 180.487 104.885 177.907C89.6032 174.285 73.6108 162.481 70.5923 146.841C67.3294 130.023 82.4006 109.682 97.4603 97.449L97.4578 97.4684Z" fill="#46E6C8"/>
</g>
<g style="mix-blend-mode:multiply" opacity="0.04">
<path d="M97.3671 97.7139C132.052 69.5811 197.441 61.153 207.875 102.57C211.691 117.699 203.671 133.188 191.527 145.36C186.764 150.11 181.281 154.451 175.509 158.122C163.877 165.532 151.157 172.012 138.381 175.694C126.898 179.009 115.369 180.062 104.616 177.536C89.4461 173.968 73.6089 162.342 70.5899 146.861C67.2875 130.196 82.2828 109.983 97.3815 97.7554L97.3671 97.7139Z" fill="#46E4C7"/>
</g>
<g style="mix-blend-mode:multiply" opacity="0.06">
<path d="M97.2982 97.9425C131.748 70.096 196.415 61.7533 206.838 102.635C210.667 117.666 202.61 133.131 190.561 145.176C185.842 149.893 180.384 154.198 174.614 157.849C163.089 165.194 150.48 171.588 137.845 175.25C126.464 178.538 115.054 179.587 104.396 177.092C89.3573 173.581 73.6583 162.111 70.6193 146.786C67.2945 130.296 82.1995 110.17 97.3176 97.945L97.2982 97.9425Z" fill="#45E3C7"/>
</g>
<g style="mix-blend-mode:multiply" opacity="0.07">
<path d="M97.2074 98.188C131.442 70.6305 195.367 62.3705 205.782 102.697C209.642 117.634 201.532 133.052 189.557 144.988C184.862 149.668 179.429 153.936 173.678 157.591C162.263 164.85 149.778 171.202 137.247 174.817C125.969 178.079 114.676 179.143 104.112 176.68C89.2028 173.244 73.6639 161.914 70.6025 146.764C67.2577 130.43 82.0504 110.408 97.205 98.2075L97.2074 98.188Z" fill="#45E1C7"/>
</g>
<g style="mix-blend-mode:multiply" opacity="0.08">
<path d="M97.1359 98.436C131.136 71.1649 194.337 62.9903 204.742 102.782C208.615 117.621 200.452 132.993 188.589 144.824C183.918 149.468 178.507 153.719 172.781 157.337C161.476 164.512 149.097 170.798 136.689 174.389C125.532 177.627 114.339 178.684 103.868 176.273C89.0893 172.893 73.6887 161.719 70.6268 146.727C67.262 130.549 81.9424 110.632 97.1359 98.436V98.436Z" fill="#44E0C7"/>
</g>
<g style="mix-blend-mode:multiply" opacity="0.1">
<path d="M97.0671 98.6646C130.833 71.68 193.33 63.5931 203.708 102.827C207.61 117.591 199.396 132.897 187.606 144.62C182.982 149.209 177.573 153.441 171.85 157.04C160.652 164.149 148.4 170.372 136.116 173.92C125.062 177.132 113.968 178.181 103.609 175.824C88.9616 172.501 73.7382 161.488 70.6343 146.669C67.269 130.649 81.8372 110.836 97.0671 98.6646Z" fill="#44DEC6"/>
</g>
<g style="mix-blend-mode:multiply" opacity="0.11">
<path d="M96.9762 98.9101C130.51 72.1924 192.282 64.2104 202.649 102.909C206.583 117.578 198.313 132.857 186.619 144.453C182.019 149.007 176.635 153.202 170.931 156.803C159.842 163.828 147.718 169.988 135.533 173.529C124.581 176.714 113.607 177.759 103.342 175.434C88.8045 172.184 73.7412 161.311 70.6173 146.647C67.232 130.783 81.688 111.074 96.9568 98.9076L96.9762 98.9101Z" fill="#43DDC6"/>
</g>
<g style="mix-blend-mode:multiply" opacity="0.13">
<path d="M96.9074 99.1387C130.226 72.7099 191.258 64.7912 201.612 102.974C205.559 117.545 197.235 132.778 185.634 144.267C181.059 148.785 175.699 152.944 170.017 156.528C159.038 163.468 147.018 169.582 134.958 173.079C124.111 176.218 113.254 177.279 103.081 175.005C88.6743 171.812 73.7687 161.097 70.6224 146.608C67.2171 130.899 81.5802 111.297 96.866 99.1532L96.9074 99.1387Z" fill="#43DBC6"/>
</g>
<g style="mix-blend-mode:multiply" opacity="0.14">
<path d="M96.8165 99.3841C129.901 73.2418 190.229 65.4108 200.555 103.036C204.534 117.513 196.157 132.699 184.649 144.082C180.117 148.565 174.762 152.685 169.102 156.252C158.234 163.107 146.34 169.158 134.383 172.63C123.657 175.745 112.897 176.817 102.839 174.578C88.5635 171.441 73.7961 160.882 70.6492 146.552C67.224 130.999 81.4748 111.501 96.819 99.3646L96.8165 99.3841Z" fill="#42DAC6"/>
</g>
<g style="mix-blend-mode:multiply" opacity="0.15">
<path d="M96.7453 99.6322C129.597 73.7569 189.2 66.0307 199.536 103.123C203.544 117.524 195.116 132.645 183.7 143.921C179.196 148.348 173.88 152.473 168.222 156.02C157.444 162.788 145.675 168.796 133.861 172.226C123.238 175.315 112.578 176.381 102.633 174.176C88.4869 171.115 73.8796 160.695 70.7103 146.54C67.2651 131.143 81.4061 111.73 96.7842 99.6372L96.7453 99.6322Z" fill="#42D8C6"/>
</g>
<g style="mix-blend-mode:multiply" opacity="0.17">
<path d="M96.6764 99.8607C129.294 74.2718 188.193 66.6334 198.501 103.168C202.522 117.472 194.038 132.566 182.718 143.715C178.238 148.106 172.946 152.195 167.311 155.725C156.64 162.428 145 168.353 133.285 171.777C122.765 174.839 112.224 175.9 102.372 173.747C88.3566 170.742 73.8876 160.479 70.6983 146.479C67.2331 131.238 81.2813 111.932 96.6789 99.8413L96.6764 99.8607Z" fill="#41D7C5"/>
</g>
<g style="mix-blend-mode:multiply" opacity="0.18">
<path d="M96.5854 100.106C128.971 74.7843 187.164 67.2531 197.442 103.25C201.495 117.459 192.958 132.507 181.73 143.549C177.294 147.906 172.007 151.956 166.391 155.489C155.83 162.106 144.295 167.986 132.705 171.366C122.306 174.404 111.867 175.439 102.105 173.356C88.2043 170.386 73.8904 160.301 70.6982 146.479C67.213 131.393 81.1489 112.192 96.5829 100.126L96.5854 100.106Z" fill="#41D5C5"/>
</g>
<g style="mix-blend-mode:multiply" opacity="0.2">
<path d="M96.5141 100.354C128.665 75.3188 186.157 67.856 196.403 103.334C200.487 117.449 191.897 132.45 180.743 143.383C176.331 147.703 171.069 151.717 165.475 155.233C155.023 161.766 143.615 167.582 132.147 170.938C121.85 173.95 111.531 174.98 101.861 172.949C88.0911 170.035 73.9349 160.109 70.7227 146.443C67.2176 131.513 81.0412 112.415 96.5311 100.376L96.5141 100.354Z" fill="#40D4C5"/>
</g>
<g style="mix-blend-mode:multiply" opacity="0.21">
<path d="M96.4259 100.58C128.345 75.8119 185.111 68.4538 195.349 103.377C199.463 117.416 190.802 132.349 179.76 143.178C175.376 147.442 170.133 151.458 164.563 154.938C154.219 161.405 142.94 167.14 131.574 170.469C121.38 173.454 111.179 174.481 101.605 172.481C87.9659 169.624 73.948 159.854 70.7133 146.363C67.1882 131.588 80.919 112.597 96.4284 100.561L96.4259 100.58Z" fill="#40D2C5"/>
</g>
<g style="mix-blend-mode:multiply" opacity="0.23">
<path d="M96.3545 100.828C128.039 76.3463 184.102 69.0759 194.31 103.461C198.436 117.403 189.739 132.311 178.773 143.012C174.432 147.242 169.194 151.219 163.625 154.699C153.39 161.081 142.216 166.77 130.972 170.075C120.899 173.037 110.777 174.073 101.316 172.108C87.8062 169.326 73.9485 159.695 70.6938 146.36C67.1488 131.741 80.7673 112.855 96.313 100.843L96.3545 100.828Z" fill="#3FD0C4"/>
</g>
<g style="mix-blend-mode:multiply" opacity="0.24">
<path d="M96.2829 101.076C127.735 76.8613 183.094 69.6788 193.272 103.526C197.431 117.373 188.68 132.235 177.807 142.828C173.491 147.023 168.297 150.966 162.73 154.426C152.605 160.723 141.558 166.349 130.416 169.628C120.445 172.563 110.442 173.595 101.074 171.681C87.6953 168.956 73.9758 159.481 70.7181 146.324C67.1311 131.877 80.6594 113.078 96.2635 101.074L96.2829 101.076Z" fill="#3FCFC4"/>
</g>
<g style="mix-blend-mode:multiply" opacity="0.25">
<path d="M96.1946 101.302C127.412 77.3738 182.087 70.2816 192.216 103.589C196.406 117.341 187.603 132.156 176.822 142.643C172.53 146.8 167.361 150.707 161.813 154.17C151.796 160.402 140.856 165.962 129.857 169.201C119.989 172.109 110.105 173.136 100.849 171.276C87.6016 168.608 74.0397 159.292 70.762 146.29C67.1551 131.999 80.593 113.288 96.2116 101.324L96.1946 101.302Z" fill="#3ECDC4"/>
</g>
<g style="mix-blend-mode:multiply" opacity="0.27">
<path d="M96.1234 101.55C127.109 77.8887 181.078 70.9038 191.177 103.673C195.397 117.349 186.522 132.097 175.834 142.476C171.589 146.581 166.42 150.488 160.897 153.914C150.989 160.061 140.176 165.559 129.28 168.77C119.516 171.633 109.749 172.675 100.588 170.847C87.452 168.232 74.0453 159.094 70.7477 146.248C67.1208 132.113 80.4464 113.506 96.1039 101.548L96.1234 101.55Z" fill="#3ECCC4"/>
</g>
<g style="mix-blend-mode:multiply" opacity="0.28">
<path d="M96.0325 101.796C126.784 78.4207 180.051 71.5042 190.12 103.735C194.372 117.317 185.442 132.037 174.849 142.291C170.629 146.359 165.484 150.229 159.982 153.638C150.182 159.72 139.476 165.152 128.702 168.34C119.06 171.179 109.374 172.211 100.324 170.437C87.3168 167.899 74.0508 158.897 70.7526 146.209C67.1058 132.23 80.3191 113.727 96.013 101.794L96.0325 101.796Z" fill="#3DCAC3"/>
</g>
<g style="mix-blend-mode:multiply" opacity="0.3">
<path d="M95.9635 102.025C126.483 78.9163 179.064 72.1094 189.103 103.803C193.367 117.287 184.403 131.963 173.884 142.108C169.687 146.139 164.567 149.973 159.085 153.385C149.394 159.382 138.815 164.751 128.163 167.915C118.624 170.727 109.056 171.755 100.099 170.033C87.2228 167.55 74.1145 158.708 70.7939 146.195C67.1271 132.371 80.2281 113.973 95.9804 102.047L95.9635 102.025Z" fill="#3DC9C3"/>
</g>
<g style="mix-blend-mode:multiply" opacity="0.31">
<path d="M95.8922 102.273C126.16 79.4288 178.054 72.7318 188.066 103.867C192.362 117.257 183.325 131.884 172.918 141.924C168.766 145.922 163.667 149.739 158.19 153.112C148.61 159.024 138.155 164.35 127.607 167.468C118.17 170.254 108.722 171.277 99.8566 169.606C87.1122 167.18 74.1421 158.494 70.821 146.139C67.1342 132.471 80.1424 114.179 95.9117 102.275L95.8922 102.273Z" fill="#3CC7C3"/>
</g>
<g style="mix-blend-mode:multiply" opacity="0.32">
<path d="M95.8039 102.499C125.839 79.9217 177.05 73.3149 187.01 103.93C191.335 117.244 182.247 131.805 171.914 141.736C167.788 145.678 162.712 149.478 157.257 152.834C147.783 158.681 137.438 163.922 127.012 167.016C117.697 169.777 108.346 170.813 99.5782 169.155C86.965 166.785 74.1331 158.255 70.7895 146.076C67.0827 132.564 79.9812 114.356 95.7869 102.477L95.8039 102.499Z" fill="#3CC6C3"/>
</g>
<g style="mix-blend-mode:multiply" opacity="0.34">
<path d="M95.7325 102.747C125.533 80.4562 176.06 73.9396 185.97 104.014C190.327 117.233 181.184 131.768 170.946 141.572C166.845 145.478 161.792 149.241 156.357 152.599C146.993 158.362 136.772 163.559 126.468 166.629C117.255 169.365 108.004 170.394 99.3481 168.789C86.8467 166.473 74.192 158.104 70.8284 146.081C67.1017 132.724 79.8878 114.621 95.73 102.766L95.7325 102.747Z" fill="#3BC4C3"/>
</g>
<g style="mix-blend-mode:multiply" opacity="0.35">
<path d="M95.6612 102.995C125.211 80.9687 175.053 74.5425 184.933 104.079C189.323 117.204 180.106 131.689 169.98 141.389C165.923 145.261 160.876 148.985 155.443 152.324C146.189 158.002 136.075 163.134 125.893 166.18C116.783 168.889 107.651 169.913 99.0868 168.36C86.7141 166.12 74.2001 157.888 70.8335 146.042C67.0868 132.841 79.7606 114.842 95.6612 102.995V102.995Z" fill="#3BC3C2"/>
</g>
<g style="mix-blend-mode:multiply" opacity="0.37">
<path d="M95.5727 103.221C124.89 81.4617 174.046 75.1452 183.877 104.141C188.296 117.19 179.028 131.61 168.976 141.201C164.943 145.036 159.918 148.744 154.507 152.065C145.36 157.678 135.373 162.747 125.296 165.747C116.307 168.432 107.275 169.449 98.8227 167.95C86.5812 165.767 74.2249 157.693 70.8384 146.003C67.0522 132.955 79.6527 115.066 95.5702 103.24L95.5727 103.221Z" fill="#3AC1C2"/>
</g>
<g style="mix-blend-mode:multiply" opacity="0.38">
<path d="M95.5015 103.469C124.587 81.9768 173.058 75.7506 182.84 104.206C187.291 117.161 177.97 131.534 168.01 141.018C164.004 144.797 159.021 148.49 153.612 151.792C144.575 157.32 134.696 162.324 124.74 165.3C115.853 167.958 106.941 168.971 98.5833 167.504C86.4731 165.377 74.255 157.46 70.846 145.944C67.0399 133.053 79.5306 115.248 95.4845 103.447L95.5015 103.469Z" fill="#3AC0C2"/>
</g>
<g style="mix-blend-mode:multiply" opacity="0.39">
<path d="M95.4105 103.714C124.244 82.4868 172.07 76.3559 181.781 104.288C186.264 117.148 176.867 131.491 167.003 140.849C163.022 144.592 158.062 148.248 152.676 151.534C143.746 156.996 133.994 161.937 124.159 164.889C115.375 167.521 106.562 168.527 98.3168 167.114C86.3378 165.043 74.2579 157.282 70.8484 145.925C67.0223 133.189 79.4007 115.489 95.4105 103.714V103.714Z" fill="#39BEC2"/>
</g>
<g style="mix-blend-mode:multiply" opacity="0.41">
<path d="M95.3416 103.943C123.943 82.9824 171.083 76.9612 180.744 104.353C185.256 117.137 175.809 131.415 166.037 140.666C162.1 144.375 157.143 148.012 151.779 151.28C142.959 156.658 133.333 161.536 123.601 164.462C114.922 167.048 106.225 168.069 98.0723 166.706C86.2026 164.709 74.3023 157.09 70.8703 145.908C67.0217 133.347 79.2904 115.732 95.3391 103.962L95.3416 103.943Z" fill="#39BCC1"/>
</g>
<g style="mix-blend-mode:multiply" opacity="0.42">
<path d="M95.2704 104.191C123.621 83.4947 170.095 77.5664 179.727 104.42C184.271 117.11 174.77 131.341 165.072 140.483C161.159 144.155 156.227 147.756 150.884 151.007C142.174 156.3 132.653 161.132 123.045 164.014C114.488 166.576 105.889 167.61 97.8305 166.28C86.092 164.339 74.3299 156.876 70.8974 145.852C67.0289 133.447 79.1877 115.916 95.2704 104.191V104.191Z" fill="#38BBC1"/>
</g>
<g style="mix-blend-mode:multiply" opacity="0.44">
<path d="M95.1795 104.436C123.298 84.0073 169.108 78.1718 178.668 104.502C183.244 117.097 173.687 131.301 164.085 140.317C160.199 143.933 155.288 147.517 149.965 150.771C141.362 155.998 131.97 160.748 122.484 163.606C114.029 166.142 105.55 167.171 97.586 165.873C85.9787 163.988 74.3548 156.681 70.8999 145.833C67.0114 133.583 79.058 116.157 95.1795 104.436V104.436Z" fill="#38B9C1"/>
</g>
<g style="mix-blend-mode:multiply" opacity="0.45">
<path d="M95.1106 104.665C122.977 84.5004 168.12 78.7771 177.633 104.547C182.239 117.067 172.612 131.203 163.121 140.114C159.279 143.697 154.393 147.244 149.073 150.478C140.58 155.62 131.293 160.324 121.929 163.159C113.576 165.668 105.196 166.69 97.3439 165.446C85.8654 163.637 74.3992 156.489 70.9268 145.777C67.0183 133.683 78.9526 116.361 95.13 104.668L95.1106 104.665Z" fill="#37B8C1"/>
</g>
<g style="mix-blend-mode:multiply" opacity="0.46">
<path d="M95.0198 104.911C122.635 85.0104 167.133 79.3824 176.574 104.629C181.212 117.054 171.532 131.143 162.114 139.945C158.297 143.491 153.433 147.022 148.117 150.217C139.732 155.294 130.574 159.916 121.312 162.724C113.081 165.209 104.801 166.224 97.041 165.031C85.6938 163.279 74.3658 156.287 70.8904 145.752C66.9425 133.812 78.7864 116.577 95.0004 104.908L95.0198 104.911Z" fill="#37B6C1"/>
</g>
<g style="mix-blend-mode:multiply" opacity="0.48">
<path d="M94.9484 105.158C122.332 85.5253 166.165 79.9901 175.535 104.713C180.204 117.043 170.471 131.086 161.146 139.782C157.353 143.291 152.514 146.785 147.218 149.983C138.942 154.975 129.888 159.551 120.751 162.315C112.622 164.774 104.461 165.785 96.816 164.626C85.5805 162.928 74.4102 156.095 70.9343 145.718C66.9664 133.933 78.7175 116.806 94.9484 105.158Z" fill="#36B5C0"/>
</g>
<g style="mix-blend-mode:multiply" opacity="0.49">
<path d="M94.8795 105.387C122.011 86.0183 165.199 80.5783 174.5 104.758C179.219 117.015 169.393 131.007 160.164 139.576C156.417 143.032 151.58 146.507 146.306 149.688C138.14 154.595 129.213 159.108 120.198 161.849C112.171 164.281 104.129 165.287 96.5765 164.18C85.4723 162.538 74.4402 155.861 70.9418 145.66C66.9539 134.031 78.5928 117.007 94.882 105.368L94.8795 105.387Z" fill="#36B3C0"/>
</g>
<g style="mix-blend-mode:multiply" opacity="0.51">
<path d="M94.7888 105.633C121.669 86.5283 164.211 81.1837 173.442 104.84C178.192 117.002 168.313 130.948 159.176 139.41C155.454 142.83 150.639 146.287 145.387 149.452C137.328 154.293 128.528 158.743 119.617 161.438C111.712 163.847 103.749 164.863 96.3102 163.79C85.3346 162.224 74.4627 155.686 70.9443 145.64C66.9365 134.167 78.4656 117.228 94.7888 105.633V105.633Z" fill="#35B2C0"/>
</g>
<g style="mix-blend-mode:multiply" opacity="0.52">
<path d="M94.7199 105.861C121.368 87.0238 163.246 81.7719 172.407 104.886C177.189 116.953 167.257 130.852 158.194 139.205C154.496 142.588 149.725 146.012 144.475 149.156C136.526 153.913 127.834 158.298 119.042 160.988C111.239 163.37 103.395 164.382 96.0487 163.361C85.2044 161.851 74.4707 155.47 70.9493 145.601C66.9215 134.284 78.3383 117.449 94.7004 105.859L94.7199 105.861Z" fill="#35B0C0"/>
</g>
<g style="mix-blend-mode:multiply" opacity="0.54">
<path d="M94.6291 106.107C121.028 87.5145 162.258 82.3773 171.348 104.967C176.182 116.942 166.157 130.79 157.206 139.039C153.552 142.388 148.786 145.773 143.558 148.901C135.717 153.592 127.151 157.914 118.484 160.561C110.783 162.916 103.058 163.924 95.8067 162.934C85.0937 161.481 74.4981 155.256 70.9737 145.565C66.9065 134.401 78.233 117.654 94.6291 106.107V106.107Z" fill="#34AFBF"/>
</g>
<g style="mix-blend-mode:multiply" opacity="0.55">
<path d="M94.5576 106.355C120.705 88.0269 161.309 82.9876 170.309 105.052C175.172 116.951 165.094 130.753 156.238 138.875C152.611 142.168 147.864 145.556 142.659 148.666C134.927 153.273 126.468 157.53 117.923 160.153C110.327 162.462 102.719 163.484 95.5596 162.546C84.9558 161.167 74.5205 155.08 70.9761 145.546C66.8865 134.556 78.1031 117.894 94.5576 106.355V106.355Z" fill="#34ADBF"/>
</g>
<g style="mix-blend-mode:multiply" opacity="0.56">
<path d="M94.4887 106.583C120.385 88.5199 160.344 83.5758 169.294 105.1C174.189 116.904 164.057 130.659 155.275 138.672C151.673 141.929 146.95 145.28 141.766 148.374C134.161 152.918 125.81 157.109 117.369 159.686C109.896 161.972 102.368 162.984 95.3201 162.1C84.8501 160.757 74.5699 154.849 71.0031 145.49C66.8935 134.656 78.0004 118.079 94.4887 106.583V106.583Z" fill="#33ACBF"/>
</g>
<g style="mix-blend-mode:multiply" opacity="0.58">
<path d="M94.3978 106.829C120.042 89.03 159.376 84.1836 168.235 105.181C173.181 116.894 162.957 130.597 154.288 138.506C150.729 141.729 146.031 145.044 140.85 148.118C133.354 152.577 125.11 156.703 116.808 159.278C109.437 161.537 102.026 162.565 95.0731 161.712C84.7318 160.445 74.5923 154.674 71.025 145.473C66.876 134.792 77.89 118.322 94.4173 106.831L94.3978 106.829Z" fill="#33AABF"/>
</g>
<g style="mix-blend-mode:multiply" opacity="0.59">
<path d="M94.3267 107.077C119.722 89.5228 158.427 84.7938 167.198 105.246C172.174 116.883 161.899 130.521 153.303 138.32C149.771 141.488 145.095 144.785 139.914 147.859C132.526 152.253 124.409 156.316 116.211 158.845C108.942 161.078 101.65 162.101 94.8118 161.283C84.6018 160.073 74.6006 154.457 71.0302 145.434C66.8612 134.909 77.7654 118.523 94.3267 107.077V107.077Z" fill="#32A9BF"/>
</g>
<g style="mix-blend-mode:multiply" opacity="0.61">
<path d="M94.2382 107.303C119.382 90.0135 157.464 85.3627 166.142 105.309C171.169 116.853 160.838 130.464 152.318 138.135C148.827 141.288 144.156 144.546 139 147.584C131.721 151.893 123.731 155.893 115.636 158.395C108.489 160.604 101.296 161.62 94.5503 160.854C84.4495 159.717 74.606 154.26 71.0182 145.373C66.8292 135.004 77.6017 118.72 94.2382 107.303V107.303Z" fill="#32A7BE"/>
</g>
<g style="mix-blend-mode:multiply" opacity="0.62">
<path d="M94.1669 107.551C119.062 90.5064 156.515 85.973 165.102 105.393C170.161 116.843 159.755 130.424 151.33 137.969C147.867 141.065 143.218 144.307 138.08 147.347C130.912 151.571 123.026 155.525 115.056 157.985C108.01 160.167 100.918 161.176 94.2838 160.464C84.3143 159.383 74.609 154.083 71.0182 145.373C66.8092 135.16 77.4719 118.96 94.1449 107.568L94.1669 107.551Z" fill="#31A5BE"/>
</g>
<g style="mix-blend-mode:multiply" opacity="0.63">
<path d="M94.0956 107.799C118.758 91.0214 155.567 86.5833 164.065 105.458C169.176 116.815 158.697 130.348 150.365 137.785C146.926 140.846 142.301 144.051 137.186 147.074C130.125 151.233 122.368 155.105 114.517 157.559C107.574 159.715 100.601 160.72 94.0589 160.059C84.2206 159.035 74.6729 153.893 71.0621 145.339C66.8137 135.279 77.3837 119.186 94.0931 107.818L94.0956 107.799Z" fill="#31A4BE"/>
</g>
<g style="mix-blend-mode:multiply" opacity="0.65">
<path d="M94.0071 108.025C118.418 91.5119 154.623 87.1546 163.009 105.52C168.171 116.785 157.619 130.269 149.36 137.597C145.965 140.624 141.362 143.812 136.252 146.796C129.301 150.87 121.649 154.696 113.922 157.107C107.101 159.239 100.225 160.257 93.7803 159.608C84.0707 158.659 74.6638 153.655 71.05 145.278C66.7816 135.374 77.2418 119.366 94.0071 108.025Z" fill="#30A2BE"/>
</g>
<g style="mix-blend-mode:multiply" opacity="0.66">
<path d="M93.9357 108.273C118.079 92.0024 153.674 87.7649 161.972 105.585C167.166 116.755 156.541 130.19 148.394 137.414C145.024 140.404 140.446 143.556 135.355 146.543C128.511 150.551 120.988 154.294 113.364 156.68C106.645 158.785 99.8882 159.798 93.5359 159.201C83.9575 158.308 74.6888 153.46 71.055 145.239C66.7642 135.51 77.1146 119.587 93.9163 108.27L93.9357 108.273Z" fill="#30A1BD"/>
</g>
<g style="mix-blend-mode:multiply" opacity="0.68">
<path d="M93.845 108.518C117.739 92.493 152.728 88.3557 160.913 105.667C166.156 116.764 155.458 130.15 147.407 137.248C144.063 140.182 139.507 143.317 134.438 146.287C127.704 150.21 120.286 153.908 112.805 156.252C106.189 158.331 99.532 159.337 93.2915 158.793C83.8249 157.955 74.7138 153.265 71.0771 145.222C66.7468 135.646 77.0068 119.811 93.845 108.518V108.518Z" fill="#2F9FBD"/>
</g>
<g style="mix-blend-mode:multiply" opacity="0.69">
<path d="M93.776 108.747C117.418 92.986 151.804 88.9295 159.895 105.734C165.19 116.739 154.419 130.076 146.441 137.065C143.142 139.965 138.588 143.08 133.541 146.033C126.914 149.891 119.626 153.507 112.244 155.844C105.733 157.877 99.1926 158.898 93.0443 158.406C83.7065 157.643 74.7361 153.09 71.0989 145.205C66.7486 135.785 76.8989 120.034 93.771 108.786L93.776 108.747Z" fill="#2F9EBD"/>
</g>
<g style="mix-blend-mode:multiply" opacity="0.7">
<path d="M93.7047 108.995C117.098 93.4791 150.877 89.523 158.859 105.799C164.204 116.712 153.342 129.997 145.476 136.881C142.201 139.745 137.691 142.827 132.646 145.76C126.129 149.533 118.965 153.105 111.688 155.397C105.299 157.406 98.8584 158.419 92.8244 157.962C83.6178 157.256 74.7832 152.879 71.1454 145.152C66.7557 135.885 76.7937 120.238 93.7436 109L93.7047 108.995Z" fill="#2E9CBD"/>
</g>
<g style="mix-blend-mode:multiply" opacity="0.72">
<path d="M93.6162 109.221C116.758 93.9696 149.931 90.1137 157.802 105.861C163.199 116.682 152.264 129.918 144.471 136.693C141.221 139.521 136.735 142.566 131.693 145.48C125.283 149.188 118.229 152.675 111.094 154.944C104.806 156.927 98.4826 157.956 92.5434 157.53C83.4655 156.9 74.7716 152.66 71.1139 145.089C66.7042 135.977 76.6324 120.415 93.6162 109.221V109.221Z" fill="#2E9BBD"/>
</g>
<g style="mix-blend-mode:multiply" opacity="0.73">
<path d="M93.545 109.469C116.438 94.4627 149.005 90.707 156.763 105.945C162.211 116.674 151.2 129.881 143.503 136.529C140.299 139.303 135.814 142.348 130.794 145.246C124.493 148.869 117.564 152.312 110.533 154.536C104.348 156.492 98.1239 157.514 92.2966 157.143C83.3499 156.569 74.8137 152.487 71.1335 145.091C66.7039 136.135 76.5223 120.659 93.5425 109.488L93.545 109.469Z" fill="#2D99BC"/>
</g>
<g style="mix-blend-mode:multiply" opacity="0.75">
<path d="M93.4736 109.717C116.117 94.9558 148.08 91.2809 155.726 106.01C161.248 116.629 150.122 129.802 142.518 136.344C139.338 139.081 134.878 142.09 129.879 144.97C123.706 148.53 116.866 151.887 109.955 154.106C103.891 156.038 97.7675 157.053 92.0325 156.733C83.1976 156.213 74.8191 152.29 71.1384 145.052C66.6668 136.269 76.3779 120.858 93.4711 109.737L93.4736 109.717Z" fill="#2D98BC"/>
</g>
<g style="mix-blend-mode:multiply" opacity="0.76">
<path d="M93.3851 109.943C115.76 95.4242 147.156 91.8546 154.669 106.072C160.242 116.599 149.044 129.723 141.533 136.158C138.378 138.859 133.958 141.853 128.965 144.694C122.901 148.17 116.186 151.483 109.38 153.656C103.418 155.562 97.4137 156.572 91.7735 156.284C83.0674 155.84 74.8295 152.054 71.1458 144.994C66.6543 136.366 76.2556 121.04 93.3851 109.943Z" fill="#2C96BC"/>
</g>
<g style="mix-blend-mode:multiply" opacity="0.77">
<path d="M93.3138 110.191C115.438 95.9367 146.229 92.448 153.632 106.137C159.257 116.572 147.967 129.644 140.568 135.975C137.439 138.62 133.042 141.597 128.068 144.441C122.112 147.851 115.526 151.081 108.841 153.231C102.982 155.11 97.0939 156.136 91.5485 155.88C82.9736 155.492 74.874 151.861 71.1703 144.957C66.6393 136.483 76.1478 121.263 93.3138 110.191V110.191Z" fill="#2C95BC"/>
</g>
<g style="mix-blend-mode:multiply" opacity="0.79">
<path d="M93.223 110.437C115.098 96.4273 145.303 93.0413 152.573 106.219C158.271 116.544 146.886 129.585 139.561 135.806C136.476 138.418 132.084 141.356 127.132 144.182C121.285 147.508 114.804 150.692 108.243 152.798C102.506 154.654 96.6988 155.67 91.2651 155.467C82.8215 155.136 74.8575 151.681 71.1533 144.935C66.6024 136.617 75.9817 121.479 93.2035 110.434L93.223 110.437Z" fill="#2B93BB"/>
</g>
<g style="mix-blend-mode:multiply" opacity="0.8">
<path d="M93.1542 110.665C114.78 96.9009 144.401 93.5982 151.537 106.284C157.306 116.519 145.809 129.506 138.595 135.623C135.535 138.198 131.184 141.121 126.235 143.929C120.496 147.189 114.143 150.291 107.683 152.39C102.048 154.219 96.3596 155.231 91.0402 155.063C82.7058 154.805 74.9021 151.489 71.1974 144.901C66.6045 136.755 75.896 121.686 93.1712 110.687L93.1542 110.665Z" fill="#2B91BB"/>
</g>
<g style="mix-blend-mode:multiply" opacity="0.82">
<path d="M93.0829 110.913C114.44 97.3915 143.496 94.1746 150.5 106.349C156.342 116.475 144.748 129.449 137.61 135.437C134.577 137.956 130.248 140.863 125.321 143.653C119.691 146.829 113.444 149.885 107.127 151.943C101.594 153.746 96.0228 154.772 90.7982 154.636C82.595 154.434 74.9295 151.275 71.2023 144.863C66.5895 136.872 75.7712 121.888 93.0829 110.913Z" fill="#2A90BB"/>
</g>
<g style="mix-blend-mode:multiply" opacity="0.83">
<path d="M92.9919 111.159C114.1 97.8818 142.569 94.7677 149.46 106.433C155.376 116.45 143.687 129.392 136.642 135.273C133.633 137.756 129.329 140.626 124.404 143.397C118.882 146.507 112.764 149.481 106.549 151.513C101.121 153.269 95.6664 154.311 90.5341 154.226C82.4597 154.1 74.9349 151.078 71.2072 144.823C66.5549 136.986 75.6268 122.087 92.9919 111.159V111.159Z" fill="#2A8EBB"/>
</g>
<g style="mix-blend-mode:multiply" opacity="0.85">
<path d="M92.923 111.387C113.782 98.3555 141.686 95.3271 148.426 106.478C154.412 116.405 142.631 129.296 135.659 135.068C132.695 137.517 128.393 140.368 123.49 143.122C118.075 146.166 112.064 149.075 105.974 151.063C100.668 152.796 95.2932 153.828 90.2727 153.797C82.3295 153.728 74.9404 150.881 71.2122 144.784C66.518 137.12 75.502 122.288 92.9035 111.385L92.923 111.387Z" fill="#298DBA"/>
</g>
<g style="mix-blend-mode:multiply" opacity="0.86">
<path d="M92.8323 111.633C113.423 98.8436 140.762 95.9012 147.367 106.56C153.429 116.359 141.531 129.234 134.672 134.902C131.732 137.314 127.474 140.131 122.573 142.866C117.268 145.825 111.384 148.671 105.393 150.652C100.19 152.359 94.9345 153.386 90.0089 153.387C82.1944 153.394 74.946 150.684 71.2173 144.746C66.5032 137.237 75.3605 122.468 92.8323 111.633V111.633Z" fill="#298BBA"/>
</g>
<g style="mix-blend-mode:multiply" opacity="0.87">
<path d="M92.7609 111.881C113.103 99.3365 139.877 96.4799 146.327 106.644C152.778 116.809 140.468 129.197 133.704 134.739C130.79 137.095 126.552 139.914 121.673 142.632C116.495 145.528 110.718 148.309 104.852 150.247C99.7505 151.927 94.6121 152.969 89.7813 153.002C82.0786 153.062 74.9879 150.511 71.2367 144.748C66.4832 137.393 75.2306 122.709 92.7584 111.9L92.7609 111.881Z" fill="#288ABA"/>
</g>
<g style="mix-blend-mode:multiply" opacity="0.89">
<path d="M92.6921 112.109C112.765 99.8077 138.977 97.0173 145.293 106.69C151.609 116.362 139.412 129.101 132.721 134.533C129.852 136.856 125.618 139.636 120.762 142.337C115.905 145.037 110.024 147.863 104.279 149.777C99.2995 151.433 94.261 152.469 89.5224 152.553C81.9485 152.69 74.9765 150.292 71.2468 144.67C66.4708 137.49 75.111 122.871 92.6726 112.107L92.6921 112.109Z" fill="#2888BA"/>
</g>
<g style="mix-blend-mode:multiply" opacity="0.9">
<path d="M92.601 112.355C112.425 100.298 138.072 97.5937 144.234 106.772C150.396 115.95 138.312 129.039 131.734 134.367C128.889 136.653 124.696 139.419 119.845 142.081C114.993 144.742 109.341 147.479 103.701 149.347C98.8238 150.977 93.885 152.005 89.2583 152.144C81.8156 152.336 74.9818 150.095 71.2491 144.651C66.4337 137.624 74.964 123.09 92.601 112.355V112.355Z" fill="#2787BA"/>
</g>
<g style="mix-blend-mode:multiply" opacity="0.92">
<path d="M92.5323 112.583C112.088 100.769 137.192 98.1334 143.2 106.817C149.641 116.13 137.256 128.943 130.751 134.162C127.931 136.411 123.763 139.141 118.931 141.805C114.099 144.469 108.644 147.053 103.145 148.9C98.3704 150.503 93.5484 151.546 89.0384 151.7C81.7244 151.969 75.0289 149.883 71.2982 144.578C66.4408 137.723 74.8664 123.235 92.5543 112.566L92.5323 112.583Z" fill="#2785B9"/>
</g>
<g style="mix-blend-mode:multiply" opacity="0.93">
<path d="M92.4414 112.829C111.748 101.26 136.29 98.6904 142.141 106.899C148.697 116.088 136.173 128.903 129.764 133.996C126.99 136.192 122.824 138.902 118.014 141.549C113.204 144.196 107.961 146.669 102.565 148.489C97.9117 150.069 93.1895 151.105 88.7718 151.31C81.5891 151.635 75.0318 149.706 71.2786 144.575C66.3818 137.874 74.7171 123.474 92.4414 112.829V112.829Z" fill="#2684B9"/>
</g>
<g style="mix-blend-mode:multiply" opacity="0.94">
<path d="M92.3701 113.077C111.411 101.731 135.407 99.2498 141.101 106.983C147.774 116.029 135.093 128.844 128.776 133.83C126.027 135.989 121.903 138.685 117.095 141.312C112.287 143.94 107.259 146.282 101.985 148.079C97.4336 149.631 92.8308 150.663 88.5054 150.92C81.4514 151.32 75.0348 149.528 71.2811 144.556C66.3618 138.03 74.5703 123.692 92.3481 113.094L92.3701 113.077Z" fill="#2682B9"/>
</g>
<g style="mix-blend-mode:multiply" opacity="0.96">
<path d="M92.3012 113.306C111.093 102.204 134.529 99.7702 140.067 107.028C146.86 115.912 134.037 128.748 127.813 133.627C125.088 135.75 120.988 138.409 116.183 141.018C111.656 143.464 106.582 145.859 101.431 147.612C96.9826 149.138 92.4965 150.185 88.2659 150.473C81.3212 150.948 75.0623 149.314 71.3081 144.5C66.3494 138.127 74.4506 123.855 92.3012 113.306Z" fill="#2581B9"/>
</g>
<g style="mix-blend-mode:multiply" opacity="0.97">
<path d="M92.2103 113.551C110.734 102.692 133.627 100.327 139.027 107.113C145.96 115.836 132.976 128.691 126.845 133.463C124.164 135.552 120.086 138.195 115.286 140.764C110.886 143.147 105.921 145.458 100.873 147.184C96.5291 148.665 92.1378 149.743 88.0239 150.047C81.208 150.597 75.0898 149.1 71.3351 144.444C66.3344 138.244 74.3309 124.017 92.2323 113.534L92.2103 113.551Z" fill="#257FB8"/>
</g>
<g style="mix-blend-mode:multiply" opacity="0.99">
<path d="M92.139 113.799C110.399 103.144 132.747 100.867 137.991 107.178C145.062 115.74 131.896 128.631 125.86 133.277C123.206 135.311 119.148 137.956 114.37 140.508C110.076 142.826 105.219 145.071 100.293 146.774C96.0706 148.23 91.779 149.302 87.7575 149.656C81.0728 150.263 75.0709 148.939 71.3156 144.442C66.273 138.414 74.1452 124.231 92.1195 113.797L92.139 113.799Z" fill="#247EB8"/>
</g>
<g style="mix-blend-mode:multiply">
<path d="M113.455 140.232C99.6963 147.567 79.9717 154.375 71.3425 144.386C66.28 138.514 74.0423 124.416 92.07 114.028C110.078 103.637 131.871 101.368 136.954 107.242C144.189 115.608 130.837 128.555 124.894 133.094C122.265 135.091 118.231 137.699 113.475 140.235L113.455 140.232Z" fill="#247CB8"/>
</g>
</g>
<path d="M149.767 82.1401C149.767 82.1401 149.782 82.0233 149.79 81.9649C149.83 81.6535 149.974 79.7532 149.962 76.9227C149.955 76.6647 149.966 76.4286 149.959 76.1706C149.946 75.8128 149.954 75.4381 149.924 75.0583C149.654 65.904 147.585 57.053 143.938 48.9296L143.907 48.8663C143.506 47.984 143.085 47.0992 142.662 46.2338C140.585 42.0703 138.081 38.1487 135.207 34.4962C133.866 32.7615 132.196 30.8261 130.706 29.3295C129.712 28.2919 128.674 27.2883 127.611 26.3211C127.557 26.2747 127.506 26.2088 127.453 26.1624L127.31 26.0452C127.133 25.884 126.956 25.7227 126.759 25.559C126.067 24.9362 125.317 24.306 124.512 23.6487L124.422 23.5778C124.029 23.2504 123.613 22.94 123.181 22.6077C122.982 22.4634 122.783 22.3192 122.606 22.158C122.443 22.0382 122.281 21.9184 122.12 21.7792C121.994 21.6838 121.849 21.586 121.722 21.4907C119.226 19.6671 116.591 18.0037 113.817 16.5005C113.095 16.1112 112.558 15.8247 112.223 15.663L111.72 15.4205L111.237 15.1804L111.159 15.1704L111.049 15.0971C110.806 14.9868 110.491 14.8276 110.248 14.7173L110.136 14.6634L110.024 14.6095L109.463 14.3594C109.239 14.2516 108.938 14.1339 108.734 14.0286L108.097 13.7491C107.985 13.6952 107.854 13.6387 107.74 13.6043L107.628 13.5505L107.497 13.494L107.29 13.4081L106.575 13.1187C106.386 13.0548 106.179 12.9689 105.973 12.8831C105.786 12.7997 105.596 12.7358 105.406 12.672L105.387 12.6695C105.275 12.6156 105.141 12.5787 105.03 12.5248C104.804 12.4364 104.539 12.3432 104.329 12.2768L103.839 12.0951C103.61 12.0262 103.403 11.9404 103.175 11.8715L103.058 11.8565C102.89 11.7757 102.72 11.7143 102.55 11.6529L102.246 11.5545L101.886 11.4293L101.828 11.4218L101.697 11.3654C101.697 11.3654 101.563 11.3285 101.488 11.299C101.298 11.2352 101.125 11.1931 100.936 11.1293C100.822 11.0948 100.688 11.0579 100.593 11.026C100.384 10.9596 100.192 10.9152 99.9828 10.8488L99.4673 10.7035C99.4673 10.7035 99.2557 10.6567 99.1609 10.6247C99.0077 10.5853 98.8545 10.5458 98.6819 10.5039L98.2223 10.3857C97.9743 10.3143 97.7238 10.2623 97.4758 10.1909L96.7852 10.0232C96.7852 10.0232 96.6295 10.0033 96.5542 9.97381L96.4958 9.96633C96.3037 9.9219 96.0726 9.87254 95.861 9.82563C95.5521 9.76623 95.2263 9.68479 94.9174 9.62539C94.6839 9.59544 94.4748 9.52912 94.2633 9.4822C94.0103 9.44975 93.7792 9.4003 93.5287 9.34839C93.2757 9.31594 93.0277 9.24453 92.7553 9.20958C92.5996 9.18962 92.4439 9.16965 92.2882 9.14968L91.8601 9.09477C91.7458 9.06033 91.6485 9.04794 91.5317 9.03297C91.4149 9.01799 91.2982 9.00301 91.1619 8.98554C89.7852 8.7694 88.418 8.63351 87.0312 8.49522C86.7199 8.45528 86.4254 8.43733 86.1505 8.42185C85.8391 8.38191 85.5227 8.38084 85.2283 8.36286C85.0337 8.3379 84.8366 8.33244 84.6784 8.33193C84.2258 8.31345 83.7732 8.29496 83.3401 8.27897C83.1844 8.259 83.0262 8.25853 82.868 8.25803C82.2378 8.23654 81.6051 8.23449 81.0307 8.23995C80.7533 8.24393 80.4563 8.2454 80.1789 8.24938C80.1789 8.24938 80.0596 8.25389 80.0012 8.2464C79.5461 8.24737 79.0886 8.26776 78.6918 8.27623C78.3535 8.29218 78.0177 8.28871 77.6988 8.30716C76.9418 8.34854 76.3431 8.3904 75.9244 8.41583C73.8869 8.56994 71.8784 8.8069 69.8574 9.14116C68.6668 9.32474 67.5929 9.52334 66.268 9.82819C60.7519 11.0396 55.3481 12.9182 50.2341 15.467C49.7246 15.738 49.2176 15.9895 48.7081 16.2604C48.6448 16.2919 48.5814 16.3233 48.5155 16.3742C47.6452 16.8363 46.7724 17.3178 45.9141 17.8407C45.8482 17.8916 45.7849 17.9231 45.702 17.952L45.6167 18.0003L45.5508 18.0513C45.5508 18.0513 45.4874 18.0827 45.4435 18.1166L45.3582 18.1651C45.1216 18.3128 44.8876 18.441 44.6511 18.5887C44.178 18.8841 43.7049 19.1795 43.2733 19.4604C43.0148 19.6251 42.7757 19.7922 42.5172 19.9569C41.9977 20.3057 41.5222 20.6206 41.0636 20.9575L40.9977 21.0083L40.9318 21.0593C40.9318 21.0593 40.7147 21.2095 40.6049 21.2943C38.2316 22.9879 36.743 24.2609 36.6526 24.3482C35.9011 24.964 35.1615 25.6405 34.422 26.3172C33.907 26.7853 33.3675 27.2899 32.8036 27.8308C32.7597 27.8647 32.7158 27.8986 32.6913 27.9351L32.601 28.0224C31.4951 29.0873 30.3084 30.3197 29.0089 31.8148L29.0039 31.8538L28.9405 31.8852L28.8917 31.958C28.2908 32.6327 27.6775 33.4047 27.0397 34.2131C26.4947 34.9147 25.9523 35.5968 25.4807 36.1892L23.8717 38.5546C23.3387 39.3171 22.8472 40.065 22.3851 40.7377C21.5048 42.0491 20.5306 43.7837 19.5754 45.679L19.5704 45.7179C18.7474 47.3532 17.9315 49.0884 17.2203 50.7776L17.2128 50.8359L17.1638 50.9088C16.2296 53.1035 15.466 55.2015 15.0203 56.8258C13.2943 63.0337 13.1491 63.5491 12.554 67.726C11.7997 72.9903 11.8628 76.8164 11.8836 78.6588C11.9736 83.9721 12.7099 88.1021 12.9513 89.4585C13.8143 94.2972 14.7712 97.1696 15.7017 99.9398C16.273 101.655 16.729 102.881 17.3427 104.265C18.0721 105.981 18.9038 107.67 19.794 109.367L20.1108 109.981C20.974 111.734 22.3271 113.984 23.4658 115.594C24.304 116.77 25.4037 118.375 26.2834 119.536C27.1656 120.678 28.3581 122.176 29.3476 123.253C30.4194 124.458 30.8679 124.971 31.9088 125.955C33.1508 127.222 34.4391 128.436 35.74 129.552C36.1671 129.924 36.5942 130.295 37.0044 130.644C37.5044 131.064 38.0068 131.465 38.4584 131.8C38.6914 131.988 39.0362 132.23 39.4149 132.516L39.5971 132.639C39.9953 132.927 40.4663 133.264 40.9932 133.629C41.1025 133.702 41.2287 133.797 41.338 133.871C42.8824 134.939 44.8324 136.238 47.0309 137.45C47.5119 137.709 48.1582 138.069 48.955 138.488C49.1761 138.615 49.3997 138.723 49.6012 138.848L50.7529 139.431C50.9959 139.541 51.3118 139.7 51.5548 139.81L51.8342 139.945L51.8926 139.953L52.3202 140.166C52.5438 140.273 52.8452 140.391 53.0493 140.496L53.7808 140.808L53.8392 140.815C56.6679 142.049 59.4149 142.995 62.0506 143.728L62.2986 143.8C62.5272 143.868 62.7752 143.94 63.0451 143.994L63.123 144.004C63.3516 144.073 63.5801 144.142 63.7722 144.186L65.2482 144.554C65.9219 144.699 66.8071 144.892 67.4807 145.038C68.096 145.176 68.8719 145.296 69.587 145.427L69.6259 145.432C69.9957 145.479 70.3435 145.544 70.6718 145.605C71.6035 145.745 72.8709 145.887 73.8245 146.01C74.7976 146.135 76.0969 146.183 77.0555 146.266C79.1239 146.333 81.9079 146.374 83.9767 146.283C85.605 146.235 87.7642 146.057 89.376 145.828C89.7802 145.762 90.2039 145.697 90.647 145.635C91.918 145.442 93.2329 145.215 94.3238 145.039L95.6291 144.731C96.6666 144.508 97.6871 144.263 98.7101 143.999L99.2215 143.867C100.427 143.566 101.872 143.099 103.197 142.636C103.755 142.45 104.315 142.245 104.876 142.04C106.369 141.5 108.265 140.754 109.638 140.079L109.786 139.999C111.049 139.409 112.297 138.778 113.55 138.108C113.825 137.965 114.101 137.823 114.335 137.694L115.686 136.879C116.049 136.668 116.415 136.438 116.778 136.227L118.836 134.988C119.628 134.516 121.055 133.571 123.193 131.867L123.302 131.782L123.502 131.61C124.605 130.723 125.889 129.661 127.363 128.347C127.387 128.31 127.431 128.276 127.453 128.259C128.905 126.962 131.383 124.609 134.154 121.206L134.225 121.116C134.86 120.327 135.52 119.502 136.167 118.615C136.453 118.237 136.722 117.836 137.011 117.438C137.397 116.894 137.783 116.35 138.104 115.857C138.204 115.692 138.304 115.526 138.424 115.364C138.989 114.506 139.537 113.627 140.092 112.69C140.849 111.422 141.588 110.132 142.149 108.997C143.145 107.087 144.082 105.031 144.933 102.865C145.477 101.55 145.966 100.208 146.362 98.9733C146.812 97.6265 147.227 96.2357 147.59 94.7985C147.671 94.4726 147.752 94.1467 147.831 93.8403C148.317 91.9046 148.715 89.8785 149.024 87.7816C149.034 87.7038 149.044 87.6259 149.051 87.5675L149.069 87.4313C149.3 85.7795 149.498 84.0838 149.623 82.3392L149.767 82.1401Z" fill="url(#paint0_radial_40_648)"/>
<path d="M147.619 58.64C147.52 58.1724 147.4 57.7218 147.28 57.2711C147.383 57.6998 147.501 58.1699 147.619 58.64Z" fill="url(#paint1_linear_40_648)"/>
<path d="M11.3768 79.6818C11.3489 79.2826 11.321 78.8834 11.3125 78.4867C11.321 78.8834 11.3489 79.2826 11.3768 79.6818Z" fill="url(#paint2_linear_40_648)"/>
<path d="M33.2424 32.892C32.5512 34.4255 31.606 35.4714 31.3325 35.7528C23.9268 43.3687 21.1806 47.5071 17.8478 53.9045C17.2355 55.1316 16.9745 55.3158 16.7819 55.4296L16.5872 55.4046C16.0923 54.174 18.6652 46.4526 27.4857 36.2882C25.9907 36.5316 24.817 36.7372 24.2845 37.3415C25.58 35.569 27.3058 33.2185 28.7106 31.5194C29.8399 30.7344 30.5095 30.6028 33.5185 30.2766C34.0659 30.327 34.1158 30.7092 33.7086 31.7253C33.5394 32.119 33.3727 32.4932 33.223 32.8895" fill="#412121"/>
<path d="M82.8841 14.6102C82.741 15.2117 80.6694 16.1461 76.6693 17.4135C75.02 17.9339 71.229 19.2677 64.4878 22.32C69.8964 23.4885 72.8804 24.1283 79.9767 26.4826C83.4177 28.0317 81.9265 30.8672 79.7263 31.673C79.0417 31.9215 77.9459 32.1371 76.6574 31.6949C69.0872 29.1809 64.6087 27.8548 56.3921 26.524C55.2005 26.2525 54.7909 25.7449 54.9671 24.6794C55.0534 24.3146 55.1618 23.9329 55.2651 23.59C56.7873 19.4332 78.2165 13.062 78.4236 12.9897C78.957 12.8405 79.3198 12.7881 79.8942 12.7826C82.7146 12.8477 83.0268 14.1142 82.9035 14.6127" fill="#412121"/>
<path d="M85.7192 50.9579C77.3161 88.7129 36.2207 110.999 19.1137 87.0639C16.5481 83.4707 8.934 71.1193 19.0688 63.2006C35.0298 50.7275 59.1151 45.5477 75.8359 42.727C77.8739 42.4147 81.4044 41.8783 82.2782 41.8519C87.596 42.4944 86.7195 46.3979 85.7217 50.9385" fill="white"/>
<defs>
<radialGradient id="paint0_radial_40_648" cx="0" cy="0" r="1" gradientUnits="userSpaceOnUse" gradientTransform="translate(83.4513 88.6192) rotate(7.07887) scale(79.3256 79.3302)">
<stop stop-color="#F79F40"/>
<stop offset="0.16" stop-color="#F7A442"/>
<stop offset="0.37" stop-color="#F8B449"/>
<stop offset="0.6" stop-color="#F9CE55"/>
<stop offset="0.77" stop-color="#FBE660"/>
<stop offset="0.91" stop-color="#FBF36F"/>
<stop offset="0.93" stop-color="#FBF672"/>
<stop offset="0.95" stop-color="#FBF676"/>
<stop offset="0.96" stop-color="#FBF782"/>
<stop offset="0.98" stop-color="#FBF897"/>
<stop offset="0.99" stop-color="#FCFAB4"/>
<stop offset="1" stop-color="#FDFBC2"/>
</radialGradient>
<linearGradient id="paint1_linear_40_648" x1="147.132" y1="57.9572" x2="147.638" y2="58.0233" gradientUnits="userSpaceOnUse">
<stop stop-color="#19B79C"/>
<stop offset="0.4" stop-color="#1DBB9D"/>
<stop offset="0.82" stop-color="#29C7A2"/>
<stop offset="1" stop-color="#31CFA6"/>
</linearGradient>
<linearGradient id="paint2_linear_40_648" x1="11.1673" y1="79.0884" x2="11.4007" y2="79.1189" gradientUnits="userSpaceOnUse">
<stop stop-color="#19B79C"/>
<stop offset="0.4" stop-color="#1DBB9D"/>
<stop offset="0.82" stop-color="#29C7A2"/>
<stop offset="1" stop-color="#31CFA6"/>
</linearGradient>
</defs>
</svg>
