<svg width="1645" height="1221" viewBox="0 0 1645 1221" fill="none" xmlns="http://www.w3.org/2000/svg">
<path d="M390.121 809.31C390.096 809.189 390.072 809.067 390.045 808.965C389.819 807.909 389.658 806.644 389.696 805.206C389.702 804.514 389.777 803.575 390.033 802.46C390.086 802.189 390.163 801.882 390.257 801.598C390.267 801.52 390.296 801.444 390.323 801.388L390.332 801.31C390.332 801.31 390.39 801.159 390.422 801.064C390.552 800.645 390.697 800.268 390.843 799.89C390.896 799.778 390.952 799.646 390.985 799.532L390.99 799.493C390.99 799.493 391.09 799.327 391.119 799.252C391.438 798.58 391.771 797.968 392.132 797.439C392.205 797.329 392.275 797.239 392.328 797.127C392.353 797.09 392.379 797.034 392.423 797C392.447 796.964 392.472 796.927 392.518 796.873L392.564 796.82L392.61 796.766C392.61 796.766 392.658 796.693 392.683 796.656C393.178 796.006 393.593 795.523 393.955 795.152L393.959 795.113L394.071 795.008C394.21 794.847 394.406 794.694 394.586 794.518C394.676 794.43 394.788 794.325 394.875 794.257C395.118 794.05 395.448 793.774 395.711 793.569C395.842 793.466 395.951 793.381 396.08 793.298C396.08 793.298 396.233 793.178 396.299 793.127C396.386 793.059 396.493 792.993 396.578 792.944C396.858 792.761 397.157 792.58 397.475 792.401C397.73 792.255 397.983 792.128 398.258 791.984C399.605 791.319 401.044 790.863 402.536 790.631C403.304 790.488 404.222 790.423 405.207 790.445L405.324 790.459C405.602 790.454 405.857 790.465 406.152 790.482C406.346 790.506 406.561 790.532 406.755 790.556L406.833 790.566C407.145 790.604 407.281 790.62 407.515 790.649L407.593 790.659C407.846 790.69 408.019 790.731 408.248 790.798C408.403 790.818 408.535 790.873 408.691 790.892L408.71 790.895C408.903 790.938 409.073 790.999 409.265 791.042L409.285 791.044C409.455 791.105 409.609 791.143 409.779 791.204C409.894 791.238 410.006 791.291 410.12 791.325C410.159 791.33 410.198 791.335 410.254 791.361C411.37 791.775 412.205 792.213 412.72 792.534C412.776 792.56 412.812 792.585 412.829 792.606C413.068 792.754 413.29 792.88 413.453 792.999L413.636 793.121L413.675 793.125C413.965 793.339 414.309 793.599 414.74 793.948C416.788 795.623 418.306 797.747 419.232 800.193C419.263 800.256 419.293 800.339 419.305 800.4C419.433 800.811 419.562 801.202 419.66 801.531L419.653 801.589C419.758 801.859 419.82 802.163 419.884 802.448L419.926 802.591L419.945 802.752C419.972 802.854 419.98 802.954 420.007 803.056C420.056 803.299 420.086 803.54 420.118 803.761C420.133 803.961 420.17 804.143 420.185 804.343L420.178 804.401C420.178 804.401 420.2 804.542 420.212 804.603C420.22 804.703 420.227 804.803 420.235 804.903L420.23 804.942C420.386 807.531 419.859 810.056 418.725 812.368C418.698 812.424 418.672 812.48 418.643 812.555L418.633 812.633C418.633 812.633 418.514 812.797 418.466 812.87C417.489 814.707 416.215 816.231 414.786 817.4C412.357 819.474 409.612 820.58 406.953 820.827L406.875 820.817C406.751 820.861 406.612 820.864 406.49 820.889L406.33 820.908C406.33 820.908 406.191 820.911 406.13 820.923C406.13 820.923 405.97 820.943 405.892 820.934C405.592 820.956 405.395 820.952 405.376 820.949C405.118 820.957 404.96 820.958 404.665 820.941L404.49 820.92C404.371 820.925 404.271 820.932 404.135 820.916L403.862 820.882C403.643 820.895 403.39 820.864 403.176 820.837C403.176 820.837 403.137 820.833 403.117 820.83L402.981 820.813C402.747 820.785 402.63 820.77 402.416 820.744L402.338 820.735C402.202 820.718 402.048 820.679 401.915 820.643C401.856 820.636 401.798 820.629 401.739 820.621C401.681 820.614 401.603 820.605 401.547 820.578C401.469 820.568 401.391 820.559 401.316 820.53C401.028 820.455 400.741 820.38 400.476 820.288L400.456 820.286C398.971 819.827 397.857 819.235 397.231 818.862L397.121 818.789C396.955 818.69 396.79 818.59 396.644 818.493L396.497 818.396C396.315 818.275 396.005 818.059 395.681 817.802C395.047 817.329 394.459 816.802 393.954 816.246C393.867 816.156 393.796 816.088 393.727 816C393.676 815.935 393.605 815.867 393.554 815.801C392.425 814.536 391.687 813.298 391.201 812.27C391.171 812.187 391.122 812.102 391.093 812.019L391.098 811.981C390.641 811.035 390.354 810.15 390.14 809.313L390.145 809.274L390.121 809.31Z" fill="url(#paint0_radial_79_2055)"/>
<defs>
<radialGradient id="paint0_radial_79_2055" cx="0" cy="0" r="1" gradientUnits="userSpaceOnUse" gradientTransform="translate(405.637 806.906) rotate(7) scale(17.4034 17.4044)">
<stop offset="0.54" stop-color="#CE5FB1"/>
<stop offset="0.61" stop-color="#CF63B3"/>
<stop offset="0.68" stop-color="#D36FB9"/>
<stop offset="0.76" stop-color="#D984C3"/>
<stop offset="0.83" stop-color="#E2A1D1"/>
<stop offset="0.91" stop-color="#EDC7E3"/>
<stop offset="0.98" stop-color="#FBF4FA"/>
<stop offset="1" stop-color="white"/>
</radialGradient>
</defs>
</svg>
