<svg width="1645" height="1221" viewBox="0 0 1645 1221" fill="none" xmlns="http://www.w3.org/2000/svg">
<path d="M190.597 653.409C253.165 629.56 319.905 621.801 384.873 607.063C449.86 592.328 515.844 568.997 564.053 520.73C587.47 497.292 605.719 468.931 624.636 441.402C643.552 413.893 663.704 386.615 689.773 366.529C722.023 341.665 777.578 318.26 815.904 353.39C867.643 400.823 815.899 489.143 778.291 521.908C683.678 604.372 577.861 661.203 456.95 688.821C433.562 694.154 409.916 698.209 386.16 700.906C321.529 708.232 255.969 705.896 191.997 718.482C156.425 725.482 121.186 737.662 89.9519 757.312C62.1225 774.831 45.4283 798.579 23.5841 822.091C44.1886 741.058 118.947 680.709 190.578 653.406L190.597 653.409Z" fill="url(#paint0_linear_79_2055)"/>
<g style="mix-blend-mode:overlay" opacity="0.8">
<path d="M170.436 623.517C233.004 599.668 299.744 591.909 364.711 577.171C429.699 562.436 495.682 539.105 543.892 490.838C567.308 467.401 585.557 439.039 604.475 411.511C623.39 384.002 643.542 356.724 669.611 336.637C701.861 311.773 757.416 288.368 795.742 323.498C847.482 370.931 795.738 459.251 758.129 492.017C663.516 574.48 557.699 631.312 436.788 658.929C413.401 664.262 389.754 668.317 365.998 671.015C301.367 678.341 235.808 676.004 171.835 688.59C136.264 695.59 101.025 707.77 69.7902 727.421C41.9609 744.939 25.2667 768.688 3.42247 792.199C24.027 711.166 98.7858 650.818 170.416 623.515L170.436 623.517Z" fill="#C8FCF2"/>
</g>
<defs>
<linearGradient id="paint0_linear_79_2055" x1="58.6023" y1="537.052" x2="810.853" y2="629.417" gradientUnits="userSpaceOnUse">
<stop stop-color="#FC75B1"/>
<stop offset="0.67" stop-color="#B03BA4"/>
<stop offset="1" stop-color="#90229F"/>
</linearGradient>
</defs>
</svg>
