<svg width="436" height="411" viewBox="0 0 436 411" fill="none" xmlns="http://www.w3.org/2000/svg">
<g style="mix-blend-mode:multiply" opacity="0.4">
<g style="mix-blend-mode:multiply" opacity="0.01">
<path d="M210.669 203.413C297.149 155.316 442.508 159.894 446.485 251.957C448.591 298.004 403.044 337.562 354.05 358.044C325.833 369.835 295.626 379.255 266.518 382.722C239.952 385.961 214.161 384.236 191.911 374.795C161.032 361.695 132.142 331.382 132.763 297.396C133.335 261.011 173.994 223.773 210.652 203.391L210.669 203.413Z" fill="#AF3CA5"/>
</g>
<g style="mix-blend-mode:multiply" opacity="0.03">
<path d="M210.451 203.879C296.38 156.226 440.196 160.804 444.471 251.778C446.619 297.494 401.317 336.846 352.778 357.168C324.854 368.839 294.922 378.116 266.06 381.674C239.35 384.954 213.266 383.35 191.059 373.736C160.605 360.552 132.221 330.621 132.984 296.91C133.783 260.91 174.015 224.072 210.432 203.877L210.451 203.879Z" fill="#AD3DA6"/>
</g>
<g style="mix-blend-mode:multiply" opacity="0.04">
<path d="M210.235 204.326C295.593 157.114 437.985 161.688 442.459 251.579C444.727 296.974 399.591 336.11 351.53 356.257C323.915 367.828 294.236 376.979 265.627 380.57C238.785 383.952 212.398 382.407 190.23 372.64C160.18 359.39 132.306 329.801 133.228 296.388C134.217 260.768 174.041 224.333 210.215 204.324L210.235 204.326Z" fill="#AB3EA6"/>
</g>
<g style="mix-blend-mode:multiply" opacity="0.06">
<path d="M210.019 204.773C294.826 158.005 435.775 162.572 440.447 251.38C442.816 296.452 397.843 335.392 350.263 355.342C322.94 366.793 293.551 375.843 265.193 379.486C238.202 382.948 211.527 381.485 189.401 371.545C159.775 358.23 132.369 328.998 133.473 295.865C134.65 260.626 174.089 224.576 210.019 204.773V204.773Z" fill="#A93FA6"/>
</g>
<g style="mix-blend-mode:multiply" opacity="0.07">
<path d="M209.804 205.22C294.059 158.896 433.582 163.477 438.435 251.182C440.905 295.93 396.118 334.656 348.993 354.447C321.982 365.78 292.864 374.726 264.739 378.399C236.614 382.071 210.637 380.559 188.553 370.447C159.331 357.065 132.416 328.173 133.699 295.34C135.065 260.481 174.115 224.837 209.804 205.22V205.22Z" fill="#A740A6"/>
</g>
<g style="mix-blend-mode:multiply" opacity="0.08">
<path d="M209.588 205.668C293.273 159.784 431.372 164.361 436.423 250.983C439.013 295.41 394.393 333.92 347.745 353.536C321.026 364.748 292.176 373.609 264.304 377.314C237.036 380.939 209.766 379.637 187.721 369.371C158.921 355.944 132.477 327.389 133.942 294.837C135.496 260.358 174.138 225.117 209.588 205.668V205.668Z" fill="#A540A7"/>
</g>
<g style="mix-blend-mode:multiply" opacity="0.1">
<path d="M209.373 206.115C292.503 160.694 429.181 165.247 434.411 250.784C437.102 294.888 392.667 333.185 346.477 352.621C320.071 363.715 291.491 372.473 263.85 376.227C236.209 379.982 208.873 378.731 186.873 368.273C158.477 354.779 132.523 326.564 134.167 294.312C135.91 260.213 174.167 225.358 209.373 206.115V206.115Z" fill="#A341A7"/>
</g>
<g style="mix-blend-mode:multiply" opacity="0.11">
<path d="M209.138 206.559C291.717 161.582 426.971 166.131 432.382 250.564C435.193 294.347 390.905 332.425 345.193 351.685C319.079 362.658 290.789 371.315 263.382 375.099C235.974 378.883 207.988 377.767 186.01 367.134C158.035 353.595 132.552 325.718 134.359 293.744C136.268 260.042 174.159 225.574 209.123 206.518L209.138 206.559Z" fill="#A142A7"/>
</g>
<g style="mix-blend-mode:multiply" opacity="0.13">
<path d="M208.922 207.007C290.93 162.471 424.758 167.034 430.37 250.365C433.285 293.805 389.18 331.689 343.943 350.793C318.138 361.667 290.099 370.217 262.945 374.034C235.79 377.851 207.113 376.883 185.177 366.077C157.623 352.494 132.611 324.953 134.599 293.26C136.697 259.939 174.18 225.874 208.903 207.004L208.922 207.007Z" fill="#9F43A7"/>
</g>
<g style="mix-blend-mode:multiply" opacity="0.14">
<path d="M208.706 207.454C290.163 163.361 422.568 167.92 428.358 250.166C431.393 293.285 387.452 330.973 342.675 349.879C317.163 360.632 289.414 369.081 262.51 372.95C235.606 376.818 206.242 375.96 184.348 364.982C157.193 351.37 132.677 324.131 134.844 292.737C137.13 259.796 174.228 226.117 208.706 207.454V207.454Z" fill="#9D44A8"/>
</g>
<g style="mix-blend-mode:multiply" opacity="0.15">
<path d="M208.513 207.884C289.418 164.235 420.399 168.79 426.368 249.951C429.501 292.766 385.748 330.22 341.43 348.947C316.229 359.583 288.748 367.947 262.08 371.826C235.412 375.706 205.393 375.021 183.524 363.848C156.79 350.191 132.745 323.289 135.094 292.176C137.566 259.635 174.258 226.339 208.515 207.864L208.513 207.884Z" fill="#9B45A8"/>
</g>
<g style="mix-blend-mode:multiply" opacity="0.17">
<path d="M208.297 208.331C288.632 165.123 418.228 169.678 424.336 249.749C427.59 292.244 383.983 329.48 340.16 348.052C315.252 358.567 288.058 366.85 261.624 370.759C233.514 374.928 204.52 374.117 182.671 362.788C156.336 349.104 132.784 322.523 135.314 291.69C137.956 259.526 174.279 226.638 208.278 208.328L208.297 208.331Z" fill="#9946A8"/>
</g>
<g style="mix-blend-mode:multiply" opacity="0.18">
<path d="M208.082 208.778C287.865 166.014 416.035 170.584 422.325 249.551C425.679 291.722 382.258 328.744 338.892 347.138C314.296 357.534 287.354 365.711 261.17 369.672C232.931 373.923 203.627 373.211 181.823 361.691C155.907 347.981 132.828 321.717 135.54 291.165C138.37 259.382 174.305 226.899 208.062 208.775L208.082 208.778Z" fill="#9747A8"/>
</g>
<g style="mix-blend-mode:multiply" opacity="0.2">
<path d="M207.866 209.225C287.098 166.905 413.844 171.47 420.313 249.352C423.787 291.202 380.533 328.008 337.625 346.224C313.321 356.499 286.667 364.594 260.719 368.565C232.328 372.916 202.757 372.288 180.974 360.593C155.456 346.874 132.872 320.912 135.766 290.64C138.763 259.254 174.315 227.137 207.847 209.222L207.866 209.225Z" fill="#9548A9"/>
</g>
<g style="mix-blend-mode:multiply" opacity="0.21">
<path d="M207.65 209.672C286.331 167.796 411.673 172.359 418.303 249.134C421.898 290.663 378.809 327.253 336.377 345.312C312.383 355.489 285.998 363.48 260.284 367.481C231.764 371.914 201.903 371.388 180.145 359.497C155.026 345.751 132.918 320.087 136.011 290.118C139.103 260.148 174.36 227.4 207.65 209.672V209.672Z" fill="#9349A9"/>
</g>
<g style="mix-blend-mode:multiply" opacity="0.23">
<path d="M207.457 210.102C285.566 168.667 409.521 173.25 416.313 248.918C420.009 290.124 377.084 326.517 335.132 344.381C311.43 354.437 285.333 362.346 259.854 366.358C231.184 370.89 201.035 370.446 179.322 358.363C154.618 344.611 132.987 319.245 136.261 289.556C139.535 259.867 174.41 227.624 207.44 210.08L207.457 210.102Z" fill="#914AA9"/>
</g>
<g style="mix-blend-mode:multiply" opacity="0.24">
<path d="M207.241 210.55C284.799 169.558 407.33 174.136 414.301 248.719C418.117 289.604 375.359 325.782 333.864 343.467C310.474 353.404 284.626 361.226 259.42 365.273C230.617 369.908 200.181 369.545 178.491 357.287C154.184 343.526 133.048 318.462 136.503 289.053C140.044 258.825 174.436 227.885 207.241 210.55V210.55Z" fill="#8F4BAA"/>
</g>
<g style="mix-blend-mode:multiply" opacity="0.25">
<path d="M207.026 210.997C284.032 170.448 405.159 175.025 412.289 248.521C416.225 289.085 373.633 325.046 332.616 342.555C309.519 352.372 283.957 360.112 258.985 364.189C230.034 368.903 199.325 368.663 177.662 356.192C153.752 342.423 133.111 317.659 136.746 288.55C140.38 259.442 174.479 228.167 207.045 210.999L207.026 210.997Z" fill="#8D4BAA"/>
</g>
<g style="mix-blend-mode:multiply" opacity="0.27">
<path d="M206.83 211.446C283.265 171.339 403.007 175.916 410.297 248.324C414.353 288.568 371.927 324.313 331.366 341.662C308.58 351.361 283.287 359.017 258.551 363.104C229.468 367.92 198.471 367.763 176.833 355.096C153.337 341.341 133.175 316.856 136.972 288.025C140.868 258.574 174.505 228.428 206.81 211.444L206.83 211.446Z" fill="#8B4CAA"/>
</g>
<g style="mix-blend-mode:multiply" opacity="0.28">
<path d="M206.617 211.874C282.501 172.21 400.856 176.807 408.287 248.106C412.445 288.026 370.185 323.555 330.101 340.729C307.608 350.307 282.602 357.881 258.099 361.998C228.865 366.913 197.598 366.859 175.985 353.998C152.883 340.254 133.199 316.048 137.197 287.5C141.195 258.953 174.514 228.666 206.595 211.891L206.617 211.874Z" fill="#894DAA"/>
</g>
<g style="mix-blend-mode:multiply" opacity="0.3">
<path d="M206.42 212.324C281.753 173.104 398.704 177.698 406.295 247.91C410.57 287.528 368.478 322.822 328.872 339.819C306.691 349.279 281.953 356.769 257.684 360.916C228.321 365.914 196.763 365.961 175.175 352.905C152.467 339.172 133.282 315.247 137.461 286.98C141.693 258.304 174.579 228.932 206.418 212.343L206.42 212.324Z" fill="#874EAB"/>
</g>
<g style="mix-blend-mode:multiply" opacity="0.31">
<path d="M206.205 212.771C280.967 173.992 396.552 178.589 404.266 247.689C408.661 286.987 366.734 322.084 327.586 338.903C305.694 348.261 281.244 355.669 257.213 359.807C227.718 364.907 195.871 365.055 174.31 351.785C151.997 338.063 133.309 314.42 137.67 286.433C142.031 258.447 174.588 229.17 206.166 212.766L206.205 212.771Z" fill="#854FAB"/>
</g>
<g style="mix-blend-mode:multiply" opacity="0.32">
<path d="M206.011 213.201C280.222 174.865 394.4 179.48 402.276 247.474C406.791 286.45 365.03 321.331 326.34 337.971C304.761 347.211 280.559 354.533 256.8 358.706C227.154 363.904 195.037 364.157 173.501 350.692C151.581 336.981 133.373 313.617 137.935 285.913C142.497 258.21 174.636 229.414 205.989 213.218L206.011 213.201Z" fill="#8350AB"/>
</g>
<g style="mix-blend-mode:multiply" opacity="0.34">
<path d="M205.815 213.65C279.474 175.759 392.268 180.374 400.283 247.277C404.919 285.933 363.304 320.596 325.111 337.062C303.824 346.181 279.91 353.421 256.387 357.605C226.609 362.905 194.202 363.259 172.713 349.583C151.224 335.907 133.477 312.799 138.221 285.376C142.965 257.953 174.722 229.662 205.834 213.653L205.815 213.65Z" fill="#8151AB"/>
</g>
<g style="mix-blend-mode:multiply" opacity="0.35">
<path d="M205.621 214.081C278.709 176.63 390.138 181.248 398.293 247.062C403.047 285.416 361.601 319.843 323.863 336.15C302.869 345.149 279.239 352.326 255.953 356.52C226.024 361.92 193.346 362.377 171.885 348.487C150.749 334.837 133.541 311.997 138.466 284.854C143.391 257.711 174.768 229.926 205.621 214.081Z" fill="#7F52AC"/>
</g>
<g style="mix-blend-mode:multiply" opacity="0.37">
<path d="M205.425 214.53C277.962 177.523 388.006 182.142 396.301 246.866C401.174 284.899 359.895 319.11 322.616 335.239C301.933 344.119 278.571 351.211 255.518 355.436C225.457 360.937 192.49 361.496 171.053 347.411C149.617 333.327 133.582 311.211 138.709 284.351C143.835 257.491 174.794 230.186 205.423 214.55L205.425 214.53Z" fill="#7D53AC"/>
</g>
<g style="mix-blend-mode:multiply" opacity="0.38">
<path d="M205.231 214.96C277.214 178.417 385.873 183.036 394.311 246.65C399.305 284.363 358.191 318.357 321.389 334.31C300.999 343.069 277.923 350.1 255.108 354.315C224.896 359.916 191.658 360.578 170.249 346.279C148.84 331.981 133.67 310.371 138.978 283.792C144.234 257.463 174.864 230.413 205.251 214.963L205.231 214.96Z" fill="#7B54AC"/>
</g>
<g style="mix-blend-mode:multiply" opacity="0.39">
<path d="M205.035 215.41C276.447 179.307 383.761 183.932 392.318 246.454C397.43 283.865 356.463 317.641 320.142 333.398C300.061 342.059 277.255 348.985 254.674 353.23C224.33 358.933 190.799 359.716 169.42 345.184C149.459 331.625 133.712 309.585 139.223 283.269C144.735 256.954 174.909 230.676 205.035 215.41V215.41Z" fill="#7955AC"/>
</g>
<g style="mix-blend-mode:multiply" opacity="0.41">
<path d="M204.842 215.84C275.702 180.181 381.65 184.809 390.331 246.219C395.582 283.312 354.762 316.869 318.896 332.467C299.108 341.007 276.587 347.871 254.261 352.129C223.786 357.933 189.965 358.818 168.611 344.091C149.02 330.579 133.775 308.782 139.468 282.747C145.162 256.712 174.937 230.917 204.839 215.86L204.842 215.84Z" fill="#7756AD"/>
</g>
<g style="mix-blend-mode:multiply" opacity="0.42">
<path d="M204.667 216.273C274.976 181.057 379.54 185.685 388.36 246.005C393.732 282.777 353.078 316.119 317.689 331.54C298.213 339.962 275.957 346.762 253.87 351.011C223.244 356.914 189.15 357.922 167.826 342.962C148.624 329.5 133.882 307.946 139.757 282.191C145.516 257.034 175.027 231.146 204.687 216.275L204.667 216.273Z" fill="#7556AD"/>
</g>
<g style="mix-blend-mode:multiply" opacity="0.44">
<path d="M204.471 216.722C274.209 181.948 377.424 186.601 386.367 245.809C391.857 282.28 351.372 315.386 316.441 330.629C297.257 338.93 275.289 345.647 253.436 349.926C222.675 355.951 188.291 357.06 166.997 341.866C148.184 328.454 133.926 307.14 140.002 281.668C146.078 256.196 175.052 231.406 204.493 216.705L204.471 216.722Z" fill="#7357AD"/>
</g>
<g style="mix-blend-mode:multiply" opacity="0.45">
<path d="M204.297 217.155C273.484 182.824 375.353 187.483 384.397 245.596C390.027 281.748 349.668 314.633 315.213 329.719C296.341 337.902 274.638 344.555 253.021 348.844C222.109 354.968 187.452 356.201 166.186 340.793C147.743 327.428 133.985 306.376 140.264 281.168C146.339 256.784 175.117 231.672 204.295 217.174L204.297 217.155Z" fill="#7158AE"/>
</g>
<g style="mix-blend-mode:multiply" opacity="0.46">
<path d="M204.123 217.588C272.758 183.701 373.262 188.362 382.407 245.38C388.157 281.212 347.965 313.881 313.987 328.791C295.407 336.853 273.99 343.443 252.611 347.724C221.567 353.95 186.618 355.303 165.381 339.661C147.325 326.366 134.053 305.534 140.534 280.609C146.776 256.622 175.187 231.898 204.123 217.588V217.588Z" fill="#6F59AE"/>
</g>
<g style="mix-blend-mode:multiply" opacity="0.48">
<path d="M203.949 218.02C272.013 184.574 371.191 189.243 380.436 245.167C386.323 280.7 346.278 313.15 312.761 327.862C294.493 335.806 273.341 342.331 252.198 346.622C221.02 352.969 185.762 354.421 164.574 338.549C146.888 325.301 134.119 304.712 140.801 280.069C147.482 255.427 175.235 232.142 203.949 218.02V218.02Z" fill="#6D5AAE"/>
</g>
<g style="mix-blend-mode:multiply" opacity="0.49">
<path d="M203.772 218.472C271.285 185.47 369.098 190.142 378.464 244.973C384.471 280.185 344.592 312.419 311.552 326.955C293.574 334.798 272.709 341.241 251.825 345.526C220.495 351.972 184.962 353.567 163.804 337.461C146.485 324.28 134.219 303.933 141.104 279.554C147.66 256.359 175.339 232.412 203.792 218.475L203.772 218.472Z" fill="#6B5BAE"/>
</g>
<g style="mix-blend-mode:multiply" opacity="0.51">
<path d="M203.618 218.908C270.579 186.349 367.046 191.026 376.515 244.743C382.662 279.636 342.91 311.65 310.346 326.029C292.679 333.753 272.08 340.132 251.432 344.427C219.97 350.975 184.144 352.691 163.017 336.351C146.065 323.237 134.305 303.113 141.391 279.017C148.096 256.198 175.428 232.641 203.637 218.91L203.618 218.908Z" fill="#6A5CAF"/>
</g>
<g style="mix-blend-mode:multiply" opacity="0.52">
<path d="M203.443 219.34C269.834 187.223 364.974 191.908 374.544 244.53C380.829 279.124 341.226 310.899 309.12 325.1C291.746 332.703 271.431 339.02 251.019 343.325C219.423 349.995 183.285 351.829 162.21 335.238C145.642 322.213 134.37 302.291 141.658 278.478C148.51 256.053 175.476 232.885 203.465 219.323L203.443 219.34Z" fill="#685DAF"/>
</g>
<g style="mix-blend-mode:multiply" opacity="0.54">
<path d="M203.288 219.775C269.128 188.101 362.941 192.795 372.593 244.32C379.017 278.595 339.561 310.152 307.932 324.176C290.871 331.662 270.822 337.913 250.647 342.21C218.918 349 182.487 350.955 161.442 334.131C145.241 321.173 134.473 301.493 141.964 277.943C148.963 255.913 175.582 233.136 203.31 219.759L203.288 219.775Z" fill="#665EAF"/>
</g>
<g style="mix-blend-mode:multiply" opacity="0.55">
<path d="M203.134 220.211C268.421 188.98 360.909 193.681 370.642 244.109C377.203 278.086 337.908 309.465 306.723 323.269C289.968 330.675 270.19 336.823 250.252 341.13C218.371 348.02 181.645 350.115 160.652 333.041C144.797 320.166 134.536 300.69 142.228 277.423C149.375 255.788 175.65 233.382 203.134 220.211V220.211Z" fill="#645FAF"/>
</g>
<g style="mix-blend-mode:multiply" opacity="0.56">
<path d="M202.979 220.646C267.715 189.859 358.857 194.566 368.691 243.898C375.392 277.557 336.241 308.737 305.517 322.343C289.074 329.631 269.561 335.714 249.859 340.031C217.844 347.043 180.823 349.278 159.865 331.931C144.377 319.123 134.621 299.87 142.515 276.887C149.808 255.646 175.717 233.628 202.979 220.646V220.646Z" fill="#6260B0"/>
</g>
<g style="mix-blend-mode:multiply" opacity="0.58">
<path d="M202.824 221.081C266.99 190.735 356.844 195.455 366.74 243.688C373.581 277.028 334.577 307.989 304.33 321.419C288.179 328.586 268.951 334.607 249.507 338.918C217.358 346.051 180.025 348.404 159.116 330.826C143.993 318.105 134.743 299.075 142.84 276.355C150.281 255.509 175.843 233.881 202.844 221.083L202.824 221.081Z" fill="#6061B0"/>
</g>
<g style="mix-blend-mode:multiply" opacity="0.59">
<path d="M202.689 221.519C266.303 191.616 354.831 196.344 364.808 243.479C371.806 276.523 332.932 307.244 303.14 320.515C287.301 327.564 268.358 333.522 249.131 337.841C216.847 345.095 179.201 347.586 158.346 329.738C143.588 317.103 134.826 298.274 143.143 275.84C150.734 255.369 175.949 234.132 202.706 221.54L202.689 221.519Z" fill="#5E61B0"/>
</g>
<g style="mix-blend-mode:multiply" opacity="0.61">
<path d="M202.554 221.956C265.616 192.498 352.818 197.233 362.859 243.249C369.997 275.974 331.269 306.477 301.936 319.569C286.387 326.517 267.732 332.393 248.74 336.723C216.322 344.098 178.361 346.726 157.558 328.628C143.143 316.097 134.889 297.471 143.43 275.302C151.168 255.227 176.016 234.378 202.554 221.956V221.956Z" fill="#5C62B1"/>
</g>
<g style="mix-blend-mode:multiply" opacity="0.62">
<path d="M202.418 222.394C264.91 193.376 350.824 198.125 360.928 243.041C368.224 275.45 329.605 305.73 300.768 318.648C285.531 325.477 267.139 331.308 248.388 335.609C215.836 343.106 177.561 345.872 156.812 327.504C142.762 315.059 134.997 296.634 143.758 274.751C151.623 255.068 176.145 234.612 202.421 222.374L202.418 222.394Z" fill="#5A63B1"/>
</g>
<g style="mix-blend-mode:multiply" opacity="0.63">
<path d="M202.303 222.834C264.243 194.26 348.852 199 359.016 242.835C366.449 274.946 327.979 304.987 299.601 317.727C284.656 324.435 266.548 330.204 248.034 334.515C215.328 342.131 176.755 345.057 156.064 326.399C142.358 314.038 135.121 295.819 144.083 274.219C152.096 254.93 176.273 234.847 202.305 222.815L202.303 222.834Z" fill="#5864B1"/>
</g>
<g style="mix-blend-mode:multiply" opacity="0.65">
<path d="M202.19 223.255C263.578 195.125 346.901 199.877 357.106 242.61C364.699 274.405 326.354 304.244 298.433 316.805C283.801 323.396 265.958 329.099 247.683 333.402C214.843 341.138 175.936 344.2 155.316 325.294C141.953 313.036 135.224 295.021 144.409 273.687C152.549 254.791 176.379 235.097 202.19 223.255Z" fill="#5665B1"/>
</g>
<g style="mix-blend-mode:multiply" opacity="0.66">
<path d="M202.074 223.695C262.892 196.006 344.927 200.771 355.194 242.404C362.946 273.883 324.728 303.502 297.285 315.887C282.945 322.356 265.405 328.019 247.348 332.311C214.374 340.168 175.15 343.387 154.587 324.191C141.567 312.037 135.329 294.204 144.754 273.158C153.044 254.637 176.525 235.353 202.093 223.697L202.074 223.695Z" fill="#5466B2"/>
</g>
<g style="mix-blend-mode:multiply" opacity="0.68">
<path d="M201.977 224.138C262.241 196.912 342.994 201.651 353.301 242.201C361.232 273.367 323.102 302.759 296.137 314.968C282.109 321.319 264.834 326.917 247.032 331.222C213.924 339.201 174.362 342.593 153.877 323.092C141.2 311.04 135.472 293.392 145.118 272.631C153.535 254.502 176.691 235.593 201.997 224.14L201.977 224.138Z" fill="#5267B2"/>
</g>
<g style="mix-blend-mode:multiply" opacity="0.69">
<path d="M201.884 224.561C261.596 197.778 341.063 202.511 351.411 241.978C359.498 272.848 321.498 301.999 294.989 314.049C281.253 320.28 264.26 325.835 246.7 330.111C213.474 338.233 173.559 341.758 153.148 321.989C140.814 310.041 135.596 292.577 145.443 272.099C153.989 254.362 176.798 235.844 201.881 224.58L201.884 224.561Z" fill="#5068B2"/>
</g>
<g style="mix-blend-mode:multiply" opacity="0.7">
<path d="M201.787 225.003C260.929 198.662 339.148 203.413 349.521 241.756C357.787 272.312 319.895 301.24 293.863 313.114C280.436 319.245 263.712 324.716 246.388 329.003C213.028 337.246 172.754 340.943 152.441 320.87C140.45 309.025 135.724 291.742 145.81 271.553C154.486 254.189 176.965 236.083 201.809 224.986L201.787 225.003Z" fill="#4E69B2"/>
</g>
<g style="mix-blend-mode:multiply" opacity="0.72">
<path d="M201.71 225.448C260.301 199.551 337.254 204.297 347.647 241.555C356.073 271.795 318.308 300.502 292.734 312.197C279.6 318.208 263.177 323.639 246.072 327.914C212.575 336.298 171.965 340.149 151.732 319.77C140.083 308.029 135.864 290.949 146.174 271.026C154.978 254.054 177.113 236.319 201.713 225.429L201.71 225.448Z" fill="#4C6AB3"/>
</g>
<g style="mix-blend-mode:multiply" opacity="0.73">
<path d="M201.655 225.877C259.694 200.423 335.382 205.165 345.796 241.337C354.4 271.264 316.721 299.764 291.625 311.283C278.802 317.176 262.645 322.542 245.779 326.808C212.145 335.333 171.179 339.336 151.041 318.672C139.714 307.051 136.008 290.137 146.555 270.52C155.467 253.939 177.294 236.6 201.653 225.896L201.655 225.877Z" fill="#4A6BB3"/>
</g>
<g style="mix-blend-mode:multiply" opacity="0.75">
<path d="M201.598 226.324C259.066 201.311 333.508 206.052 343.942 241.139C352.747 270.735 315.154 299.029 290.535 310.372C278.005 316.144 262.13 321.467 245.502 325.724C211.734 334.37 170.408 338.565 150.371 317.577C139.386 306.06 136.171 289.327 146.959 269.999C156.001 253.789 177.498 236.863 201.615 226.346L201.598 226.324Z" fill="#486CB3"/>
</g>
<g style="mix-blend-mode:multiply" opacity="0.76">
<path d="M201.543 226.752C258.46 202.183 331.655 206.922 342.072 240.919C351.055 270.202 313.569 298.272 289.409 309.437C277.171 315.088 261.582 320.348 245.211 324.599C211.307 333.385 169.605 337.73 149.686 316.441C139.022 305.044 136.32 288.476 147.347 269.435C156.517 253.618 177.67 237.063 201.543 226.752V226.752Z" fill="#466CB3"/>
</g>
<g style="mix-blend-mode:multiply" opacity="0.77">
<path d="M201.505 227.202C257.87 203.077 329.822 207.795 340.237 240.723C349.419 269.695 312.002 297.537 288.319 308.525C276.393 314.058 261.086 319.276 244.935 323.515C210.913 332.445 168.811 336.975 149.013 315.366C138.669 304.089 136.483 287.666 147.748 268.933C157.029 253.486 177.871 237.346 201.503 227.222L201.505 227.202Z" fill="#446DB4"/>
</g>
<g style="mix-blend-mode:multiply" opacity="0.79">
<path d="M201.47 227.633C257.264 203.949 327.99 208.668 338.406 240.508C347.788 269.15 310.457 296.785 287.249 307.616C275.616 313.028 260.591 318.203 244.678 322.433C210.52 331.504 168.04 336.204 148.362 314.273C138.342 303.097 136.666 286.858 148.171 268.413C157.582 253.339 178.094 237.612 201.487 227.655L201.47 227.633Z" fill="#426EB4"/>
</g>
<g style="mix-blend-mode:multiply" opacity="0.8">
<path d="M201.454 228.066C256.697 204.825 326.179 209.524 336.596 240.276C346.178 268.587 308.933 296.016 286.183 306.669C274.862 311.962 260.122 317.075 244.429 321.293C210.15 330.527 167.254 335.391 147.718 313.123C138.019 302.067 136.837 285.99 148.601 267.835C158.122 253.132 178.308 237.798 201.456 228.047L201.454 228.066Z" fill="#406FB4"/>
</g>
<g style="mix-blend-mode:multiply" opacity="0.82">
<path d="M201.455 228.521C256.146 205.724 324.404 210.404 334.8 240.085C344.603 268.069 307.424 295.288 285.133 305.762C274.101 310.955 259.646 316.005 244.191 320.214C209.776 329.589 166.48 334.639 147.084 312.052C137.706 301.116 137.02 285.183 149.041 267.338C158.673 253.004 178.548 238.086 201.455 228.521Z" fill="#3E70B5"/>
</g>
<g style="mix-blend-mode:multiply" opacity="0.83">
<path d="M201.458 228.957C255.579 206.601 322.632 211.265 333.007 239.875C343.382 268.486 305.898 294.539 284.101 304.858C273.382 309.933 259.19 314.937 243.973 319.138C209.438 328.675 165.723 333.909 146.471 310.965C137.395 300.147 137.241 284.38 149.483 266.821C159.226 252.858 178.79 238.354 201.456 228.977L201.458 228.957Z" fill="#3C71B5"/>
</g>
<g style="mix-blend-mode:multiply" opacity="0.85">
<path d="M201.461 229.393C255.03 207.48 320.879 212.128 331.214 239.665C341.477 266.995 304.392 293.791 283.053 303.933C272.626 308.886 258.736 313.85 243.76 318.023C209.089 327.7 164.932 333.135 145.864 309.838C137.108 299.141 137.451 283.517 149.949 266.267C159.803 252.675 179.038 238.584 201.461 229.393Z" fill="#3A72B5"/>
</g>
<g style="mix-blend-mode:multiply" opacity="0.86">
<path d="M201.504 229.833C254.522 208.364 319.169 212.977 329.46 239.46C339.945 266.443 302.924 293.049 282.043 303.012C271.928 307.847 258.304 312.746 243.564 316.929C208.773 326.769 164.178 332.385 145.272 308.753C136.817 298.174 137.675 282.695 150.43 265.755C160.395 252.533 179.322 238.838 201.501 229.853L201.504 229.833Z" fill="#3873B5"/>
</g>
<g style="mix-blend-mode:multiply" opacity="0.87">
<path d="M201.527 230.272C253.974 209.244 317.435 213.842 327.687 239.252C337.938 264.662 301.418 292.302 281.034 302.091C271.211 306.806 257.888 311.665 243.368 315.836C208.457 325.839 163.401 331.653 144.681 307.649C136.528 297.187 137.901 281.854 150.914 265.224C160.989 252.372 179.605 239.092 201.546 230.274L201.527 230.272Z" fill="#3674B6"/>
</g>
<g style="mix-blend-mode:multiply" opacity="0.89">
<path d="M201.586 230.734C253.482 210.15 315.744 214.694 325.95 239.069C336.958 265.367 299.967 291.582 280.039 301.212C270.528 305.808 257.468 310.622 243.189 314.764C208.158 324.93 162.623 330.939 144.108 306.567C136.256 296.222 138.128 281.012 151.415 264.714C161.584 252.211 179.887 239.365 201.606 230.737L201.586 230.734Z" fill="#3475B6"/>
</g>
<g style="mix-blend-mode:multiply" opacity="0.9">
<path d="M201.648 231.177C252.992 211.037 314.072 215.547 324.199 238.844C335.471 264.781 298.503 290.82 279.032 300.272C269.814 304.747 257.056 309.52 242.996 313.652C207.826 323.977 161.808 330.202 143.518 305.462C135.968 295.236 138.355 280.171 151.898 264.183C162.178 252.05 180.174 239.6 201.629 231.175L201.648 231.177Z" fill="#3276B6"/>
</g>
<g style="mix-blend-mode:multiply" opacity="0.92">
<path d="M201.729 231.623C252.522 211.926 312.421 216.384 322.483 238.644C334.041 264.202 297.037 290.059 278.081 299.358C269.158 303.694 256.68 308.443 242.86 312.546C207.571 323.035 161.05 329.472 142.988 304.346C135.72 294.235 138.625 279.296 152.443 263.64C162.836 251.857 180.518 239.842 201.732 231.603L201.729 231.623Z" fill="#3077B6"/>
</g>
<g style="mix-blend-mode:multiply" opacity="0.93">
<path d="M201.811 232.069C252.032 212.813 310.771 217.221 320.768 238.444C332.632 263.625 295.609 289.322 277.108 298.462C268.477 302.677 256.301 307.386 242.72 311.48C207.328 322.153 160.269 328.778 142.454 303.268C135.487 293.275 138.91 278.462 152.982 263.135C163.469 251.701 180.839 240.12 201.83 232.071L201.811 232.069Z" fill="#2E77B7"/>
</g>
<g style="mix-blend-mode:multiply" opacity="0.94">
<path d="M201.892 232.514C251.562 213.702 309.121 218.058 319.053 238.244C331.244 263.032 294.18 288.585 276.138 297.546C267.816 301.662 255.905 306.306 242.563 310.391C207.048 321.247 159.449 328.079 141.9 302.188C135.215 292.31 139.156 277.623 153.502 262.628C164.102 251.545 181.162 240.38 201.89 232.534L201.892 232.514Z" fill="#2C78B7"/>
</g>
<g style="mix-blend-mode:multiply" opacity="0.96">
<path d="M202.01 232.984C251.129 214.616 307.529 218.902 317.375 238.068C329.893 262.463 292.769 287.869 275.223 296.657C267.194 300.652 255.585 305.256 242.465 309.31C206.83 320.328 158.667 327.385 141.407 301.096C135.004 291.334 139.463 276.772 154.083 262.109C164.796 251.376 181.523 240.643 202.032 232.967L202.01 232.984Z" fill="#2A79B7"/>
</g>
<g style="mix-blend-mode:multiply" opacity="0.97">
<path d="M202.111 233.432C250.656 215.524 305.923 219.705 315.679 237.87C328.568 261.838 291.359 287.135 274.269 295.764C266.552 299.64 255.226 304.201 242.324 308.244C206.565 319.463 157.823 326.723 140.87 300.038C134.749 290.391 139.729 275.936 154.601 261.622C165.41 251.218 181.841 240.941 202.108 233.452L202.111 233.432Z" fill="#287AB7"/>
</g>
<g style="mix-blend-mode:multiply" opacity="0.99">
<path d="M202.25 233.886C250.244 216.421 304.355 220.513 314.022 237.677C327.285 261.199 289.989 286.405 273.357 294.855C265.932 298.611 254.889 303.129 242.226 307.163C206.363 318.567 157.019 326.046 140.378 298.947C134.519 289.412 140.038 275.065 155.181 261.103C166.104 251.05 182.225 241.188 202.228 233.903L202.25 233.886Z" fill="#267BB8"/>
</g>
<g style="mix-blend-mode:multiply">
<path d="M242.127 306.082C206.162 317.671 156.175 325.384 139.885 297.855C130.307 281.691 154.945 251.379 202.368 234.356C249.811 217.335 302.768 221.318 312.346 237.482C326.005 260.54 288.597 285.692 272.445 293.947C265.332 297.585 254.571 302.06 242.13 306.063L242.127 306.082Z" fill="#247CB8"/>
</g>
</g>
<path d="M328.266 180.909C328.281 180.792 328.299 180.656 328.314 180.539C328.382 179.856 328.719 175.685 328.685 169.469C328.677 168.914 328.669 168.359 328.661 167.804C328.644 167.011 328.63 166.198 328.599 165.363C328.014 145.249 323.447 125.791 315.43 107.947C315.415 107.906 315.401 107.864 315.367 107.82C314.49 105.868 313.588 103.952 312.626 102.049C308.061 92.917 302.583 84.262 296.255 76.2297C293.323 72.4115 289.613 68.177 286.358 64.8712C284.177 62.5935 281.906 60.4032 279.57 58.2638C279.465 58.1515 279.341 58.0366 279.237 57.9244L278.934 57.6679C278.526 57.2991 278.138 56.9328 277.728 56.5835C276.221 55.223 274.58 53.8255 272.789 52.3693C272.789 52.3693 272.665 52.2546 272.592 52.2057C271.733 51.502 270.835 50.7933 269.878 50.0771C269.446 49.7448 269.012 49.4319 268.599 49.102C268.24 48.8185 267.897 48.557 267.516 48.2905C267.227 48.0754 266.938 47.8603 266.647 47.6646C261.167 43.6581 255.367 39.9865 249.282 36.6936C247.712 35.8197 246.507 35.1903 245.8 34.8425L244.705 34.2866L243.626 33.7525C243.626 33.7525 243.514 33.6986 243.458 33.6716L243.218 33.5419C242.678 33.2749 241.969 32.9465 241.427 32.6989L241.184 32.5887C241.184 32.5887 241.016 32.5078 240.921 32.4758L239.709 31.9049C239.223 31.6843 238.566 31.4023 238.08 31.1818L236.676 30.5663C236.413 30.4535 236.151 30.3407 235.888 30.2279C235.813 30.1985 235.738 30.1691 235.662 30.1397L235.38 30.0243C235.23 29.9654 235.062 29.8847 234.931 29.8283L233.37 29.1929C232.974 29.0431 232.486 28.842 232.053 28.6678C231.637 28.5156 231.224 28.3438 230.789 28.1891L230.731 28.1816C230.468 28.0688 230.203 27.9755 229.941 27.8627C229.45 27.6811 228.883 27.47 228.409 27.3103L227.33 26.9344C226.837 26.7722 226.365 26.5931 225.871 26.4309L225.607 26.3375C225.247 26.2122 224.868 26.0845 224.508 25.9592L223.861 25.7576L223.064 25.497C223.064 25.497 222.966 25.4845 222.93 25.46L222.665 25.3668C222.531 25.3298 222.361 25.2685 222.208 25.2291C221.809 25.0988 221.408 24.9879 221.009 24.8576C220.742 24.7838 220.477 24.6904 220.248 24.6215C219.811 24.4863 219.371 24.3705 218.933 24.2353L217.788 23.9104C217.579 23.844 217.328 23.792 217.1 23.7231C216.757 23.6198 216.412 23.5361 216.066 23.4522C215.721 23.3684 215.398 23.2675 215.072 23.1862C214.517 23.0359 213.961 22.9051 213.423 22.7768L211.908 22.4045C211.733 22.3821 211.582 22.3231 211.41 22.2812L211.293 22.2662C210.853 22.1504 210.371 22.0491 209.89 21.9477C209.197 21.7995 208.503 21.6513 207.81 21.5031C207.309 21.3993 206.828 21.2979 206.385 21.2016C205.845 21.0928 205.322 21.0058 204.782 20.897C204.223 20.7857 203.664 20.6744 203.102 20.5826C202.752 20.5376 202.404 20.4733 202.056 20.4089L201.127 20.2502C200.893 20.2202 200.64 20.1878 200.407 20.1578C200.134 20.1229 199.881 20.0904 199.611 20.036C196.602 19.5907 193.564 19.2207 190.552 18.9531C189.868 18.8852 189.221 18.8418 188.615 18.7839C187.929 18.7355 187.265 18.6701 186.576 18.6411C186.165 18.6081 185.732 18.5921 185.379 18.5666C184.377 18.5172 183.413 18.4727 182.45 18.4283C182.114 18.4248 181.78 18.4018 181.425 18.3957C180.026 18.3548 178.663 18.3383 177.376 18.3512C176.743 18.3492 176.13 18.3497 175.494 18.3671L175.631 18.3846C175.631 18.3846 175.514 18.3696 175.475 18.3646C175.358 18.3497 175.217 18.371 175.098 18.3755C174.068 18.382 173.114 18.4179 172.202 18.4393C171.466 18.4638 170.731 18.4882 169.994 18.5321C168.322 18.6143 167.005 18.7026 166.107 18.7654C161.635 19.0821 157.194 19.6203 152.79 20.3412C150.148 20.7343 147.817 21.1674 144.902 21.8419C132.774 24.4803 120.928 28.6187 109.645 34.2337L109.606 34.2288C108.485 34.7971 107.361 35.3848 106.259 35.9557C106.111 36.0355 105.962 36.1154 105.813 36.1952C103.882 37.2137 101.983 38.2955 100.101 39.3993C99.9497 39.4986 99.801 39.5785 99.6523 39.6583L99.4816 39.7551C99.4816 39.7551 99.3743 39.8205 99.3304 39.8544C99.2451 39.9028 99.1817 39.9342 99.0964 39.9826C99.033 40.014 98.989 40.048 98.9257 40.0795C98.4112 40.3893 97.8968 40.6991 97.3798 41.0285C96.3263 41.6847 95.3142 42.3264 94.3436 42.9537C93.7827 43.317 93.2413 43.6827 92.6998 44.0484C91.5755 44.7944 90.5121 45.5285 89.5121 46.2311L89.3609 46.3304L89.2291 46.4321C88.9901 46.5993 88.7511 46.7665 88.5315 46.9361C83.3042 50.6771 80.0584 53.4656 79.8558 53.6572C78.216 55.0295 76.5662 56.4796 74.9503 57.9736C73.7886 59.0116 72.6194 60.1078 71.3793 61.294C71.2915 61.3619 71.2012 61.4492 71.1328 61.5196L70.9496 61.7138C68.5303 64.0741 65.9298 66.7672 63.0573 70.0387L62.989 70.109C62.989 70.109 62.9425 70.1625 62.9206 70.1795C62.8742 70.2328 62.8497 70.2692 62.8033 70.3226C61.5038 71.8176 60.1185 73.5193 58.7426 75.3013C57.5379 76.8283 56.3552 78.3383 55.3167 79.6492L51.7834 84.8341C50.6196 86.5048 49.5191 88.1439 48.5165 89.6375C46.6042 92.5178 44.4528 96.3369 42.3562 100.499L42.3462 100.577C40.5241 104.142 38.7474 107.969 37.1633 111.683L37.107 111.814C37.107 111.814 37.0725 111.928 37.0481 111.965C35.0078 116.767 33.3089 121.376 32.3142 124.968C28.5274 138.607 28.2245 139.735 26.9075 148.923C25.2446 160.5 25.3903 168.926 25.4455 172.969C25.6319 184.625 27.255 193.716 27.8002 196.713C29.7033 207.323 31.8002 213.646 33.8248 219.761C35.0805 223.542 36.0844 226.203 37.4325 229.264C39.0291 233.01 40.8423 236.764 42.8211 240.46C43.0411 240.903 43.2611 241.347 43.4981 241.813C45.4156 245.679 48.3615 250.626 50.8787 254.134C52.7419 256.727 55.1373 260.259 57.0857 262.804C59.0172 265.326 61.6642 268.594 63.8348 270.949C66.2039 273.607 67.1909 274.703 69.4398 276.91C72.1662 279.713 74.9929 282.351 77.8396 284.832L77.8784 284.837C78.8005 285.668 79.7471 286.462 80.6792 287.214C81.7884 288.128 82.9027 289.003 83.8762 289.741C84.3982 290.144 85.1386 290.694 85.9884 291.318C86.1146 291.413 86.2409 291.508 86.3672 291.604C87.2534 292.251 88.2658 292.995 89.4094 293.794C89.6644 293.965 89.9169 294.156 90.1524 294.325C93.547 296.699 97.8553 299.506 102.673 302.201C103.724 302.791 105.145 303.587 106.87 304.481C107.351 304.74 107.852 305.002 108.314 305.259L110.86 306.535C111.399 306.802 112.109 307.131 112.651 307.378L113.285 307.677C113.285 307.677 113.38 307.709 113.416 307.734L114.369 308.172C114.855 308.393 115.511 308.675 115.997 308.896L117.589 309.594L117.72 309.651C123.944 312.328 129.968 314.407 135.774 316.022L136.329 316.172C136.825 316.315 137.398 316.467 137.972 316.62C138.031 316.628 138.089 316.635 138.125 316.66C138.624 316.783 139.12 316.926 139.56 317.042L142.821 317.836C144.3 318.184 146.267 318.574 147.748 318.903C149.115 319.197 150.779 319.489 152.369 319.733L152.447 319.743C153.24 319.884 154.035 320.006 154.736 320.096C156.813 320.402 159.582 320.717 161.645 320.982C163.766 321.254 166.62 321.363 168.774 321.54C173.341 321.711 179.427 321.759 183.998 321.594C187.576 321.459 192.33 321.1 195.858 320.583C196.747 320.44 197.675 320.301 198.646 320.129C201.432 319.695 204.324 319.196 206.728 318.812L209.584 318.13C211.861 317.65 214.126 317.11 216.357 316.526L217.48 316.254C220.116 315.603 223.317 314.55 226.216 313.537C227.456 313.122 228.679 312.686 229.905 312.23C233.204 311.03 237.327 309.423 240.352 307.892C240.456 307.846 240.564 307.781 240.669 307.735C243.447 306.429 246.194 305.061 248.915 303.59C249.507 303.29 250.102 302.97 250.65 302.704L253.633 300.891C254.425 300.419 255.24 299.93 256.034 299.439L260.56 296.696C262.296 295.652 265.433 293.562 270.122 289.851C270.207 289.802 270.295 289.735 270.361 289.684L270.827 289.288C273.272 287.347 276.063 285.014 279.322 282.129C279.39 282.058 279.478 281.99 279.544 281.94C282.736 279.105 288.17 273.907 294.273 266.42C294.322 266.348 294.388 266.297 294.437 266.224C295.844 264.505 297.267 262.67 298.723 260.72L298.728 260.681C299.347 259.87 299.95 259.018 300.576 258.149C301.442 256.954 302.288 255.757 302.98 254.679C303.202 254.331 303.447 253.967 303.672 253.6C304.902 251.72 306.12 249.78 307.351 247.742C309.032 244.97 310.662 242.133 311.872 239.637C314.034 235.424 316.115 230.923 318.012 226.161C319.213 223.269 320.303 220.323 321.13 217.58C322.103 214.619 323.011 211.55 323.851 208.394C324.043 207.667 324.23 206.979 324.398 206.288C325.441 202.011 326.327 197.574 327.035 192.977C327.055 192.821 327.077 192.646 327.117 192.493L327.157 192.181C327.682 188.549 328.1 184.824 328.373 181.002L328.266 180.909Z" fill="url(#paint0_radial_40_1005)"/>
<path d="M323.556 129.266C323.35 128.251 323.102 127.25 322.794 126.261C323.027 127.22 323.294 128.224 323.556 129.266Z" fill="url(#paint1_linear_40_1005)"/>
<path d="M24.1502 175.513C24.0874 174.615 24.0416 173.739 23.9907 172.901C24.0171 173.775 24.063 174.651 24.1502 175.513Z" fill="url(#paint2_linear_40_1005)"/>
<path d="M292.25 180.404C294.039 175.095 298.755 161.001 290.365 158.244C289.303 158.094 286.498 157.807 281.95 157.382C278.676 173.342 273.863 190.509 258.017 192.374C257.715 192.414 159.34 185.652 152.626 184.633C150.763 184.354 142.687 181.775 137.435 174.296C132.919 167.862 130.122 153.893 128.862 146.134C116.297 145.393 108.72 144.936 109.688 157.127C109.714 157.388 112.272 182.938 133.82 208.65C191.487 277.549 272.165 240.301 292.25 180.404Z" fill="#412121"/>
<path d="M281.952 157.362C278.679 173.322 273.863 190.509 258.019 192.354C257.717 192.394 159.342 185.632 152.629 184.613C150.765 184.334 142.689 181.756 137.437 174.277C132.921 167.842 130.124 153.873 128.864 146.115C233.441 151.872 281.563 157.313 281.952 157.362Z" fill="white"/>
<path d="M177.839 90.9328C177.596 93.5921 176.39 95.5937 174.232 96.8402C170.941 98.7524 166.109 100.487 162.627 102.038C161.998 102.313 147.066 108.924 128.57 119.569C121.785 123.268 116.497 117.15 118.897 110.93C119.727 108.781 121.096 105.198 158.378 88.4367C147.356 82.9084 143.641 81.0274 126.739 72.9248C121.221 69.3684 126.842 62.8687 131.72 61.8524C131.963 61.8045 132.304 61.7691 132.548 61.7212C133.684 61.6494 136.021 61.4744 174.122 80.5846C176.624 82.0529 177.682 83.6723 177.875 86.3281C177.861 87.8297 177.863 89.3533 177.841 90.9133" fill="#412121"/>
<path d="M290.309 127.989C289.865 132.225 286.948 133.374 284.494 131.991C284.31 131.889 283.756 131.58 283.295 131.165C270.317 119.609 262.134 113.08 245.14 102.611C242.27 100.621 240.923 98.6283 240.354 95.5089C240.179 93.9434 239.982 92.3949 239.78 90.8853C239.61 88.5094 240.238 86.8491 241.657 85.9628C250.543 80.3766 260.655 77.2621 269.733 72.0367C270.317 71.7951 270.673 71.643 271.818 71.9679C276.952 73.8924 281.178 81.0418 279.581 83.6262C279.581 83.6262 277.678 85.6572 257.145 95.6843C268.52 103.394 274.78 107.64 286.649 118.281C290.454 122.39 290.487 126.449 290.326 128.011" fill="#412121"/>
<defs>
<radialGradient id="paint0_radial_40_1005" cx="0" cy="0" r="1" gradientUnits="userSpaceOnUse" gradientTransform="translate(182.524 195.154) rotate(7.07887) scale(174.308 174.319)">
<stop stop-color="#F79F40"/>
<stop offset="0.16" stop-color="#F7A442"/>
<stop offset="0.37" stop-color="#F8B449"/>
<stop offset="0.6" stop-color="#F9CE55"/>
<stop offset="0.77" stop-color="#FBE660"/>
<stop offset="0.91" stop-color="#FBF36F"/>
<stop offset="0.93" stop-color="#FBF672"/>
<stop offset="0.95" stop-color="#FBF676"/>
<stop offset="0.96" stop-color="#FBF782"/>
<stop offset="0.98" stop-color="#FBF897"/>
<stop offset="0.99" stop-color="#FCFAB4"/>
<stop offset="1" stop-color="#FDFBC2"/>
</radialGradient>
<linearGradient id="paint1_linear_40_1005" x1="322.555" y1="127.776" x2="323.683" y2="127.923" gradientUnits="userSpaceOnUse">
<stop stop-color="#19B79C"/>
<stop offset="0.4" stop-color="#1DBB9D"/>
<stop offset="0.82" stop-color="#29C7A2"/>
<stop offset="1" stop-color="#31CFA6"/>
</linearGradient>
<linearGradient id="paint2_linear_40_1005" x1="23.7604" y1="174.228" x2="24.2468" y2="174.291" gradientUnits="userSpaceOnUse">
<stop stop-color="#19B79C"/>
<stop offset="0.4" stop-color="#1DBB9D"/>
<stop offset="0.82" stop-color="#29C7A2"/>
<stop offset="1" stop-color="#31CFA6"/>
</linearGradient>
</defs>
</svg>
