<svg width="1645" height="1221" viewBox="0 0 1645 1221" fill="none" xmlns="http://www.w3.org/2000/svg">
<path d="M868.153 343.495C868.126 343.393 868.099 343.291 868.091 343.191C867.89 342.257 867.749 341.152 867.787 339.872C867.803 339.261 867.864 338.438 868.084 337.457C868.132 337.226 868.204 336.958 868.277 336.69C868.284 336.631 868.313 336.556 868.34 336.5L868.349 336.422C868.349 336.422 868.405 336.29 868.434 336.215C868.557 335.854 868.678 335.513 868.819 335.175C868.872 335.063 868.903 334.968 868.957 334.856L868.961 334.817C868.961 334.817 869.039 334.668 869.068 334.593C869.339 333.993 869.642 333.457 869.955 333.001C870.006 332.909 870.077 332.819 870.127 332.726L870.2 332.616C870.2 332.616 870.249 332.543 870.273 332.507L870.28 332.448L870.346 332.397L870.416 332.307C870.843 331.727 871.21 331.317 871.528 330.98L871.533 330.941L871.623 330.854C871.758 330.712 871.914 330.573 872.072 330.415C872.162 330.327 872.249 330.258 872.317 330.188C872.538 329.997 872.825 329.756 873.043 329.585C873.153 329.5 873.262 329.414 873.371 329.329C873.371 329.329 873.503 329.226 873.566 329.194C873.651 329.146 873.738 329.077 873.804 329.026C874.042 328.857 874.319 328.694 874.594 328.55C874.808 328.418 875.039 328.308 875.272 328.178C876.451 327.592 877.725 327.194 879.037 326.98C879.723 326.866 880.523 326.787 881.39 326.814L881.506 326.828C881.745 326.818 881.981 326.827 882.234 326.858C882.409 326.88 882.604 326.904 882.76 326.923L882.818 326.93C883.091 326.964 883.208 326.978 883.422 327.004L883.5 327.014C883.734 327.043 883.887 327.081 884.079 327.125C884.216 327.141 884.33 327.175 884.464 327.211L884.484 327.214C884.656 327.255 884.81 327.293 884.98 327.354C885.114 327.39 885.265 327.448 885.399 327.484C885.494 327.516 885.589 327.547 885.704 327.581C885.743 327.586 885.782 327.591 885.818 327.615C886.802 327.973 887.543 328.38 887.984 328.652C888.04 328.678 888.057 328.7 888.096 328.705C888.298 328.829 888.5 328.952 888.647 329.049L888.793 329.146L888.812 329.149C889.066 329.338 889.375 329.554 889.751 329.877C891.548 331.343 892.898 333.229 893.703 335.364C893.735 335.427 893.747 335.488 893.779 335.551C893.894 335.901 894.009 336.251 894.092 336.538L894.085 336.597C894.176 336.825 894.242 337.09 894.289 337.353L894.313 337.475L894.336 337.616C894.336 337.616 894.373 337.798 894.38 337.898C894.412 338.12 894.447 338.322 894.481 338.523C894.499 338.704 894.518 338.864 894.538 339.025L894.531 339.083L894.549 339.263C894.549 339.263 894.566 339.443 894.573 339.543L894.569 339.582C894.705 341.852 894.252 344.09 893.232 346.12C893.225 346.178 893.179 346.232 893.155 346.268L893.145 346.346C893.145 346.346 893.048 346.492 893 346.565C892.149 348.181 891.015 349.524 889.762 350.557C887.619 352.389 885.207 353.358 882.867 353.585L882.789 353.575C882.687 353.602 882.565 353.627 882.446 353.632L882.309 353.615C882.309 353.615 882.185 353.659 882.127 353.652C882.127 353.652 881.988 353.655 881.927 353.667C881.648 353.692 881.489 353.692 881.47 353.69C881.231 353.7 881.093 353.703 880.857 353.694L880.701 353.675C880.701 353.675 880.501 353.69 880.384 353.675L880.131 353.644C879.951 353.662 879.718 353.633 879.523 353.609C879.523 353.609 879.484 353.604 879.464 353.602L879.348 353.588C879.153 353.564 879.036 353.549 878.841 353.525L878.783 353.518C878.666 353.504 878.53 353.487 878.396 353.451C878.337 353.444 878.298 353.439 878.24 353.432C878.182 353.425 878.123 353.417 878.065 353.41C878.006 353.403 877.928 353.393 877.872 353.367C877.624 353.297 877.376 353.227 877.147 353.159C875.834 352.741 874.869 352.227 874.316 351.902L874.204 351.849C874.058 351.752 873.929 351.677 873.782 351.58L873.653 351.505C873.488 351.405 873.215 351.213 872.927 350.98C872.366 350.556 871.849 350.097 871.413 349.628C871.342 349.56 871.274 349.473 871.203 349.405C871.149 349.359 871.098 349.293 871.047 349.227C870.037 348.115 869.399 347.028 868.976 346.126C868.947 346.044 868.915 345.981 868.883 345.917L868.888 345.878C868.495 345.059 868.237 344.256 868.051 343.522L868.055 343.483L868.153 343.495Z" fill="url(#paint0_radial_79_2055)"/>
<defs>
<radialGradient id="paint0_radial_79_2055" cx="0" cy="0" r="1" gradientUnits="userSpaceOnUse" gradientTransform="translate(880.278 341.662) rotate(7) scale(15.3236 15.3245)">
<stop offset="0.69" stop-color="#FFC13B"/>
<stop offset="0.75" stop-color="#FFC23F"/>
<stop offset="0.81" stop-color="#FFC84B"/>
<stop offset="0.87" stop-color="#FFD160"/>
<stop offset="0.93" stop-color="#FFDE7D"/>
<stop offset="0.99" stop-color="#FFEEA3"/>
<stop offset="1" stop-color="#FFF0A7"/>
</radialGradient>
</defs>
</svg>
