<svg width="1645" height="1221" viewBox="0 0 1645 1221" fill="none" xmlns="http://www.w3.org/2000/svg">
<g clip-path="url(#clip0_79_2055)">
<path d="M1676.31 302.087C1533.39 291.538 1463.51 341.929 1400.54 397.951C1393.72 403.994 1387.13 410.064 1380.48 415.91C1334 456.857 1287.8 490.98 1220.52 510.909C1182.03 522.315 1139.43 524.557 1096.37 524.924C1069.66 525.163 1042.65 524.555 1016.27 524.676C952.79 525.007 887.653 528.891 829.216 552.259C807.182 561.059 786.535 572.401 766.624 585.317C715.372 618.602 669.447 662.425 615.03 690.082C608.221 693.536 601.302 696.759 594.241 699.687C535.775 723.941 470.761 727.306 406.955 725.659C401.871 725.529 396.791 725.36 391.714 725.172C325.461 722.691 258.498 716.485 192.294 725.832C189.779 726.195 187.283 726.561 184.762 726.963C116.058 738 46.7852 769.447 7.75258 827.817L0.706753 787.315C38.111 726.591 105.901 690.157 175.066 672.792C244.231 655.426 316.274 654.546 387.345 648.861C458.436 643.178 531.058 631.95 592.919 596.469C676.576 548.502 732.249 461.02 816.634 414.367C874.086 382.595 940.606 372.12 1005.76 364.088C1076.23 355.383 1153.35 350.362 1216.6 315.347C1295.64 271.598 1338.59 205.15 1384.56 131.5C1436.83 47.791 1492.89 -22.4241 1653.33 7.15996L1676.24 302.119L1676.31 302.087Z" fill="url(#paint0_linear_79_2055)"/>
</g>
<defs>
<linearGradient id="paint0_linear_79_2055" x1="-33.1883" y1="670.054" x2="1649.85" y2="184.029" gradientUnits="userSpaceOnUse">
<stop stop-color="#FC8683"/>
<stop offset="0.44" stop-color="#ED6662"/>
<stop offset="1" stop-color="#D93933"/>
</linearGradient>
<clipPath id="clip0_79_2055">
<rect width="1645" height="1221" fill="white"/>
</clipPath>
</defs>
</svg>
