<svg width="202" height="202" viewBox="0 0 202 202" fill="none" xmlns="http://www.w3.org/2000/svg">
<path d="M190.903 107.505C190.903 107.505 190.923 107.349 190.933 107.272C190.986 106.863 191.164 104.393 191.142 100.711C191.145 100.375 191.127 100.056 191.128 99.7397C191.127 99.2846 191.111 98.7881 191.096 98.2915C190.745 86.3771 188.029 74.8518 183.294 64.274L183.265 64.1912C182.74 63.036 182.213 61.9001 181.645 60.7788C178.937 55.3671 175.697 50.2433 171.935 45.4879C170.188 43.2262 167.999 40.71 166.072 38.7617C164.782 37.4093 163.426 36.1076 162.045 34.8425C161.975 34.7742 161.904 34.7058 161.854 34.64L161.677 34.4788C161.446 34.2712 161.198 34.0415 160.968 33.8339C160.082 33.0279 159.099 32.2095 158.043 31.3421L157.917 31.2468C157.398 30.8241 156.876 30.4208 156.317 29.9931C156.065 29.8025 155.812 29.6118 155.56 29.4212C155.344 29.255 155.147 29.0913 154.909 28.9421C154.727 28.8198 154.565 28.7001 154.385 28.5583C151.129 26.1823 147.71 24.0029 144.102 22.0565C143.179 21.5424 142.455 21.1726 142.027 20.9595L141.376 20.6386L140.744 20.3201L140.652 20.2688L140.504 20.1904C140.188 20.0312 139.758 19.8375 139.442 19.6783L139.294 19.6C139.294 19.6 139.201 19.5485 139.145 19.5216L138.416 19.1907C138.137 19.056 137.743 18.8868 137.461 18.7715L136.637 18.4087C136.487 18.3498 136.319 18.2689 136.168 18.2101L136.037 18.1536L135.867 18.0922L135.605 17.9794L134.683 17.6041C134.457 17.5158 134.156 17.398 133.91 17.3072C133.665 17.2164 133.419 17.1255 133.176 17.0152L133.137 17.0102C132.987 16.9513 132.817 16.8899 132.666 16.831C132.384 16.7157 132.044 16.593 131.759 16.4971L131.115 16.276C130.831 16.1802 130.546 16.0844 130.245 15.9666L130.094 15.9077C129.885 15.8413 129.659 15.7529 129.43 15.6841L129.051 15.5563L128.577 15.3967L128.499 15.3867L128.329 15.3252C128.329 15.3252 128.159 15.2638 128.062 15.2513C127.833 15.1825 127.585 15.1111 127.357 15.0422C127.203 15.0028 127.033 14.9414 126.9 14.9045C126.632 14.8306 126.384 14.7593 126.117 14.6854L125.448 14.5007C125.331 14.4858 125.18 14.4268 125.047 14.3899C124.835 14.343 124.646 14.2791 124.434 14.2322C124.222 14.1853 124.033 14.1213 123.841 14.0769C123.515 13.9955 123.189 13.9142 122.863 13.8328L121.961 13.6182C121.864 13.6057 121.769 13.5738 121.674 13.5418L121.616 13.5343C121.368 13.463 121.078 13.4061 120.789 13.3492C120.385 13.2579 119.962 13.164 119.556 13.0922C119.266 13.0353 118.977 12.9784 118.709 12.9045C118.381 12.8426 118.072 12.7832 117.763 12.7238C117.433 12.6813 117.107 12.6 116.759 12.5357C116.545 12.5082 116.35 12.4832 116.139 12.4363L115.574 12.3639C115.443 12.3075 115.285 12.307 115.151 12.27C114.995 12.2501 114.84 12.2301 114.684 12.2101C112.899 11.9416 111.106 11.7314 109.308 11.5602C108.899 11.5077 108.524 11.4992 108.155 11.4517C107.743 11.4188 107.352 11.3884 106.941 11.3554C106.688 11.323 106.43 11.3295 106.235 11.3045C105.646 11.2686 105.074 11.2545 104.505 11.221C104.31 11.1961 104.111 11.2101 103.894 11.2021C103.067 11.1751 102.256 11.1701 101.485 11.1701C101.11 11.1616 100.733 11.1725 100.378 11.1665C100.378 11.1665 100.219 11.1659 100.139 11.1754C99.5258 11.1759 98.9684 11.2033 98.433 11.2138C97.9949 11.2367 97.5592 11.2401 97.1211 11.2631C96.1256 11.3134 95.3491 11.3524 94.8282 11.4043C92.1919 11.6003 89.5601 11.9155 86.9354 12.3306C85.3819 12.5665 83.9842 12.8225 82.2526 13.2136C75.0684 14.7847 68.0492 17.2277 61.3728 20.5454C60.7146 20.8962 60.0394 21.2251 59.3812 21.5759C59.2958 21.6243 59.2105 21.6726 59.1252 21.721C57.9794 22.3258 56.8506 22.9526 55.7363 23.6208C55.651 23.6692 55.5656 23.7176 55.4584 23.7829L55.3536 23.8288C55.3536 23.8288 55.2902 23.8603 55.2682 23.8772C55.2243 23.9112 55.1829 23.9256 55.139 23.9595L55.0317 24.025C54.7318 24.2041 54.4099 24.4002 54.11 24.5793C53.4882 24.9545 52.8834 25.3517 52.303 25.7125C51.9787 25.9281 51.6543 26.1437 51.3299 26.3593C50.6593 26.8074 50.0299 27.2409 49.4421 27.6601L49.3568 27.7085L49.2909 27.7594C49.1592 27.8612 49.008 27.9606 48.8762 28.0624C45.7832 30.2769 43.8505 31.9281 43.7357 32.0519C42.7621 32.8568 41.8005 33.7225 40.8363 34.6077C40.1432 35.231 39.4475 35.8737 38.7249 36.5723C38.6785 36.6257 38.6127 36.6767 38.5687 36.7106L38.4564 36.8149C37.0112 38.2121 35.4802 39.8159 33.7874 41.7551L33.7435 41.789L33.6996 41.8229L33.6288 41.9128C32.8617 42.8036 32.0408 43.806 31.2318 44.8694C30.5232 45.7676 29.8146 46.6658 29.2012 47.4378L27.1057 50.5123C26.4235 51.5128 25.7658 52.4769 25.1569 53.3682C24.0296 55.0633 22.7495 57.3324 21.5028 59.8035L21.4978 59.8425C20.4154 61.9588 19.3738 64.219 18.437 66.4331L18.427 66.5109C18.427 66.5109 18.3806 66.5643 18.3562 66.6007C17.1594 69.4541 16.1382 72.1719 15.5473 74.3117C13.3042 82.3919 13.1195 83.0606 12.3428 88.5001C11.3643 95.3577 11.4359 100.352 11.4841 102.752C11.586 109.669 12.5592 115.036 12.8845 116.819C14.0153 123.116 15.2566 126.856 16.4545 130.472C17.1944 132.723 17.805 134.285 18.5998 136.108C19.5418 138.325 20.6225 140.541 21.7836 142.747C21.9068 143.02 22.052 143.276 22.1753 143.549C23.3069 145.831 25.0667 148.767 26.5396 150.855C27.6468 152.401 29.0614 154.482 30.2125 155.995C31.3661 157.488 32.9173 159.428 34.2222 160.822C35.6213 162.406 36.2106 163.055 37.5473 164.354C39.175 166.007 40.8321 167.584 42.5236 169.048L42.5431 169.05C43.094 169.536 43.6473 170.003 44.2007 170.469C44.8634 171.009 45.509 171.527 46.1038 171.98C46.4097 172.217 46.8613 172.551 47.3493 172.911L47.5848 173.079C48.1092 173.463 48.7065 173.896 49.3961 174.38C49.5418 174.478 49.685 174.595 49.8502 174.695C51.8656 176.101 54.4204 177.774 57.2626 179.365C57.8893 179.722 58.7396 180.188 59.7601 180.714C60.037 180.868 60.3334 181.025 60.6103 181.179L62.1168 181.926C62.4326 182.086 62.8628 182.279 63.1786 182.439L63.5529 182.605L63.6307 182.615L64.1871 182.904C64.4665 183.039 64.8602 183.208 65.1421 183.323L66.0778 183.74L66.1556 183.75C69.8277 185.349 73.4085 186.58 76.8441 187.554L77.1674 187.655C77.4544 187.731 77.7972 187.835 78.1425 187.919L78.2398 187.931C78.5242 188.027 78.8306 188.106 79.0786 188.177L81.0167 188.643C81.88 188.853 83.0571 189.083 83.9423 189.276C84.7522 189.439 85.7373 189.625 86.6884 189.766L86.7273 189.771C87.2138 189.834 87.6564 189.93 88.0846 189.985C89.3081 190.162 90.9453 190.352 92.1713 190.509C93.4363 190.672 95.1275 190.75 96.383 190.832C99.0816 190.921 102.695 190.969 105.399 190.861C107.505 190.794 110.324 190.563 112.42 190.258C112.943 190.186 113.511 190.081 114.076 189.995C115.731 189.733 117.431 189.437 118.865 189.205L120.558 188.809C121.9 188.526 123.247 188.204 124.576 187.86L125.249 187.709C126.8 187.335 128.7 186.708 130.42 186.098C131.144 185.854 131.89 185.594 132.596 185.328C134.545 184.629 137.004 183.658 138.781 182.759C138.844 182.727 138.908 182.696 138.971 182.664C140.611 181.905 142.24 181.085 143.856 180.205C144.195 180.031 144.556 179.839 144.892 179.685L146.672 178.607C147.143 178.331 147.616 178.036 148.086 177.76L150.766 176.145C151.795 175.526 153.656 174.281 156.43 172.084C156.474 172.051 156.518 172.017 156.581 171.985L156.847 171.762C158.301 170.603 159.941 169.231 161.881 167.522C161.925 167.488 161.972 167.434 162.016 167.4C163.912 165.725 167.117 162.634 170.731 158.211L170.824 158.105C171.647 157.083 172.497 156.005 173.358 154.849C173.72 154.342 174.098 153.856 174.463 153.329C174.969 152.623 175.475 151.916 175.893 151.277C176.018 151.076 176.164 150.857 176.311 150.638C177.047 149.526 177.769 148.372 178.479 147.158C179.482 145.506 180.429 143.827 181.152 142.357C182.442 139.852 183.653 137.198 184.786 134.376C185.502 132.648 186.141 130.91 186.645 129.293C187.227 127.528 187.756 125.717 188.254 123.842C188.367 123.421 188.481 123.001 188.572 122.597C189.193 120.065 189.708 117.441 190.138 114.707C190.15 114.609 190.163 114.512 190.175 114.415L190.2 114.22C190.516 112.065 190.759 109.861 190.93 107.608L190.903 107.505Z" fill="url(#paint0_radial_40_637)"/>
<path d="M188.1 76.9182C187.978 76.3288 187.817 75.7345 187.656 75.1401C187.8 75.7125 187.942 76.3044 188.1 76.9182Z" fill="url(#paint1_linear_40_637)"/>
<path d="M10.7292 104.317C10.6993 103.779 10.6668 103.26 10.6294 102.781C10.6423 103.297 10.6748 103.815 10.7292 104.317Z" fill="url(#paint2_linear_40_637)"/>
<path d="M139.326 89.06C141.657 85.3827 145.573 79.2183 139.472 76.2004C139.02 76.0237 138.439 75.7711 132.893 74.1301C128.977 81.8375 124.534 90.5654 115.395 90.7187C103.621 90.9097 92.6473 86.3964 81.1508 84.8823C71.4617 83.6197 61.5898 84.7077 51.9642 82.6422C46.8813 81.5551 45.1086 77.3318 44.5813 75.5826C44.5259 75.3975 43.2622 71.0613 43.9373 62.4041C23.8593 64.1019 38.6163 96.7958 51.0723 107.948C80.7405 134.503 123.145 114.502 139.309 89.038" fill="#412121"/>
<path d="M132.893 74.13C128.977 81.8374 124.534 90.5653 115.395 90.7186C103.621 90.9097 92.6472 86.3963 81.1508 84.8822C71.4616 83.6197 61.5898 84.7076 51.9641 82.6422C46.8813 81.555 45.1086 77.3317 44.5812 75.5826C44.5258 75.3974 43.2621 71.0613 43.9373 62.404C83.0091 59.4431 124.884 71.6389 132.873 74.1275" fill="white"/>
<path d="M77.2158 33.3588C76.8635 33.9467 76.0315 35.3435 73.3733 36.3279C65.1305 39.3656 58.0305 41.9762 47.5415 48.801C45.1297 50.3314 43.4231 49.7566 43.8829 47.5603C44.9136 42.6085 57.4221 36.6954 67.7198 32.5958C63.441 30.4842 61.4874 29.5216 57.2944 27.9749C56.1702 27.1778 60.3121 24.1879 63.362 23.2339C65.4908 22.676 75.6738 27.8 77.6977 28.8311C78.6667 29.45 78.8179 30.1222 78.2689 31.3179C77.9066 31.9836 77.5417 32.6687 77.1964 33.3564" fill="#412121"/>
<path d="M143.754 60.7061C142.724 62.4138 140.267 62.7514 138.281 61.4284C137.771 61.0861 137.506 60.8346 137.259 60.605C130.126 53.5972 125.077 48.8547 115.122 41.8014C113.615 40.5991 113.153 39.5706 113.498 38.1114C113.749 37.3918 113.975 36.7087 114.221 36.028C115.792 32.5698 132.546 32.879 142.394 33.3705C143.077 33.4384 143.517 33.5542 144.266 33.8875C147.811 35.7072 148.539 38.669 146.957 39.4354C146.661 39.5821 144.561 39.603 140.658 39.498C138.668 39.4405 133.997 39.4548 125.088 40.1321C131.582 45.1786 135.163 47.9524 142.622 55.3384C144.906 58.0448 144.16 60.0065 143.732 60.7231" fill="#412121"/>
<defs>
<radialGradient id="paint0_radial_40_637" cx="0" cy="0" r="1" gradientUnits="userSpaceOnUse" gradientTransform="translate(104.557 115.947) rotate(7.07887) scale(103.263 103.269)">
<stop stop-color="#F79F40"/>
<stop offset="0.16" stop-color="#F7A442"/>
<stop offset="0.37" stop-color="#F8B449"/>
<stop offset="0.6" stop-color="#F9CE55"/>
<stop offset="0.77" stop-color="#FBE660"/>
<stop offset="0.91" stop-color="#FBF36F"/>
<stop offset="0.93" stop-color="#FBF672"/>
<stop offset="0.95" stop-color="#FBF676"/>
<stop offset="0.96" stop-color="#FBF782"/>
<stop offset="0.98" stop-color="#FBF897"/>
<stop offset="0.99" stop-color="#FCFAB4"/>
<stop offset="1" stop-color="#FDFBC2"/>
</radialGradient>
<linearGradient id="paint1_linear_40_637" x1="187.481" y1="76.0361" x2="188.142" y2="76.1224" gradientUnits="userSpaceOnUse">
<stop stop-color="#19B79C"/>
<stop offset="0.4" stop-color="#1DBB9D"/>
<stop offset="0.82" stop-color="#29C7A2"/>
<stop offset="1" stop-color="#31CFA6"/>
</linearGradient>
<linearGradient id="paint2_linear_40_637" x1="10.4735" y1="103.563" x2="10.7459" y2="103.598" gradientUnits="userSpaceOnUse">
<stop stop-color="#19B79C"/>
<stop offset="0.4" stop-color="#1DBB9D"/>
<stop offset="0.82" stop-color="#29C7A2"/>
<stop offset="1" stop-color="#31CFA6"/>
</linearGradient>
</defs>
</svg>
