<svg width="1645" height="1221" viewBox="0 0 1645 1221" fill="none" xmlns="http://www.w3.org/2000/svg">
<g clip-path="url(#clip0_79_2055)">
<path d="M1745.05 1186.99C1645.74 1238.13 1524.44 1225.99 1419.5 1187.7C1314.57 1149.41 1220.18 1087.41 1119.84 1038.34C1019.49 989.268 907.451 952.539 797.191 970.374C737.612 980.021 680.82 1005.29 620.591 1008.97C550.743 1013.22 482.644 988.094 418.494 960.113C354.363 932.133 290.445 900.483 221.203 890.459C151.945 880.414 74.3852 896.116 28.9117 949.305L21.8659 908.803C64.1357 855.141 136.37 833.705 204.175 835.309C206.657 835.376 209.118 835.461 211.576 835.565C276.529 838.657 338.646 859.371 400.454 877.774C405.183 879.185 409.934 880.579 414.668 881.951C474.093 899.152 536.026 913.161 596.846 906.118C604.187 905.26 611.483 904.12 618.758 902.661C677.062 891 730.227 859.531 787.036 842.013C809.124 835.196 831.52 830.533 854.339 828.056C914.73 821.455 977.158 830.781 1037.26 845.87C1062.43 852.223 1087.5 859.63 1112.05 867.192C1151.74 879.459 1190.62 892.555 1228.35 902.091C1291.28 917.982 1347.62 928.102 1406.54 930.434C1415.07 930.77 1423.68 930.839 1432.41 930.922C1518.89 931.577 1614.31 919.53 1722.18 892.031L1745.09 1186.99L1745.05 1186.99Z" fill="url(#paint0_linear_79_2055)"/>
</g>
<defs>
<linearGradient id="paint0_linear_79_2055" x1="116.88" y1="1092.58" x2="1855.66" y2="949.165" gradientUnits="userSpaceOnUse">
<stop offset="0.02" stop-color="#62E1FF"/>
<stop offset="0.06" stop-color="#63DCFC"/>
<stop offset="1" stop-color="#7D72C7"/>
</linearGradient>
<clipPath id="clip0_79_2055">
<rect width="1645" height="1221" fill="white"/>
</clipPath>
</defs>
</svg>
