<svg width="1645" height="1221" viewBox="0 0 1645 1221" fill="none" xmlns="http://www.w3.org/2000/svg">
<path d="M827.458 547.259C828.108 546.469 828.739 545.676 829.332 544.879C829.732 544.355 830.111 543.848 830.491 543.321C830.705 543.031 830.899 542.739 831.11 542.468C831.685 541.649 832.221 540.826 832.757 540.002C832.83 539.892 832.903 539.782 832.976 539.673C833.097 539.49 833.177 539.322 833.298 539.139C833.892 538.164 834.467 537.187 835.024 536.188C835.25 535.8 835.439 535.389 835.647 534.979C836.059 534.2 836.452 533.418 836.825 532.633C837.065 532.129 837.307 531.605 837.527 531.098C837.772 530.555 837.997 530.009 838.222 529.464C838.447 528.918 838.653 528.37 838.859 527.822C839.064 527.274 839.27 526.726 839.459 526.156C839.645 525.606 839.811 525.053 839.998 524.502C840.164 523.949 840.331 523.397 840.498 522.844C840.645 522.289 840.792 521.733 840.92 521.176C841.048 520.618 841.195 520.063 841.303 519.503C841.404 519.001 841.508 518.48 841.59 517.976C841.717 517.26 841.823 516.562 841.931 515.844C841.99 515.357 842.05 514.87 842.11 514.383C842.196 513.682 842.246 512.956 842.273 512.248C842.301 511.698 842.346 511.17 842.355 510.617C842.371 510.323 842.366 510.045 842.363 509.748C842.361 508.957 842.34 508.164 842.316 507.39C842.301 507.191 842.308 506.974 842.293 506.775C842.273 506.456 842.214 506.132 842.196 505.794C842.109 504.894 842.019 504.013 841.891 503.127C841.762 502.242 841.612 501.373 841.42 500.519C841.305 500.011 841.167 499.519 841.03 499.028C840.799 498.17 840.549 497.309 840.255 496.482C840.26 496.443 840.226 496.399 840.229 496.38C839.935 495.553 839.617 494.762 839.277 493.989C839.186 493.761 839.074 493.549 838.964 493.318C838.717 492.754 838.426 492.224 838.157 491.677C838.045 491.466 837.932 491.254 837.82 491.043C837.431 490.343 837.004 489.638 836.572 488.972C836.142 488.286 835.666 487.655 835.171 487.021C834.846 486.605 834.521 486.19 834.175 485.791L841.607 494.493C841.882 494.823 842.178 495.156 842.431 495.503C842.483 495.569 842.532 495.654 842.583 495.72C843.059 496.351 843.535 496.983 843.986 497.651C844.436 498.339 844.844 499.042 845.232 499.742C845.281 499.827 845.332 499.892 845.362 499.975C845.425 500.102 845.486 500.247 845.569 500.376C845.86 500.906 846.129 501.453 846.376 502.017C846.437 502.163 846.52 502.292 846.581 502.438C846.611 502.521 846.638 502.623 846.687 502.708C847.027 503.481 847.342 504.291 847.638 505.098C847.638 505.098 847.648 505.178 847.665 505.2C847.959 506.027 848.209 506.888 848.44 507.747C848.465 507.868 848.511 507.973 848.536 508.095C848.627 508.481 848.717 508.868 848.808 509.255C848.978 509.968 849.106 510.695 849.234 511.422C849.256 511.564 849.257 511.722 849.279 511.863C849.407 512.748 849.516 513.632 849.584 514.53C849.611 514.79 849.66 515.033 849.668 515.291C849.659 515.369 849.671 515.43 849.681 515.51C849.696 515.71 849.689 515.926 849.704 516.126C849.747 516.902 849.768 517.696 849.751 518.484C849.754 518.781 849.74 519.056 849.743 519.353C849.734 519.589 849.744 519.828 849.735 520.064C849.718 520.358 849.68 520.67 849.661 520.984C849.614 521.69 849.567 522.396 849.498 523.119C849.438 523.605 849.378 524.092 849.319 524.579C849.233 525.28 849.105 525.996 848.978 526.712C848.942 527.004 848.908 527.277 848.833 527.564C848.807 527.778 848.72 528.005 848.672 528.236C848.564 528.796 848.416 529.351 848.289 529.909C848.161 530.467 848.014 531.022 847.866 531.577C847.719 532.132 847.552 532.685 847.366 533.235C847.199 533.788 847.013 534.339 846.827 534.889C846.641 535.44 846.435 535.988 846.23 536.536C846.024 537.084 845.818 537.632 845.593 538.178C845.368 538.723 845.123 539.266 844.898 539.812C844.758 540.151 844.62 540.47 844.479 540.808C844.397 540.996 844.295 541.181 844.193 541.366C843.82 542.151 843.428 542.933 843.016 543.713C842.807 544.122 842.601 544.512 842.393 544.921C841.857 545.903 841.28 546.9 840.667 547.872C840.57 548.018 840.49 548.187 840.393 548.333L840.344 548.406C840.271 548.516 840.199 548.625 840.126 548.735C839.609 549.561 839.054 550.383 838.479 551.202C838.285 551.494 838.071 551.784 837.86 552.055C837.622 552.381 837.404 552.71 837.166 553.037C837.023 553.237 836.841 553.432 836.698 553.632C836.086 554.427 835.455 555.219 834.824 556.011C834.615 556.262 834.448 556.499 834.239 556.75C834.147 556.857 834.035 556.962 833.941 557.089C833.365 557.75 832.77 558.408 832.176 559.067C831.923 559.352 831.668 559.657 831.396 559.94C831.282 560.064 831.168 560.188 831.035 560.31L823.603 551.609C823.989 551.202 824.355 550.792 824.724 550.363C825.319 549.704 825.914 549.046 826.489 548.385C826.79 548.027 827.072 547.666 827.373 547.308L827.458 547.259Z" fill="url(#paint0_linear_79_2055)"/>
<path d="M822.572 644.693C823.291 644.307 824.013 643.901 824.735 643.496C825.012 643.332 825.308 643.171 825.586 643.007C826.546 642.433 827.486 641.857 828.41 641.258C828.473 641.227 828.519 641.173 828.582 641.141C829.442 640.575 830.286 639.986 831.129 639.398C831.411 639.195 831.693 638.993 831.977 638.771C832.587 638.312 833.194 637.872 833.787 637.392C834.093 637.152 834.38 636.911 834.686 636.672C835.3 636.174 835.915 635.676 836.513 635.156C836.755 634.949 836.998 634.741 837.244 634.514C838.086 633.768 838.932 633.002 839.738 632.231C839.85 632.126 839.964 632.002 840.078 631.877C840.819 631.158 841.54 630.436 842.244 629.692C842.47 629.463 842.676 629.231 842.904 628.982C843.769 628.061 844.597 627.114 845.405 626.166C846.335 625.035 847.225 623.898 848.077 622.758C848.242 622.541 848.407 622.324 848.572 622.107C848.858 621.707 849.147 621.288 849.433 620.888C849.673 620.542 849.935 620.179 850.176 619.832C850.464 619.413 850.734 618.992 851.003 618.57C851.221 618.241 851.439 617.912 851.638 617.58C852.305 616.496 852.933 615.407 853.542 614.315C853.67 614.074 853.798 613.833 853.925 613.611C854.518 612.478 855.112 611.345 855.63 610.183L855.635 610.144C856.086 609.211 856.48 608.251 856.853 607.308C856.967 607.026 857.083 606.724 857.197 606.441C857.463 605.723 857.729 605.004 857.973 604.303C858.068 604.018 858.184 603.716 858.259 603.428C858.573 602.478 858.851 601.504 859.107 600.547L859.114 600.489C859.391 599.515 859.611 598.533 859.811 597.55C859.861 597.299 859.912 597.048 859.962 596.797C860.167 595.775 860.333 594.747 860.459 593.715C860.476 593.579 860.493 593.442 860.51 593.306C860.646 592.196 860.724 591.079 860.782 589.959C860.806 589.606 860.807 589.27 860.829 588.937C860.837 588.543 860.846 588.148 860.836 587.752C860.828 587.335 860.817 586.939 860.806 586.542C860.796 586.145 860.783 585.768 860.753 585.369C860.73 585.07 860.708 584.77 860.685 584.471C860.59 583.313 860.473 582.172 860.276 581.04C860.153 580.274 860.007 579.525 859.84 578.793C859.725 578.284 859.59 577.773 859.453 577.282C859.222 576.423 858.972 575.562 858.676 574.755C858.68 574.716 858.646 574.672 858.649 574.653C858.355 573.826 858.037 573.036 857.697 572.263C857.606 572.034 857.494 571.823 857.384 571.592C857.117 571.025 856.848 570.478 856.558 569.948C856.445 569.737 856.333 569.525 856.22 569.314C855.832 568.614 855.405 567.909 854.972 567.243C854.523 566.555 854.047 565.923 853.571 565.292C853.247 564.876 852.922 564.461 852.576 564.062L860.007 572.764C860.303 573.097 860.576 573.446 860.852 573.777C860.903 573.842 860.952 573.928 861.003 573.993C861.479 574.625 861.955 575.257 862.407 575.925C862.836 576.61 863.264 577.315 863.652 578.015C863.701 578.1 863.752 578.166 863.782 578.249C863.865 578.377 863.906 578.521 863.987 578.669C864.278 579.199 864.547 579.746 864.794 580.31C864.855 580.456 864.938 580.585 864.999 580.731C865.028 580.813 865.075 580.918 865.104 581.001C865.444 581.774 865.76 582.584 866.056 583.391C866.056 583.391 866.066 583.471 866.083 583.493C866.377 584.32 866.627 585.181 866.858 586.04C866.882 586.161 866.929 586.266 866.953 586.387C867.044 586.774 867.155 587.163 867.246 587.55C867.413 588.282 867.56 589.012 867.686 589.759L867.681 589.798C867.878 590.929 867.995 592.07 868.09 593.229C868.093 593.367 868.118 593.489 868.142 593.611C868.16 593.791 868.16 593.949 868.158 594.127C868.19 594.506 868.201 594.903 868.211 595.3C868.22 595.716 868.23 596.112 868.238 596.529C868.23 596.923 868.24 597.32 868.231 597.714C868.224 597.93 868.235 598.169 868.228 598.386C868.214 598.502 868.197 598.639 868.183 598.756C868.124 599.875 868.049 600.973 867.91 602.103C867.893 602.239 867.876 602.375 867.857 602.531C867.731 603.563 867.565 604.591 867.36 605.613C867.341 605.769 867.324 605.905 867.305 606.061C867.291 606.178 867.259 606.273 867.226 606.388C867.026 607.371 866.806 608.352 866.548 609.329L866.541 609.387C866.285 610.345 865.99 611.297 865.674 612.266C865.579 612.551 865.483 612.855 865.369 613.138C865.122 613.859 864.858 614.558 864.592 615.277C864.479 615.559 864.362 615.861 864.249 616.144C863.876 617.086 863.464 618.024 863.053 618.962L863.045 619.021C862.508 620.18 861.933 621.316 861.34 622.449C861.211 622.69 861.083 622.931 860.954 623.172C860.346 624.264 859.718 625.353 859.051 626.438C859.024 626.494 858.976 626.567 858.949 626.623C858.777 626.898 858.585 627.171 858.411 627.466C858.141 627.888 857.872 628.309 857.605 628.712C857.363 629.077 857.123 629.423 856.861 629.787C856.574 630.186 856.286 630.606 855.999 631.005C855.927 631.115 855.856 631.205 855.783 631.315C855.691 631.422 855.597 631.549 855.504 631.656C854.65 632.817 853.759 633.953 852.832 635.064C852.022 636.032 851.177 636.957 850.31 637.898C850.196 638.022 850.104 638.13 849.989 638.254C849.875 638.378 849.764 638.483 849.65 638.608C848.945 639.352 848.224 640.074 847.483 640.793C847.394 640.881 847.304 640.969 847.211 641.076C847.19 641.093 847.165 641.13 847.143 641.147C846.337 641.918 845.492 642.684 844.649 643.43C844.581 643.501 844.516 643.552 844.448 643.623C844.27 643.779 844.095 643.916 843.918 644.072C843.32 644.592 842.725 645.092 842.111 645.59C841.958 645.709 841.824 645.831 841.671 645.951C841.518 646.07 841.365 646.19 841.212 646.31C840.621 646.771 840.012 647.23 839.424 647.672C839.227 647.825 839.03 647.979 838.836 648.113C838.748 648.182 838.663 648.231 838.576 648.299C837.752 648.89 836.889 649.476 836.029 650.042C835.985 650.076 835.922 650.108 835.878 650.142C834.952 650.76 834.012 651.336 833.052 651.91C832.967 651.959 832.882 652.008 832.794 652.077C832.602 652.191 832.391 652.304 832.179 652.416C831.477 652.824 830.755 653.23 830.016 653.614C829.846 653.711 829.676 653.809 829.506 653.907C829.357 653.987 829.189 654.065 829.044 654.127C828.178 654.574 827.296 654.999 826.394 655.422C826.226 655.501 826.078 655.581 825.929 655.662L825.616 655.801C824.32 656.374 823.048 656.909 821.781 657.406C821.616 657.465 821.468 657.546 821.303 657.605C821.074 657.695 820.848 657.766 820.619 657.857C820.184 658.021 819.729 658.182 819.294 658.346C818.817 658.525 818.343 658.684 817.849 658.841C817.417 658.986 816.964 659.128 816.531 659.272C816.305 659.343 816.079 659.414 815.853 659.486C815.668 659.542 815.483 659.598 815.279 659.652C814.52 659.875 813.761 660.098 813.005 660.302C812.679 660.381 812.37 660.481 812.044 660.56C810.984 660.825 809.945 661.073 808.911 661.282L808.872 661.277C808.872 661.277 808.809 661.309 808.77 661.304C807.493 661.563 806.24 661.785 804.973 661.965C804.71 662.012 804.45 662.039 804.206 662.088C802.958 662.271 801.715 662.415 800.496 662.522C800.255 662.552 800.036 662.565 799.798 662.575C798.639 662.67 797.484 662.746 796.333 662.782C796.194 662.785 796.075 662.79 795.936 662.793C794.707 662.82 793.5 662.83 792.298 662.801C792.042 662.789 791.784 662.797 791.529 662.785C790.346 662.759 789.148 662.691 787.992 662.608C787.836 662.589 787.681 662.57 787.525 662.551C786.429 662.456 785.354 662.363 784.282 662.232C784.088 662.208 783.874 662.182 783.679 662.158C782.53 662.017 781.405 661.839 780.28 661.661C780.047 661.633 779.815 661.584 779.565 661.534C778.423 661.334 777.283 661.115 776.166 660.879L776.107 660.872C774.992 660.617 773.897 660.363 772.803 660.091C772.572 660.043 772.363 659.977 772.131 659.929C771.057 659.659 770.008 659.352 768.978 659.048C768.788 658.985 768.598 658.922 768.386 658.876C767.414 658.579 766.443 658.282 765.473 657.965C765.359 657.931 765.245 657.898 765.113 657.842C764.088 657.499 763.065 657.136 762.061 656.775C761.854 656.69 761.625 656.623 761.418 656.538C760.434 656.18 759.453 655.803 758.474 655.406C758.362 655.352 758.228 655.316 758.116 655.263C757.212 654.895 756.308 654.527 755.424 654.161C755.256 654.081 755.085 654.021 754.934 653.963C753.994 653.571 753.095 653.164 752.177 652.754C751.97 652.67 751.785 652.568 751.578 652.483C750.659 652.074 749.763 651.647 748.864 651.241C735.258 644.845 724.318 637.67 723.112 636.87L699.159 621.039L691.728 612.338L715.68 628.168C716.886 628.969 727.826 636.144 741.432 642.539C742.309 642.963 743.227 643.372 744.146 643.782C744.353 643.866 744.538 643.968 744.745 644.053C745.644 644.46 746.565 644.85 747.503 645.261C747.671 645.341 747.822 645.399 747.992 645.46C748.876 645.825 749.778 646.213 750.684 646.561C750.796 646.615 750.93 646.651 751.042 646.704C752.004 647.079 752.986 647.457 753.987 647.837C754.194 647.921 754.423 647.989 754.63 648.074C755.633 648.434 756.656 648.797 757.681 649.14C757.796 649.174 757.91 649.208 758.025 649.242C758.994 649.559 759.963 649.875 760.954 650.175C761.144 650.238 761.334 650.301 761.527 650.344C762.576 650.651 763.628 650.938 764.699 651.228C764.911 651.274 765.14 651.341 765.352 651.387C766.445 651.66 767.539 651.932 768.656 652.168L768.715 652.175C769.83 652.431 770.972 652.63 772.113 652.83C772.347 652.859 772.578 652.907 772.81 652.955C773.934 653.133 775.059 653.31 776.208 653.451C776.403 653.475 776.598 653.499 776.792 653.523C777.863 653.655 778.956 653.769 780.054 653.845C780.21 653.864 780.366 653.883 780.521 653.902C781.697 653.987 782.877 654.033 784.077 654.082C784.333 654.093 784.591 654.085 784.846 654.097C786.049 654.126 787.256 654.116 788.485 654.089C788.623 654.086 788.743 654.081 788.881 654.078C790.032 654.042 791.188 653.966 792.346 653.871C792.585 653.861 792.806 653.829 793.045 653.819C794.264 653.711 795.507 653.567 796.755 653.384C797.015 653.357 797.278 653.31 797.521 653.261C798.769 653.078 800.042 652.859 801.319 652.601C801.358 652.605 801.399 652.591 801.46 652.578C802.494 652.369 803.552 652.123 804.612 651.858C804.919 651.777 805.245 651.699 805.551 651.618C806.308 651.414 807.064 651.211 807.845 650.97C808.256 650.843 808.664 650.735 809.078 650.588C809.511 650.443 809.963 650.301 810.396 650.157C810.87 649.997 811.344 649.838 811.821 649.659C812.256 649.495 812.711 649.334 813.146 649.17C813.54 649.021 813.914 648.869 814.308 648.72C815.575 648.223 816.866 647.689 818.162 647.117C818.434 646.992 818.687 646.865 818.96 646.74C819.862 646.317 820.744 645.892 821.609 645.445C821.947 645.269 822.263 645.11 822.601 644.934L822.572 644.693Z" fill="url(#paint1_linear_79_2055)"/>
<path d="M859.886 578.739C856.033 561.66 841.648 551.788 823.688 551.56C837.78 536.764 845.17 517.309 841.381 500.514C835.801 475.77 808.061 466.157 779.413 479.067C748.549 492.971 730.777 522.439 718.744 546.543C710.515 563.008 704.789 577.923 704.153 579.564L691.754 612.124L715.706 627.954C716.912 628.754 727.852 635.93 741.458 642.325C761.232 651.613 787.812 660.53 818.152 646.878C846.797 633.987 865.469 603.464 859.886 578.739V578.739Z" fill="url(#paint2_linear_79_2055)"/>
<path style="mix-blend-mode:overlay" d="M859.886 578.739C856.033 561.66 841.648 551.788 823.688 551.56C837.78 536.764 845.17 517.309 841.381 500.514C835.801 475.77 808.061 466.157 779.413 479.067C748.549 492.971 730.777 522.439 718.744 546.543C710.515 563.008 704.789 577.923 704.153 579.564L691.754 612.124L715.706 627.954C716.912 628.754 727.852 635.93 741.458 642.325C761.232 651.613 787.812 660.53 818.152 646.878C846.797 633.987 865.469 603.464 859.886 578.739V578.739ZM817.511 645.495C787.755 658.902 761.574 650.113 742.1 640.961C728.01 634.328 716.662 626.767 716.533 626.691L693.607 611.521L705.57 580.094C707.056 576.204 712.529 562.385 720.084 547.221C732.012 523.322 749.61 494.149 780.015 480.446C795.351 473.552 810.959 472.977 822.822 478.921C831.724 483.375 837.613 490.958 839.856 500.861C841.453 507.976 841.006 515.967 838.541 523.968C835.622 533.415 830.108 542.582 822.551 550.511C822.391 550.689 822.267 550.891 822.2 551.12C822.098 551.464 822.114 551.821 822.251 552.155C822.478 552.716 823.027 553.08 823.638 553.096C841.498 553.332 854.805 563.288 858.381 579.088C859.978 586.203 859.53 594.194 857.066 602.195C851.423 620.46 836.278 637.065 817.509 645.515L817.511 645.495Z" fill="url(#paint3_linear_79_2055)"/>
<defs>
<linearGradient id="paint0_linear_79_2055" x1="856.357" y1="495.443" x2="815.566" y2="542.833" gradientUnits="userSpaceOnUse">
<stop offset="0.12" stop-color="#FF6560"/>
<stop offset="0.16" stop-color="#FA605A"/>
<stop offset="0.21" stop-color="#EE514C"/>
<stop offset="0.27" stop-color="#D93933"/>
<stop offset="1" stop-color="#9E1D17"/>
</linearGradient>
<linearGradient id="paint1_linear_79_2055" x1="713.044" y1="658.502" x2="871.186" y2="573.359" gradientUnits="userSpaceOnUse">
<stop stop-color="#FF6560"/>
<stop offset="0.04" stop-color="#FA605A"/>
<stop offset="0.08" stop-color="#EE514C"/>
<stop offset="0.11" stop-color="#DA3A34"/>
<stop offset="0.12" stop-color="#D93933"/>
<stop offset="0.16" stop-color="#CA322C"/>
<stop offset="0.26" stop-color="#B1261F"/>
<stop offset="0.35" stop-color="#A21F18"/>
<stop offset="0.42" stop-color="#9D1D16"/>
<stop offset="0.86" stop-color="#AC1F18"/>
<stop offset="0.88" stop-color="#B2241D"/>
<stop offset="0.91" stop-color="#C6342E"/>
<stop offset="0.94" stop-color="#E54F49"/>
<stop offset="0.96" stop-color="#FF6560"/>
</linearGradient>
<linearGradient id="paint2_linear_79_2055" x1="706.567" y1="523.275" x2="861.984" y2="598.437" gradientUnits="userSpaceOnUse">
<stop stop-color="#FCA690"/>
<stop offset="0.33" stop-color="#F18574"/>
<stop offset="1" stop-color="#D93933"/>
</linearGradient>
<linearGradient id="paint3_linear_79_2055" x1="853.742" y1="540.011" x2="667.573" y2="617.769" gradientUnits="userSpaceOnUse">
<stop stop-color="white"/>
<stop offset="0.02" stop-color="white" stop-opacity="0.97"/>
<stop offset="0.5" stop-color="white" stop-opacity="0.46"/>
<stop offset="0.82" stop-color="white" stop-opacity="0.13"/>
<stop offset="0.97" stop-color="white" stop-opacity="0"/>
</linearGradient>
</defs>
</svg>
