<svg width="1484" height="560" viewBox="0 0 1484 560" fill="none" xmlns="http://www.w3.org/2000/svg">
<path d="M1693.38 296.868C1567.94 304.656 1484.95 334.961 1410.25 362.729C1402.46 365.627 1394.84 368.626 1387.25 371.352C1334.41 390.312 1283.13 402.309 1218 403.768C1179.89 404.617 1139.19 398.862 1097.82 392.687C1072.22 388.888 1046.19 384.738 1020.43 381.475C958.695 373.774 894.919 370.698 835.416 385.36C812.948 390.886 791.404 398.766 770.351 408.529C716.192 433.649 666.438 471.007 609.972 490.371C602.916 492.79 595.796 494.943 588.596 496.789C528.869 512.116 465.425 506.451 403.871 496.696C398.967 495.909 394.066 495.103 389.167 494.276C325.193 483.499 260.736 469.693 195.143 472.457C192.658 472.554 190.168 472.689 187.675 472.844C119.405 477.204 48.4928 503.242 7.54999 559.039L0.72262 518.5C40.0693 460.342 109.508 429.288 178.273 418.602C180.776 418.211 183.296 417.842 185.811 417.511C252.067 408.502 318.993 415.088 385.232 417.926C390.308 418.142 395.386 418.338 400.47 418.496C464.266 420.486 529.278 417.47 587.894 393.534C594.97 390.643 601.904 387.477 608.734 384.041C663.299 356.677 709.459 313.102 760.891 280.095C780.873 267.267 801.578 256.055 823.66 247.374C882.222 224.322 947.379 220.789 1010.86 220.8C1037.24 220.841 1064.24 221.594 1090.96 221.48C1134.02 221.346 1176.63 219.333 1215.18 208.135C1282.57 188.569 1328.93 154.693 1375.65 113.999C1382.33 108.189 1388.96 102.155 1395.8 96.1486C1459.08 40.4863 1529.23 -9.54644 1672.09 1.7729L1693.4 296.851L1693.38 296.868Z" fill="url(#paint0_linear_40_377)"/>
<defs>
<linearGradient id="paint0_linear_40_377" x1="1.46478" y1="459.505" x2="1602.19" y2="170.11" gradientUnits="userSpaceOnUse">
<stop offset="0.18" stop-color="#FFFF54"/>
<stop offset="1" stop-color="#F19623"/>
</linearGradient>
</defs>
</svg>
